<svg width="1007" height="1007" viewBox="0 0 1007 1007" fill="none" xmlns="http://www.w3.org/2000/svg">
<path d="M427.473 102.52L102.424 427.569C60.7645 469.228 60.7644 536.772 102.424 578.431L427.473 903.48C469.133 945.14 536.676 945.14 578.336 903.48L903.385 578.431C945.044 536.772 945.044 469.228 903.385 427.569L578.336 102.52C536.676 60.8601 469.133 60.8601 427.473 102.52Z" fill="#FF6E6E" stroke="#FF6E6E" stroke-width="60.8215"/>
<path d="M468.376 569.265C460.322 569.265 453.716 568.007 448.556 565.49C443.397 562.847 439.559 559.387 437.042 555.108C434.526 550.83 433.267 546.111 433.267 540.952C433.267 532.269 436.665 525.222 443.46 519.811C450.255 514.4 460.448 511.694 474.038 511.694H497.822V509.429C497.822 503.012 495.997 498.293 492.348 495.273C488.699 492.253 484.168 490.742 478.757 490.742C473.85 490.742 469.571 491.938 465.922 494.329C462.273 496.594 460.008 499.992 459.127 504.522H435.532C436.161 497.726 438.426 491.812 442.327 486.779C446.354 481.745 451.514 477.907 457.805 475.264C464.097 472.496 471.144 471.112 478.946 471.112C492.285 471.112 502.792 474.447 510.468 481.116C518.145 487.785 521.983 497.223 521.983 509.429V567H501.408L499.143 551.899C496.375 556.933 492.474 561.086 487.44 564.357C482.533 567.629 476.178 569.265 468.376 569.265ZM473.85 550.389C480.771 550.389 486.119 548.124 489.894 543.594C493.795 539.064 496.249 533.464 497.256 526.795H476.681C470.263 526.795 465.67 527.99 462.902 530.381C460.133 532.646 458.749 535.478 458.749 538.875C458.749 542.525 460.133 545.356 462.902 547.369C465.67 549.383 469.32 550.389 473.85 550.389ZM558.063 458.843C553.659 458.843 550.009 457.521 547.115 454.879C544.347 452.236 542.963 448.902 542.963 444.875C542.963 440.848 544.347 437.576 547.115 435.059C550.009 432.417 553.659 431.095 558.063 431.095C562.467 431.095 566.054 432.417 568.822 435.059C571.716 437.576 573.164 440.848 573.164 444.875C573.164 448.902 571.716 452.236 568.822 454.879C566.054 457.521 562.467 458.843 558.063 458.843ZM545.983 567V473.377H570.143V567H545.983Z" fill="white"/>
</svg>
