<svg width="1007" height="1007" viewBox="0 0 1007 1007" fill="none" xmlns="http://www.w3.org/2000/svg">
<path d="M427.084 103.668L102.179 428.573C60.5381 470.214 60.5381 537.727 102.179 579.369L427.084 904.274C468.725 945.915 536.239 945.915 577.88 904.274L902.785 579.369C944.426 537.727 944.426 470.214 902.785 428.573L577.88 103.668C536.239 62.0266 468.725 62.0266 427.084 103.668Z" fill="#52BFBF" stroke="#52BFBF" stroke-width="60.7945"/>
<path d="M348.775 569.416C339.216 569.416 330.789 567.341 323.493 563.19C316.198 559.039 310.412 553.253 306.135 545.832C301.985 538.411 299.909 529.921 299.909 520.362C299.909 510.802 301.985 502.312 306.135 494.891C310.412 487.47 316.198 481.684 323.493 477.533C330.789 473.382 339.216 471.307 348.775 471.307C360.725 471.307 370.787 474.451 378.963 480.74C387.139 486.904 392.359 495.457 394.623 506.4H369.152C367.894 501.872 365.379 498.35 361.605 495.834C357.957 493.193 353.618 491.872 348.587 491.872C341.92 491.872 336.26 494.388 331.606 499.419C326.952 504.45 324.625 511.431 324.625 520.362C324.625 529.292 326.952 536.273 331.606 541.304C336.26 546.335 341.92 548.851 348.587 548.851C353.618 548.851 357.957 547.593 361.605 545.078C365.379 542.562 367.894 538.977 369.152 534.323H394.623C392.359 544.889 387.139 553.379 378.963 559.794C370.787 566.209 360.725 569.416 348.775 569.416ZM427.755 608.66L449.453 560.926H443.793L407.379 473.571H433.604L459.83 539.417L487.187 473.571H512.847L453.415 608.66H427.755ZM584.105 569.416C577.061 569.416 570.898 568.096 565.615 565.454C560.332 562.813 556.055 559.102 552.785 554.323L550.144 567.152H528.635V431.308H552.785V486.966C555.804 482.816 559.766 479.168 564.671 476.023C569.703 472.879 576.18 471.307 584.105 471.307C592.909 471.307 600.771 473.445 607.689 477.721C614.607 481.998 620.078 487.847 624.103 495.268C628.128 502.689 630.141 511.117 630.141 520.55C630.141 529.984 628.128 538.411 624.103 545.832C620.078 553.128 614.607 558.914 607.689 563.19C600.771 567.341 592.909 569.416 584.105 569.416ZM579.011 548.285C586.683 548.285 593.035 545.707 598.066 540.549C603.098 535.392 605.613 528.726 605.613 520.55C605.613 512.374 603.098 505.645 598.066 500.362C593.035 495.079 586.683 492.438 579.011 492.438C571.212 492.438 564.797 495.079 559.766 500.362C554.86 505.519 552.408 512.186 552.408 520.362C552.408 528.537 554.86 535.267 559.766 540.549C564.797 545.707 571.212 548.285 579.011 548.285ZM651.714 567.152V473.571H673.223L675.487 491.117C678.883 485.08 683.474 480.3 689.26 476.778C695.172 473.13 702.09 471.307 710.014 471.307V496.777H703.222C697.939 496.777 693.222 497.595 689.072 499.23C684.921 500.865 681.65 503.695 679.261 507.72C676.997 511.745 675.864 517.343 675.864 524.512V567.152H651.714Z" fill="white"/>
</svg>
