<svg width="1007" height="1007" viewBox="0 0 1007 1007" fill="none" xmlns="http://www.w3.org/2000/svg">
<path d="M427.273 102.869L102.224 427.918C60.5643 469.578 60.5642 537.121 102.224 578.781L427.273 903.83C468.932 945.489 536.476 945.49 578.135 903.83L903.185 578.781C944.844 537.121 944.844 469.578 903.185 427.918L578.135 102.869C536.476 61.2097 468.932 61.2097 427.273 102.869Z" fill="#FF94B4" stroke="#FF94B4" stroke-width="60.8215"/>
<path d="M335.684 568.744C326.876 568.744 319.011 566.604 312.09 562.326C305.169 558.047 299.695 552.196 295.668 544.772C291.641 537.347 289.628 528.916 289.628 519.478C289.628 510.04 291.641 501.672 295.668 494.374C299.695 486.949 305.169 481.161 312.09 477.008C319.011 472.73 326.876 470.59 335.684 470.59C342.731 470.59 348.897 471.912 354.182 474.554C359.468 477.197 363.746 480.909 367.018 485.691V430.574H391.179V566.479H369.66L367.018 553.077C363.998 557.229 359.971 560.879 354.938 564.025C350.03 567.171 343.612 568.744 335.684 568.744ZM340.781 547.603C348.583 547.603 354.938 545.023 359.845 539.864C364.879 534.579 367.395 527.846 367.395 519.667C367.395 511.488 364.879 504.818 359.845 499.659C354.938 494.374 348.583 491.731 340.781 491.731C333.105 491.731 326.75 494.311 321.716 499.47C316.683 504.629 314.166 511.299 314.166 519.478C314.166 527.658 316.683 534.39 321.716 539.675C326.75 544.96 333.105 547.603 340.781 547.603ZM454.477 568.744C446.172 568.744 438.873 567.422 432.581 564.78C426.289 562.011 421.256 558.236 417.481 553.454C413.706 548.673 411.441 543.136 410.685 536.844H435.035C435.79 540.493 437.803 543.639 441.075 546.282C444.473 548.798 448.814 550.057 454.099 550.057C459.385 550.057 463.223 548.987 465.614 546.848C468.13 544.709 469.389 542.255 469.389 539.486C469.389 535.46 467.627 532.754 464.104 531.37C460.58 529.86 455.672 528.413 449.381 527.028C445.354 526.148 441.264 525.078 437.111 523.82C432.959 522.561 429.121 520.988 425.597 519.101C422.2 517.087 419.431 514.571 417.292 511.55C415.153 508.405 414.083 504.566 414.083 500.036C414.083 491.731 417.355 484.747 423.898 479.084C430.568 473.422 439.88 470.59 451.834 470.59C462.908 470.59 471.717 473.17 478.26 478.329C484.93 483.489 488.894 490.598 490.152 499.659H467.312C465.928 492.738 460.706 489.277 451.646 489.277C447.115 489.277 443.592 490.158 441.075 491.92C438.684 493.682 437.489 495.884 437.489 498.526C437.489 501.295 439.314 503.497 442.963 505.133C446.612 506.769 451.457 508.279 457.497 509.663C464.041 511.173 470.018 512.872 475.429 514.759C480.966 516.521 485.37 519.227 488.642 522.876C491.914 526.399 493.549 531.496 493.549 538.165C493.675 543.954 492.165 549.176 489.019 553.832C485.873 558.488 481.343 562.137 475.429 564.78C469.515 567.422 462.531 568.744 454.477 568.744ZM554.591 538.543C550.061 538.543 545.846 538.039 541.945 537.033L534.961 544.017C537.1 545.149 539.994 546.093 543.644 546.848C547.293 547.603 553.207 548.358 561.387 549.113C573.845 550.245 582.905 553.203 588.568 557.984C594.23 562.766 597.062 569.373 597.062 577.804C597.062 583.341 595.552 588.563 592.531 593.471C589.511 598.504 584.855 602.531 578.564 605.551C572.272 608.697 564.218 610.27 554.403 610.27C541.064 610.27 530.305 607.753 522.125 602.72C513.946 597.812 509.856 590.388 509.856 580.446C509.856 572.015 513.946 564.717 522.125 558.551C519.609 557.418 517.407 556.223 515.519 554.964C513.757 553.706 512.184 552.385 510.8 551.001V546.659L527.222 529.294C519.923 522.876 516.274 514.633 516.274 504.566C516.274 498.275 517.784 492.549 520.804 487.39C523.95 482.23 528.354 478.141 534.017 475.12C539.68 472.1 546.538 470.59 554.591 470.59C559.877 470.59 564.784 471.345 569.314 472.855H604.801V487.578L588.756 488.711C591.273 493.493 592.531 498.778 592.531 504.566C592.531 510.858 591.021 516.584 588.001 521.743C584.981 526.903 580.577 530.992 574.788 534.012C569.126 537.033 562.393 538.543 554.591 538.543ZM554.591 520.044C559.499 520.044 563.526 518.723 566.672 516.081C569.944 513.438 571.58 509.663 571.58 504.755C571.58 499.848 569.944 496.072 566.672 493.43C563.526 490.787 559.499 489.466 554.591 489.466C549.432 489.466 545.28 490.787 542.134 493.43C538.988 496.072 537.415 499.848 537.415 504.755C537.415 509.663 538.988 513.438 542.134 516.081C545.28 518.723 549.432 520.044 554.591 520.044ZM531.941 577.993C531.941 582.649 534.08 586.109 538.358 588.374C542.763 590.765 548.111 591.961 554.403 591.961C560.443 591.961 565.351 590.702 569.126 588.185C572.901 585.795 574.788 582.523 574.788 578.37C574.788 574.973 573.53 572.141 571.013 569.876C568.622 567.611 563.778 566.227 556.479 565.723C551.32 565.346 546.538 564.78 542.134 564.025C538.484 566.038 535.842 568.24 534.206 570.631C532.696 573.022 531.941 575.476 531.941 577.993ZM622.418 566.479V472.855H643.748L645.635 488.711C648.53 483.174 652.682 478.77 658.093 475.498C663.63 472.226 670.111 470.59 677.535 470.59C689.112 470.59 698.11 474.24 704.527 481.538C710.945 488.837 714.154 499.533 714.154 513.627V566.479H689.993V515.892C689.993 507.838 688.357 501.672 685.085 497.394C681.814 493.115 676.717 490.976 669.796 490.976C663.001 490.976 657.401 493.367 652.997 498.149C648.718 502.931 646.579 509.6 646.579 518.157V566.479H622.418Z" fill="white"/>
</svg>
