<svg width="1007" height="1007" viewBox="0 0 1007 1007" fill="none" xmlns="http://www.w3.org/2000/svg">
<path d="M427.274 102.869L102.225 427.918C60.5652 469.578 60.5652 537.121 102.225 578.781L427.274 903.83C468.933 945.489 536.477 945.49 578.136 903.83L903.185 578.781C944.845 537.121 944.845 469.578 903.185 427.918L578.136 102.869C536.477 61.2097 468.933 61.2097 427.274 102.869Z" fill="#F9A757" stroke="#F9A757" stroke-width="60.8215"/>
<path d="M292.832 566.479V430.574H316.993V487.201C320.139 482.042 324.355 478.015 329.64 475.12C335.051 472.1 341.217 470.59 348.138 470.59C359.715 470.59 368.649 474.24 374.941 481.538C381.359 488.837 384.568 499.533 384.568 513.627V566.479H360.596V515.892C360.596 507.838 358.96 501.672 355.688 497.394C352.542 493.115 347.509 490.976 340.588 490.976C333.792 490.976 328.13 493.367 323.6 498.149C319.195 502.931 316.993 509.6 316.993 518.157V566.479H292.832ZM439.949 568.744C431.895 568.744 425.289 567.485 420.129 564.968C414.97 562.326 411.132 558.865 408.615 554.587C406.098 550.308 404.84 545.589 404.84 540.43C404.84 531.747 408.238 524.7 415.033 519.289C421.828 513.878 432.021 511.173 445.611 511.173H469.395V508.908C469.395 502.49 467.57 497.771 463.921 494.751C460.271 491.731 455.741 490.221 450.33 490.221C445.423 490.221 441.144 491.416 437.495 493.807C433.845 496.072 431.58 499.47 430.7 504H407.105C407.734 497.205 409.999 491.291 413.9 486.257C417.927 481.224 423.086 477.386 429.378 474.743C435.67 471.975 442.717 470.59 450.519 470.59C463.858 470.59 474.365 473.925 482.041 480.594C489.717 487.264 493.555 496.702 493.555 508.908V566.479H472.981L470.716 551.378C467.947 556.412 464.046 560.564 459.013 563.836C454.105 567.108 447.751 568.744 439.949 568.744ZM445.423 549.868C452.344 549.868 457.692 547.603 461.467 543.073C465.368 538.543 467.822 532.943 468.828 526.273H448.254C441.836 526.273 437.243 527.469 434.475 529.86C431.706 532.125 430.322 534.956 430.322 538.354C430.322 542.003 431.706 544.834 434.475 546.848C437.243 548.861 440.892 549.868 445.423 549.868ZM562.479 568.744C552.916 568.744 544.485 566.667 537.186 562.515C529.888 558.362 524.099 552.573 519.821 545.149C515.668 537.725 513.592 529.231 513.592 519.667C513.592 510.103 515.668 501.609 519.821 494.185C524.099 486.76 529.888 480.972 537.186 476.819C544.485 472.667 552.916 470.59 562.479 470.59C574.434 470.59 584.501 473.736 592.68 480.028C600.86 486.194 606.082 494.751 608.347 505.699H582.865C581.607 501.169 579.09 497.645 575.315 495.129C571.666 492.486 567.324 491.165 562.291 491.165C555.621 491.165 549.959 493.682 545.303 498.715C540.647 503.749 538.319 510.732 538.319 519.667C538.319 528.601 540.647 535.585 545.303 540.619C549.959 545.652 555.621 548.169 562.291 548.169C567.324 548.169 571.666 546.911 575.315 544.394C579.09 541.877 581.607 538.291 582.865 533.635H608.347C606.082 544.205 600.86 552.699 592.68 559.117C584.501 565.535 574.434 568.744 562.479 568.744ZM629.792 566.479V430.574H653.952V510.795L687.174 472.855H715.865L677.547 515.514L722.093 566.479H691.892L653.952 519.478V566.479H629.792Z" fill="white"/>
</svg>
