<svg width="24" height="24" viewBox="0 0 24 24" fill="currentColor"
  xmlns="http://www.w3.org/2000/svg">
  <g clip-path="url(#clip0_1545_4038)">
    <path
      d="M22.3287 10.3284L13.6717 1.6715C12.7494 0.749148 11.251 0.749148 10.3287 1.6715L1.67175 10.3284C0.749392 11.2508 0.749392 12.7473 1.67175 13.6715L10.3287 22.3284C11.251 23.2508 12.7475 23.2508 13.6717 22.3284L22.3287 13.6715C23.251 12.7491 23.251 11.2527 22.3287 10.3284ZM21.0355 13.2856L13.2859 21.0353C12.5762 21.7449 11.4242 21.7449 10.7146 21.0353L2.96492 13.2856C2.25527 12.576 2.25527 11.424 2.96492 10.7143L10.7146 2.96468C11.4242 2.25503 12.5762 2.25503 13.2859 2.96468L21.0355 10.7143C21.7452 11.424 21.7452 12.576 21.0355 13.2856Z"
      fill="currentColor" />
    <path
      d="M8.64582 13.0768H8.62888C8.56111 13.1972 8.45194 13.297 8.30135 13.3761C8.15076 13.4514 7.97947 13.489 7.78747 13.489C7.67829 13.489 7.56347 13.4739 7.443 13.4438C7.32629 13.4175 7.21711 13.3723 7.11547 13.3083C7.01758 13.2405 6.93476 13.1539 6.867 13.0485C6.803 12.9394 6.771 12.8057 6.771 12.6476C6.771 12.4443 6.82747 12.2824 6.94041 12.1619C7.05711 12.0415 7.20582 11.9492 7.38653 11.8852C7.56723 11.8212 7.76676 11.7798 7.98511 11.761C8.20723 11.7384 8.4237 11.7271 8.63453 11.7271V11.6594C8.63453 11.4899 8.57241 11.3657 8.44817 11.2867C8.3277 11.2038 8.18276 11.1624 8.01335 11.1624C7.87029 11.1624 7.73288 11.1925 7.60111 11.2528C7.46935 11.313 7.36017 11.3864 7.27358 11.473L6.92347 11.0608C7.07782 10.9177 7.25476 10.8104 7.45429 10.7389C7.65758 10.6674 7.86276 10.6316 8.06982 10.6316C8.31076 10.6316 8.50841 10.6655 8.66276 10.7332C8.82088 10.801 8.94511 10.8895 9.03547 10.9987C9.12582 11.1078 9.18794 11.2302 9.22182 11.3657C9.25947 11.5012 9.27829 11.6368 9.27829 11.7723V13.4212H8.64582V13.0768ZM8.63453 12.1845H8.48205C8.37288 12.1845 8.25805 12.1902 8.13758 12.2015C8.01711 12.209 7.90605 12.2297 7.80441 12.2636C7.70276 12.2937 7.61805 12.3389 7.55029 12.3991C7.48253 12.4556 7.44864 12.5347 7.44864 12.6363C7.44864 12.7003 7.46182 12.7549 7.48817 12.8001C7.51829 12.8415 7.55594 12.8754 7.60111 12.9017C7.64629 12.9281 7.69711 12.9469 7.75358 12.9582C7.81005 12.9695 7.86653 12.9751 7.923 12.9751C8.15641 12.9751 8.33335 12.913 8.45382 12.7888C8.57429 12.6645 8.63453 12.4951 8.63453 12.2805V12.1845ZM11.9211 11.4617C11.8684 11.3864 11.7893 11.3243 11.6839 11.2754C11.5785 11.2227 11.4712 11.1963 11.3621 11.1963C11.2378 11.1963 11.1286 11.2227 11.0345 11.2754C10.9404 11.3243 10.8613 11.3902 10.7973 11.473C10.7371 11.5558 10.6919 11.6499 10.6618 11.7554C10.6317 11.857 10.6166 11.9605 10.6166 12.0659C10.6166 12.1714 10.6317 12.2768 10.6618 12.3822C10.6957 12.4838 10.7446 12.5761 10.8086 12.6589C10.8726 12.7417 10.9517 12.8095 11.0458 12.8622C11.1437 12.9111 11.2566 12.9356 11.3846 12.9356C11.4901 12.9356 11.5955 12.9149 11.7009 12.8735C11.8063 12.8321 11.891 12.7718 11.955 12.6928L12.3785 13.1219C12.2656 13.2424 12.1206 13.3365 11.9437 13.4043C11.7705 13.4683 11.5823 13.5003 11.379 13.5003C11.1795 13.5003 10.9893 13.4683 10.8086 13.4043C10.6317 13.3403 10.4755 13.2462 10.3399 13.1219C10.2082 12.9977 10.1028 12.8471 10.0237 12.6702C9.94841 12.4932 9.91076 12.2918 9.91076 12.0659C9.91076 11.8476 9.94841 11.6499 10.0237 11.473C10.1028 11.2961 10.2082 11.1455 10.3399 11.0212C10.4717 10.897 10.6242 10.801 10.7973 10.7332C10.9743 10.6655 11.1625 10.6316 11.3621 10.6316C11.5616 10.6316 11.7536 10.6692 11.9381 10.7445C12.1263 10.8198 12.275 10.9234 12.3842 11.0551L11.9211 11.4617ZM16.0623 10.6316C16.2392 10.6316 16.3898 10.6636 16.5141 10.7276C16.6421 10.7878 16.7456 10.8688 16.8246 10.9704C16.9075 11.0721 16.9677 11.1888 17.0053 11.3205C17.043 11.4523 17.0618 11.5878 17.0618 11.7271V13.4212H16.3842V11.9191C16.3842 11.8401 16.3785 11.7572 16.3672 11.6707C16.3559 11.5841 16.3315 11.5069 16.2938 11.4391C16.2562 11.3676 16.2035 11.3092 16.1357 11.2641C16.0717 11.2189 15.9851 11.1963 15.8759 11.1963C15.7705 11.1963 15.6802 11.2189 15.6049 11.2641C15.5296 11.3092 15.4675 11.3676 15.4185 11.4391C15.3696 11.5107 15.3338 11.5916 15.3112 11.6819C15.2886 11.7685 15.2773 11.8551 15.2773 11.9417V13.4212H14.5997V11.7836C14.5997 11.6142 14.5583 11.4749 14.4755 11.3657C14.3964 11.2528 14.2703 11.1963 14.0971 11.1963C13.9955 11.1963 13.907 11.2189 13.8317 11.2641C13.7564 11.3055 13.6943 11.3601 13.6453 11.4278C13.6002 11.4956 13.5644 11.5747 13.5381 11.665C13.5155 11.7516 13.5042 11.8401 13.5042 11.9304V13.4212H12.8265V10.7107H13.4703V11.1455H13.4816C13.5117 11.0777 13.5512 11.0137 13.6002 10.9535C13.6529 10.8932 13.7131 10.8387 13.7809 10.7897C13.8524 10.7408 13.9333 10.7031 14.0237 10.6768C14.1141 10.6467 14.2138 10.6316 14.323 10.6316C14.5338 10.6316 14.7089 10.6787 14.8482 10.7728C14.9875 10.8669 15.0948 10.9911 15.1701 11.1455C15.2604 10.9798 15.3809 10.8537 15.5315 10.7671C15.6821 10.6768 15.859 10.6316 16.0623 10.6316Z"
      fill="currentColor" />
  </g>
  <defs>
    <clipPath id="clip0_1545_4038">
      <rect width="24" height="24" />
    </clipPath>
  </defs>
</svg>