<svg width="24" height="24" viewBox="0 0 24 24" fill="none" xmlns="http://www.w3.org/2000/svg">
<path d="M3 6H22L19 16H6L3 6ZM3 6L2.25 3.5M9.992 11H11.992M11.992 11H13.992M11.992 11V9M11.992 11V13M11 19.5C11 19.8978 10.842 20.2794 10.5607 20.5607C10.2794 20.842 9.89782 21 9.5 21C9.10217 21 8.72064 20.842 8.43934 20.5607C8.15803 20.2794 8 19.8978 8 19.5M17 19.5C17 19.8978 16.842 20.2794 16.5607 20.5607C16.2794 20.842 15.8978 21 15.5 21C15.1022 21 14.7206 20.842 14.4393 20.5607C14.158 20.2794 14 19.8978 14 19.5" stroke="#2E3036" stroke-width="1.5" stroke-linecap="round" stroke-linejoin="round"/>
</svg>
