<svg width="30" height="30" viewBox="0 0 30 30" fill="none" xmlns="http://www.w3.org/2000/svg" overflow="visible">
<path d="M29.9986 9.38429C29.9986 9.02597 29.9986 8.66765 29.9972 8.30934C29.9958 8.00796 29.9917 7.7052 29.9833 7.40382C29.9653 6.74691 29.9264 6.08305 29.8097 5.43308C29.6917 4.77339 29.4972 4.15953 29.1917 3.55956C28.8917 2.9707 28.5001 2.43183 28.0334 1.9638C27.5654 1.49715 27.0279 1.1055 26.4377 0.805518C25.8391 0.499977 25.2252 0.30693 24.5655 0.18888C23.9156 0.0722189 23.2517 0.0333318 22.5948 0.0152771C22.2934 0.00694412 21.9906 0.00416647 21.6893 0.00138882C21.331 0 20.9726 0 20.6143 0H9.38429C9.02597 0 8.66765 0 8.30934 0.00138882C8.00796 0.00277765 7.7052 0.00694412 7.40382 0.0152771C6.74691 0.0333318 6.08305 0.0722189 5.43308 0.18888C4.77339 0.30693 4.15953 0.501366 3.56095 0.805518C2.97208 1.1055 2.43183 1.49715 1.96519 1.9638C1.49715 2.43183 1.10689 2.96931 0.806907 3.55956C0.501366 4.15953 0.308319 4.77339 0.18888 5.43308C0.0722189 6.08305 0.0333318 6.74691 0.0166659 7.40382C0.00833295 7.7052 0.00416647 8.00796 0.00277765 8.30934C0 8.66765 0 9.02597 0 9.38429V20.6143C0 20.9726 0 21.331 0.00277765 21.6893C0.00416647 21.9906 0.00833295 22.2934 0.0166659 22.5948C0.0347206 23.2517 0.0736077 23.9156 0.190269 24.5655C0.308319 25.2252 0.502754 25.8405 0.808296 26.4391C1.10828 27.0279 1.49993 27.5668 1.96658 28.0334C2.43322 28.5015 2.97208 28.8931 3.56233 29.1931C4.16092 29.4986 4.77478 29.6917 5.43447 29.8097C6.08444 29.9264 6.7483 29.9653 7.40521 29.9833C7.70659 29.9917 8.00935 29.9944 8.31073 29.9972C8.66904 29.9986 9.02736 29.9986 9.38568 29.9986H20.6157C20.974 29.9986 21.3323 29.9986 21.6907 29.9972C21.992 29.9958 22.2948 29.9917 22.5962 29.9833C23.2531 29.9653 23.9169 29.9264 24.5669 29.8097C25.2266 29.6917 25.8405 29.4972 26.4391 29.1931C27.0279 28.8931 27.5668 28.5015 28.0348 28.0334C28.5028 27.5668 28.8931 27.0279 29.1931 26.4391C29.4986 25.8391 29.6917 25.2252 29.8111 24.5655C29.9278 23.9156 29.9667 23.2531 29.9847 22.5948C29.9931 22.2934 29.9958 21.9906 29.9986 21.6893C30 21.331 30 20.9726 30 20.6143V9.38429H29.9986Z" fill="white"/>
<path d="M11.1968 24.5426V10.5856H10.6107L7.05518 12.9398V13.5356L10.5705 11.2342H10.6121V24.544H11.1968V24.5426Z" fill="black"/>
<path d="M14.6702 10.5856V11.1203H22.3368V11.162L16.1799 24.544H16.8382L22.9438 11.1509V10.5856H14.6702Z" fill="black"/>
<path d="M5.45145 7.84861V4.83055H5.46256L6.65562 7.54028H7.05145L8.24034 4.83055H8.25423V7.84861H8.65006V3.85139H8.23062L6.86117 7.05416H6.85006L5.47645 3.85278H5.05701V7.84861H5.45145Z" fill="#FF0000"/>
<path d="M10.8009 4.73034C9.96621 4.73034 9.50232 5.33728 9.50232 6.1595V6.46089C9.50232 7.28728 9.96204 7.897 10.8009 7.897C11.6384 7.897 12.0954 7.28728 12.0954 6.46089V6.1595C12.0968 5.33728 11.6329 4.73034 10.8009 4.73034ZM10.8009 5.10811C11.3454 5.10811 11.6648 5.51506 11.6648 6.18034V6.43867C11.6648 7.10672 11.3454 7.51367 10.8009 7.51367C10.2523 7.51367 9.93426 7.10395 9.93426 6.43867V6.18034C9.93426 5.51645 10.2537 5.10811 10.8009 5.10811Z" fill="#FF0000"/>
<path d="M12.9022 7.84839H13.3328V5.96922C13.3328 5.53034 13.5731 5.12478 14.1356 5.12478C14.6161 5.12478 14.9244 5.41506 14.9244 5.93867V7.84561H15.355V5.87339C15.355 5.12895 14.8828 4.72756 14.2508 4.72756C13.7467 4.72756 13.4592 4.99145 13.3453 5.197H13.3328V4.77756H12.9022V7.84839Z" fill="#FF0000"/>
<path d="M17.3368 4.72761C16.5743 4.72761 16.109 5.32205 16.109 6.154V6.46789C16.109 7.31511 16.5396 7.89427 17.3368 7.89427C17.7771 7.89427 18.0923 7.67205 18.2562 7.36927H18.2673V7.84705H18.6743V3.63733H18.2437V5.21927H18.2326C18.084 4.954 17.7673 4.72761 17.3368 4.72761ZM17.3757 5.11233C17.9201 5.11233 18.2548 5.54011 18.2548 6.17344V6.45816C18.2548 7.11789 17.9298 7.51233 17.3812 7.51233C16.8951 7.51233 16.541 7.15816 16.541 6.45538V6.17761C16.5396 5.46094 16.9007 5.11233 17.3757 5.11233Z" fill="#FF0000"/>
<path d="M21.3393 7.44978H21.3505V7.84839H21.7699V5.71506C21.7699 5.0845 21.3074 4.73034 20.6685 4.73034C19.9574 4.73034 19.5907 5.10256 19.5546 5.63589H19.9616C19.9963 5.31089 20.2282 5.10256 20.6505 5.10256C21.0866 5.10256 21.3393 5.3345 21.3393 5.76506V6.09561H20.5046C19.8046 6.09839 19.4352 6.43867 19.4352 6.96922C19.4352 7.53172 19.8421 7.89839 20.438 7.89839C20.906 7.897 21.1921 7.69561 21.3393 7.44978ZM20.5393 7.52617C20.1935 7.52617 19.8796 7.34145 19.8796 6.96089C19.8796 6.66228 20.0699 6.44839 20.5185 6.44839H21.3393V6.82617C21.3393 7.23867 20.9963 7.52617 20.5393 7.52617Z" fill="#FF0000"/>
<path d="M24.9421 4.78033H24.4823L23.6059 7.347H23.5907L22.7143 4.78033H22.2351L23.3809 7.897L23.3226 8.0845C23.2323 8.40117 23.0768 8.58589 22.7157 8.58589C22.649 8.58589 22.5393 8.57756 22.4907 8.56783V8.9345C22.5671 8.94561 22.6809 8.95811 22.7837 8.95811C23.3809 8.95811 23.5865 8.54839 23.7476 8.10533L23.8351 7.87617L24.9421 4.78033Z" fill="#FF0000"/>
</svg>
