<svg width="30" height="28" viewBox="0 0 27 28" fill="currentColor" xmlns="http://www.w3.org/2000/svg">
<path d="M19.3435 23.0614C18.271 24.1011 17.1 23.9369 15.9728 23.4444C14.7799 22.941 13.6856 22.9191 12.427 23.4444C10.8511 24.123 10.0194 23.926 9.07818 23.0614C3.73757 17.5566 4.52553 9.17363 10.5884 8.8672C12.0659 8.94381 13.0946 9.67705 13.9591 9.74271C15.2505 9.48006 16.4872 8.72493 17.8661 8.82343C19.5186 8.95475 20.7662 9.61139 21.587 10.7933C18.1725 12.8398 18.9824 17.3378 22.1123 18.5963C21.4885 20.2379 20.6787 21.8685 19.3326 23.0724L19.3435 23.0614ZM13.8497 8.80154C13.6856 6.36105 15.6664 4.34738 17.9427 4.15039C18.2601 6.97391 15.3819 9.07514 13.8497 8.80154Z" fill="currentColor"/>
</svg>
