<svg width="21" height="24" viewBox="0 0 21 24" fill="none" xmlns="http://www.w3.org/2000/svg">
<path d="M10.5 14.2857C10.1694 14.2857 9.89258 14.176 9.66936 13.9566C9.44536 13.7379 9.33336 13.4667 9.33336 13.1429C9.33336 12.8191 9.44536 12.5475 9.66936 12.328C9.89258 12.1094 10.1694 12 10.5 12C10.8306 12 11.1079 12.1094 11.3319 12.328C11.5551 12.5475 11.6666 12.8191 11.6666 13.1429C11.6666 13.4667 11.5551 13.7379 11.3319 13.9566C11.1079 14.176 10.8306 14.2857 10.5 14.2857ZM5.83334 14.2857C5.50278 14.2857 5.2255 14.176 5.0015 13.9566C4.77828 13.7379 4.66666 13.4667 4.66666 13.1429C4.66666 12.8191 4.77828 12.5475 5.0015 12.328C5.2255 12.1094 5.50278 12 5.83334 12C6.16388 12 6.44116 12.1094 6.66516 12.328C6.88839 12.5475 7 12.8191 7 13.1429C7 13.4667 6.88839 13.7379 6.66516 13.9566C6.44116 14.176 6.16388 14.2857 5.83334 14.2857ZM15.1666 14.2857C14.8361 14.2857 14.5592 14.176 14.336 13.9566C14.112 13.7379 14 13.4667 14 13.1429C14 12.8191 14.112 12.5475 14.336 12.328C14.5592 12.1094 14.8361 12 15.1666 12C15.4972 12 15.7741 12.1094 15.9974 12.328C16.2214 12.5475 16.3334 12.8191 16.3334 13.1429C16.3334 13.4667 16.2214 13.7379 15.9974 13.9566C15.7741 14.176 15.4972 14.2857 15.1666 14.2857ZM10.5 18.8571C10.1694 18.8571 9.89258 18.7474 9.66936 18.528C9.44536 18.3093 9.33336 18.0381 9.33336 17.7143C9.33336 17.3905 9.44536 17.1193 9.66936 16.9006C9.89258 16.6812 10.1694 16.5715 10.5 16.5715C10.8306 16.5715 11.1079 16.6812 11.3319 16.9006C11.5551 17.1193 11.6666 17.3905 11.6666 17.7143C11.6666 18.0381 11.5551 18.3093 11.3319 18.528C11.1079 18.7474 10.8306 18.8571 10.5 18.8571ZM5.83334 18.8571C5.50278 18.8571 5.2255 18.7474 5.0015 18.528C4.77828 18.3093 4.66666 18.0381 4.66666 17.7143C4.66666 17.3905 4.77828 17.1193 5.0015 16.9006C5.2255 16.6812 5.50278 16.5715 5.83334 16.5715C6.16388 16.5715 6.44116 16.6812 6.66516 16.9006C6.88839 17.1193 7 17.3905 7 17.7143C7 18.0381 6.88839 18.3093 6.66516 18.528C6.44116 18.7474 6.16388 18.8571 5.83334 18.8571ZM15.1666 18.8571C14.8361 18.8571 14.5592 18.7474 14.336 18.528C14.112 18.3093 14 18.0381 14 17.7143C14 17.3905 14.112 17.1193 14.336 16.9006C14.5592 16.6812 14.8361 16.5715 15.1666 16.5715C15.4972 16.5715 15.7741 16.6812 15.9974 16.9006C16.2214 17.1193 16.3334 17.3905 16.3334 17.7143C16.3334 18.0381 16.2214 18.3093 15.9974 18.528C15.7741 18.7474 15.4972 18.8571 15.1666 18.8571ZM2.33334 23.4286C1.69166 23.4286 1.14216 23.205 0.684834 22.7577C0.228278 22.3097 0 21.7714 0 21.1429V5.14287C0 4.51431 0.228278 3.9764 0.684834 3.52916C1.14216 3.08116 1.69166 2.85716 2.33334 2.85716H3.5V0.571446H5.83334V2.85716H15.1666V0.571446H17.5V2.85716H18.6666C19.3084 2.85716 19.8579 3.08116 20.3151 3.52916C20.7717 3.9764 21 4.51431 21 5.14287V21.1429C21 21.7714 20.7717 22.3097 20.3151 22.7577C19.8579 23.205 19.3084 23.4286 18.6666 23.4286H2.33334ZM2.33334 21.1429H18.6666V9.71434H2.33334V21.1429Z" fill="currentColor"/>
</svg>
