<svg width="24" height="28" viewBox="0 0 24 28" fill="none" xmlns="http://www.w3.org/2000/svg">
<path d="M12 16.6667C11.6222 16.6667 11.3058 16.5387 11.0507 16.2827C10.7947 16.0276 10.6667 15.7111 10.6667 15.3334C10.6667 14.9556 10.7947 14.6387 11.0507 14.3827C11.3058 14.1276 11.6222 14 12 14C12.3778 14 12.6947 14.1276 12.9507 14.3827C13.2058 14.6387 13.3333 14.9556 13.3333 15.3334C13.3333 15.7111 13.2058 16.0276 12.9507 16.2827C12.6947 16.5387 12.3778 16.6667 12 16.6667ZM6.66667 16.6667C6.28889 16.6667 5.972 16.5387 5.716 16.2827C5.46089 16.0276 5.33333 15.7111 5.33333 15.3334C5.33333 14.9556 5.46089 14.6387 5.716 14.3827C5.972 14.1276 6.28889 14 6.66667 14C7.04444 14 7.36133 14.1276 7.61733 14.3827C7.87245 14.6387 8 14.9556 8 15.3334C8 15.7111 7.87245 16.0276 7.61733 16.2827C7.36133 16.5387 7.04444 16.6667 6.66667 16.6667ZM17.3333 16.6667C16.9556 16.6667 16.6391 16.5387 16.384 16.2827C16.128 16.0276 16 15.7111 16 15.3334C16 14.9556 16.128 14.6387 16.384 14.3827C16.6391 14.1276 16.9556 14 17.3333 14C17.7111 14 18.0276 14.1276 18.2827 14.3827C18.5387 14.6387 18.6667 14.9556 18.6667 15.3334C18.6667 15.7111 18.5387 16.0276 18.2827 16.2827C18.0276 16.5387 17.7111 16.6667 17.3333 16.6667ZM12 22C11.6222 22 11.3058 21.872 11.0507 21.616C10.7947 21.3609 10.6667 21.0445 10.6667 20.6667C10.6667 20.2889 10.7947 19.9725 11.0507 19.7174C11.3058 19.4614 11.6222 19.3334 12 19.3334C12.3778 19.3334 12.6947 19.4614 12.9507 19.7174C13.2058 19.9725 13.3333 20.2889 13.3333 20.6667C13.3333 21.0445 13.2058 21.3609 12.9507 21.616C12.6947 21.872 12.3778 22 12 22ZM6.66667 22C6.28889 22 5.972 21.872 5.716 21.616C5.46089 21.3609 5.33333 21.0445 5.33333 20.6667C5.33333 20.2889 5.46089 19.9725 5.716 19.7174C5.972 19.4614 6.28889 19.3334 6.66667 19.3334C7.04444 19.3334 7.36133 19.4614 7.61733 19.7174C7.87245 19.9725 8 20.2889 8 20.6667C8 21.0445 7.87245 21.3609 7.61733 21.616C7.36133 21.872 7.04444 22 6.66667 22ZM17.3333 22C16.9556 22 16.6391 21.872 16.384 21.616C16.128 21.3609 16 21.0445 16 20.6667C16 20.2889 16.128 19.9725 16.384 19.7174C16.6391 19.4614 16.9556 19.3334 17.3333 19.3334C17.7111 19.3334 18.0276 19.4614 18.2827 19.7174C18.5387 19.9725 18.6667 20.2889 18.6667 20.6667C18.6667 21.0445 18.5387 21.3609 18.2827 21.616C18.0276 21.872 17.7111 22 17.3333 22ZM2.66667 27.3334C1.93333 27.3334 1.30533 27.0725 0.782667 26.5507C0.260889 26.028 0 25.4 0 24.6667V6.00002C0 5.26669 0.260889 4.63913 0.782667 4.11735C1.30533 3.59469 1.93333 3.33335 2.66667 3.33335H4V0.666687H6.66667V3.33335H17.3333V0.666687H20V3.33335H21.3333C22.0667 3.33335 22.6947 3.59469 23.2173 4.11735C23.7391 4.63913 24 5.26669 24 6.00002V24.6667C24 25.4 23.7391 26.028 23.2173 26.5507C22.6947 27.0725 22.0667 27.3334 21.3333 27.3334H2.66667ZM2.66667 24.6667H21.3333V11.3334H2.66667V24.6667Z" fill="currentColor"/>
</svg>
