<svg width="24" height="24" viewBox="0 0 24 24" fill="none" xmlns="http://www.w3.org/2000/svg">
<path d="M23.4738 5.35457C23.0191 4.77346 22.3114 4.41971 21.5788 4.41971H6.19059L5.71046 2.54984C5.4325 1.46341 4.47229 0.705322 3.36063 0.705322H0.78326C0.353728 0.705322 0 1.05907 0 1.48858C0 1.91812 0.353742 2.27184 0.78326 2.27184H3.36063C3.73958 2.27184 4.06813 2.52459 4.1693 2.90354L7.25198 15.1837C7.52994 16.2701 8.49015 17.0282 9.6018 17.0282H19.6837C20.7955 17.0282 21.7809 16.2701 22.0335 15.1837L23.9286 7.40123C24.1054 6.69373 23.9539 5.93583 23.4738 5.35457ZM22.3874 7.04752L20.4923 14.83C20.3913 15.2089 20.0628 15.4617 19.6837 15.4617H9.6018C9.22281 15.4617 8.89426 15.2089 8.7931 14.83L6.59483 6.01154H21.5787C21.8315 6.01154 22.084 6.13792 22.2356 6.34008C22.3874 6.54224 22.4632 6.79493 22.3874 7.04752Z" fill="#2E3036"/>
<path d="M10.1327 18.039C8.69229 18.039 7.50488 19.2266 7.50488 20.6668C7.50488 22.1072 8.69247 23.2946 10.1327 23.2946C11.573 23.2947 12.7606 22.1072 12.7606 20.6668C12.7606 19.2266 11.573 18.039 10.1327 18.039ZM10.1327 21.7028C9.5515 21.7028 9.09663 21.2481 9.09663 20.6668C9.09663 20.0857 9.5514 19.6308 10.1327 19.6308C10.7138 19.6308 11.1687 20.0855 11.1687 20.6668C11.1687 21.2227 10.6885 21.7028 10.1327 21.7028Z" fill="#2E3036"/>
<path d="M18.8241 18.039C17.3837 18.039 16.1963 19.2266 16.1963 20.6668C16.1963 22.1072 17.3839 23.2946 18.8241 23.2946C20.2644 23.2946 21.4518 22.107 21.4518 20.6668C21.4266 19.2266 20.2644 18.039 18.8241 18.039ZM18.8241 21.7028C18.2429 21.7028 17.788 21.2481 17.788 20.6668C17.788 20.0857 18.2428 19.6308 18.8241 19.6308C19.4052 19.6308 19.8601 20.0855 19.8601 20.6668C19.8601 21.2227 19.38 21.7028 18.8241 21.7028Z" fill="#2E3036"/>
</svg>
