<svg width="24" height="24" viewBox="0 0 24 24" xmlns="http://www.w3.org/2000/svg">
<g clip-path="url(#clip0_1545_3995)">
<path d="M11.9999 23.4287C8.96882 23.4287 6.06192 22.2246 3.91864 20.0814C1.77537 17.938 0.571289 15.0312 0.571289 12.0001C0.571289 8.96907 1.77537 6.06216 3.91864 3.91888C6.06192 1.77561 8.96882 0.571533 11.9999 0.571533C15.0309 0.571533 17.9378 1.77561 20.0811 3.91888C22.2243 6.06216 23.4284 8.96907 23.4284 12.0001C23.4284 15.0312 22.2243 17.938 20.0811 20.0814C17.9378 22.2246 15.0309 23.4287 11.9999 23.4287ZM4.777 6.4001C3.76981 7.69202 3.13016 9.23193 2.92557 10.8572H3.99986C4.30297 10.8572 4.59365 10.9777 4.80799 11.192C5.02231 11.4063 5.14272 11.697 5.14272 12.0001C5.14272 12.3032 5.02231 12.5939 4.80799 12.8082C4.59365 13.0225 4.30297 13.143 3.99986 13.143H2.92557C3.10313 14.5772 3.62031 15.9486 4.43415 17.143C6.22745 15.5575 8.4749 14.5778 10.857 14.343V8.57153C10.857 8.26842 10.9774 7.97774 11.1917 7.76341C11.4061 7.54909 11.6968 7.42868 11.9999 7.42868C12.3029 7.42868 12.5937 7.54909 12.808 7.76341C13.0223 7.97774 13.1427 8.26842 13.1427 8.57153V14.343C15.5248 14.5778 17.7723 15.5575 19.5656 17.143C20.3794 15.9486 20.8965 14.5772 21.0741 13.143H19.9999C19.6968 13.143 19.406 13.0225 19.1917 12.8082C18.9775 12.5939 18.857 12.3032 18.857 12.0001C18.857 11.697 18.9775 11.4063 19.1917 11.192C19.406 10.9777 19.6968 10.8572 19.9999 10.8572H21.0741C20.8696 9.23193 20.2299 7.69202 19.2227 6.4001L18.4684 7.15439C18.2532 7.36959 17.9613 7.49049 17.657 7.49049C17.3527 7.49049 17.0608 7.36959 16.8456 7.15439C16.6304 6.93919 16.5095 6.64731 16.5095 6.34296C16.5095 6.03862 16.6304 5.74673 16.8456 5.53153L17.6113 4.77725C16.3161 3.76817 14.772 3.12841 13.1427 2.92582V4.0001C13.1427 4.30321 13.0223 4.5939 12.808 4.80823C12.5937 5.02255 12.3029 5.14296 11.9999 5.14296C11.6968 5.14296 11.4061 5.02255 11.1917 4.80823C10.9774 4.5939 10.857 4.30321 10.857 4.0001V2.92582C9.18843 3.13153 7.657 3.79439 6.39986 4.77725L7.15415 5.53153C7.36935 5.74673 7.49025 6.03862 7.49025 6.34296C7.49025 6.64731 7.36935 6.93919 7.15415 7.15439C6.93895 7.36959 6.64706 7.49049 6.34272 7.49049C6.03838 7.49049 5.74649 7.36959 5.53129 7.15439L4.777 6.38868V6.4001ZM5.95415 18.8572C7.62075 20.3362 9.77167 21.1529 11.9999 21.1529C14.2281 21.1529 16.3789 20.3362 18.0456 18.8572C16.3789 17.3783 14.2281 16.5616 11.9999 16.5616C9.77167 16.5616 7.62075 17.3783 5.95415 18.8572Z" />
</g>
<defs>
<clipPath id="clip0_1545_3995">
<rect width="24" height="24" />
</clipPath>
</defs>
</svg>
