<svg width="24" height="24" viewBox="0 0 24 24" fill="none" xmlns="http://www.w3.org/2000/svg">
<g>
<path d="M9.87236 9.86279C9.20231 9.86279 8.67334 10.4506 8.67334 11.1676C8.67334 11.8846 9.21407 12.4724 9.87236 12.4724C10.5424 12.4724 11.0714 11.8846 11.0714 11.1676C11.0831 10.4506 10.5424 9.86279 9.87236 9.86279ZM14.163 9.86279C13.4929 9.86279 12.9639 10.4506 12.9639 11.1676C12.9639 11.8846 13.5047 12.4724 14.163 12.4724C14.833 12.4724 15.362 11.8846 15.362 11.1676C15.362 10.4506 14.833 9.86279 14.163 9.86279Z" />
<path d="M19.876 0H4.12415C2.79583 0 1.71436 1.08147 1.71436 2.42155V18.3144C1.71436 19.6545 2.79583 20.736 4.12415 20.736H17.4545L16.8314 18.5613L18.3361 19.9601L19.7585 21.2767L22.2858 23.5102V2.42155C22.2858 1.08147 21.2043 0 19.876 0ZM15.3385 15.3521C15.3385 15.3521 14.9154 14.8467 14.5627 14.4C16.1026 13.965 16.6904 13.0011 16.6904 13.0011C16.2084 13.3185 15.7499 13.5418 15.3385 13.6947C14.7508 13.9416 14.1865 14.1062 13.634 14.2001C12.5055 14.4118 11.4711 14.353 10.5895 14.1885C9.91942 14.0591 9.34342 13.871 8.86145 13.683C8.59109 13.5771 8.29721 13.4479 8.00334 13.2833C7.96807 13.2598 7.9328 13.248 7.89754 13.2245C7.87402 13.2127 7.86228 13.201 7.85052 13.1893C7.63893 13.0717 7.52137 12.9894 7.52137 12.9894C7.52137 12.9894 8.08562 13.9298 9.57852 14.3765C9.22586 14.8232 8.79093 15.3521 8.79093 15.3521C6.19305 15.2698 5.20562 13.5654 5.20562 13.5654C5.20562 9.78024 6.89836 6.71216 6.89836 6.71216C8.59109 5.44262 10.2015 5.47787 10.2015 5.47787L10.3191 5.61894C8.20317 6.23021 7.2275 7.15886 7.2275 7.15886C7.2275 7.15886 7.48612 7.01779 7.92105 6.81795C9.17885 6.26547 10.178 6.11265 10.5895 6.07738C10.66 6.06563 10.7188 6.05387 10.7893 6.05387C11.5064 5.95984 12.3175 5.93633 13.1638 6.03037C14.2805 6.15967 15.4796 6.48881 16.7021 7.15886C16.7021 7.15886 15.7734 6.27722 13.775 5.66595L13.9396 5.47787C13.9396 5.47787 15.5501 5.44262 17.2428 6.71216C17.2428 6.71216 18.9356 9.78024 18.9356 13.5654C18.9356 13.5654 17.9364 15.2698 15.3385 15.3521Z" />
<path d="M9.87236 9.86279C9.20231 9.86279 8.67334 10.4506 8.67334 11.1676C8.67334 11.8846 9.21407 12.4724 9.87236 12.4724C10.5424 12.4724 11.0714 11.8846 11.0714 11.1676C11.0831 10.4506 10.5424 9.86279 9.87236 9.86279ZM14.163 9.86279C13.4929 9.86279 12.9639 10.4506 12.9639 11.1676C12.9639 11.8846 13.5047 12.4724 14.163 12.4724C14.833 12.4724 15.362 11.8846 15.362 11.1676C15.362 10.4506 14.833 9.86279 14.163 9.86279Z" />
</g>
</svg>
