<svg xmlns="http://www.w3.org/2000/svg" viewBox="0 0 26 26" fill="currentColor">
<path d="M0.625 20.2187V25.3749H5.78125L20.9887 10.1674L15.8325 5.01119L0.625 20.2187ZM24.9762 6.17994C25.1037 6.05274 25.2048 5.90164 25.2738 5.7353C25.3428 5.56896 25.3784 5.39065 25.3784 5.21057C25.3784 5.03049 25.3428 4.85217 25.2738 4.68583C25.2048 4.5195 25.1037 4.3684 24.9762 4.24119L21.7588 1.02369C21.6315 0.896225 21.4804 0.795097 21.3141 0.726098C21.1478 0.657098 20.9695 0.621582 20.7894 0.621582C20.6093 0.621582 20.431 0.657098 20.2646 0.726098C20.0983 0.795097 19.9472 0.896225 19.82 1.02369L17.3038 3.53994L22.46 8.69619L24.9762 6.17994Z"/>
</svg>