<svg width="12" height="12" viewBox="0 0 12 12" fill="none" xmlns="http://www.w3.org/2000/svg">
<g clip-path="url(#clip0_2427_17182)">
<path d="M10.8333 1.66675H0.833333C0.612319 1.66675 0.400358 1.75455 0.244077 1.91083C0.0877973 2.06711 0 2.27907 0 2.50008V9.16675C0 9.38775 0.0877973 9.59975 0.244077 9.75602C0.400358 9.91228 0.612319 10.0001 0.833333 10.0001H10.8333C11.0543 10.0001 11.2663 9.91228 11.4226 9.75602C11.5789 9.59975 11.6667 9.38775 11.6667 9.16675V2.50008C11.6667 2.27907 11.5789 2.06711 11.4226 1.91083C11.2663 1.75455 11.0543 1.66675 10.8333 1.66675ZM9.91667 2.50008L5.83333 5.32508L1.75 2.50008H9.91667ZM0.833333 9.16675V2.87925L5.59583 6.17508C5.66558 6.22347 5.74845 6.2494 5.83333 6.2494C5.91822 6.2494 6.00109 6.22347 6.07083 6.17508L10.8333 2.87925V9.16675H0.833333Z" fill="#2E3036"/>
</g>
<defs>
<clipPath id="clip0_2427_17182">
<rect width="12" height="12" fill="white"/>
</clipPath>
</defs>
</svg>
