<svg xmlns="http://www.w3.org/2000/svg" width="64" height="42" viewBox="0 0 64 42" fill="none">
  <path d="M32 41.334C49.6731 41.334 64 38.2 64 34.334C64 30.468 49.6731 27.334 32 27.334C14.3269 27.334 0 30.468 0 34.334C0 38.2 14.3269 41.334 32 41.334Z" fill="#F5F5F5"/>
  <path d="M55 14.094L44.854 2.59198C44.367 1.80798 43.656 1.33398 42.907 1.33398H21.093C20.344 1.33398 19.633 1.80798 19.146 2.59098L9 14.095V23.334H55V14.094Z" stroke="#D9D9D9"/>
  <path d="M41.613 17.265C41.613 15.66 42.607 14.335 43.84 14.334H55V32.471C55 34.594 53.68 36.334 52.05 36.334H11.95C10.32 36.334 9 34.593 9 32.471V14.334H20.16C21.393 14.334 22.387 15.657 22.387 17.262V17.284C22.387 18.889 23.392 20.185 24.624 20.185H39.376C40.608 20.185 41.613 18.877 41.613 17.272V17.265Z" fill="#FAFAFA" stroke="#D9D9D9"/>
</svg>