<svg width="24" height="24" viewBox="0 0 24 24" fill="none" xmlns="http://www.w3.org/2000/svg">
<g clip-path="url(#clip0_1547_4224)">
<path d="M11.9998 0C9.93118 0.000597163 7.89779 0.535776 6.09691 1.55362C4.29603 2.57147 2.78878 4.03743 1.72136 5.80932C0.653955 7.5812 0.0626141 9.59886 0.00470499 11.6666C-0.0532042 13.7343 0.424284 15.7818 1.39085 17.6107L0.490863 20.7603C0.381973 21.1413 0.376965 21.5445 0.476356 21.9281C0.575747 22.3118 0.775921 22.6618 1.05613 22.942C1.33634 23.2222 1.68641 23.4224 2.07002 23.5218C2.45365 23.6212 2.85689 23.6163 3.23794 23.5074L6.38801 22.6074C7.99855 23.4593 9.78192 23.9333 11.6029 23.9934C13.4239 24.0537 15.2346 23.6985 16.8979 22.9547C18.5611 22.2111 20.0333 21.0984 21.2026 19.7013C22.3718 18.3041 23.2076 16.659 23.6466 14.8908C24.0854 13.1226 24.116 11.2777 23.7358 9.49598C23.3556 7.71422 22.5748 6.04242 21.4523 4.60734C20.3298 3.17224 18.8953 2.01156 17.2576 1.21327C15.6198 0.414999 13.8218 8.57819e-05 11.9998 0ZM11.9998 21.3318C10.3239 21.333 8.67862 20.8823 7.23733 20.0271C7.08115 19.9342 6.90765 19.8743 6.72745 19.8508C6.54726 19.8274 6.36418 19.8411 6.18946 19.891L3.27472 20.7237L4.10737 17.8091C4.15728 17.6345 4.17095 17.4514 4.14754 17.2713C4.12414 17.091 4.06415 16.9176 3.97127 16.7615C2.92017 14.9904 2.48435 12.9215 2.73169 10.8769C2.97905 8.83239 3.89568 6.92705 5.33881 5.45772C6.78193 3.98837 8.67052 3.03755 10.7104 2.75334C12.7502 2.46912 14.8268 2.86749 16.6166 3.88639C18.4066 4.90527 19.8091 6.48747 20.606 8.38651C21.4028 10.2856 21.5492 12.3948 21.0224 14.3857C20.4955 16.3767 19.3249 18.1374 17.693 19.3938C16.061 20.6501 14.0594 21.3315 11.9998 21.3318ZM16.8887 9.77706C16.8887 10.1307 16.7482 10.4698 16.4981 10.7198C16.2481 10.9698 15.909 11.1103 15.5554 11.1103H8.44432C8.0907 11.1103 7.75157 10.9698 7.50153 10.7198C7.25148 10.4698 7.111 10.1307 7.111 9.77706C7.111 9.42347 7.25148 9.08436 7.50153 8.83433C7.75157 8.5843 8.0907 8.44384 8.44432 8.44384H15.5554C15.909 8.44384 16.2481 8.5843 16.4981 8.83433C16.7482 9.08436 16.8887 9.42347 16.8887 9.77706ZM16.8887 14.2212C16.8887 14.5747 16.7482 14.9139 16.4981 15.1639C16.2481 15.4139 15.909 15.5544 15.5554 15.5544H8.44432C8.0907 15.5544 7.75157 15.4139 7.50153 15.1639C7.25148 14.9139 7.111 14.5747 7.111 14.2212C7.111 13.8676 7.25148 13.5285 7.50153 13.2785C7.75157 13.0284 8.0907 12.8879 8.44432 12.8879H15.5554C15.909 12.8879 16.2481 13.0284 16.4981 13.2785C16.7482 13.5285 16.8887 13.8676 16.8887 14.2212Z" fill="#2E3036"/>
</g>
<defs>
<clipPath id="clip0_1547_4224">
<rect width="24" height="24" fill="white"/>
</clipPath>
</defs>
</svg>
