<svg width="30" height="26" viewBox="0 0 25 26" fill="currentColor" xmlns="http://www.w3.org/2000/svg">
<path d="M6.94434 8.50002C7.66598 7.00893 8.77303 5.75548 10.1418 4.87974C11.5105 4.004 13.0869 3.54049 14.695 3.54102C17.0325 3.54102 18.9961 4.43292 20.4975 5.88552L18.0108 8.46672C17.1114 7.57482 15.9682 7.12032 14.695 7.12032C12.4355 7.12032 10.523 8.70432 9.84215 10.831C9.66868 11.371 9.5698 11.947 9.5698 12.541C9.5698 13.135 9.66868 13.711 9.84215 14.251C10.5239 16.3786 12.4355 17.9617 14.695 17.9617C15.8615 17.9617 16.8546 17.6422 17.6318 17.1022C18.0823 16.7944 18.468 16.395 18.7656 15.9282C19.0631 15.4613 19.2664 14.9367 19.363 14.386H14.695V10.9048H22.8636C22.966 11.4934 23.0215 12.1072 23.0215 12.7453C23.0215 15.4867 22.0761 17.7943 20.4351 19.3603C19.0005 20.7355 17.0368 21.541 14.695 21.541C13.5558 21.5415 12.4277 21.309 11.3752 20.8569C10.3227 20.4048 9.36637 19.7419 8.56087 18.906C7.75537 18.0702 7.11651 17.0779 6.68078 15.9857C6.24506 14.8936 6.02103 13.723 6.02149 12.541C6.02149 11.0884 6.35628 9.71502 6.94434 8.50002Z" fill="currentColor"/>
</svg>
