<svg width="30" height="30" viewBox="0 0 30 30" fill="none" xmlns="http://www.w3.org/2000/svg" overflow="visible">
<g clip-path="url(#clip0_1137_454)">
<path d="M22.8948 7.1052L15.7896 6.31575L7.1054 7.1052L6.3158 15L7.10525 22.8948L15 23.8817L22.8948 22.8948L23.6843 14.8028L22.8948 7.1052Z" fill="white"/>
<path d="M10.3442 19.3539C9.75409 18.9552 9.34549 18.3731 9.12244 17.6033L10.4922 17.0388C10.6166 17.5125 10.8336 17.8796 11.1435 18.1401C11.4515 18.4007 11.8265 18.5289 12.2646 18.5289C12.7127 18.5289 13.0976 18.3927 13.4192 18.1203C13.7408 17.8479 13.9028 17.5005 13.9028 17.0802C13.9028 16.65 13.733 16.2986 13.3935 16.0263C13.0541 15.7541 12.6278 15.6177 12.1185 15.6177H11.3271V14.2619H12.0375C12.4757 14.2619 12.8448 14.1435 13.1448 13.9067C13.4448 13.6698 13.5948 13.3461 13.5948 12.9336C13.5948 12.5666 13.4606 12.2744 13.1922 12.0554C12.9239 11.8364 12.5843 11.7258 12.1718 11.7258C11.7692 11.7258 11.4494 11.8325 11.2125 12.0476C10.9757 12.2627 10.8039 12.5271 10.6955 12.839L9.33964 12.2745C9.51919 11.7653 9.84889 11.3153 10.3323 10.9265C10.8159 10.5377 11.4336 10.3422 12.1836 10.3422C12.7382 10.3422 13.2375 10.4489 13.6797 10.664C14.1218 10.8791 14.4692 11.1771 14.7198 11.556C14.9705 11.9369 15.0948 12.3633 15.0948 12.8369C15.0948 13.3205 14.9784 13.7289 14.7455 14.0645C14.5125 14.4 14.2263 14.6565 13.8869 14.8362V14.9171C14.3349 15.1046 14.7 15.3908 14.9882 15.7757C15.2744 16.1606 15.4184 16.6205 15.4184 17.1573C15.4184 17.6942 15.2822 18.1737 15.0098 18.5942C14.7374 19.0146 14.3604 19.3461 13.8828 19.5869C13.4033 19.8276 12.8645 19.95 12.2664 19.95C11.5737 19.952 10.9343 19.7526 10.3442 19.3539Z" fill="#1A73E8"/>
<path d="M18.75 12.5566L17.2539 13.6441L16.502 12.5034L19.2 10.5573H20.2343V19.7369H18.75V12.5566Z" fill="#1A73E8"/>
<path d="M22.8948 30L30 22.8948L26.4474 21.3159L22.8948 22.8948L21.3159 26.4474L22.8948 30Z" fill="#EA4335"/>
<path d="M5.52625 26.4474L7.10515 30H22.8946V22.8948H7.10515L5.52625 26.4474Z" fill="#34A853"/>
<path d="M2.36835 0C1.0599 0 0 1.0599 0 2.36835V22.8946L3.5526 24.4735L7.1052 22.8946V7.1052H22.8946L24.4735 3.5526L22.8948 0H2.36835Z" fill="#4285F4"/>
<path d="M0 22.8948V27.6316C0 28.9402 1.0599 30 2.36835 30H7.1052V22.8948H0Z" fill="#188038"/>
<path d="M22.8948 7.1052V22.8946H30V7.1052L26.4474 5.5263L22.8948 7.1052Z" fill="#FBBC04"/>
<path d="M30 7.1052V2.36835C30 1.05975 28.9401 0 27.6316 0H22.8948V7.1052H30Z" fill="#1967D2"/>
</g>
</svg>
