<svg width="22" height="20" viewBox="0 0 22 20" fill="currentColor" xmlns="http://www.w3.org/2000/svg">
<path d="M0.769236 6.15727L10.9513 0.726923C11.0249 0.687266 11.1071 0.666504 11.1906 0.666504C11.2741 0.666504 11.3564 0.687266 11.4299 0.726923L21.612 6.15727C21.6932 6.20075 21.7611 6.26546 21.8085 6.34451C21.8559 6.42356 21.8809 6.51398 21.8809 6.60612C21.8809 6.69827 21.8559 6.78868 21.8085 6.86773C21.7611 6.94678 21.6932 7.01149 21.612 7.05497L19.1666 8.35995V12.5702C19.1667 12.8618 19.0594 13.1433 18.8654 13.361C17.7733 14.5769 15.3237 16.6183 11.1906 16.6183C9.73523 16.632 8.29213 16.3511 6.94807 15.7927V18.8244C6.94807 18.9594 6.89444 19.0889 6.79896 19.1844C6.70348 19.2799 6.57399 19.3335 6.43897 19.3335C6.30395 19.3335 6.17445 19.2799 6.07898 19.1844C5.9835 19.0889 5.92986 18.9594 5.92986 18.8244V15.2904C5.02625 14.7816 4.21102 14.1297 3.51586 13.3601C3.32135 13.143 3.21405 12.8616 3.21464 12.5702V8.35995L0.769236 7.05497C0.687994 7.01149 0.620077 6.94678 0.572725 6.86773C0.525373 6.78868 0.500366 6.69827 0.500366 6.60612C0.500366 6.51398 0.525373 6.42356 0.572725 6.34451C0.620077 6.26546 0.687994 6.20075 0.769236 6.15727ZM11.1906 15.6001C14.924 15.6001 17.1302 13.7708 18.1076 12.6805C18.1339 12.6497 18.1484 12.6106 18.1484 12.5702V8.90299L11.4299 12.4853C11.3562 12.5245 11.2741 12.5451 11.1906 12.5451C11.1072 12.5451 11.025 12.5245 10.9513 12.4853L6.94807 10.3505V14.6778C8.05113 15.2056 9.45541 15.6001 11.1906 15.6001ZM4.23285 12.5702C4.23285 12.6106 4.24729 12.6497 4.27357 12.6805C4.76257 13.2222 5.31923 13.6987 5.92986 14.0983V9.80748L4.23285 8.90299V12.5702ZM6.11229 8.75196C6.13854 8.72915 6.16696 8.70897 6.19714 8.69171L10.9488 6.15812C11.0672 6.10126 11.2029 6.09235 11.3277 6.13324C11.4525 6.17413 11.5567 6.26166 11.6185 6.37754C11.6802 6.49342 11.6948 6.62869 11.6592 6.75509C11.6236 6.88149 11.5405 6.98924 11.4273 7.05582L7.18141 9.32129L11.1906 11.4595L20.2909 6.60612L11.1906 1.75275L2.09036 6.60612L6.11229 8.75196Z" fill="currentColor"/>
</svg>
