<svg width="24" height="24" viewBox="0 0 24 24" fill="currentColor" xmlns="http://www.w3.org/2000/svg" overflow="visible">
<g clip-path="url(#clip0_1547_4101)">
<path d="M10.8 21.6V19.104C9.73639 18.9234 8.72694 18.5062 7.84626 17.8831C6.96559 17.26 6.2362 16.447 5.712 15.504C5.01848 15.634 4.30492 15.6101 3.6216 15.4343C2.93828 15.2584 2.30186 14.9348 1.75721 14.4863C1.21254 14.0377 0.772912 13.4752 0.4693 12.8382C0.165689 12.2014 0.00549031 11.5056 0 10.8V4.8C0 3.48 1.08 2.4 2.4 2.4H4.8C4.8 1.08 5.88 0 7.2 0H16.8C17.4365 0 18.0469 0.252857 18.497 0.702943C18.9472 1.15303 19.2 1.76348 19.2 2.4H21.6C22.2365 2.4 22.8469 2.65285 23.297 3.10295C23.7472 3.55303 24 4.16348 24 4.8V10.8C24.0005 11.5079 23.8444 12.2072 23.5429 12.8478C23.2414 13.4882 22.8019 14.0542 22.256 14.5049C21.7102 14.9556 21.0713 15.28 20.3852 15.4548C19.6992 15.6296 18.983 15.6505 18.288 15.516C17.7624 16.4567 17.0324 17.2674 16.1519 17.8884C15.2713 18.5094 14.2625 18.9248 13.2 19.104V21.6H18C18.3182 21.6 18.6235 21.7265 18.8485 21.9515C19.0735 22.1765 19.2 22.4818 19.2 22.8C19.2 23.1182 19.0735 23.4235 18.8485 23.6485C18.6235 23.8735 18.3182 24 18 24H6C5.68174 24 5.37652 23.8735 5.15147 23.6485C4.92643 23.4235 4.8 23.1182 4.8 22.8C4.8 22.4818 4.92643 22.1765 5.15147 21.9515C5.37652 21.7265 5.68174 21.6 6 21.6H10.8ZM19.104 13.2H19.2C19.8365 13.2 20.4469 12.9472 20.897 12.497C21.3472 12.0469 21.6 11.4365 21.6 10.8V4.8H19.2V12C19.2 12.408 19.164 12.804 19.104 13.2ZM4.896 13.2C4.83078 12.8034 4.79867 12.402 4.8 12V4.8H2.4V10.8C2.39974 11.1234 2.46485 11.4435 2.59142 11.7412C2.71799 12.0388 2.90341 12.3078 3.13654 12.532C3.36967 12.7561 3.6457 12.9308 3.94805 13.0456C4.2504 13.1604 4.57284 13.213 4.896 13.2ZM7.2 2.4V12C7.2 13.2731 7.70572 14.494 8.60588 15.3941C9.50606 16.2943 10.727 16.8 12 16.8C13.2731 16.8 14.494 16.2943 15.3941 15.3941C16.2943 14.494 16.8 13.2731 16.8 12V2.4H7.2Z" />
</g>
<defs>
<clipPath id="clip0_1547_4101">
<rect width="24" height="24" fill="currentColor"/>
</clipPath>
</defs>
</svg>
