<svg width="12" height="12" viewBox="0 0 12 12" fill="none" xmlns="http://www.w3.org/2000/svg">
<g clip-path="url(#clip0_2427_17189)">
<path d="M9.50028 5.2H8.7003V3.6C8.7003 2.04 7.46029 0.799998 5.90029 0.799998C4.34029 0.799998 3.10029 2.04 3.10029 3.6V5.2H2.30029V3.6C2.30029 1.6 3.9003 0 5.90029 0C7.90032 0 9.50028 1.6 9.50028 3.6V5.2Z" fill="#2E3036"/>
<path d="M9.10002 12H2.7C2.02 12 1.5 11.48 1.5 10.8V6.00005C1.5 5.32005 2.02 4.80005 2.7 4.80005H9.10002C9.78 4.80005 10.3 5.32005 10.3 6.00005V10.8C10.3 11.48 9.78 12 9.10002 12ZM2.7 5.60005C2.46 5.60005 2.3 5.76005 2.3 6.00005V10.8C2.3 11.04 2.46 11.2001 2.7 11.2001H9.10002C9.34002 11.2001 9.49998 11.04 9.49998 10.8V6.00005C9.49998 5.76005 9.34002 5.60005 9.10002 5.60005H2.7Z" fill="#2E3036"/>
<path d="M5.9001 7.99992C6.34192 7.99992 6.7001 7.64178 6.7001 7.19994C6.7001 6.7581 6.34192 6.3999 5.9001 6.3999C5.45827 6.3999 5.1001 6.7581 5.1001 7.19994C5.1001 7.64178 5.45827 7.99992 5.9001 7.99992Z" fill="#2E3036"/>
<path d="M6.09931 7.19995H5.69932L5.29932 9.59995H6.49932L6.09931 7.19995Z" fill="#2E3036"/>
</g>
<defs>
<clipPath id="clip0_2427_17189">
<rect width="12" height="12" fill="white"/>
</clipPath>
</defs>
</svg>
