<svg width="12" height="12" viewBox="0 0 12 12" fill="none" xmlns="http://www.w3.org/2000/svg">
<path d="M0.571359 10.8573C0.514216 10.8573 0.457073 10.8573 0.457073 10.8001C0.342787 10.743 0.285645 10.6287 0.285645 10.5715V2.17154C0.285645 2.05726 0.342787 2.00011 0.39993 1.94297C2.79993 0.228685 5.19993 1.7144 5.88564 2.17154C6.57136 1.65726 8.97136 0.171542 11.3714 1.94297C11.4285 2.00011 11.4856 2.05726 11.4856 2.17154V10.5715C11.4856 10.6858 11.4285 10.8001 11.3142 10.8001C11.1999 10.8573 11.0856 10.8573 11.0285 10.8001C8.57136 9.02869 6.17136 10.6858 5.99993 10.8001C5.88564 10.8573 5.77136 10.8573 5.65707 10.8001C5.54279 10.6858 3.08564 9.02869 0.628502 10.8001C0.685645 10.8573 0.628502 10.8573 0.571359 10.8573ZM6.17136 2.68583V10.0573C7.0285 9.60011 8.97136 8.9144 10.9142 10.0573V2.34297C8.79993 0.914399 6.68565 2.34297 6.17136 2.68583ZM3.14279 9.42869C4.2285 9.42869 5.14279 9.77154 5.65707 10.0573V2.68583C5.14279 2.34297 3.0285 0.914399 0.857073 2.34297V10.0573C1.65707 9.60011 2.39993 9.42869 3.14279 9.42869Z" fill="#2E3036"/>
</svg>
