<svg width="24" height="24" viewBox="0 0 24 24" fill="none" xmlns="http://www.w3.org/2000/svg">
<path d="M19.5 5.25H18V4.5C17.9996 4.1023 17.8414 3.721 17.5602 3.43978C17.279 3.15856 16.8977 3.0004 16.5 3H7.5C7.1023 3.0004 6.721 3.15856 6.43978 3.43978C6.15856 3.721 6.0004 4.1023 6 4.5V5.25H4.5C4.1023 5.2504 3.721 5.40856 3.43978 5.68978C3.15856 5.971 3.0004 6.3523 3 6.75V9C3.00099 9.79534 3.31738 10.5578 3.87978 11.1202C4.44217 11.6826 5.20466 11.999 6 12H6.2415C6.55403 13.148 7.19408 14.1802 8.08349 14.9705C8.9729 15.7609 10.0732 16.2751 11.25 16.4505V19.5H7.5V21H16.5V19.5H12.75V16.4482C13.9421 16.3009 15.0621 15.7976 15.9638 15.0041C16.8656 14.2106 17.5072 13.1637 17.805 12H18C18.7953 11.999 19.5578 11.6826 20.1202 11.1202C20.6826 10.5578 20.999 9.79534 21 9V6.75C20.9996 6.3523 20.8414 5.971 20.5602 5.68978C20.279 5.40856 19.8977 5.2504 19.5 5.25ZM6 10.5C5.6023 10.4996 5.221 10.3414 4.93978 10.0602C4.65856 9.779 4.5004 9.3977 4.5 9V6.75H6V10.5ZM19.5 9C19.4996 9.3977 19.3414 9.779 19.0602 10.0602C18.779 10.3414 18.3977 10.4996 18 10.5V6.75H19.5V9Z" fill="currentColor"/>
</svg>
