<svg width="24" height="24" viewBox="0 0 24 24" fill="none" xmlns="http://www.w3.org/2000/svg">
<g clip-path="url(#clip0_1547_4174)">
<path d="M4.7107 0.54541H3.66938C1.9497 0.54541 0.54541 1.9497 0.54541 3.66938V20.3306C0.54541 22.0502 1.9497 23.4545 3.66938 23.4545H20.3306C22.0502 23.4545 23.4545 22.0502 23.4545 20.3306V19.2892V17.2065V3.66938C23.4545 1.9497 22.0502 0.54541 20.3306 0.54541H6.79334H4.7107ZM21.3718 20.3306C21.3718 20.9018 20.9018 21.3718 20.3306 21.3718H3.66938C3.09814 21.3718 2.62805 20.9018 2.62805 20.3306V3.66938C2.62805 3.09814 3.09814 2.62805 3.66938 2.62805H20.3306C20.9018 2.62805 21.3718 3.09814 21.3718 3.66938V20.3306Z" fill="#2E3036"/>
<path d="M5.23457 7.69187H18.7717C19.0574 7.69187 19.2955 7.4598 19.2955 7.16823V6.12691C19.2955 5.84129 19.0633 5.60327 18.7717 5.60327H5.23457C4.94895 5.60327 4.71094 5.83534 4.71094 6.12691V7.16823C4.71094 7.4598 4.94301 7.69187 5.23457 7.69187Z" fill="#2E3036"/>
<path d="M5.23457 12.7498H18.7717C19.0574 12.7498 19.2955 12.5176 19.2955 12.2261V11.1848C19.2955 10.8991 19.0633 10.6611 18.7717 10.6611H5.23457C4.94895 10.6611 4.71094 10.8932 4.71094 11.1848V12.2261C4.71094 12.5176 4.94301 12.7498 5.23457 12.7498Z" fill="#2E3036"/>
<path d="M5.23457 17.8017H18.7717C19.0574 17.8017 19.2955 17.5696 19.2955 17.278V16.2368C19.2955 15.9512 19.0633 15.7131 18.7717 15.7131H5.23457C4.94895 15.7131 4.71094 15.9452 4.71094 16.2368V17.278C4.71094 17.5696 4.94301 17.8017 5.23457 17.8017Z" fill="#2E3036"/>
</g>
<defs>
<clipPath id="clip0_1547_4174">
<rect width="24" height="24" fill="white"/>
</clipPath>
</defs>
</svg>
