<svg width="24" height="24" viewBox="0 0 24 24" fill="none" xmlns="http://www.w3.org/2000/svg">
<g clip-path="url(#clip0_1547_4161)">
<path d="M21.6001 11.352V21.6C21.6001 22.2366 21.3473 22.847 20.8972 23.297C20.447 23.7472 19.8366 24 19.2001 24H15.6001C14.9636 24 14.3532 23.7472 13.9031 23.297C13.453 22.847 13.2001 22.2366 13.2001 21.6V16.8H10.8001V21.6C10.8001 22.2366 10.5473 22.847 10.0972 23.297C9.64709 23.7472 9.03664 24 8.40012 24H4.80012C4.16359 24 3.55315 23.7472 3.10306 23.297C2.65297 22.847 2.40012 22.2366 2.40012 21.6V11.352C1.67114 10.9312 1.06567 10.326 0.644424 9.59724C0.22318 8.86848 0.000979504 8.04178 0.000116123 7.20002V6.00002C-0.00248383 5.81314 0.0386077 5.62823 0.120116 5.46002L2.52012 0.660029C2.62075 0.460307 2.77519 0.29268 2.96603 0.176062C3.15685 0.0594431 3.37648 -0.00152731 3.60012 2.90687e-05H20.4001C20.6238 -0.00152731 20.8434 0.0594431 21.0342 0.176062C21.225 0.29268 21.3794 0.460307 21.4801 0.660029L23.8801 5.46002C23.9521 5.62802 24.0001 5.82002 24.0001 6.00002V7.20002C23.9993 8.04178 23.777 8.86848 23.3558 9.59724C22.9345 10.326 22.3291 10.9312 21.6001 11.352ZM19.2001 12C17.7601 12 16.4761 11.376 15.6001 10.38C15.1507 10.8925 14.5972 11.3031 13.9763 11.5845C13.3554 11.8658 12.6817 12.0113 12.0001 12.0113C11.3185 12.0113 10.6448 11.8658 10.0239 11.5845C9.4031 11.3031 8.8495 10.8925 8.40012 10.38C7.9497 10.8905 7.39562 11.299 6.77485 11.5783C6.15407 11.8577 5.48086 12.0014 4.80012 12V21.6H8.40012V16.8C8.40012 15.48 9.48012 14.4 10.8001 14.4H13.2001C13.8366 14.4 14.447 14.6528 14.8972 15.103C15.3473 15.5531 15.6001 16.1635 15.6001 16.8V21.6H19.2001V12ZM21.6001 7.20002H16.8001C16.8001 7.83655 17.053 8.44699 17.5031 8.89709C17.9532 9.34717 18.5636 9.60002 19.2001 9.60002C19.8366 9.60002 20.447 9.34717 20.8972 8.89709C21.3473 8.44699 21.6001 7.83655 21.6001 7.20002ZM14.4001 7.20002H9.60012C9.60012 7.83655 9.85297 8.44699 10.3031 8.89709C10.7532 9.34717 11.3636 9.60002 12.0001 9.60002C12.6366 9.60002 13.247 9.34717 13.6972 8.89709C14.1473 8.44699 14.4001 7.83655 14.4001 7.20002ZM7.20012 7.20002H2.40012C2.40012 7.83655 2.65297 8.44699 3.10306 8.89709C3.55315 9.34717 4.16359 9.60002 4.80012 9.60002C5.43664 9.60002 6.04709 9.34717 6.49717 8.89709C6.94726 8.44699 7.20012 7.83655 7.20012 7.20002ZM20.8561 4.80002L19.6561 2.40002H4.34412L3.14412 4.80002H20.8561Z" fill="#2E3036"/>
</g>
<defs>
<clipPath id="clip0_1547_4161">
<rect width="24" height="24" fill="white"/>
</clipPath>
</defs>
</svg>
