<svg width="24" height="24" viewBox="0 0 24 24" fill="none" xmlns="http://www.w3.org/2000/svg">
<g clip-path="url(#clip0_1547_4237)">
<path d="M20.3999 24H15.5999C14.8799 24 14.3999 23.52 14.3999 22.8C14.3999 22.08 14.8799 21.6 15.5999 21.6H20.3999C20.7599 21.6 20.9999 21.48 21.2399 21.24C21.4799 21 21.5999 20.76 21.5999 20.4V3.6C21.5999 3.24 21.4799 3 21.2399 2.76C20.9999 2.52 20.7599 2.4 20.3999 2.4H15.5999C14.8799 2.4 14.3999 1.92 14.3999 1.2C14.3999 0.48 14.8799 0 15.5999 0H20.3999C21.3599 0 22.3199 0.36 22.9199 1.08C23.6399 1.68 23.9999 2.64 23.9999 3.6V20.4C23.9999 21.36 23.6399 22.32 22.9199 22.92C22.1999 23.52 21.3599 24 20.3999 24Z" fill="#2E3036"/>
<path d="M7.2 19.2C6.84 19.2 6.6 19.08 6.36 18.84L0.36 12.84C-0.12 12.36 -0.12 11.64 0.36 11.16L6.36 5.16005C6.84 4.68005 7.56 4.68005 8.04 5.16005C8.52 5.64005 8.52 6.36005 8.04 6.84005L2.88 12L8.04 17.16C8.52 17.64 8.52 18.36 8.04 18.84C7.8 19.08 7.56 19.2 7.2 19.2Z" fill="#2E3036"/>
<path d="M15.6 13.2H1.2C0.48 13.2 0 12.72 0 12C0 11.28 0.48 10.8 1.2 10.8H15.6C16.32 10.8 16.8 11.28 16.8 12C16.8 12.72 16.32 13.2 15.6 13.2Z" fill="#2E3036"/>
</g>
<defs>
<clipPath id="clip0_1547_4237">
<rect width="24" height="24" fill="white"/>
</clipPath>
</defs>
</svg>
