<svg width="23" height="25" viewBox="0 0 23 25" fill="none" xmlns="http://www.w3.org/2000/svg">
<path d="M11.5002 12.5C9.9089 12.5 8.38278 11.8679 7.25756 10.7426C6.13233 9.61742 5.5002 8.0913 5.5002 6.5C5.5002 4.9087 6.13233 3.38258 7.25756 2.25736C8.38278 1.13214 9.9089 0.5 11.5002 0.5C13.0915 0.5 14.6177 1.13214 15.7428 2.25736C16.868 3.38258 17.5002 4.9087 17.5002 6.5C17.5002 8.0913 16.868 9.61742 15.7428 10.7426C14.6177 11.8679 13.0915 12.5 11.5002 12.5ZM11.5002 10.1C11.973 10.1 12.4411 10.0069 12.8779 9.82597C13.3146 9.64504 13.7114 9.37988 14.0458 9.04558C14.3801 8.71129 14.6453 8.31444 14.8261 7.87766C15.0071 7.44088 15.1002 6.97276 15.1002 6.5C15.1002 6.02724 15.0071 5.55912 14.8261 5.12234C14.6453 4.68556 14.3801 4.28871 14.0458 3.95442C13.7114 3.62012 13.3146 3.35496 12.8779 3.17403C12.4411 2.99312 11.973 2.9 11.5002 2.9C10.5454 2.9 9.62974 3.27928 8.95461 3.95442C8.27948 4.62955 7.9002 5.54522 7.9002 6.5C7.9002 7.45478 8.27948 8.37045 8.95461 9.04558C9.62974 9.72072 10.5454 10.1 11.5002 10.1ZM22.3002 23.3C22.3002 23.6182 22.1737 23.9235 21.9487 24.1485C21.7237 24.3735 21.4184 24.5 21.1002 24.5C20.782 24.5 20.4767 24.3735 20.2517 24.1485C20.0267 23.9235 19.9002 23.6182 19.9002 23.3V20.9C19.9002 19.9453 19.5209 19.0296 18.8458 18.3544C18.1706 17.6793 17.2549 17.3 16.3002 17.3H6.7002C5.74542 17.3 4.82974 17.6793 4.15461 18.3544C3.47948 19.0296 3.1002 19.9453 3.1002 20.9V23.3C3.1002 23.6182 2.97376 23.9235 2.74873 24.1485C2.52368 24.3735 2.21846 24.5 1.9002 24.5C1.58194 24.5 1.27671 24.3735 1.05167 24.1485C0.826624 23.9235 0.700195 23.6182 0.700195 23.3V20.9C0.700195 19.3087 1.33234 17.7825 2.45756 16.6574C3.58278 15.5322 5.1089 14.9 6.7002 14.9H16.3002C17.8915 14.9 19.4177 15.5322 20.5428 16.6574C21.668 17.7825 22.3002 19.3087 22.3002 20.9V23.3Z" fill="#2E3036"/>
</svg>
