<svg width="12" height="12" viewBox="0 0 12 12" fill="none" xmlns="http://www.w3.org/2000/svg">
<g clip-path="url(#clip0_2427_17178)">
<path d="M1.01579 11.0371L1.01569 11.0376H1.0221H10.9781V11.0378L10.9824 11.0373C10.9877 11.0367 10.9931 11.036 10.9983 11.0351L10.9984 11.0351L11.0012 11.0345L11.0092 11.0324L11.0377 11.0253L11.0376 10.9959C11.0366 10.7404 10.8798 9.99077 10.1946 9.30557C9.53425 8.64527 8.29705 7.96262 6.0001 7.96262C3.70216 7.96262 2.46592 8.64527 1.80558 9.30557C1.12031 9.99085 0.964673 10.7404 0.962595 10.9958L0.962348 11.027L0.993 11.0329C1.00058 11.0344 1.00817 11.0357 1.01579 11.0371ZM11.0001 11.9626H11H1.00013H1.00007H0.999668H0.99783L0.99012 11.9624C0.983235 11.9621 0.972968 11.9617 0.959798 11.9607C0.933458 11.9588 0.895568 11.9551 0.850013 11.9474C0.758715 11.9323 0.637566 11.9019 0.516868 11.8415C0.396317 11.7812 0.276906 11.6915 0.18755 11.5574C0.0983492 11.4236 0.0375977 11.2436 0.0375977 11.0001C0.0375977 10.5097 0.283868 9.5194 1.15162 8.65165C2.01826 7.78495 3.508 7.03759 6.0001 7.03759C8.4922 7.03759 9.98192 7.78495 10.8485 8.65165C11.7163 9.5194 11.9626 10.5097 11.9626 11.0001C11.9626 11.2436 11.9018 11.4236 11.8127 11.5574C11.7233 11.6915 11.6039 11.7812 11.4833 11.8415C11.3626 11.9019 11.2415 11.9323 11.1502 11.9474C11.1046 11.9551 11.0667 11.9588 11.0404 11.9607C11.0272 11.9617 11.017 11.9621 11.0101 11.9624L11.0024 11.9626H11.0005H11.0001ZM0.967598 11.0541V11.0561H1.0051H1.0426V11.0541H1.0051H0.967598ZM10.9586 11.0541V11.0561H10.9961H11.0336V11.0541H10.9961H10.9586ZM6.0001 5.0376C6.54047 5.0376 7.05872 4.82293 7.44082 4.44082C7.8229 4.05872 8.03762 3.54047 8.03762 3.0001C8.03762 2.45972 7.8229 1.94147 7.44082 1.55937C7.05872 1.17726 6.54047 0.962595 6.0001 0.962595C5.45972 0.962595 4.94147 1.17726 4.55937 1.55937C4.17726 1.94147 3.96259 2.45972 3.96259 3.0001C3.96259 3.54047 4.17726 4.05872 4.55937 4.44082C4.94147 4.82293 5.45972 5.0376 6.0001 5.0376ZM8.9626 3.0001C8.9626 3.7858 8.65045 4.53932 8.09492 5.0949C7.53932 5.65048 6.7858 5.9626 6.0001 5.9626C5.21439 5.9626 4.46087 5.65048 3.90529 5.0949C3.34972 4.53932 3.0376 3.7858 3.0376 3.0001C3.0376 2.21439 3.34972 1.46087 3.90529 0.905295C4.46087 0.349718 5.21439 0.0375977 6.0001 0.0375977C6.7858 0.0375977 7.53932 0.349718 8.09492 0.905295C8.65045 1.46087 8.9626 2.21439 8.9626 3.0001Z" fill="#2E3036"/>
</g>
<defs>
<clipPath id="clip0_2427_17178">
<rect width="12" height="12" fill="white"/>
</clipPath>
</defs>
</svg>
