<svg width="194" height="101" viewBox="0 0 194 101" fill="none" xmlns="http://www.w3.org/2000/svg">
<mask id="path-1-inside-1_1477_192" fill="white">
<path fill-rule="evenodd" clip-rule="evenodd" d="M43.3792 2.71204L12.8298 32.794C10.1443 30.1499 5.99333 24.4807 4.98034 17.0299C5.57149 16.9233 6.14464 16.6695 6.64284 16.2627C8.20841 14.9842 8.44101 12.6786 7.16236 11.1129C5.88371 9.54734 3.57802 9.31461 2.01245 10.5931C0.446874 11.8716 0.214275 14.1773 1.49292 15.7429C1.79614 16.1141 2.15712 16.4104 2.55228 16.6294C3.46924 25.0201 8.06486 31.4022 11.1476 34.4504L8.43219 37.1243C5.23009 40.2773 5.19035 45.4293 8.34342 48.6314L40.1354 80.9179C37.3144 86.8164 36.9393 92.8134 37.2687 96.5981L33.2819 95.9346C32.4778 95.8008 31.7175 96.3442 31.5837 97.1483L31.516 97.555C31.3822 98.359 31.9256 99.1193 32.7296 99.2531L38.4458 100.204C39.2499 100.338 40.0102 99.7948 40.144 98.9907L40.2117 98.584C40.3002 98.052 40.0923 97.5391 39.7085 97.2142C39.301 94.0641 39.4194 88.3924 41.9081 82.7182L42.7553 83.5787C45.9084 86.7808 51.0603 86.8205 54.2624 83.6674L57.7837 80.2C62.7623 83.8202 68.1915 85.333 71.7874 85.7917L70.2931 89.5478C69.9918 90.3052 70.3615 91.1635 71.1189 91.4648L71.502 91.6172C72.2594 91.9185 73.1176 91.5487 73.4189 90.7913L75.5609 85.4069C75.8622 84.6495 75.4925 83.7913 74.7351 83.49L74.352 83.3376C73.8513 83.1384 73.3064 83.2325 72.9076 83.538C69.8032 83.2737 64.4326 81.9997 59.4918 78.518L85.12 53.282C88.1526 55.2823 91.5471 58.324 93.9937 62.5701C93.4863 62.8922 93.0512 63.344 92.7435 63.9094C91.7773 65.6848 92.4334 67.9073 94.2089 68.8735C95.9845 69.8396 98.2071 69.1836 99.1733 67.4082C100.14 65.6328 99.4834 63.4103 97.7079 62.4441C97.2873 62.2152 96.8416 62.0774 96.3935 62.0239C93.8266 57.2851 90.1807 53.8712 86.8373 51.5909L89.2094 49.2552C92.4115 46.1021 92.4512 40.9502 89.2981 37.7481L54.8862 2.8008C51.7331 -0.40132 46.5812 -0.44106 43.3792 2.71204Z"/>
</mask>
<path fill-rule="evenodd" clip-rule="evenodd" d="M43.3792 2.71204L12.8298 32.794C10.1443 30.1499 5.99333 24.4807 4.98034 17.0299C5.57149 16.9233 6.14464 16.6695 6.64284 16.2627C8.20841 14.9842 8.44101 12.6786 7.16236 11.1129C5.88371 9.54734 3.57802 9.31461 2.01245 10.5931C0.446874 11.8716 0.214275 14.1773 1.49292 15.7429C1.79614 16.1141 2.15712 16.4104 2.55228 16.6294C3.46924 25.0201 8.06486 31.4022 11.1476 34.4504L8.43219 37.1243C5.23009 40.2773 5.19035 45.4293 8.34342 48.6314L40.1354 80.9179C37.3144 86.8164 36.9393 92.8134 37.2687 96.5981L33.2819 95.9346C32.4778 95.8008 31.7175 96.3442 31.5837 97.1483L31.516 97.555C31.3822 98.359 31.9256 99.1193 32.7296 99.2531L38.4458 100.204C39.2499 100.338 40.0102 99.7948 40.144 98.9907L40.2117 98.584C40.3002 98.052 40.0923 97.5391 39.7085 97.2142C39.301 94.0641 39.4194 88.3924 41.9081 82.7182L42.7553 83.5787C45.9084 86.7808 51.0603 86.8205 54.2624 83.6674L57.7837 80.2C62.7623 83.8202 68.1915 85.333 71.7874 85.7917L70.2931 89.5478C69.9918 90.3052 70.3615 91.1635 71.1189 91.4648L71.502 91.6172C72.2594 91.9185 73.1176 91.5487 73.4189 90.7913L75.5609 85.4069C75.8622 84.6495 75.4925 83.7913 74.7351 83.49L74.352 83.3376C73.8513 83.1384 73.3064 83.2325 72.9076 83.538C69.8032 83.2737 64.4326 81.9997 59.4918 78.518L85.12 53.282C88.1526 55.2823 91.5471 58.324 93.9937 62.5701C93.4863 62.8922 93.0512 63.344 92.7435 63.9094C91.7773 65.6848 92.4334 67.9073 94.2089 68.8735C95.9845 69.8396 98.2071 69.1836 99.1733 67.4082C100.14 65.6328 99.4834 63.4103 97.7079 62.4441C97.2873 62.2152 96.8416 62.0774 96.3935 62.0239C93.8266 57.2851 90.1807 53.8712 86.8373 51.5909L89.2094 49.2552C92.4115 46.1021 92.4512 40.9502 89.2981 37.7481L54.8862 2.8008C51.7331 -0.40132 46.5812 -0.44106 43.3792 2.71204Z" fill="url(#paint0_linear_1477_192)"/>
<path d="M12.8298 32.794L11.7002 33.9413L12.8298 35.0536L13.9595 33.9412L12.8298 32.794ZM43.3792 2.71204L42.2495 1.56479L43.3792 2.71204ZM4.98034 17.0299L4.69479 15.4453L3.17718 15.7188L3.38492 17.2468L4.98034 17.0299ZM6.64284 16.2627L7.66126 17.5098L7.66126 17.5098L6.64284 16.2627ZM7.16236 11.1129L8.40941 10.0945L8.40941 10.0945L7.16236 11.1129ZM2.01245 10.5931L3.03087 11.8402L3.03087 11.8402L2.01245 10.5931ZM1.49292 15.7429L2.73997 14.7244L1.49292 15.7429ZM2.55228 16.6294L4.15285 16.4545L4.06224 15.6254L3.3327 15.2211L2.55228 16.6294ZM11.1476 34.4504L12.2773 35.5977L13.4399 34.4528L12.2797 33.3055L11.1476 34.4504ZM8.43219 37.1243L9.56189 38.2715L9.56189 38.2715L8.43219 37.1243ZM8.34342 48.6314L7.19616 49.7611L7.19616 49.7611L8.34342 48.6314ZM40.1354 80.9179L41.5879 81.6126L42.0754 80.5933L41.2826 79.7882L40.1354 80.9179ZM37.2687 96.5981L37.0044 98.1863L39.0527 98.5272L38.8727 96.4585L37.2687 96.5981ZM33.2819 95.9346L33.0176 97.5229L33.0176 97.5229L33.2819 95.9346ZM31.5837 97.1483L29.9954 96.884L29.9954 96.884L31.5837 97.1483ZM31.516 97.555L33.1043 97.8193L33.1043 97.8193L31.516 97.555ZM32.7296 99.2531L32.4653 100.841L32.4653 100.841L32.7296 99.2531ZM38.4458 100.204L38.1815 101.793L38.1816 101.793L38.4458 100.204ZM40.144 98.9907L41.7323 99.255L41.7323 99.255L40.144 98.9907ZM40.2117 98.584L38.6234 98.3197L38.6234 98.3197L40.2117 98.584ZM39.7085 97.2142L38.1117 97.4208L38.1918 98.0398L38.6682 98.4431L39.7085 97.2142ZM41.9081 82.7182L43.0554 81.5886L41.3881 79.8953L40.4336 82.0715L41.9081 82.7182ZM42.7553 83.5787L41.6081 84.7083L41.6081 84.7084L42.7553 83.5787ZM54.2624 83.6674L53.1327 82.5202L53.1327 82.5202L54.2624 83.6674ZM57.7837 80.2L58.7307 78.8978L57.6267 78.095L56.654 79.0527L57.7837 80.2ZM71.7874 85.7917L73.2834 86.3868L74.051 84.4572L71.9911 84.1945L71.7874 85.7917ZM70.2931 89.5478L71.7892 90.143L71.7892 90.143L70.2931 89.5478ZM71.1189 91.4648L71.7141 89.9687L71.7141 89.9687L71.1189 91.4648ZM71.502 91.6172L70.9068 93.1132L70.9069 93.1132L71.502 91.6172ZM73.4189 90.7913L71.9229 90.1962L71.9229 90.1962L73.4189 90.7913ZM75.5609 85.4069L74.0649 84.8117L74.0649 84.8117L75.5609 85.4069ZM74.7351 83.49L74.1399 84.986L74.1399 84.986L74.7351 83.49ZM74.352 83.3376L74.9472 81.8415L74.9472 81.8415L74.352 83.3376ZM72.9076 83.538L72.771 85.1423L73.3921 85.1952L73.8869 84.8161L72.9076 83.538ZM59.4918 78.518L58.3621 77.3708L56.9883 78.7235L58.5644 79.8341L59.4918 78.518ZM85.12 53.282L86.0066 51.9379L84.9188 51.2204L83.9903 52.1347L85.12 53.282ZM93.9937 62.5701L94.8566 63.9295L96.159 63.1028L95.3888 61.7662L93.9937 62.5701ZM92.7435 63.9094L94.1578 64.679L94.1578 64.679L92.7435 63.9094ZM94.2089 68.8735L93.4394 70.2877L93.4394 70.2877L94.2089 68.8735ZM97.7079 62.4441L98.4775 61.0299L98.4775 61.0299L97.7079 62.4441ZM96.3935 62.0239L94.9777 62.7908L95.3748 63.5238L96.2026 63.6227L96.3935 62.0239ZM86.8373 51.5909L85.7076 50.4437L84.3123 51.8177L85.9301 52.9211L86.8373 51.5909ZM89.2094 49.2552L90.3391 50.4025L90.3391 50.4025L89.2094 49.2552ZM89.2981 37.7481L88.1509 38.8778L88.1509 38.8778L89.2981 37.7481ZM54.8862 2.8008L56.0335 1.67111L56.0335 1.67111L54.8862 2.8008ZM13.9595 33.9412L44.5089 3.8593L42.2495 1.56479L11.7001 31.6467L13.9595 33.9412ZM3.38492 17.2468C4.4591 25.1476 8.84049 31.1258 11.7002 33.9413L13.9594 31.6466C11.448 29.174 7.52757 23.8137 6.57576 16.813L3.38492 17.2468ZM5.62441 15.0156C5.34327 15.2452 5.02387 15.386 4.69479 15.4453L5.26589 18.6144C6.11911 18.4607 6.94601 18.0939 7.66126 17.5098L5.62441 15.0156ZM5.91532 12.1314C6.63151 13.0083 6.50115 14.2996 5.62441 15.0156L7.66126 17.5098C9.91566 15.6687 10.2505 12.3488 8.40941 10.0945L5.91532 12.1314ZM3.03087 11.8402C3.90765 11.1242 5.19909 11.2545 5.91532 12.1314L8.40941 10.0945C6.56834 7.84022 3.24838 7.50502 0.994021 9.34604L3.03087 11.8402ZM2.73997 14.7244C2.02377 13.8475 2.15413 12.5562 3.03087 11.8402L0.994022 9.34604C-1.26038 11.1871 -1.59522 14.507 0.245876 16.7613L2.73997 14.7244ZM3.3327 15.2211C3.11343 15.0996 2.91167 14.9346 2.73997 14.7244L0.245876 16.7613C0.680613 17.2936 1.2008 17.7213 1.77187 18.0377L3.3327 15.2211ZM12.2797 33.3055C9.37491 30.4333 5.01834 24.3743 4.15285 16.4545L0.951715 16.8043C1.92013 25.6659 6.75481 32.3712 10.0155 35.5953L12.2797 33.3055ZM9.56189 38.2715L12.2773 35.5977L10.0179 33.3032L7.30249 35.977L9.56189 38.2715ZM9.49068 47.5017C6.96152 44.9332 6.9934 40.8007 9.56189 38.2715L7.30249 35.977C3.46678 39.754 3.41918 45.9254 7.19616 49.7611L9.49068 47.5017ZM41.2826 79.7882L9.49068 47.5017L7.19616 49.7611L38.9881 82.0476L41.2826 79.7882ZM38.8727 96.4585C38.562 92.8873 38.9193 87.1925 41.5879 81.6126L38.6828 80.2232C35.7095 86.4403 35.3167 92.7394 35.6646 96.7377L38.8727 96.4585ZM33.0176 97.5229L37.0044 98.1863L37.533 95.0098L33.5462 94.3464L33.0176 97.5229ZM33.172 97.4126C33.1598 97.4857 33.0907 97.5351 33.0176 97.5229L33.5462 94.3464C31.8649 94.0666 30.2752 95.2027 29.9954 96.884L33.172 97.4126ZM33.1043 97.8193L33.172 97.4126L29.9954 96.884L29.9278 97.2907L33.1043 97.8193ZM32.994 97.6649C33.067 97.677 33.1165 97.7461 33.1043 97.8193L29.9278 97.2907C29.648 98.9719 30.7841 100.562 32.4653 100.841L32.994 97.6649ZM38.7101 98.6161L32.9939 97.6649L32.4653 100.841L38.1815 101.793L38.7101 98.6161ZM38.5557 98.7264C38.5679 98.6533 38.637 98.6039 38.7101 98.6161L38.1816 101.793C39.8628 102.072 41.4525 100.936 41.7323 99.255L38.5557 98.7264ZM38.6234 98.3197L38.5557 98.7264L41.7323 99.255L41.7999 98.8483L38.6234 98.3197ZM38.6682 98.4431C38.6513 98.4289 38.6388 98.4112 38.631 98.3904C38.6222 98.3672 38.6198 98.3413 38.6234 98.3197L41.7999 98.8483C41.9854 97.734 41.5475 96.6615 40.7489 95.9854L38.6682 98.4431ZM40.4336 82.0715C37.8036 88.0678 37.675 94.0452 38.1117 97.4208L41.3053 97.0077C40.9269 94.0831 41.0352 88.717 43.3826 83.365L40.4336 82.0715ZM43.9026 82.449L43.0554 81.5886L40.7608 83.8479L41.6081 84.7083L43.9026 82.449ZM53.1327 82.5202C50.5642 85.0494 46.4318 85.0175 43.9026 82.449L41.6081 84.7084C45.3851 88.5441 51.5564 88.5917 55.3921 84.8147L53.1327 82.5202ZM56.654 79.0527L53.1327 82.5202L55.3921 84.8147L58.9134 81.3472L56.654 79.0527ZM71.9911 84.1945C68.6006 83.7621 63.4439 82.3251 58.7307 78.8978L56.8368 81.5022C62.0807 85.3154 67.7824 86.904 71.5836 87.3888L71.9911 84.1945ZM71.7892 90.143L73.2834 86.3868L70.2913 85.1965L68.797 88.9527L71.7892 90.143ZM71.7141 89.9687C71.783 89.9961 71.8166 90.0741 71.7892 90.143L68.797 88.9527C68.1671 90.5363 68.9401 92.3308 70.5238 92.9608L71.7141 89.9687ZM72.0972 90.1211L71.7141 89.9687L70.5238 92.9608L70.9068 93.1132L72.0972 90.1211ZM71.9229 90.1962C71.9503 90.1273 72.0283 90.0937 72.0972 90.1211L70.9069 93.1132C72.4905 93.7432 74.285 92.9701 74.915 91.3865L71.9229 90.1962ZM74.0649 84.8117L71.9229 90.1962L74.915 91.3865L77.057 86.002L74.0649 84.8117ZM74.1399 84.986C74.0711 84.9586 74.0375 84.8806 74.0649 84.8117L77.057 86.002C77.687 84.4184 76.9139 82.6239 75.3303 81.9939L74.1399 84.986ZM73.7569 84.8336L74.1399 84.986L75.3303 81.9939L74.9472 81.8415L73.7569 84.8336ZM73.8869 84.8161C73.8694 84.8295 73.8495 84.838 73.8275 84.8412C73.803 84.8449 73.7772 84.8417 73.7569 84.8336L74.9472 81.8415C73.8984 81.4243 72.7584 81.624 71.9284 82.2599L73.8869 84.8161ZM58.5644 79.8341C63.7838 83.5122 69.4428 84.8589 72.771 85.1423L73.0442 81.9337C70.1636 81.6885 65.0815 80.4873 60.4193 77.2019L58.5644 79.8341ZM83.9903 52.1347L58.3621 77.3708L60.6215 79.6653L86.2497 54.4292L83.9903 52.1347ZM95.3888 61.7662C92.7884 57.2531 89.1945 54.0407 86.0066 51.9379L84.2335 54.626C87.1107 56.5239 90.3059 59.3949 92.5987 63.3739L95.3888 61.7662ZM94.1578 64.679C94.3314 64.36 94.5741 64.1088 94.8566 63.9295L93.1309 61.2107C92.3985 61.6756 91.771 62.3281 91.3293 63.1397L94.1578 64.679ZM94.9785 67.4592C93.984 66.918 93.6167 65.6733 94.1578 64.679L91.3293 63.1397C89.938 65.6963 90.8828 68.8965 93.4394 70.2877L94.9785 67.4592ZM97.7591 66.6386C97.218 67.6329 95.9731 68.0004 94.9785 67.4592L93.4394 70.2877C95.9959 71.6789 99.1962 70.7344 100.588 68.1779L97.7591 66.6386ZM96.9383 63.8584C97.9328 64.3996 98.3002 65.6443 97.7591 66.6386L100.588 68.1779C101.979 65.6213 101.034 62.4211 98.4775 61.0299L96.9383 63.8584ZM96.2026 63.6227C96.4513 63.6523 96.7001 63.7288 96.9383 63.8584L98.4775 61.0299C97.8745 60.7017 97.232 60.5025 96.5843 60.4252L96.2026 63.6227ZM85.9301 52.9211C89.114 55.0926 92.5601 58.3275 94.9777 62.7908L97.8092 61.257C95.0931 56.2427 91.2474 52.6498 87.7445 50.2608L85.9301 52.9211ZM88.0797 48.108L85.7076 50.4437L87.967 52.7382L90.3391 50.4025L88.0797 48.108ZM88.1509 38.8778C90.68 41.4463 90.6482 45.5788 88.0797 48.108L90.3391 50.4025C94.1748 46.6255 94.2224 40.4541 90.4454 36.6184L88.1509 38.8778ZM53.7389 3.93049L88.1509 38.8778L90.4454 36.6184L56.0335 1.67111L53.7389 3.93049ZM44.5089 3.8593C47.0773 1.33011 51.2098 1.36199 53.7389 3.93049L56.0335 1.67111C52.2565 -2.16463 46.0852 -2.21223 42.2495 1.56479L44.5089 3.8593Z" fill="#038346" mask="url(#path-1-inside-1_1477_192)"/>
<ellipse cx="2.28758" cy="2.2876" rx="2.28758" ry="2.2876" transform="matrix(-0.99997 -0.00771396 -0.00771383 0.99997 37.3633 32.8408)" fill="black"/>
<ellipse cx="2.28758" cy="2.2876" rx="2.28758" ry="2.2876" transform="matrix(-0.99997 -0.00771396 -0.00771383 0.99997 51.9878 34.9117)" fill="black"/>
<path d="M55.9148 30.0572C55.6675 28.3746 52.8278 26.8753 50.7867 27.3496" stroke="black" stroke-width="1.6101" stroke-linecap="round" stroke-linejoin="round"/>
<path d="M36.8717 26.5492C35.6911 25.3251 32.5094 25.7592 31.1259 27.333" stroke="black" stroke-width="1.6101" stroke-linecap="round" stroke-linejoin="round"/>
<path d="M36.9109 47.3056C38.6168 49.5908 44.0009 49.5395 46.6342 47.2132L41.6394 53.6868L36.9109 47.789" stroke="black" stroke-width="1.6101" stroke-linecap="round" stroke-linejoin="round"/>
<mask id="path-8-inside-2_1477_192" fill="white">
<path fill-rule="evenodd" clip-rule="evenodd" d="M149.989 13.5514L123.779 39.3602C121.378 41.725 121.348 45.5889 123.713 47.9905L125.255 49.5571C123.433 51.8684 120.348 54.7441 116.085 56.3165C115.911 55.9009 115.632 55.5225 115.254 55.2238C114.063 54.2851 112.337 54.4893 111.399 55.6798C110.46 56.8703 110.664 58.5964 111.854 59.535C113.045 60.4737 114.771 60.2695 115.709 59.079C115.932 58.7967 116.09 58.4842 116.186 58.1593C120.958 56.5402 124.42 53.4211 126.506 50.8277L147.557 72.2056C145.442 76.6291 145.16 81.1263 145.407 83.9647L142.418 83.4672C141.815 83.3669 141.244 83.7744 141.144 84.3775L141.093 84.6825C140.993 85.2855 141.4 85.8557 142.003 85.9561L146.291 86.6695C146.894 86.7698 147.464 86.3623 147.564 85.7593L147.615 85.4543C147.681 85.055 147.525 84.6701 147.237 84.4264C146.931 82.0639 147.02 77.8108 148.887 73.5558L149.521 74.2007C151.886 76.6022 155.75 76.632 158.152 74.2672L163.647 68.8561C163.525 69.0349 163.467 69.2586 163.503 69.4896C164.44 75.6166 167.964 80.1781 170.458 82.4864L167.91 84.1281C167.396 84.4592 167.248 85.1442 167.579 85.6581L167.746 85.9181C168.077 86.432 168.762 86.5802 169.276 86.2492L172.93 83.8956C173.444 83.5645 173.592 82.8795 173.261 82.3656L173.093 82.1056C172.874 81.7657 172.501 81.5857 172.124 81.5987C169.893 79.701 166.181 75.2846 165.253 69.2219C165.18 68.7384 164.728 68.4065 164.244 68.4804C164.114 68.5004 163.994 68.5479 163.891 68.6162L179.743 53.0069C182.425 53.4678 185.665 54.5331 188.618 56.7062C188.367 57.0804 188.204 57.5218 188.164 58.0028C188.036 59.5133 189.156 60.8417 190.667 60.9698C192.177 61.0979 193.506 59.9772 193.634 58.4666C193.762 56.9561 192.642 55.6277 191.131 55.4997C190.773 55.4693 190.425 55.5091 190.102 55.6075C187.217 53.3656 184.053 52.133 181.268 51.505L184.362 48.4584C186.763 46.0936 186.793 42.2297 184.428 39.8281L158.62 13.6179C156.255 11.2164 152.391 11.1866 149.989 13.5514Z"/>
</mask>
<path fill-rule="evenodd" clip-rule="evenodd" d="M149.989 13.5514L123.779 39.3602C121.378 41.725 121.348 45.5889 123.713 47.9905L125.255 49.5571C123.433 51.8684 120.348 54.7441 116.085 56.3165C115.911 55.9009 115.632 55.5225 115.254 55.2238C114.063 54.2851 112.337 54.4893 111.399 55.6798C110.46 56.8703 110.664 58.5964 111.854 59.535C113.045 60.4737 114.771 60.2695 115.709 59.079C115.932 58.7967 116.09 58.4842 116.186 58.1593C120.958 56.5402 124.42 53.4211 126.506 50.8277L147.557 72.2056C145.442 76.6291 145.16 81.1263 145.407 83.9647L142.418 83.4672C141.815 83.3669 141.244 83.7744 141.144 84.3775L141.093 84.6825C140.993 85.2855 141.4 85.8557 142.003 85.9561L146.291 86.6695C146.894 86.7698 147.464 86.3623 147.564 85.7593L147.615 85.4543C147.681 85.055 147.525 84.6701 147.237 84.4264C146.931 82.0639 147.02 77.8108 148.887 73.5558L149.521 74.2007C151.886 76.6022 155.75 76.632 158.152 74.2672L163.647 68.8561C163.525 69.0349 163.467 69.2586 163.503 69.4896C164.44 75.6166 167.964 80.1781 170.458 82.4864L167.91 84.1281C167.396 84.4592 167.248 85.1442 167.579 85.6581L167.746 85.9181C168.077 86.432 168.762 86.5802 169.276 86.2492L172.93 83.8956C173.444 83.5645 173.592 82.8795 173.261 82.3656L173.093 82.1056C172.874 81.7657 172.501 81.5857 172.124 81.5987C169.893 79.701 166.181 75.2846 165.253 69.2219C165.18 68.7384 164.728 68.4065 164.244 68.4804C164.114 68.5004 163.994 68.5479 163.891 68.6162L179.743 53.0069C182.425 53.4678 185.665 54.5331 188.618 56.7062C188.367 57.0804 188.204 57.5218 188.164 58.0028C188.036 59.5133 189.156 60.8417 190.667 60.9698C192.177 61.0979 193.506 59.9772 193.634 58.4666C193.762 56.9561 192.642 55.6277 191.131 55.4997C190.773 55.4693 190.425 55.5091 190.102 55.6075C187.217 53.3656 184.053 52.133 181.268 51.505L184.362 48.4584C186.763 46.0936 186.793 42.2297 184.428 39.8281L158.62 13.6179C156.255 11.2164 152.391 11.1866 149.989 13.5514Z" fill="url(#paint1_linear_1477_192)"/>
<path d="M123.779 39.3602L122.932 38.4998L122.932 38.4998L123.779 39.3602ZM149.989 13.5514L150.837 14.4118L149.989 13.5514ZM123.713 47.9905L122.852 48.8378L122.852 48.8378L123.713 47.9905ZM125.255 49.5571L126.203 50.3049L126.863 49.4687L126.116 48.7099L125.255 49.5571ZM116.085 56.3165L114.971 56.7829L115.418 57.8497L116.503 57.4494L116.085 56.3165ZM115.254 55.2238L114.506 56.172L114.506 56.172L115.254 55.2238ZM111.399 55.6798L112.347 56.4275L111.399 55.6798ZM111.854 59.535L111.107 60.4833L111.107 60.4833L111.854 59.535ZM115.709 59.079L116.658 59.8266L116.658 59.8266L115.709 59.079ZM116.186 58.1593L115.798 57.0158L115.206 57.2168L115.029 57.8167L116.186 58.1593ZM126.506 50.8277L127.367 49.9805L126.416 49.0144L125.566 50.0707L126.506 50.8277ZM147.557 72.2056L148.646 72.7266L149.012 71.9621L148.417 71.3583L147.557 72.2056ZM145.407 83.9647L145.209 85.1559L146.745 85.4116L146.61 83.8601L145.407 83.9647ZM142.418 83.4672L142.219 84.6584L142.219 84.6584L142.418 83.4672ZM141.144 84.3775L142.335 84.5757L142.335 84.5757L141.144 84.3775ZM141.093 84.6825L139.902 84.4842L139.902 84.4842L141.093 84.6825ZM142.003 85.9561L142.202 84.7649L142.202 84.7649L142.003 85.9561ZM146.291 86.6695L146.092 87.8607L146.092 87.8607L146.291 86.6695ZM147.564 85.7593L146.373 85.561L146.373 85.5611L147.564 85.7593ZM147.615 85.4543L148.806 85.6525L148.806 85.6525L147.615 85.4543ZM147.237 84.4264L146.039 84.5813L146.1 85.0461L146.457 85.3486L147.237 84.4264ZM148.887 73.5558L149.747 72.7086L148.496 71.4386L147.781 73.0708L148.887 73.5558ZM149.521 74.2007L150.382 73.3534L149.521 74.2007ZM158.152 74.2672L158.999 75.1277L158.999 75.1277L158.152 74.2672ZM163.647 68.8561L164.644 69.5376L162.8 67.9957L163.647 68.8561ZM163.503 69.4896L164.696 69.3071L164.696 69.3071L163.503 69.4896ZM170.458 82.4864L171.112 83.5016L172.422 82.6582L171.278 81.6002L170.458 82.4864ZM167.91 84.1281L167.256 83.1129L167.256 83.1129L167.91 84.1281ZM167.579 85.6581L168.594 85.0042L168.594 85.0042L167.579 85.6581ZM167.746 85.9181L168.761 85.2641L168.761 85.2641L167.746 85.9181ZM169.276 86.2492L169.93 87.2643L169.93 87.2643L169.276 86.2492ZM172.93 83.8956L173.584 84.9107L173.584 84.9107L172.93 83.8956ZM173.261 82.3656L174.276 81.7116L174.276 81.7116L173.261 82.3656ZM173.093 82.1056L172.078 82.7596L172.078 82.7596L173.093 82.1056ZM172.124 81.5987L171.341 82.5185L171.698 82.8216L172.165 82.8055L172.124 81.5987ZM165.253 69.2219L166.447 69.0393L166.447 69.0393L165.253 69.2219ZM164.244 68.4804L164.427 69.6741L164.427 69.6741L164.244 68.4804ZM163.891 68.6162L163.043 67.7558L164.556 69.624L163.891 68.6162ZM179.743 53.0069L179.947 51.8168L179.337 51.7119L178.895 52.1465L179.743 53.0069ZM188.618 56.7062L189.621 57.3795L190.266 56.4191L189.334 55.7335L188.618 56.7062ZM188.164 58.0028L186.96 57.9007L186.96 57.9007L188.164 58.0028ZM190.667 60.9698L190.769 59.7665L190.769 59.7665L190.667 60.9698ZM193.634 58.4666L192.431 58.3646L192.431 58.3646L193.634 58.4666ZM191.131 55.4997L191.233 54.2964L191.233 54.2964L191.131 55.4997ZM190.102 55.6075L189.361 56.561L189.854 56.9446L190.453 56.7629L190.102 55.6075ZM181.268 51.505L180.421 50.6445L178.845 52.1963L181.002 52.6829L181.268 51.505ZM184.362 48.4584L185.209 49.3188L185.209 49.3188L184.362 48.4584ZM184.428 39.8281L183.568 40.6754L183.568 40.6754L184.428 39.8281ZM158.62 13.6179L159.48 12.7707L159.48 12.7707L158.62 13.6179ZM124.626 40.2207L150.837 14.4118L149.142 12.6909L122.932 38.4998L124.626 40.2207ZM124.573 47.1432C122.676 45.2169 122.7 42.1175 124.626 40.2207L122.932 38.4998C120.055 41.3325 120.019 45.961 122.852 48.8378L124.573 47.1432ZM126.116 48.7099L124.573 47.1432L122.852 48.8378L124.395 50.4044L126.116 48.7099ZM116.503 57.4494C121.03 55.7795 124.285 52.7377 126.203 50.3049L124.307 48.8094C122.58 50.9992 119.665 53.7088 115.667 55.1835L116.503 57.4494ZM114.506 56.172C114.72 56.3406 114.875 56.5516 114.971 56.7829L117.199 55.85C116.948 55.2503 116.545 54.7044 116.001 54.2755L114.506 56.172ZM112.347 56.4275C112.873 55.7606 113.839 55.6463 114.506 56.172L116.001 54.2755C114.287 52.9239 111.802 53.2179 110.45 54.9322L112.347 56.4275ZM112.602 58.5868C111.935 58.0611 111.821 57.0943 112.347 56.4275L110.45 54.9322C109.099 56.6463 109.393 59.1316 111.107 60.4833L112.602 58.5868ZM114.761 58.3313C114.235 58.9982 113.269 59.1124 112.602 58.5868L111.107 60.4833C112.821 61.8349 115.306 61.5408 116.658 59.8266L114.761 58.3313ZM115.029 57.8167C114.975 57.9969 114.887 58.1715 114.761 58.3313L116.658 59.8266C116.977 59.4219 117.205 58.9715 117.344 58.502L115.029 57.8167ZM125.566 50.0707C123.579 52.5392 120.296 55.4898 115.798 57.0158L116.574 59.3029C121.621 57.5906 125.26 54.3031 127.447 51.5848L125.566 50.0707ZM148.417 71.3583L127.367 49.9805L125.646 51.675L146.696 73.0529L148.417 71.3583ZM146.61 83.8601C146.377 81.1818 146.645 76.9111 148.646 72.7266L146.468 71.6846C144.238 76.347 143.943 81.0709 144.204 84.0694L146.61 83.8601ZM142.219 84.6584L145.209 85.1559L145.605 82.7735L142.616 82.2761L142.219 84.6584ZM142.335 84.5757C142.326 84.6305 142.274 84.6676 142.219 84.6584L142.616 82.2761C141.355 82.0662 140.163 82.9183 139.953 84.1792L142.335 84.5757ZM142.284 84.8807L142.335 84.5757L139.953 84.1792L139.902 84.4842L142.284 84.8807ZM142.202 84.7649C142.257 84.774 142.294 84.8259 142.284 84.8807L139.902 84.4842C139.692 85.7452 140.544 86.9374 141.805 87.1473L142.202 84.7649ZM146.489 85.4783L142.202 84.7649L141.805 87.1473L146.092 87.8607L146.489 85.4783ZM146.373 85.5611C146.382 85.5062 146.434 85.4692 146.489 85.4783L146.092 87.8607C147.353 88.0705 148.546 87.2184 148.755 85.9575L146.373 85.5611ZM146.424 85.256L146.373 85.561L148.755 85.9575L148.806 85.6525L146.424 85.256ZM146.457 85.3486C146.445 85.3379 146.435 85.3247 146.429 85.3091C146.423 85.2917 146.421 85.2722 146.424 85.256L148.806 85.6525C148.945 84.8161 148.616 84.0113 148.017 83.5042L146.457 85.3486ZM147.781 73.0708C145.809 77.5673 145.712 82.0496 146.039 84.5813L148.435 84.2715C148.151 82.0781 148.232 78.0542 149.992 74.0408L147.781 73.0708ZM150.382 73.3534L149.747 72.7086L148.026 74.4031L148.661 75.0479L150.382 73.3534ZM157.304 73.4068C155.378 75.3037 152.279 75.2798 150.382 73.3534L148.661 75.0479C151.494 77.9247 156.122 77.9604 158.999 75.1277L157.304 73.4068ZM162.8 67.9957L157.304 73.4068L158.999 75.1277L164.494 69.7165L162.8 67.9957ZM164.696 69.3071C164.709 69.3905 164.688 69.4738 164.644 69.5376L162.65 68.1746C162.362 68.596 162.226 69.1268 162.309 69.6722L164.696 69.3071ZM171.278 81.6002C168.918 79.4151 165.58 75.0855 164.696 69.3071L162.309 69.6722C163.299 76.1478 167.011 80.9411 169.638 83.3726L171.278 81.6002ZM168.564 85.1433L171.112 83.5016L169.804 81.4713L167.256 83.1129L168.564 85.1433ZM168.594 85.0042C168.624 85.0509 168.61 85.1132 168.564 85.1433L167.256 83.1129C166.181 83.8052 165.871 85.2375 166.564 86.3121L168.594 85.0042ZM168.761 85.2641L168.594 85.0042L166.563 86.3121L166.731 86.572L168.761 85.2641ZM168.622 85.234C168.669 85.2039 168.731 85.2174 168.761 85.2641L166.731 86.572C167.423 87.6466 168.855 87.9566 169.93 87.2643L168.622 85.234ZM172.276 82.8804L168.622 85.234L169.93 87.2643L173.584 84.9107L172.276 82.8804ZM172.246 83.0195C172.216 82.9728 172.229 82.9105 172.276 82.8804L173.584 84.9107C174.658 84.2185 174.968 82.7862 174.276 81.7116L172.246 83.0195ZM172.078 82.7596L172.246 83.0195L174.276 81.7116L174.109 81.4517L172.078 82.7596ZM172.165 82.8055C172.149 82.8061 172.133 82.8026 172.118 82.795C172.102 82.7865 172.087 82.7733 172.078 82.7596L174.109 81.4517C173.65 80.7397 172.867 80.3649 172.082 80.3918L172.165 82.8055ZM164.06 69.4044C165.044 75.8387 168.964 80.4963 171.341 82.5185L172.906 80.6789C170.822 78.9057 167.317 74.7305 166.447 69.0393L164.06 69.4044ZM164.427 69.6741C164.251 69.701 164.087 69.5802 164.06 69.4044L166.447 69.0393C166.272 67.8966 165.204 67.1119 164.062 67.2867L164.427 69.6741ZM164.556 69.624C164.517 69.6499 164.472 69.6671 164.427 69.6741L164.062 67.2867C163.755 67.3336 163.471 67.446 163.225 67.6085L164.556 69.624ZM178.895 52.1465L163.043 67.7558L164.738 69.4767L180.59 53.8673L178.895 52.1465ZM189.334 55.7335C186.195 53.4238 182.767 52.3013 179.947 51.8168L179.538 54.197C182.083 54.6343 185.135 55.6425 187.903 57.6788L189.334 55.7335ZM189.367 58.1049C189.39 57.8335 189.481 57.5878 189.621 57.3795L187.616 56.0329C187.253 56.573 187.019 57.2102 186.96 57.9007L189.367 58.1049ZM190.769 59.7665C189.923 59.6948 189.295 58.9508 189.367 58.1049L186.96 57.9007C186.776 60.0759 188.39 61.9886 190.565 62.173L190.769 59.7665ZM192.431 58.3646C192.359 59.2105 191.615 59.8383 190.769 59.7665L190.565 62.173C192.74 62.3575 194.653 60.7438 194.837 58.5687L192.431 58.3646ZM191.029 56.7029C191.875 56.7746 192.503 57.5186 192.431 58.3646L194.837 58.5687C195.022 56.3936 193.408 54.4808 191.233 54.2964L191.029 56.7029ZM190.453 56.7629C190.632 56.7083 190.826 56.6857 191.029 56.7029L191.233 54.2964C190.72 54.2529 190.219 54.3098 189.75 54.452L190.453 56.7629ZM181.002 52.6829C183.653 53.2807 186.644 54.4499 189.361 56.561L190.842 54.6539C187.789 52.2814 184.453 50.9854 181.534 50.327L181.002 52.6829ZM183.515 47.5979L180.421 50.6445L182.115 52.3654L185.209 49.3188L183.515 47.5979ZM183.568 40.6754C185.465 42.6017 185.441 45.7011 183.515 47.5979L185.209 49.3188C188.086 46.4861 188.122 41.8576 185.289 38.9808L183.568 40.6754ZM157.759 14.4652L183.568 40.6754L185.289 38.9808L159.48 12.7707L157.759 14.4652ZM150.837 14.4118C152.763 12.5149 155.862 12.5388 157.759 14.4652L159.48 12.7707C156.647 9.89389 152.019 9.85819 149.142 12.6909L150.837 14.4118Z" fill="#750F28" mask="url(#path-8-inside-2_1477_192)"/>
<circle cx="1.71568" cy="1.71568" r="1.71568" transform="matrix(-0.99997 -0.00771389 -0.00771389 0.99997 145.477 36.1485)" fill="black"/>
<circle cx="1.71568" cy="1.71568" r="1.71568" transform="matrix(-0.99997 -0.00771389 -0.00771389 0.99997 156.446 37.7011)" fill="black"/>
<path d="M159.391 34.0602C159.205 32.7983 157.076 31.6738 155.545 32.0295" stroke="black" stroke-width="1.20756" stroke-linecap="round" stroke-linejoin="round"/>
<path d="M145.109 31.4295C144.223 30.5114 141.837 30.837 140.799 32.0174" stroke="black" stroke-width="1.20757" stroke-linecap="round" stroke-linejoin="round"/>
<path d="M145.764 49.3428C147.859 50.8792 149.021 51.0315 151.071 49.9325" stroke="black" stroke-width="1.20757" stroke-linecap="round" stroke-linejoin="round"/>
<defs>
<linearGradient id="paint0_linear_1477_192" x1="51.8033" y1="0.393454" x2="51.0325" y2="100.32" gradientUnits="userSpaceOnUse">
<stop stop-color="#CAFFA0"/>
<stop offset="1" stop-color="#4EAC75"/>
</linearGradient>
<linearGradient id="paint1_linear_1477_192" x1="156.309" y1="11.8124" x2="155.731" y2="86.7559" gradientUnits="userSpaceOnUse">
<stop stop-color="#FFA0B7"/>
<stop offset="1" stop-color="#C63F3F"/>
</linearGradient>
</defs>
</svg>
