<svg width="1920" height="1080" viewBox="0 0 1920 1080" fill="none" xmlns="http://www.w3.org/2000/svg">
<g clip-path="url(#clip0_1242_881)">
<g style="mix-blend-mode:multiply" opacity="0.6">
<path fill-rule="evenodd" clip-rule="evenodd" d="M1778.58 651.347L1738.91 731.775L1585.11 874.083L1356.84 779.236L1295.88 820.736V837.573L1585.11 957.746L1738.91 815.438L1961.46 707.215V690.379L1778.58 651.347Z" fill="#1E1E1E" fill-opacity="0.7"/>
</g>
<g style="mix-blend-mode:screen">
<path d="M1360.94 632.96C1361.67 633.336 1362.13 634.091 1362.13 634.916V732.281C1362.13 733.047 1361.73 733.758 1361.08 734.158C1360.42 734.557 1359.61 734.587 1358.93 734.237L1343.13 726.127C1342.4 725.75 1341.94 724.995 1341.94 724.17V626.806C1341.94 626.039 1342.34 625.328 1342.99 624.929C1343.65 624.529 1344.46 624.499 1345.14 624.849L1360.94 632.96Z" fill="#BA9595" stroke="black" stroke-width="4.39852" stroke-linejoin="round"/>
<path d="M1455.56 544.216C1456.3 544.592 1456.76 545.348 1456.76 546.172V643.537C1456.76 644.303 1456.36 645.014 1455.71 645.414C1455.05 645.813 1454.24 645.843 1453.55 645.493L1437.76 637.383C1437.03 637.006 1436.57 636.251 1436.57 635.427V538.062C1436.57 537.296 1436.96 536.584 1437.62 536.185C1438.27 535.786 1439.09 535.756 1439.77 536.106L1455.56 544.216Z" fill="#BA9595" stroke="black" stroke-width="4.39852" stroke-linejoin="round"/>
<path d="M1508.48 574.44C1509.25 574.806 1509.73 575.576 1509.73 576.421V593.258C1509.73 594.046 1509.31 594.775 1508.62 595.167L1330.63 696.964C1330.04 697.3 1329.33 697.347 1328.7 697.09L1284.3 678.911C1283.48 678.573 1282.94 677.769 1282.94 676.876V660.039C1282.94 659.258 1283.35 658.536 1284.03 658.141L1462.86 553.549C1463.49 553.179 1464.26 553.148 1464.92 553.465L1508.48 574.44Z" fill="#BA9595" stroke="black" stroke-width="4.39852" stroke-linejoin="round"/>
<path d="M1893.23 400.817C1894.24 401.034 1894.97 401.931 1894.97 402.968V419.805C1894.97 420.142 1894.89 420.475 1894.74 420.777L1740.88 732.747C1740.77 732.989 1740.6 733.206 1740.41 733.389L1586.61 875.696C1585.98 876.28 1585.06 876.443 1584.27 876.113L1295.04 755.94C1294.22 755.599 1293.68 754.798 1293.68 753.909V737.073C1293.68 736.345 1294.04 735.664 1294.65 735.255L1485.66 605.204L1623.91 344.969C1624.37 344.102 1625.35 343.645 1626.31 343.85L1893.23 400.817Z" fill="#BA9595" stroke="black" stroke-width="4.39852" stroke-linejoin="round"/>
<path d="M1800.46 570.781C1781.13 614.716 1719.18 639.247 1690.62 646.021L1646.14 612.52C1659.13 597.325 1688.1 565.509 1699.96 559.797C1714.79 552.657 1724.67 513.115 1731.81 503.23C1738.95 493.344 1768.06 461.491 1785.08 465.885C1802.11 470.278 1824.62 515.861 1800.46 570.781Z" fill="white" stroke="black" stroke-width="4.39356" stroke-linejoin="round"/>
<path fill-rule="evenodd" clip-rule="evenodd" d="M1698.92 560.338C1699.28 560.138 1699.63 559.957 1699.96 559.797C1709.76 555.077 1717.4 536.197 1723.52 521.085C1724.4 518.905 1725.25 516.803 1726.07 514.833C1733.12 536.995 1746.65 565.845 1758.17 577.371C1765.47 584.669 1778.73 586.151 1792.3 585.052C1783.25 597.796 1770.68 608.543 1757.13 617.348C1743.33 616.03 1730.8 613.837 1725.22 610.323C1717.7 605.59 1707.44 582.816 1698.92 560.338Z" fill="url(#paint0_linear_1242_881)"/>
<path d="M1698.92 560.338L1697.85 558.42C1696.9 558.95 1696.48 560.098 1696.87 561.116L1698.92 560.338ZM1699.96 559.797L1700.91 561.776L1700.91 561.776L1699.96 559.797ZM1723.52 521.085L1721.48 520.261L1721.48 520.261L1723.52 521.085ZM1726.07 514.833L1728.17 514.167C1727.89 513.289 1727.09 512.679 1726.17 512.639C1725.25 512.598 1724.4 513.137 1724.05 513.988L1726.07 514.833ZM1758.17 577.371L1756.62 578.924L1756.62 578.924L1758.17 577.371ZM1792.3 585.052L1794.09 586.324C1794.59 585.627 1794.63 584.708 1794.21 583.966C1793.79 583.224 1792.97 582.793 1792.12 582.862L1792.3 585.052ZM1757.13 617.348L1756.92 619.535C1757.41 619.582 1757.91 619.46 1758.32 619.19L1757.13 617.348ZM1725.22 610.323L1726.39 608.464L1726.39 608.464L1725.22 610.323ZM1699.99 562.256C1700.32 562.075 1700.62 561.915 1700.91 561.776L1699 557.818C1698.63 557.999 1698.24 558.201 1697.85 558.42L1699.99 562.256ZM1700.91 561.776C1706.5 559.084 1711.14 552.597 1715.05 545.385C1719.02 538.057 1722.51 529.44 1725.56 521.909L1721.48 520.261C1718.41 527.842 1715.02 536.221 1711.19 543.292C1707.3 550.477 1703.22 555.79 1699 557.818L1700.91 561.776ZM1725.56 521.909C1726.44 519.727 1727.29 517.636 1728.1 515.678L1724.05 513.988C1723.22 515.97 1722.37 518.083 1721.48 520.261L1725.56 521.909ZM1723.98 515.499C1727.54 526.69 1732.73 539.548 1738.48 551.072C1744.21 562.542 1750.6 572.901 1756.62 578.924L1759.73 575.818C1754.22 570.316 1748.09 560.487 1742.41 549.11C1736.76 537.786 1731.66 525.139 1728.17 514.167L1723.98 515.499ZM1756.62 578.924C1760.69 582.992 1766.29 585.323 1772.47 586.517C1778.65 587.713 1785.58 587.8 1792.48 587.242L1792.12 582.862C1785.46 583.402 1778.96 583.298 1773.3 582.203C1767.63 581.106 1762.96 579.048 1759.73 575.818L1756.62 578.924ZM1790.51 583.78C1781.67 596.229 1769.34 606.797 1755.93 615.506L1758.32 619.19C1772.03 610.289 1784.84 599.363 1794.09 586.324L1790.51 583.78ZM1757.33 615.161C1750.48 614.506 1743.98 613.638 1738.54 612.508C1733.02 611.364 1728.83 609.998 1726.39 608.464L1724.05 612.182C1727.19 614.161 1732.05 615.649 1737.65 616.81C1743.31 617.984 1749.98 618.871 1756.92 619.535L1757.33 615.161ZM1726.39 608.464C1724.91 607.53 1723.07 605.532 1720.95 602.438C1718.88 599.397 1716.67 595.499 1714.41 590.998C1709.89 582 1705.22 570.767 1700.98 559.559L1696.87 561.116C1701.14 572.386 1705.86 583.779 1710.48 592.971C1712.79 597.565 1715.09 601.652 1717.32 604.916C1719.52 608.125 1721.77 610.749 1724.05 612.182L1726.39 608.464Z" fill="black"/>
<path fill-rule="evenodd" clip-rule="evenodd" d="M1811.01 524.772C1810.81 535.657 1808.9 547.579 1804.62 560.127C1804.89 541.493 1801.95 519.181 1789.76 510.983C1779.39 504.008 1758.81 497.835 1739.35 494.134C1745.3 487.568 1753.48 479.591 1761.83 473.721C1777.74 477.216 1791.2 481.415 1795.51 485.997C1801.02 491.844 1806.57 508.169 1811.01 524.772Z" fill="url(#paint1_linear_1242_881)"/>
<path d="M1811.01 524.772L1813.21 524.813C1813.21 524.607 1813.19 524.403 1813.13 524.204L1811.01 524.772ZM1804.62 560.127L1802.42 560.095C1802.41 561.175 1803.18 562.107 1804.24 562.292C1805.31 562.476 1806.35 561.859 1806.7 560.837L1804.62 560.127ZM1789.76 510.983L1790.99 509.16L1790.99 509.16L1789.76 510.983ZM1739.35 494.134L1737.72 492.66C1737.19 493.248 1737.02 494.079 1737.27 494.833C1737.52 495.586 1738.16 496.144 1738.94 496.293L1739.35 494.134ZM1761.83 473.721L1762.3 471.575C1761.7 471.443 1761.07 471.57 1760.56 471.924L1761.83 473.721ZM1795.51 485.997L1793.91 487.503L1793.91 487.503L1795.51 485.997ZM1808.82 524.731C1808.62 535.388 1806.75 547.084 1802.54 559.418L1806.7 560.837C1811.05 548.073 1813 535.925 1813.21 524.813L1808.82 524.731ZM1788.53 512.806C1793.95 516.449 1797.55 523.426 1799.73 532.173C1801.89 540.852 1802.56 550.882 1802.42 560.095L1806.82 560.159C1806.95 550.739 1806.28 540.295 1803.99 531.11C1801.72 521.993 1797.76 513.714 1790.99 509.16L1788.53 512.806ZM1738.94 496.293C1748.59 498.129 1758.51 500.576 1767.29 503.42C1776.09 506.277 1783.6 509.489 1788.53 512.806L1790.99 509.16C1785.55 505.502 1777.58 502.14 1768.64 499.241C1759.66 496.33 1749.56 493.841 1739.76 491.976L1738.94 496.293ZM1740.98 495.609C1746.87 489.107 1754.92 481.259 1763.09 475.518L1760.56 471.924C1752.03 477.922 1743.73 486.029 1737.72 492.66L1740.98 495.609ZM1797.11 484.492C1795.79 483.085 1793.89 481.828 1791.67 480.685C1789.44 479.53 1786.75 478.428 1783.74 477.378C1777.73 475.277 1770.29 473.332 1762.3 471.575L1761.35 475.866C1769.27 477.605 1776.52 479.507 1782.29 481.525C1785.18 482.534 1787.66 483.56 1789.66 484.59C1791.68 485.633 1793.08 486.619 1793.91 487.503L1797.11 484.492ZM1813.13 524.204C1810.91 515.866 1808.38 507.553 1805.71 500.567C1803.08 493.675 1800.19 487.761 1797.11 484.492L1793.91 487.503C1796.34 490.081 1798.98 495.253 1801.61 502.135C1804.2 508.924 1806.68 517.075 1808.89 525.339L1813.13 524.204Z" fill="black"/>
<path d="M1547.16 396.53C1556.91 404.542 1608.21 373.062 1609.05 358.983C1585.44 341.134 1564.9 301.011 1550.84 323.011C1536.78 345.01 1528.38 381.087 1547.16 396.53Z" fill="url(#paint2_linear_1242_881)" stroke="black" stroke-width="4.39356" stroke-linejoin="round"/>
<path d="M1466.11 556.36C1483.18 541.913 1512.62 525.169 1525.21 518.602L1565 582.862C1559.61 585.778 1545.22 592.175 1530.79 594.433C1512.75 597.255 1486.04 593.022 1478.42 594.433C1470.8 595.844 1468.26 594.997 1466.11 593.022C1463.96 591.046 1460.64 594.15 1457.82 591.611C1455 589.071 1458.38 582.58 1453.87 582.862C1449.35 583.145 1444.77 574.418 1466.11 556.36Z" fill="white"/>
<path d="M1525.21 518.602C1512.62 525.169 1483.18 541.913 1466.11 556.36C1444.77 574.418 1449.35 583.145 1453.87 582.862C1458.38 582.58 1455 589.071 1457.82 591.611C1460.64 594.15 1463.96 591.046 1466.11 593.022C1468.26 594.997 1470.8 595.844 1478.42 594.433C1486.04 593.022 1512.75 597.255 1530.79 594.433C1545.22 592.175 1559.61 585.778 1565 582.862" stroke="black" stroke-width="4.66696"/>
<path d="M1711.34 520.553C1717.78 516.974 1719.93 496.216 1729.95 489.058C1727.33 486.434 1721.51 478.321 1719.22 466.868C1716.35 452.552 1684.86 368.11 1653.36 362.384C1621.87 356.657 1567.03 357.62 1554.15 373.368C1541.26 389.115 1523.8 413.184 1515.93 421.057C1509.63 427.356 1501.85 448.496 1498.75 458.279C1504.89 463.042 1516.63 473.641 1514.48 477.94C1511.79 483.314 1508.75 485.822 1510.54 488.509C1512.33 491.196 1532.39 499.973 1530.96 503.734C1529.53 507.496 1470.91 563.181 1462.05 601.625C1449.17 657.541 1397.76 657.269 1392.81 671.434C1374.9 722.592 1477.11 703.015 1492.73 708.241C1504.33 712.118 1508.13 720.011 1539 729.406C1554.99 734.274 1555.37 794.298 1565.5 800.757C1573.6 805.924 1573.82 812.108 1591.98 799.324C1591.98 799.324 1653.1 746.119 1666.15 725.25C1679.21 704.38 1686.76 694.489 1693.23 642.376C1699.69 590.262 1698.29 580.853 1686.76 534.153V527.896C1698.05 525.149 1708.41 522.183 1711.34 520.553Z" fill="white"/>
<path d="M1606.84 525.564C1619.24 528.427 1645.92 534.153 1653.36 534.153C1658.43 534.153 1673.26 531.181 1686.76 527.896M1686.76 527.896C1698.05 525.149 1708.41 522.183 1711.34 520.553C1717.78 516.974 1719.93 496.216 1729.95 489.058C1727.33 486.434 1721.51 478.321 1719.22 466.868C1716.35 452.552 1684.86 368.11 1653.36 362.384C1621.87 356.657 1567.03 357.62 1554.15 373.368C1541.26 389.115 1523.8 413.184 1515.93 421.057C1509.63 427.356 1501.85 448.496 1498.75 458.279C1504.89 463.042 1516.63 473.641 1514.48 477.94C1511.79 483.314 1508.75 485.822 1510.54 488.509C1512.33 491.196 1532.39 499.973 1530.96 503.734C1529.53 507.496 1470.91 563.181 1462.05 601.625C1449.17 657.541 1397.76 657.269 1392.81 671.434C1374.9 722.592 1477.11 703.015 1492.73 708.241C1504.33 712.118 1508.13 720.011 1539 729.406C1554.99 734.274 1555.37 794.298 1565.5 800.757C1573.6 805.924 1573.82 812.108 1591.98 799.324C1591.98 799.324 1653.1 746.119 1666.15 725.25C1679.21 704.38 1686.76 694.489 1693.23 642.376C1699.69 590.262 1698.29 580.853 1686.76 534.153V527.896Z" stroke="black" stroke-width="4.39356" stroke-linejoin="round"/>
<path d="M1651.93 377.394C1651.93 364.779 1704.51 344.234 1715.92 352.53C1727.32 362.899 1724.38 436.337 1698.46 433.226C1672.53 430.116 1651.93 401.709 1651.93 377.394Z" fill="url(#paint3_linear_1242_881)" stroke="black" stroke-width="4.39356" stroke-linejoin="round"/>
<path d="M1581.39 493.43C1585.99 500.278 1602.05 506.004 1609.69 504.366C1617.32 502.729 1619.92 500.073 1624.56 495.542C1630.37 489.878 1633.27 455.703 1619.69 433.383C1606.1 411.062 1595.95 414 1584.46 413.291C1572.97 412.583 1570.47 398.934 1552.67 398.876C1534.87 398.819 1507.58 427.501 1513.79 446.883C1519.99 466.265 1537.66 427.254 1557.5 428.297C1577.33 429.339 1576.78 486.582 1581.39 493.43Z" fill="url(#paint4_linear_1242_881)" stroke="black" stroke-width="4.39356" stroke-linejoin="round"/>
<path d="M1531.94 435.18C1535.84 429.373 1555.6 431.549 1565 433.363L1559.22 452.356L1531.92 483.838C1530.05 480.691 1525.92 472.746 1524.38 466.142C1522.45 457.887 1527.07 442.44 1531.94 435.18Z" fill="white"/>
<path d="M1565 433.363C1555.6 431.549 1535.84 429.373 1531.94 435.18C1527.07 442.44 1522.45 457.887 1524.38 466.142C1525.92 472.746 1530.05 480.691 1531.92 483.838" stroke="black" stroke-width="4.39356" stroke-linejoin="round"/>
<path d="M1560.07 464.287C1549.76 466.78 1544.21 455.776 1538.61 453.677C1535.85 455.065 1528.51 459.058 1525.15 455.489" stroke="black" stroke-width="4.39356" stroke-linejoin="round"/>
<path d="M1595.94 447.007L1597.41 435.252M1546.43 414.688L1542.91 424.893" stroke="black" stroke-width="4.39356" stroke-linejoin="round"/>
<path d="M1537.64 433.627C1539.98 431.76 1552.58 439.736 1552.95 443.353C1552.94 447.278 1538.82 457.53 1535.07 451.639C1531.31 445.747 1533.13 437.226 1537.64 433.627Z" fill="url(#paint5_linear_1242_881)" stroke="black" stroke-width="4.39356" stroke-linejoin="round"/>
<path d="M1366.05 644.028C1384.95 644.55 1405.32 666.31 1413.51 680.935C1424.38 700.331 1421.48 713.771 1408.22 714.422C1392.91 715.173 1362.85 688.445 1347.95 668.236C1341.48 659.466 1342.42 643.375 1366.05 644.028Z" fill="url(#paint6_linear_1242_881)" stroke="black" stroke-width="4.66696" stroke-linejoin="round"/>
<path d="M1571.42 723.275C1553.27 727.325 1550.74 764.736 1546.66 781.285C1541.24 803.232 1547.57 816.502 1560.58 814.705C1575.59 812.631 1597.64 779.582 1606.76 756.047C1610.71 745.835 1594.11 718.212 1571.42 723.275Z" fill="url(#paint7_linear_1242_881)" stroke="black" stroke-width="4.66696" stroke-linejoin="round"/>
<path d="M1627.08 643.106L1463.85 588.058C1462.36 587.555 1460.75 587.529 1459.24 587.982L1360.29 617.771C1353.61 619.78 1352.95 628.973 1359.27 631.91L1530.66 711.568C1532.94 712.628 1535.6 712.489 1537.76 711.196L1628.56 656.798C1634.11 653.473 1633.21 645.173 1627.08 643.106Z" fill="#E999B3" stroke="black" stroke-width="4.66696"/>
<path d="M1506.12 580.982L1534.77 694.044C1535.99 698.846 1531.05 702.884 1526.58 700.731L1357.56 619.188C1356.08 618.474 1354.97 617.169 1354.51 615.594L1326.13 520.022C1324.75 515.393 1329.27 511.194 1333.79 512.907L1502.54 576.961C1504.31 577.636 1505.65 579.137 1506.12 580.982Z" fill="#E999B3" stroke="black" stroke-width="4.66696"/>
<path d="M1570.41 602.218C1587.48 587.771 1616.92 571.027 1629.51 564.46L1669.3 628.72C1663.91 631.636 1649.52 638.033 1635.09 640.291C1617.05 643.113 1590.34 638.88 1582.72 640.291C1575.1 641.702 1572.56 640.855 1570.41 638.88C1568.26 636.904 1564.94 640.008 1562.12 637.469C1559.3 634.929 1562.68 628.438 1558.17 628.72C1553.65 629.003 1549.07 620.276 1570.41 602.218Z" fill="white"/>
<path d="M1629.51 564.46C1616.92 571.027 1587.48 587.771 1570.41 602.218C1549.07 620.276 1553.65 629.003 1558.17 628.72C1562.68 628.438 1559.3 634.929 1562.12 637.469C1564.94 640.008 1568.26 636.904 1570.41 638.88C1572.56 640.855 1575.1 641.702 1582.72 640.291C1590.34 638.88 1617.05 643.113 1635.09 640.291C1649.52 638.033 1663.91 631.636 1669.3 628.72" stroke="black" stroke-width="4.66696"/>
<path d="M1647.07 772.51C1647.72 772.378 1648.39 772.544 1648.9 772.962C1649.41 773.379 1649.71 774.005 1649.71 774.665V872.03C1649.71 872.624 1649.47 873.193 1649.04 873.608L1629.33 892.753C1628.68 893.386 1627.7 893.553 1626.88 893.173L1616.08 888.208C1615.3 887.847 1614.79 887.059 1614.8 886.194L1615.58 780.719C1615.58 779.68 1616.32 778.788 1617.34 778.581L1647.07 772.51Z" fill="#BA9595" stroke="black" stroke-width="4.39852" stroke-linejoin="round"/>
<path d="M1729.51 688.22C1730.16 688.088 1730.83 688.254 1731.34 688.671C1731.86 689.089 1732.15 689.715 1732.15 690.375V787.74C1732.15 788.334 1731.91 788.903 1731.48 789.317L1711.77 808.463C1711.12 809.096 1710.14 809.263 1709.32 808.883L1698.52 803.918C1697.74 803.557 1697.24 802.769 1697.24 801.904L1698.02 696.429C1698.03 695.39 1698.76 694.498 1699.78 694.29L1729.51 688.22Z" fill="#BA9595" stroke="black" stroke-width="4.39852" stroke-linejoin="round"/>
<path d="M1760.45 666.045C1761.21 666.411 1761.69 667.182 1761.69 668.026V684.863C1761.69 685.476 1761.44 686.061 1760.99 686.477L1607.19 828.785C1606.56 829.365 1605.65 829.53 1604.86 829.206L1560.46 811.027C1559.64 810.688 1559.1 809.884 1559.1 808.991V792.155C1559.1 791.547 1559.35 790.967 1559.79 790.551L1714.42 645.449C1715.09 644.827 1716.06 644.676 1716.88 645.071L1760.45 666.045Z" fill="#BA9595" stroke="black" stroke-width="4.39852" stroke-linejoin="round"/>
</g>
<path d="M1360.94 632.96C1361.67 633.336 1362.13 634.091 1362.13 634.916V732.281C1362.13 733.047 1361.73 733.758 1361.08 734.158C1360.42 734.557 1359.61 734.587 1358.93 734.237L1343.13 726.127C1342.4 725.75 1341.94 724.995 1341.94 724.17V626.806C1341.94 626.039 1342.34 625.328 1342.99 624.929C1343.65 624.529 1344.46 624.499 1345.14 624.849L1360.94 632.96Z" fill="#BA9595" stroke="black" stroke-width="4.39852" stroke-linejoin="round"/>
<path d="M1455.56 544.216C1456.3 544.592 1456.76 545.348 1456.76 546.172V643.537C1456.76 644.303 1456.36 645.014 1455.71 645.414C1455.05 645.813 1454.24 645.843 1453.55 645.493L1437.76 637.383C1437.03 637.006 1436.57 636.251 1436.57 635.427V538.062C1436.57 537.296 1436.96 536.584 1437.62 536.185C1438.27 535.786 1439.09 535.756 1439.77 536.106L1455.56 544.216Z" fill="#BA9595" stroke="black" stroke-width="4.39852" stroke-linejoin="round"/>
<path d="M1508.48 574.44C1509.25 574.806 1509.73 575.576 1509.73 576.421V593.258C1509.73 594.046 1509.31 594.775 1508.62 595.167L1330.63 696.964C1330.04 697.3 1329.33 697.347 1328.7 697.09L1284.3 678.911C1283.48 678.573 1282.94 677.769 1282.94 676.876V660.039C1282.94 659.258 1283.35 658.536 1284.03 658.141L1462.86 553.549C1463.49 553.179 1464.26 553.148 1464.92 553.465L1508.48 574.44Z" fill="#BA9595" stroke="black" stroke-width="4.39852" stroke-linejoin="round"/>
<path d="M1893.23 400.817C1894.24 401.034 1894.97 401.931 1894.97 402.968V419.805C1894.97 420.142 1894.89 420.475 1894.74 420.777L1740.88 732.747C1740.77 732.989 1740.6 733.206 1740.41 733.389L1586.61 875.696C1585.98 876.28 1585.06 876.443 1584.27 876.113L1295.04 755.94C1294.22 755.599 1293.68 754.798 1293.68 753.909V737.073C1293.68 736.345 1294.04 735.664 1294.65 735.255L1485.66 605.204L1623.91 344.969C1624.37 344.102 1625.35 343.645 1626.31 343.85L1893.23 400.817Z" fill="#BA9595" stroke="black" stroke-width="4.39852" stroke-linejoin="round"/>
<path d="M1800.46 570.781C1781.13 614.716 1719.18 639.247 1690.62 646.021L1646.14 612.52C1659.13 597.325 1688.1 565.509 1699.96 559.797C1714.79 552.657 1724.67 513.115 1731.81 503.23C1738.95 493.344 1768.06 461.491 1785.08 465.885C1802.11 470.278 1824.62 515.861 1800.46 570.781Z" fill="white" stroke="black" stroke-width="4.39356" stroke-linejoin="round"/>
<path fill-rule="evenodd" clip-rule="evenodd" d="M1698.92 560.338C1699.28 560.138 1699.63 559.957 1699.96 559.797C1709.76 555.077 1717.4 536.197 1723.52 521.085C1724.4 518.905 1725.25 516.803 1726.07 514.833C1733.12 536.995 1746.65 565.845 1758.17 577.371C1765.47 584.669 1778.73 586.151 1792.3 585.052C1783.25 597.796 1770.68 608.543 1757.13 617.348C1743.33 616.03 1730.8 613.837 1725.22 610.323C1717.7 605.589 1707.44 582.816 1698.92 560.338Z" fill="url(#paint8_linear_1242_881)"/>
<path d="M1698.92 560.338L1697.85 558.419C1696.9 558.95 1696.48 560.098 1696.87 561.116L1698.92 560.338ZM1699.96 559.797L1700.91 561.776L1700.91 561.776L1699.96 559.797ZM1723.52 521.085L1721.48 520.261L1721.48 520.261L1723.52 521.085ZM1726.07 514.833L1728.17 514.167C1727.89 513.289 1727.09 512.678 1726.17 512.638C1725.25 512.598 1724.4 513.137 1724.05 513.988L1726.07 514.833ZM1758.17 577.371L1756.62 578.924L1756.62 578.924L1758.17 577.371ZM1792.3 585.052L1794.09 586.323C1794.59 585.627 1794.63 584.708 1794.21 583.966C1793.79 583.224 1792.97 582.793 1792.12 582.862L1792.3 585.052ZM1757.13 617.348L1756.92 619.535C1757.41 619.582 1757.91 619.46 1758.32 619.19L1757.13 617.348ZM1725.22 610.323L1726.39 608.464L1726.39 608.464L1725.22 610.323ZM1699.99 562.256C1700.32 562.074 1700.62 561.915 1700.91 561.776L1699 557.818C1698.63 557.999 1698.24 558.201 1697.85 558.419L1699.99 562.256ZM1700.91 561.776C1706.5 559.084 1711.14 552.597 1715.05 545.385C1719.02 538.057 1722.51 529.44 1725.56 521.909L1721.48 520.261C1718.41 527.842 1715.02 536.221 1711.19 543.292C1707.3 550.477 1703.22 555.79 1699 557.818L1700.91 561.776ZM1725.56 521.909C1726.44 519.727 1727.29 517.636 1728.1 515.678L1724.05 513.988C1723.22 515.97 1722.37 518.083 1721.48 520.261L1725.56 521.909ZM1723.98 515.499C1727.54 526.69 1732.73 539.548 1738.48 551.072C1744.21 562.542 1750.6 572.9 1756.62 578.924L1759.73 575.818C1754.22 570.316 1748.09 560.487 1742.41 549.11C1736.76 537.786 1731.66 525.139 1728.17 514.167L1723.98 515.499ZM1756.62 578.924C1760.69 582.991 1766.29 585.323 1772.47 586.517C1778.65 587.713 1785.58 587.8 1792.48 587.242L1792.12 582.862C1785.46 583.402 1778.96 583.298 1773.3 582.203C1767.63 581.106 1762.96 579.048 1759.73 575.818L1756.62 578.924ZM1790.51 583.78C1781.67 596.229 1769.34 606.797 1755.93 615.505L1758.32 619.19C1772.03 610.289 1784.84 599.363 1794.09 586.323L1790.51 583.78ZM1757.33 615.161C1750.48 614.506 1743.98 613.637 1738.54 612.508C1733.02 611.364 1728.83 609.998 1726.39 608.464L1724.05 612.182C1727.19 614.161 1732.05 615.649 1737.65 616.81C1743.31 617.984 1749.98 618.871 1756.92 619.535L1757.33 615.161ZM1726.39 608.464C1724.91 607.53 1723.07 605.532 1720.95 602.438C1718.88 599.397 1716.67 595.499 1714.41 590.998C1709.89 582 1705.22 570.767 1700.98 559.559L1696.87 561.116C1701.14 572.386 1705.86 583.779 1710.48 592.971C1712.79 597.565 1715.1 601.652 1717.32 604.916C1719.52 608.125 1721.77 610.749 1724.05 612.182L1726.39 608.464Z" fill="black"/>
<path fill-rule="evenodd" clip-rule="evenodd" d="M1811.01 524.771C1810.81 535.657 1808.9 547.578 1804.62 560.127C1804.89 541.493 1801.95 519.18 1789.76 510.983C1779.39 504.008 1758.81 497.835 1739.35 494.134C1745.3 487.567 1753.48 479.59 1761.83 473.721C1777.74 477.216 1791.2 481.415 1795.51 485.997C1801.02 491.844 1806.57 508.169 1811.01 524.771Z" fill="url(#paint9_linear_1242_881)"/>
<path d="M1811.01 524.771L1813.21 524.812C1813.21 524.607 1813.19 524.402 1813.13 524.204L1811.01 524.771ZM1804.62 560.127L1802.42 560.095C1802.41 561.175 1803.18 562.107 1804.24 562.291C1805.31 562.476 1806.35 561.859 1806.7 560.836L1804.62 560.127ZM1789.76 510.983L1790.99 509.16L1790.99 509.16L1789.76 510.983ZM1739.35 494.134L1737.72 492.659C1737.19 493.248 1737.02 494.079 1737.27 494.832C1737.52 495.586 1738.16 496.144 1738.94 496.292L1739.35 494.134ZM1761.83 473.721L1762.3 471.575C1761.7 471.443 1761.07 471.569 1760.56 471.924L1761.83 473.721ZM1795.51 485.997L1793.91 487.503L1793.91 487.503L1795.51 485.997ZM1808.82 524.73C1808.62 535.388 1806.75 547.084 1802.54 559.418L1806.7 560.836C1811.05 548.073 1813 535.925 1813.21 524.812L1808.82 524.73ZM1788.53 512.805C1793.95 516.449 1797.55 523.426 1799.73 532.172C1801.89 540.852 1802.56 550.881 1802.42 560.095L1806.82 560.159C1806.95 550.739 1806.28 540.295 1803.99 531.11C1801.72 521.993 1797.76 513.714 1790.99 509.16L1788.53 512.805ZM1738.94 496.292C1748.59 498.129 1758.51 500.576 1767.29 503.42C1776.09 506.276 1783.6 509.488 1788.53 512.805L1790.99 509.16C1785.55 505.502 1777.58 502.14 1768.64 499.241C1759.66 496.33 1749.56 493.84 1739.76 491.976L1738.94 496.292ZM1740.98 495.609C1746.87 489.107 1754.92 481.258 1763.09 475.518L1760.56 471.924C1752.03 477.922 1743.73 486.028 1737.72 492.659L1740.98 495.609ZM1797.11 484.492C1795.79 483.085 1793.89 481.828 1791.67 480.685C1789.44 479.53 1786.75 478.428 1783.74 477.377C1777.73 475.277 1770.29 473.332 1762.3 471.575L1761.35 475.866C1769.27 477.605 1776.52 479.507 1782.29 481.525C1785.18 482.534 1787.66 483.559 1789.66 484.589C1791.68 485.632 1793.08 486.619 1793.91 487.503L1797.11 484.492ZM1813.13 524.204C1810.91 515.866 1808.38 507.553 1805.71 500.567C1803.08 493.675 1800.19 487.761 1797.11 484.492L1793.91 487.503C1796.34 490.081 1798.98 495.252 1801.61 502.135C1804.2 508.924 1806.68 517.075 1808.89 525.339L1813.13 524.204Z" fill="black"/>
<path d="M1547.16 396.53C1556.91 404.542 1608.21 373.062 1609.05 358.983C1585.44 341.134 1564.9 301.011 1550.84 323.011C1536.78 345.01 1528.38 381.087 1547.16 396.53Z" fill="url(#paint10_linear_1242_881)" stroke="black" stroke-width="4.39356" stroke-linejoin="round"/>
<path d="M1466.11 556.36C1483.18 541.913 1512.62 525.169 1525.21 518.602L1565 582.862C1559.61 585.778 1545.22 592.175 1530.79 594.433C1512.75 597.255 1486.04 593.022 1478.42 594.433C1470.8 595.844 1468.26 594.997 1466.11 593.022C1463.96 591.046 1460.64 594.15 1457.82 591.611C1455 589.071 1458.38 582.58 1453.87 582.862C1449.35 583.145 1444.77 574.418 1466.11 556.36Z" fill="white"/>
<path d="M1525.21 518.602C1512.62 525.169 1483.18 541.913 1466.11 556.36C1444.77 574.418 1449.35 583.145 1453.87 582.862C1458.38 582.58 1455 589.071 1457.82 591.611C1460.64 594.15 1463.96 591.046 1466.11 593.022C1468.26 594.997 1470.8 595.844 1478.42 594.433C1486.04 593.022 1512.75 597.255 1530.79 594.433C1545.22 592.175 1559.61 585.778 1565 582.862" stroke="black" stroke-width="4.66696"/>
<path d="M1711.34 520.553C1717.78 516.974 1719.93 496.216 1729.95 489.058C1727.33 486.434 1721.51 478.321 1719.22 466.868C1716.35 452.552 1684.86 368.11 1653.36 362.384C1621.87 356.657 1567.03 357.62 1554.15 373.368C1541.26 389.115 1523.8 413.184 1515.93 421.057C1509.63 427.356 1501.85 448.496 1498.75 458.279C1504.89 463.042 1516.63 473.641 1514.48 477.94C1511.79 483.314 1508.75 485.822 1510.54 488.509C1512.33 491.196 1532.39 499.973 1530.96 503.734C1529.53 507.496 1470.91 563.181 1462.05 601.625C1449.17 657.541 1397.76 657.269 1392.81 671.434C1374.9 722.592 1477.11 703.015 1492.73 708.241C1504.33 712.118 1508.13 720.011 1539 729.406C1554.99 734.274 1555.37 794.298 1565.5 800.757C1573.6 805.924 1573.82 812.108 1591.98 799.324C1591.98 799.324 1653.1 746.119 1666.15 725.25C1679.21 704.38 1686.76 694.489 1693.23 642.376C1699.69 590.262 1698.29 580.853 1686.76 534.153V527.896C1698.05 525.149 1708.41 522.183 1711.34 520.553Z" fill="white"/>
<path d="M1606.84 525.564C1619.24 528.427 1645.92 534.153 1653.36 534.153C1658.43 534.153 1673.26 531.181 1686.76 527.896M1686.76 527.896C1698.05 525.149 1708.41 522.183 1711.34 520.553C1717.78 516.974 1719.93 496.216 1729.95 489.058C1727.33 486.434 1721.51 478.321 1719.22 466.868C1716.35 452.552 1684.86 368.11 1653.36 362.384C1621.87 356.657 1567.03 357.62 1554.15 373.368C1541.26 389.115 1523.8 413.184 1515.93 421.057C1509.63 427.356 1501.85 448.496 1498.75 458.279C1504.89 463.042 1516.63 473.641 1514.48 477.94C1511.79 483.314 1508.75 485.822 1510.54 488.509C1512.33 491.196 1532.39 499.973 1530.96 503.734C1529.53 507.496 1470.91 563.181 1462.05 601.625C1449.17 657.541 1397.76 657.269 1392.81 671.434C1374.9 722.592 1477.11 703.015 1492.73 708.241C1504.33 712.118 1508.13 720.011 1539 729.406C1554.99 734.274 1555.37 794.298 1565.5 800.757C1573.6 805.924 1573.82 812.108 1591.98 799.324C1591.98 799.324 1653.1 746.119 1666.15 725.25C1679.21 704.38 1686.76 694.489 1693.23 642.376C1699.69 590.262 1698.29 580.853 1686.76 534.153V527.896Z" stroke="black" stroke-width="4.39356" stroke-linejoin="round"/>
<path d="M1651.93 377.394C1651.93 364.779 1704.51 344.234 1715.92 352.53C1727.32 362.899 1724.38 436.337 1698.46 433.226C1672.53 430.116 1651.93 401.709 1651.93 377.394Z" fill="url(#paint11_linear_1242_881)" stroke="black" stroke-width="4.39356" stroke-linejoin="round"/>
<path d="M1581.39 493.43C1585.99 500.278 1602.05 506.004 1609.69 504.366C1617.32 502.729 1619.92 500.073 1624.56 495.542C1630.37 489.878 1633.27 455.703 1619.69 433.383C1606.1 411.062 1595.95 414 1584.46 413.291C1572.97 412.583 1570.47 398.934 1552.67 398.876C1534.87 398.819 1507.58 427.501 1513.79 446.883C1519.99 466.265 1537.66 427.254 1557.5 428.297C1577.33 429.339 1576.78 486.582 1581.39 493.43Z" fill="url(#paint12_linear_1242_881)" stroke="black" stroke-width="4.39356" stroke-linejoin="round"/>
<path d="M1531.94 435.18C1535.84 429.373 1555.6 431.549 1565 433.363L1559.22 452.356L1531.92 483.838C1530.05 480.691 1525.92 472.746 1524.38 466.142C1522.45 457.887 1527.07 442.44 1531.94 435.18Z" fill="white"/>
<path d="M1565 433.363C1555.6 431.549 1535.84 429.373 1531.94 435.18C1527.07 442.44 1522.45 457.887 1524.38 466.142C1525.92 472.746 1530.05 480.691 1531.92 483.838" stroke="black" stroke-width="4.39356" stroke-linejoin="round"/>
<path d="M1560.07 464.287C1549.76 466.78 1544.21 455.776 1538.61 453.677C1535.85 455.065 1528.51 459.058 1525.15 455.489" stroke="black" stroke-width="4.39356" stroke-linejoin="round"/>
<path d="M1595.94 447.007L1597.41 435.252M1546.43 414.688L1542.91 424.893" stroke="black" stroke-width="4.39356" stroke-linejoin="round"/>
<path d="M1537.64 433.627C1539.98 431.76 1552.58 439.736 1552.95 443.353C1552.94 447.278 1538.82 457.53 1535.07 451.639C1531.31 445.747 1533.13 437.226 1537.64 433.627Z" fill="url(#paint13_linear_1242_881)" stroke="black" stroke-width="4.39356" stroke-linejoin="round"/>
<path d="M1366.05 644.028C1384.95 644.55 1405.32 666.31 1413.51 680.935C1424.38 700.331 1421.48 713.771 1408.22 714.422C1392.91 715.173 1362.85 688.445 1347.95 668.236C1341.48 659.466 1342.42 643.375 1366.05 644.028Z" fill="url(#paint14_linear_1242_881)" stroke="black" stroke-width="4.66696" stroke-linejoin="round"/>
<path d="M1571.42 723.275C1553.27 727.325 1550.74 764.736 1546.66 781.285C1541.24 803.232 1547.57 816.502 1560.58 814.705C1575.59 812.631 1597.64 779.582 1606.76 756.047C1610.71 745.835 1594.11 718.212 1571.42 723.275Z" fill="url(#paint15_linear_1242_881)" stroke="black" stroke-width="4.66696" stroke-linejoin="round"/>
<path d="M1627.08 643.106L1463.85 588.058C1462.36 587.555 1460.75 587.529 1459.24 587.982L1360.29 617.771C1353.61 619.78 1352.95 628.973 1359.27 631.91L1530.66 711.568C1532.94 712.628 1535.6 712.489 1537.76 711.196L1628.56 656.798C1634.11 653.473 1633.21 645.173 1627.08 643.106Z" fill="#E999B3" stroke="black" stroke-width="4.66696"/>
<path d="M1506.12 580.982L1534.77 694.044C1535.99 698.846 1531.05 702.884 1526.58 700.731L1357.56 619.188C1356.08 618.474 1354.97 617.169 1354.51 615.594L1326.13 520.022C1324.75 515.393 1329.27 511.194 1333.79 512.907L1502.54 576.961C1504.31 577.636 1505.65 579.137 1506.12 580.982Z" fill="#E999B3" stroke="black" stroke-width="4.66696"/>
<path d="M1570.41 602.218C1587.48 587.771 1616.92 571.027 1629.51 564.46L1669.3 628.72C1663.91 631.636 1649.52 638.033 1635.09 640.291C1617.05 643.113 1590.34 638.88 1582.72 640.291C1575.1 641.702 1572.56 640.855 1570.41 638.88C1568.26 636.904 1564.94 640.008 1562.12 637.469C1559.3 634.929 1562.68 628.438 1558.17 628.72C1553.65 629.003 1549.07 620.276 1570.41 602.218Z" fill="white"/>
<path d="M1629.51 564.46C1616.92 571.027 1587.48 587.771 1570.41 602.218C1549.07 620.276 1553.65 629.003 1558.17 628.72C1562.68 628.438 1559.3 634.929 1562.12 637.469C1564.94 640.008 1568.26 636.904 1570.41 638.88C1572.56 640.855 1575.1 641.702 1582.72 640.291C1590.34 638.88 1617.05 643.113 1635.09 640.291C1649.52 638.033 1663.91 631.636 1669.3 628.72" stroke="black" stroke-width="4.66696"/>
<path d="M1647.07 772.51C1647.72 772.378 1648.39 772.544 1648.9 772.962C1649.41 773.379 1649.71 774.005 1649.71 774.665V872.03C1649.71 872.624 1649.47 873.193 1649.04 873.608L1629.33 892.753C1628.68 893.386 1627.7 893.553 1626.88 893.173L1616.08 888.208C1615.3 887.847 1614.79 887.059 1614.8 886.194L1615.58 780.719C1615.58 779.68 1616.32 778.788 1617.34 778.581L1647.07 772.51Z" fill="#BA9595" stroke="black" stroke-width="4.39852" stroke-linejoin="round"/>
<path d="M1729.51 688.22C1730.16 688.088 1730.83 688.254 1731.34 688.671C1731.86 689.089 1732.15 689.715 1732.15 690.375V787.74C1732.15 788.334 1731.91 788.903 1731.48 789.317L1711.77 808.463C1711.12 809.096 1710.14 809.263 1709.32 808.883L1698.52 803.918C1697.74 803.557 1697.24 802.769 1697.24 801.904L1698.02 696.429C1698.03 695.39 1698.76 694.498 1699.78 694.29L1729.51 688.22Z" fill="#BA9595" stroke="black" stroke-width="4.39852" stroke-linejoin="round"/>
<path d="M1760.45 666.045C1761.21 666.411 1761.69 667.182 1761.69 668.026V684.863C1761.69 685.476 1761.44 686.061 1760.99 686.477L1607.19 828.785C1606.56 829.365 1605.65 829.53 1604.86 829.206L1560.46 811.027C1559.64 810.688 1559.1 809.884 1559.1 808.991V792.155C1559.1 791.547 1559.35 790.967 1559.79 790.551L1714.42 645.449C1715.09 644.827 1716.06 644.676 1716.88 645.071L1760.45 666.045Z" fill="#BA9595" stroke="black" stroke-width="4.39852" stroke-linejoin="round"/>
</g>
<defs>
<linearGradient id="paint0_linear_1242_881" x1="1745.61" y1="617.348" x2="1745.61" y2="514.833" gradientUnits="userSpaceOnUse">
<stop stop-color="#E2EEF9"/>
<stop offset="1" stop-color="#A9A8EC"/>
</linearGradient>
<linearGradient id="paint1_linear_1242_881" x1="1775.18" y1="560.127" x2="1775.18" y2="473.721" gradientUnits="userSpaceOnUse">
<stop stop-color="#E2EEF9"/>
<stop offset="1" stop-color="#A9A8EC"/>
</linearGradient>
<linearGradient id="paint2_linear_1242_881" x1="1590.46" y1="384.718" x2="1536.42" y2="340.286" gradientUnits="userSpaceOnUse">
<stop stop-color="#E2EEF9"/>
<stop offset="1" stop-color="#A9A8EC"/>
</linearGradient>
<linearGradient id="paint3_linear_1242_881" x1="1687.09" y1="350.612" x2="1687.09" y2="433.322" gradientUnits="userSpaceOnUse">
<stop stop-color="#E2EEF9"/>
<stop offset="1" stop-color="#A9A8EC"/>
</linearGradient>
<linearGradient id="paint4_linear_1242_881" x1="1582.6" y1="404.462" x2="1563.51" y2="496.204" gradientUnits="userSpaceOnUse">
<stop stop-color="#E2EEF9"/>
<stop offset="1" stop-color="#A9A8EC"/>
</linearGradient>
<linearGradient id="paint5_linear_1242_881" x1="1548.49" y1="437.03" x2="1533.15" y2="449.272" gradientUnits="userSpaceOnUse">
<stop stop-color="#E2EEF9"/>
<stop offset="1" stop-color="#A9A8EC"/>
</linearGradient>
<linearGradient id="paint6_linear_1242_881" x1="1373.99" y1="703.569" x2="1392.43" y2="651.959" gradientUnits="userSpaceOnUse">
<stop stop-color="#E2EEF9"/>
<stop offset="1" stop-color="#A9A8EC"/>
</linearGradient>
<linearGradient id="paint7_linear_1242_881" x1="1590.22" y1="797.582" x2="1550.8" y2="735.324" gradientUnits="userSpaceOnUse">
<stop stop-color="#E2EEF9"/>
<stop offset="1" stop-color="#A9A8EC"/>
</linearGradient>
<linearGradient id="paint8_linear_1242_881" x1="1745.61" y1="617.348" x2="1745.61" y2="514.833" gradientUnits="userSpaceOnUse">
<stop stop-color="#E2EEF9"/>
<stop offset="1" stop-color="#A9A8EC"/>
</linearGradient>
<linearGradient id="paint9_linear_1242_881" x1="1775.18" y1="560.127" x2="1775.18" y2="473.721" gradientUnits="userSpaceOnUse">
<stop stop-color="#E2EEF9"/>
<stop offset="1" stop-color="#A9A8EC"/>
</linearGradient>
<linearGradient id="paint10_linear_1242_881" x1="1590.46" y1="384.718" x2="1536.42" y2="340.286" gradientUnits="userSpaceOnUse">
<stop stop-color="#E2EEF9"/>
<stop offset="1" stop-color="#A9A8EC"/>
</linearGradient>
<linearGradient id="paint11_linear_1242_881" x1="1687.09" y1="350.612" x2="1687.09" y2="433.322" gradientUnits="userSpaceOnUse">
<stop stop-color="#E2EEF9"/>
<stop offset="1" stop-color="#A9A8EC"/>
</linearGradient>
<linearGradient id="paint12_linear_1242_881" x1="1582.6" y1="404.462" x2="1563.51" y2="496.204" gradientUnits="userSpaceOnUse">
<stop stop-color="#E2EEF9"/>
<stop offset="1" stop-color="#A9A8EC"/>
</linearGradient>
<linearGradient id="paint13_linear_1242_881" x1="1548.49" y1="437.03" x2="1533.15" y2="449.272" gradientUnits="userSpaceOnUse">
<stop stop-color="#E2EEF9"/>
<stop offset="1" stop-color="#A9A8EC"/>
</linearGradient>
<linearGradient id="paint14_linear_1242_881" x1="1373.99" y1="703.569" x2="1392.43" y2="651.959" gradientUnits="userSpaceOnUse">
<stop stop-color="#E2EEF9"/>
<stop offset="1" stop-color="#A9A8EC"/>
</linearGradient>
<linearGradient id="paint15_linear_1242_881" x1="1590.22" y1="797.582" x2="1550.8" y2="735.324" gradientUnits="userSpaceOnUse">
<stop stop-color="#E2EEF9"/>
<stop offset="1" stop-color="#A9A8EC"/>
</linearGradient>
<clipPath id="clip0_1242_881">
<rect width="1920" height="1080" fill="white" transform="matrix(-1 0 0 1 1920 0)"/>
</clipPath>
</defs>
</svg>
