<svg width="1920" height="717" viewBox="0 0 1920 717" fill="none" xmlns="http://www.w3.org/2000/svg">
<g clip-path="url(#clip0_1242_881)">
<g style="mix-blend-mode:multiply" opacity="0.6">
<path fill-rule="evenodd" clip-rule="evenodd" d="M1737.44 375.347L1697.78 455.775L1543.98 598.083L1315.7 503.236L1254.75 544.736V561.573L1543.98 681.746L1697.78 539.438L1920.32 431.215V414.379L1737.44 375.347Z" fill="#1E1E1E" fill-opacity="0.7"/>
</g>
<g style="mix-blend-mode:screen">
<path d="M1319.8 356.96C1320.53 357.336 1320.99 358.091 1320.99 358.916V456.281C1320.99 457.047 1320.6 457.758 1319.94 458.158C1319.29 458.557 1318.47 458.587 1317.79 458.237L1302 450.127C1301.26 449.75 1300.8 448.995 1300.8 448.17V350.806C1300.8 350.039 1301.2 349.328 1301.86 348.929C1302.51 348.529 1303.32 348.499 1304.01 348.849L1319.8 356.96Z" fill="#BA9595" stroke="black" stroke-width="4.39852" stroke-linejoin="round"/>
<path d="M1414.43 268.216C1415.16 268.592 1415.62 269.348 1415.62 270.172V367.537C1415.62 368.303 1415.22 369.014 1414.57 369.414C1413.91 369.813 1413.1 369.843 1412.42 369.493L1396.62 361.383C1395.89 361.006 1395.43 360.251 1395.43 359.427V262.062C1395.43 261.296 1395.83 260.584 1396.48 260.185C1397.14 259.786 1397.95 259.756 1398.63 260.106L1414.43 268.216Z" fill="#BA9595" stroke="black" stroke-width="4.39852" stroke-linejoin="round"/>
<path d="M1467.35 298.44C1468.11 298.806 1468.59 299.576 1468.59 300.421V317.258C1468.59 318.046 1468.17 318.775 1467.49 319.167L1289.49 420.964C1288.9 421.3 1288.19 421.347 1287.57 421.09L1243.17 402.911C1242.34 402.573 1241.8 401.769 1241.8 400.876V384.039C1241.8 383.258 1242.22 382.536 1242.89 382.141L1421.72 277.549C1422.35 277.179 1423.13 277.148 1423.78 277.465L1467.35 298.44Z" fill="#BA9595" stroke="black" stroke-width="4.39852" stroke-linejoin="round"/>
<path d="M1582.77 68.9691C1583.23 68.1017 1584.21 67.645 1585.17 67.85L1852.09 124.817C1853.11 125.034 1853.83 125.931 1853.83 126.968V143.805C1853.83 144.142 1853.76 144.475 1853.61 144.777L1699.75 456.747C1699.63 456.989 1699.47 457.206 1699.27 457.389L1545.47 599.696C1544.84 600.28 1543.93 600.443 1543.13 600.113L1253.9 479.94C1253.08 479.599 1252.55 478.798 1252.55 477.909V461.073C1252.55 460.345 1252.91 459.664 1253.51 459.255L1444.52 329.203L1582.77 68.9691Z" fill="#BA9595" stroke="black" stroke-width="4.39852" stroke-linejoin="round"/>
<path d="M1759.32 294.781C1739.99 338.716 1678.04 363.247 1649.49 370.021L1605 336.52C1618 321.325 1646.96 289.509 1658.82 283.797C1673.65 276.657 1683.54 237.115 1690.67 227.23C1697.81 217.344 1726.92 185.491 1743.95 189.885C1760.97 194.278 1783.49 239.861 1759.32 294.781Z" fill="white" stroke="black" stroke-width="4.39356" stroke-linejoin="round"/>
<path fill-rule="evenodd" clip-rule="evenodd" d="M1657.78 284.338C1658.14 284.138 1658.49 283.957 1658.82 283.797C1668.62 279.077 1676.27 260.197 1682.38 245.085C1683.27 242.905 1684.12 240.803 1684.94 238.833C1691.99 260.995 1705.51 289.845 1717.04 301.371C1724.33 308.669 1737.6 310.151 1751.16 309.052C1742.12 321.796 1729.54 332.543 1715.99 341.348C1702.19 340.03 1689.67 337.837 1684.08 334.323C1676.57 329.59 1666.3 306.816 1657.78 284.338Z" fill="url(#paint0_linear_1242_881)"/>
<path d="M1657.78 284.338L1656.71 282.42C1655.76 282.95 1655.34 284.098 1655.73 285.116L1657.78 284.338ZM1658.82 283.797L1659.77 285.776V285.776L1658.82 283.797ZM1682.38 245.085L1680.35 244.261L1682.38 245.085ZM1684.94 238.833L1687.03 238.167C1686.75 237.289 1685.95 236.679 1685.03 236.639C1684.11 236.598 1683.26 237.137 1682.91 237.988L1684.94 238.833ZM1717.04 301.371L1715.48 302.924L1717.04 301.371ZM1751.16 309.052L1752.96 310.324C1753.45 309.627 1753.5 308.708 1753.07 307.966C1752.65 307.224 1751.84 306.793 1750.99 306.862L1751.16 309.052ZM1715.99 341.348L1715.78 343.535C1716.27 343.582 1716.77 343.46 1717.19 343.19L1715.99 341.348ZM1684.08 334.323L1685.26 332.464L1684.08 334.323ZM1658.86 286.256C1659.18 286.075 1659.49 285.915 1659.77 285.776L1657.87 281.818C1657.49 281.999 1657.11 282.201 1656.71 282.42L1658.86 286.256ZM1659.77 285.776C1665.37 283.084 1670.01 276.597 1673.92 269.385C1677.89 262.057 1681.37 253.44 1684.42 245.909L1680.35 244.261C1677.28 251.842 1673.88 260.221 1670.05 267.292C1666.16 274.477 1662.08 279.79 1657.87 281.818L1659.77 285.776ZM1684.42 245.909C1685.3 243.727 1686.15 241.636 1686.97 239.678L1682.91 237.988C1682.08 239.97 1681.23 242.083 1680.35 244.261L1684.42 245.909ZM1682.84 239.499C1686.4 250.69 1691.59 263.548 1697.34 275.072C1703.07 286.542 1709.46 296.901 1715.48 302.924L1718.59 299.818C1713.09 294.316 1706.95 284.487 1701.27 273.11C1695.62 261.786 1690.52 249.139 1687.03 238.167L1682.84 239.499ZM1715.48 302.924C1719.55 306.992 1725.16 309.323 1731.33 310.517C1737.52 311.713 1744.44 311.8 1751.34 311.242L1750.99 306.862C1744.32 307.402 1737.83 307.298 1732.17 306.203C1726.49 305.106 1721.82 303.048 1718.59 299.818L1715.48 302.924ZM1749.37 307.78C1740.54 320.229 1728.2 330.797 1714.79 339.506L1717.19 343.19C1730.89 334.289 1743.7 323.363 1752.96 310.324L1749.37 307.78ZM1716.2 339.161C1709.34 338.506 1702.85 337.638 1697.4 336.508C1691.89 335.364 1687.69 333.998 1685.26 332.464L1682.91 336.182C1686.06 338.161 1690.92 339.649 1696.51 340.81C1702.17 341.984 1708.84 342.871 1715.78 343.535L1716.2 339.161ZM1685.26 332.464C1683.77 331.53 1681.93 329.532 1679.82 326.438C1677.74 323.397 1675.53 319.499 1673.27 314.998C1668.75 306 1664.08 294.767 1659.84 283.559L1655.73 285.116C1660 296.386 1664.73 307.779 1669.35 316.971C1671.66 321.565 1673.96 325.652 1676.19 328.916C1678.38 332.125 1680.64 334.749 1682.91 336.182L1685.26 332.464Z" fill="black"/>
<path fill-rule="evenodd" clip-rule="evenodd" d="M1769.88 248.772C1769.67 259.657 1767.77 271.579 1763.48 284.127C1763.76 265.493 1760.81 243.181 1748.62 234.983C1738.26 228.008 1717.67 221.835 1698.22 218.134C1704.16 211.568 1712.34 203.591 1720.69 197.721C1736.6 201.216 1750.06 205.415 1754.38 209.997C1759.88 215.844 1765.44 232.169 1769.88 248.772Z" fill="url(#paint1_linear_1242_881)"/>
<path d="M1769.88 248.772L1772.07 248.813C1772.08 248.607 1772.05 248.403 1772 248.204L1769.88 248.772ZM1763.48 284.127L1761.29 284.095C1761.27 285.175 1762.04 286.107 1763.11 286.292C1764.17 286.476 1765.21 285.859 1765.56 284.837L1763.48 284.127ZM1748.62 234.983L1749.85 233.16L1748.62 234.983ZM1698.22 218.134L1696.59 216.66C1696.05 217.248 1695.88 218.079 1696.13 218.833C1696.38 219.586 1697.02 220.144 1697.8 220.293L1698.22 218.134ZM1720.69 197.721L1721.16 195.575C1720.56 195.443 1719.93 195.57 1719.43 195.924L1720.69 197.721ZM1754.38 209.997L1752.78 211.503L1754.38 209.997ZM1767.68 248.731C1767.48 259.388 1765.61 271.084 1761.4 283.418L1765.56 284.837C1769.92 272.073 1771.86 259.925 1772.07 248.813L1767.68 248.731ZM1747.4 236.806C1752.81 240.449 1756.41 247.426 1758.59 256.173C1760.76 264.852 1761.42 274.882 1761.29 284.095L1765.68 284.159C1765.82 274.739 1765.15 264.295 1762.86 255.11C1760.59 245.993 1756.62 237.714 1749.85 233.16L1747.4 236.806ZM1697.8 220.293C1707.46 222.129 1717.38 224.576 1726.15 227.42C1734.96 230.277 1742.47 233.489 1747.4 236.806L1749.85 233.16C1744.41 229.502 1736.44 226.14 1727.5 223.241C1718.53 220.33 1708.43 217.841 1698.63 215.976L1697.8 220.293ZM1699.84 219.609C1705.73 213.107 1713.79 205.259 1721.95 199.518L1719.43 195.924C1710.89 201.922 1702.59 210.029 1696.59 216.66L1699.84 219.609ZM1755.98 208.492C1754.65 207.085 1752.75 205.828 1750.54 204.685C1748.3 203.53 1745.61 202.428 1742.61 201.378C1736.6 199.277 1729.16 197.332 1721.16 195.575L1720.22 199.866C1728.13 201.605 1735.38 203.507 1741.16 205.525C1744.05 206.534 1746.53 207.56 1748.52 208.59C1750.54 209.633 1751.94 210.619 1752.78 211.503L1755.98 208.492ZM1772 248.204C1769.77 239.866 1767.25 231.553 1764.58 224.567C1761.94 217.675 1759.05 211.761 1755.98 208.492L1752.78 211.503C1755.2 214.081 1757.84 219.253 1760.47 226.135C1763.07 232.924 1765.54 241.075 1767.75 249.339L1772 248.204Z" fill="black"/>
<path d="M1506.03 120.53C1515.77 128.542 1567.08 97.0617 1567.92 82.9826C1544.3 65.1339 1523.76 25.0108 1509.7 47.0105C1495.64 69.0103 1487.24 105.087 1506.03 120.53Z" fill="url(#paint2_linear_1242_881)" stroke="black" stroke-width="4.39356" stroke-linejoin="round"/>
<path d="M1424.97 280.36C1442.04 265.913 1471.48 249.169 1484.07 242.602L1523.86 306.862C1518.47 309.778 1504.08 316.175 1489.65 318.433C1471.61 321.255 1444.9 317.022 1437.28 318.433C1429.66 319.844 1427.12 318.997 1424.97 317.022C1422.82 315.046 1419.5 318.15 1416.68 315.611C1413.86 313.071 1417.24 306.58 1412.73 306.862C1408.21 307.145 1403.63 298.418 1424.97 280.36Z" fill="white"/>
<path d="M1484.07 242.602C1471.48 249.169 1442.04 265.913 1424.97 280.36C1403.63 298.418 1408.21 307.145 1412.73 306.862C1417.24 306.58 1413.86 313.071 1416.68 315.611C1419.5 318.15 1422.82 315.046 1424.97 317.022C1427.12 318.997 1429.66 319.844 1437.28 318.433C1444.9 317.022 1471.61 321.255 1489.65 318.433C1504.08 316.175 1518.47 309.778 1523.86 306.862" stroke="black" stroke-width="4.66696"/>
<path d="M1670.21 244.553C1676.65 240.974 1678.8 220.216 1688.82 213.058C1686.19 210.434 1680.37 202.321 1678.08 190.868C1675.22 176.552 1643.72 92.1101 1612.23 86.3837C1580.73 80.6573 1525.89 81.6201 1513.01 97.3676C1500.12 113.115 1482.67 137.184 1474.79 145.057C1468.49 151.356 1460.72 172.496 1457.61 182.279C1463.75 187.042 1475.49 197.641 1473.34 201.94C1470.66 207.314 1467.61 209.822 1469.4 212.509C1471.19 215.196 1491.26 223.973 1489.82 227.734C1488.39 231.496 1429.77 287.181 1420.92 325.625C1408.04 381.541 1356.63 381.269 1351.67 395.434C1333.76 446.592 1435.97 427.015 1451.6 432.241C1463.19 436.118 1466.99 444.011 1497.86 453.406C1513.85 458.274 1514.23 518.298 1524.36 524.757C1532.46 529.924 1532.68 536.108 1550.84 523.324C1550.84 523.324 1611.96 470.119 1625.02 449.25C1638.07 428.38 1645.63 418.489 1652.09 366.376C1658.55 314.262 1657.16 304.853 1645.63 258.153V251.896C1656.92 249.149 1667.27 246.183 1670.21 244.553Z" fill="white"/>
<path d="M1565.7 249.564C1578.11 252.427 1604.78 258.153 1612.23 258.153C1617.29 258.153 1632.13 255.181 1645.63 251.896M1645.63 251.896C1656.92 249.149 1667.27 246.183 1670.21 244.553C1676.65 240.974 1678.8 220.216 1688.82 213.058C1686.19 210.434 1680.37 202.321 1678.08 190.868C1675.22 176.552 1643.72 92.1101 1612.23 86.3837C1580.73 80.6573 1525.89 81.6201 1513.01 97.3676C1500.12 113.115 1482.67 137.184 1474.79 145.057C1468.49 151.356 1460.72 172.496 1457.61 182.279C1463.75 187.042 1475.49 197.641 1473.34 201.94C1470.66 207.314 1467.61 209.822 1469.4 212.509C1471.19 215.196 1491.26 223.973 1489.82 227.734C1488.39 231.496 1429.77 287.181 1420.92 325.625C1408.04 381.541 1356.63 381.269 1351.67 395.434C1333.76 446.592 1435.97 427.015 1451.6 432.241C1463.19 436.118 1466.99 444.011 1497.86 453.406C1513.85 458.274 1514.23 518.298 1524.36 524.757C1532.46 529.924 1532.68 536.108 1550.84 523.324C1550.84 523.324 1611.96 470.119 1625.02 449.25C1638.07 428.38 1645.63 418.489 1652.09 366.376C1658.55 314.262 1657.16 304.853 1645.63 258.153V251.896Z" stroke="black" stroke-width="4.39356" stroke-linejoin="round"/>
<path d="M1610.79 101.394C1610.79 88.7793 1663.38 68.2343 1674.78 76.5298C1686.19 86.8992 1683.24 160.337 1657.32 157.226C1631.4 154.116 1610.79 125.709 1610.79 101.394Z" fill="url(#paint3_linear_1242_881)" stroke="black" stroke-width="4.39356" stroke-linejoin="round"/>
<path d="M1540.25 217.43C1544.86 224.278 1560.92 230.004 1568.55 228.366C1576.18 226.729 1578.78 224.073 1583.43 219.542C1589.23 213.878 1592.14 179.703 1578.55 157.383C1564.96 135.062 1554.82 138 1543.32 137.291C1531.83 136.583 1529.33 122.934 1511.53 122.876C1493.73 122.819 1466.45 151.501 1472.65 170.883C1478.86 190.265 1496.52 151.254 1516.36 152.297C1536.2 153.339 1535.65 210.582 1540.25 217.43Z" fill="url(#paint4_linear_1242_881)" stroke="black" stroke-width="4.39356" stroke-linejoin="round"/>
<path d="M1490.81 159.18C1494.71 153.373 1514.47 155.549 1523.86 157.363L1518.09 176.356L1490.78 207.838C1488.91 204.691 1484.79 196.746 1483.24 190.142C1481.31 181.887 1485.93 166.44 1490.81 159.18Z" fill="white"/>
<path d="M1523.86 157.363C1514.47 155.549 1494.71 153.373 1490.81 159.18C1485.93 166.44 1481.31 181.887 1483.24 190.142C1484.79 196.746 1488.91 204.691 1490.78 207.838" stroke="black" stroke-width="4.39356" stroke-linejoin="round"/>
<path d="M1518.94 188.287C1508.62 190.78 1503.07 179.776 1497.48 177.677C1494.71 179.065 1487.38 183.058 1484.01 179.489" stroke="black" stroke-width="4.39356" stroke-linejoin="round"/>
<path d="M1554.81 171.007L1556.27 159.252M1505.3 138.688L1501.77 148.893" stroke="black" stroke-width="4.39356" stroke-linejoin="round"/>
<path d="M1496.51 157.627C1498.85 155.76 1511.45 163.736 1511.82 167.353C1511.8 171.278 1497.69 181.53 1493.93 175.639C1490.17 169.747 1492 161.226 1496.51 157.627Z" fill="url(#paint5_linear_1242_881)" stroke="black" stroke-width="4.39356" stroke-linejoin="round"/>
<path d="M1324.91 368.028C1343.81 368.55 1364.19 390.31 1372.38 404.935C1383.24 424.331 1380.35 437.771 1367.08 438.422C1351.77 439.173 1321.72 412.445 1306.81 392.236C1300.34 383.466 1301.29 367.375 1324.91 368.028Z" fill="url(#paint6_linear_1242_881)" stroke="black" stroke-width="4.66696" stroke-linejoin="round"/>
<path d="M1530.29 447.275C1512.14 451.325 1509.61 488.736 1505.52 505.285C1500.1 527.232 1506.44 540.502 1519.44 538.705C1534.45 536.631 1556.5 503.582 1565.62 480.047C1569.58 469.835 1552.97 442.212 1530.29 447.275Z" fill="url(#paint7_linear_1242_881)" stroke="black" stroke-width="4.66696" stroke-linejoin="round"/>
<path d="M1585.95 367.106L1422.71 312.058C1421.22 311.555 1419.61 311.529 1418.1 311.982L1319.15 341.771C1312.47 343.78 1311.82 352.973 1318.14 355.91L1489.53 435.568C1491.81 436.628 1494.46 436.489 1496.62 435.196L1587.42 380.798C1592.97 377.473 1592.08 369.173 1585.95 367.106Z" fill="#E999B3" stroke="black" stroke-width="4.66696"/>
<path d="M1464.98 304.982L1493.64 418.044C1494.85 422.846 1489.91 426.884 1485.45 424.731L1316.43 343.188C1314.95 342.474 1313.84 341.169 1313.37 339.594L1284.99 244.022C1283.61 239.393 1288.14 235.194 1292.65 236.907L1461.4 300.961C1463.18 301.636 1464.52 303.137 1464.98 304.982Z" fill="#E999B3" stroke="black" stroke-width="4.66696"/>
<path d="M1529.27 326.218C1546.35 311.771 1575.79 295.027 1588.37 288.46L1628.16 352.72C1622.77 355.636 1608.38 362.033 1593.95 364.291C1575.92 367.113 1549.2 362.88 1541.58 364.291C1533.96 365.702 1531.42 364.855 1529.27 362.88C1527.12 360.904 1523.81 364.008 1520.98 361.469C1518.16 358.929 1521.55 352.438 1517.03 352.72C1512.52 353.003 1507.93 344.276 1529.27 326.218Z" fill="white"/>
<path d="M1588.37 288.46C1575.79 295.027 1546.35 311.771 1529.27 326.218C1507.93 344.276 1512.52 353.003 1517.03 352.72C1521.55 352.438 1518.16 358.929 1520.98 361.469C1523.81 364.008 1527.12 360.904 1529.27 362.88C1531.42 364.855 1533.96 365.702 1541.58 364.291C1549.2 362.88 1575.92 367.113 1593.95 364.291C1608.38 362.033 1622.77 355.636 1628.16 352.72" stroke="black" stroke-width="4.66696"/>
<path d="M1605.94 496.51C1606.58 496.378 1607.25 496.544 1607.77 496.962C1608.28 497.379 1608.57 498.005 1608.57 498.665V596.03C1608.57 596.624 1608.33 597.193 1607.91 597.608L1588.19 616.753C1587.54 617.386 1586.57 617.553 1585.74 617.173L1574.94 612.208C1574.16 611.847 1573.66 611.059 1573.66 610.194L1574.44 504.719C1574.45 503.68 1575.18 502.788 1576.2 502.581L1605.94 496.51Z" fill="#BA9595" stroke="black" stroke-width="4.39852" stroke-linejoin="round"/>
<path d="M1688.38 412.22C1689.02 412.088 1689.7 412.254 1690.21 412.671C1690.72 413.089 1691.02 413.715 1691.02 414.375V511.74C1691.02 512.334 1690.78 512.903 1690.35 513.317L1670.63 532.463C1669.98 533.096 1669.01 533.263 1668.18 532.883L1657.39 527.918C1656.6 527.557 1656.1 526.769 1656.11 525.904L1656.88 420.429C1656.89 419.39 1657.62 418.498 1658.64 418.29L1688.38 412.22Z" fill="#BA9595" stroke="black" stroke-width="4.39852" stroke-linejoin="round"/>
<path d="M1719.31 390.045C1720.07 390.411 1720.56 391.182 1720.56 392.026V408.863C1720.56 409.476 1720.3 410.061 1719.85 410.477L1566.05 552.785C1565.42 553.365 1564.52 553.53 1563.73 553.206L1519.33 535.027C1518.5 534.688 1517.96 533.884 1517.96 532.991V516.155C1517.96 515.547 1518.21 514.967 1518.66 514.551L1673.29 369.449C1673.95 368.827 1674.93 368.676 1675.75 369.071L1719.31 390.045Z" fill="#BA9595" stroke="black" stroke-width="4.39852" stroke-linejoin="round"/>
</g>
<path d="M1319.8 356.96C1320.53 357.336 1320.99 358.091 1320.99 358.916V456.281C1320.99 457.047 1320.6 457.758 1319.94 458.158C1319.29 458.557 1318.47 458.587 1317.79 458.237L1302 450.127C1301.26 449.75 1300.8 448.995 1300.8 448.17V350.806C1300.8 350.039 1301.2 349.328 1301.86 348.929C1302.51 348.529 1303.32 348.499 1304.01 348.849L1319.8 356.96Z" fill="#BA9595" stroke="black" stroke-width="4.39852" stroke-linejoin="round"/>
<path d="M1414.43 268.216C1415.16 268.592 1415.62 269.348 1415.62 270.172V367.537C1415.62 368.303 1415.22 369.014 1414.57 369.414C1413.91 369.813 1413.1 369.843 1412.42 369.493L1396.62 361.383C1395.89 361.006 1395.43 360.251 1395.43 359.427V262.062C1395.43 261.296 1395.83 260.584 1396.48 260.185C1397.14 259.786 1397.95 259.756 1398.63 260.106L1414.43 268.216Z" fill="#BA9595" stroke="black" stroke-width="4.39852" stroke-linejoin="round"/>
<path d="M1467.35 298.44C1468.11 298.806 1468.59 299.576 1468.59 300.421V317.258C1468.59 318.046 1468.17 318.775 1467.49 319.167L1289.49 420.964C1288.9 421.3 1288.19 421.347 1287.57 421.09L1243.17 402.911C1242.34 402.573 1241.8 401.769 1241.8 400.876V384.039C1241.8 383.258 1242.22 382.536 1242.89 382.141L1421.72 277.549C1422.35 277.179 1423.13 277.148 1423.78 277.465L1467.35 298.44Z" fill="#BA9595" stroke="black" stroke-width="4.39852" stroke-linejoin="round"/>
<path d="M1582.77 68.9691C1583.23 68.1017 1584.21 67.645 1585.17 67.85L1852.09 124.817C1853.11 125.034 1853.83 125.931 1853.83 126.968V143.805C1853.83 144.142 1853.76 144.475 1853.61 144.777L1699.75 456.747C1699.63 456.989 1699.47 457.206 1699.27 457.389L1545.47 599.696C1544.84 600.28 1543.93 600.443 1543.13 600.113L1253.9 479.94C1253.08 479.599 1252.55 478.798 1252.55 477.909V461.073C1252.55 460.345 1252.91 459.664 1253.51 459.255L1444.52 329.203L1582.77 68.9691Z" fill="#BA9595" stroke="black" stroke-width="4.39852" stroke-linejoin="round"/>
<path d="M1759.32 294.781C1739.99 338.716 1678.04 363.247 1649.49 370.021L1605 336.52C1618 321.325 1646.96 289.509 1658.82 283.797C1673.65 276.657 1683.54 237.115 1690.67 227.23C1697.81 217.344 1726.92 185.491 1743.95 189.885C1760.97 194.278 1783.49 239.861 1759.32 294.781Z" fill="white" stroke="black" stroke-width="4.39356" stroke-linejoin="round"/>
<path fill-rule="evenodd" clip-rule="evenodd" d="M1657.78 284.338C1658.14 284.138 1658.49 283.957 1658.82 283.797C1668.62 279.077 1676.27 260.197 1682.38 245.085C1683.27 242.905 1684.12 240.803 1684.94 238.833C1691.99 260.995 1705.51 289.845 1717.04 301.371C1724.33 308.669 1737.6 310.151 1751.16 309.052C1742.12 321.796 1729.54 332.543 1715.99 341.348C1702.19 340.03 1689.67 337.837 1684.08 334.323C1676.57 329.589 1666.3 306.816 1657.78 284.338Z" fill="url(#paint8_linear_1242_881)"/>
<path d="M1657.78 284.338L1656.71 282.419C1655.76 282.95 1655.34 284.098 1655.73 285.116L1657.78 284.338ZM1658.82 283.797L1659.77 285.776V285.776L1658.82 283.797ZM1682.38 245.085L1680.35 244.261L1682.38 245.085ZM1684.94 238.833L1687.03 238.167C1686.75 237.289 1685.95 236.678 1685.03 236.638C1684.11 236.598 1683.26 237.137 1682.91 237.988L1684.94 238.833ZM1717.04 301.371L1715.48 302.924L1717.04 301.371ZM1751.16 309.052L1752.96 310.323C1753.45 309.627 1753.5 308.708 1753.07 307.966C1752.65 307.224 1751.84 306.793 1750.99 306.862L1751.16 309.052ZM1715.99 341.348L1715.78 343.535C1716.27 343.582 1716.77 343.46 1717.19 343.19L1715.99 341.348ZM1684.08 334.323L1685.26 332.464L1684.08 334.323ZM1658.86 286.256C1659.18 286.074 1659.49 285.915 1659.77 285.776L1657.87 281.818C1657.49 281.999 1657.11 282.201 1656.71 282.419L1658.86 286.256ZM1659.77 285.776C1665.37 283.084 1670.01 276.597 1673.92 269.385C1677.89 262.057 1681.37 253.44 1684.42 245.909L1680.35 244.261C1677.28 251.842 1673.88 260.221 1670.05 267.292C1666.16 274.477 1662.08 279.79 1657.87 281.818L1659.77 285.776ZM1684.42 245.909C1685.3 243.727 1686.15 241.636 1686.97 239.678L1682.91 237.988C1682.08 239.97 1681.23 242.083 1680.35 244.261L1684.42 245.909ZM1682.84 239.499C1686.4 250.69 1691.59 263.548 1697.34 275.072C1703.07 286.542 1709.46 296.9 1715.48 302.924L1718.59 299.818C1713.09 294.316 1706.95 284.487 1701.27 273.11C1695.62 261.786 1690.52 249.139 1687.03 238.167L1682.84 239.499ZM1715.48 302.924C1719.55 306.991 1725.16 309.323 1731.33 310.517C1737.52 311.713 1744.44 311.8 1751.34 311.242L1750.99 306.862C1744.32 307.402 1737.83 307.298 1732.17 306.203C1726.49 305.106 1721.82 303.048 1718.59 299.818L1715.48 302.924ZM1749.37 307.78C1740.54 320.229 1728.2 330.797 1714.79 339.505L1717.19 343.19C1730.89 334.289 1743.7 323.363 1752.96 310.323L1749.37 307.78ZM1716.2 339.161C1709.34 338.506 1702.85 337.637 1697.4 336.508C1691.89 335.364 1687.69 333.998 1685.26 332.464L1682.91 336.182C1686.06 338.161 1690.92 339.649 1696.51 340.81C1702.17 341.984 1708.84 342.871 1715.78 343.535L1716.2 339.161ZM1685.26 332.464C1683.77 331.53 1681.93 329.532 1679.82 326.438C1677.74 323.397 1675.53 319.499 1673.27 314.998C1668.75 306 1664.08 294.767 1659.84 283.559L1655.73 285.116C1660 296.386 1664.73 307.779 1669.35 316.971C1671.66 321.565 1673.96 325.652 1676.19 328.916C1678.38 332.125 1680.64 334.749 1682.91 336.182L1685.26 332.464Z" fill="black"/>
<path fill-rule="evenodd" clip-rule="evenodd" d="M1769.88 248.771C1769.67 259.657 1767.77 271.578 1763.48 284.127C1763.76 265.493 1760.81 243.18 1748.62 234.983C1738.26 228.008 1717.67 221.835 1698.22 218.134C1704.16 211.567 1712.34 203.59 1720.69 197.721C1736.6 201.216 1750.06 205.415 1754.38 209.997C1759.88 215.844 1765.44 232.169 1769.88 248.771Z" fill="url(#paint9_linear_1242_881)"/>
<path d="M1769.88 248.771L1772.07 248.812C1772.08 248.607 1772.05 248.402 1772 248.204L1769.88 248.771ZM1763.48 284.127L1761.29 284.095C1761.27 285.175 1762.04 286.107 1763.11 286.291C1764.17 286.476 1765.21 285.859 1765.56 284.836L1763.48 284.127ZM1748.62 234.983L1749.85 233.16L1748.62 234.983ZM1698.22 218.134L1696.59 216.659C1696.05 217.248 1695.88 218.079 1696.13 218.832C1696.38 219.586 1697.02 220.144 1697.8 220.292L1698.22 218.134ZM1720.69 197.721L1721.16 195.575C1720.56 195.443 1719.93 195.569 1719.43 195.924L1720.69 197.721ZM1754.38 209.997L1752.78 211.503H1752.78L1754.38 209.997ZM1767.68 248.73C1767.48 259.388 1765.61 271.084 1761.4 283.418L1765.56 284.836C1769.92 272.073 1771.86 259.925 1772.07 248.812L1767.68 248.73ZM1747.4 236.805C1752.81 240.449 1756.41 247.426 1758.59 256.172C1760.76 264.852 1761.42 274.881 1761.29 284.095L1765.68 284.159C1765.82 274.739 1765.15 264.295 1762.86 255.11C1760.59 245.993 1756.62 237.714 1749.85 233.16L1747.4 236.805ZM1697.8 220.292C1707.46 222.129 1717.38 224.576 1726.15 227.42C1734.96 230.276 1742.47 233.488 1747.4 236.805L1749.85 233.16C1744.41 229.502 1736.44 226.14 1727.5 223.241C1718.53 220.33 1708.43 217.84 1698.63 215.976L1697.8 220.292ZM1699.84 219.609C1705.73 213.107 1713.79 205.258 1721.95 199.518L1719.43 195.924C1710.89 201.922 1702.59 210.028 1696.59 216.659L1699.84 219.609ZM1755.98 208.492C1754.65 207.085 1752.75 205.828 1750.54 204.685C1748.3 203.53 1745.61 202.428 1742.61 201.377C1736.6 199.277 1729.16 197.332 1721.16 195.575L1720.22 199.866C1728.13 201.605 1735.38 203.507 1741.16 205.525C1744.05 206.534 1746.53 207.559 1748.52 208.589C1750.54 209.632 1751.94 210.619 1752.78 211.503L1755.98 208.492ZM1772 248.204C1769.77 239.866 1767.25 231.553 1764.58 224.567C1761.94 217.675 1759.05 211.761 1755.98 208.492L1752.78 211.503C1755.2 214.081 1757.84 219.252 1760.47 226.135C1763.07 232.924 1765.54 241.075 1767.75 249.339L1772 248.204Z" fill="black"/>
<path d="M1506.03 120.53C1515.77 128.542 1567.08 97.0617 1567.92 82.9826C1544.3 65.1339 1523.76 25.0108 1509.7 47.0105C1495.64 69.0103 1487.24 105.087 1506.03 120.53Z" fill="url(#paint10_linear_1242_881)" stroke="black" stroke-width="4.39356" stroke-linejoin="round"/>
<path d="M1424.97 280.36C1442.04 265.913 1471.48 249.169 1484.07 242.602L1523.86 306.862C1518.47 309.778 1504.08 316.175 1489.65 318.433C1471.61 321.255 1444.9 317.022 1437.28 318.433C1429.66 319.844 1427.12 318.997 1424.97 317.022C1422.82 315.046 1419.5 318.15 1416.68 315.611C1413.86 313.071 1417.24 306.58 1412.73 306.862C1408.21 307.145 1403.63 298.418 1424.97 280.36Z" fill="white"/>
<path d="M1484.07 242.602C1471.48 249.169 1442.04 265.913 1424.97 280.36C1403.63 298.418 1408.21 307.145 1412.73 306.862C1417.24 306.58 1413.86 313.071 1416.68 315.611C1419.5 318.15 1422.82 315.046 1424.97 317.022C1427.12 318.997 1429.66 319.844 1437.28 318.433C1444.9 317.022 1471.61 321.255 1489.65 318.433C1504.08 316.175 1518.47 309.778 1523.86 306.862" stroke="black" stroke-width="4.66696"/>
<path d="M1670.21 244.553C1676.65 240.974 1678.8 220.216 1688.82 213.058C1686.19 210.434 1680.37 202.321 1678.08 190.868C1675.22 176.552 1643.72 92.1101 1612.23 86.3837C1580.73 80.6573 1525.89 81.6201 1513.01 97.3676C1500.12 113.115 1482.67 137.184 1474.79 145.057C1468.49 151.356 1460.72 172.496 1457.61 182.279C1463.75 187.042 1475.49 197.641 1473.34 201.94C1470.66 207.314 1467.61 209.822 1469.4 212.509C1471.19 215.196 1491.26 223.973 1489.82 227.734C1488.39 231.496 1429.77 287.181 1420.92 325.625C1408.04 381.541 1356.63 381.269 1351.67 395.434C1333.76 446.592 1435.97 427.015 1451.6 432.241C1463.19 436.118 1466.99 444.011 1497.86 453.406C1513.85 458.274 1514.23 518.298 1524.36 524.757C1532.46 529.924 1532.68 536.108 1550.84 523.324C1550.84 523.324 1611.96 470.119 1625.02 449.25C1638.07 428.38 1645.63 418.489 1652.09 366.376C1658.55 314.262 1657.16 304.853 1645.63 258.153V251.896C1656.92 249.149 1667.27 246.183 1670.21 244.553Z" fill="white"/>
<path d="M1565.7 249.564C1578.11 252.427 1604.78 258.153 1612.23 258.153C1617.29 258.153 1632.13 255.181 1645.63 251.896M1645.63 251.896C1656.92 249.149 1667.27 246.183 1670.21 244.553C1676.65 240.974 1678.8 220.216 1688.82 213.058C1686.19 210.434 1680.37 202.321 1678.08 190.868C1675.22 176.552 1643.72 92.1101 1612.23 86.3837C1580.73 80.6573 1525.89 81.6201 1513.01 97.3676C1500.12 113.115 1482.67 137.184 1474.79 145.057C1468.49 151.356 1460.72 172.496 1457.61 182.279C1463.75 187.042 1475.49 197.641 1473.34 201.94C1470.66 207.314 1467.61 209.822 1469.4 212.509C1471.19 215.196 1491.26 223.973 1489.82 227.734C1488.39 231.496 1429.77 287.181 1420.92 325.625C1408.04 381.541 1356.63 381.269 1351.67 395.434C1333.76 446.592 1435.97 427.015 1451.6 432.241C1463.19 436.118 1466.99 444.011 1497.86 453.406C1513.85 458.274 1514.23 518.298 1524.36 524.757C1532.46 529.924 1532.68 536.108 1550.84 523.324C1550.84 523.324 1611.96 470.119 1625.02 449.25C1638.07 428.38 1645.63 418.489 1652.09 366.376C1658.55 314.262 1657.16 304.853 1645.63 258.153V251.896Z" stroke="black" stroke-width="4.39356" stroke-linejoin="round"/>
<path d="M1610.79 101.394C1610.79 88.7793 1663.38 68.2343 1674.78 76.5298C1686.19 86.8992 1683.24 160.337 1657.32 157.226C1631.4 154.116 1610.79 125.709 1610.79 101.394Z" fill="url(#paint11_linear_1242_881)" stroke="black" stroke-width="4.39356" stroke-linejoin="round"/>
<path d="M1540.25 217.43C1544.86 224.278 1560.92 230.004 1568.55 228.366C1576.18 226.729 1578.78 224.073 1583.43 219.542C1589.23 213.878 1592.14 179.703 1578.55 157.383C1564.96 135.062 1554.82 138 1543.32 137.291C1531.83 136.583 1529.33 122.934 1511.53 122.876C1493.73 122.819 1466.45 151.501 1472.65 170.883C1478.86 190.265 1496.52 151.254 1516.36 152.297C1536.2 153.339 1535.65 210.582 1540.25 217.43Z" fill="url(#paint12_linear_1242_881)" stroke="black" stroke-width="4.39356" stroke-linejoin="round"/>
<path d="M1490.81 159.18C1494.71 153.373 1514.47 155.549 1523.86 157.363L1518.09 176.356L1490.78 207.838C1488.91 204.691 1484.79 196.746 1483.24 190.142C1481.31 181.887 1485.93 166.44 1490.81 159.18Z" fill="white"/>
<path d="M1523.86 157.363C1514.47 155.549 1494.71 153.373 1490.81 159.18C1485.93 166.44 1481.31 181.887 1483.24 190.142C1484.79 196.746 1488.91 204.691 1490.78 207.838" stroke="black" stroke-width="4.39356" stroke-linejoin="round"/>
<path d="M1518.94 188.287C1508.62 190.78 1503.07 179.776 1497.48 177.677C1494.71 179.065 1487.38 183.058 1484.01 179.489" stroke="black" stroke-width="4.39356" stroke-linejoin="round"/>
<path d="M1554.81 171.007L1556.27 159.252M1505.3 138.688L1501.77 148.893" stroke="black" stroke-width="4.39356" stroke-linejoin="round"/>
<path d="M1496.51 157.627C1498.85 155.76 1511.45 163.736 1511.82 167.353C1511.8 171.278 1497.69 181.53 1493.93 175.639C1490.17 169.747 1492 161.226 1496.51 157.627Z" fill="url(#paint13_linear_1242_881)" stroke="black" stroke-width="4.39356" stroke-linejoin="round"/>
<path d="M1324.91 368.028C1343.81 368.55 1364.19 390.31 1372.38 404.935C1383.24 424.331 1380.35 437.771 1367.08 438.422C1351.77 439.173 1321.72 412.445 1306.81 392.236C1300.34 383.466 1301.29 367.375 1324.91 368.028Z" fill="url(#paint14_linear_1242_881)" stroke="black" stroke-width="4.66696" stroke-linejoin="round"/>
<path d="M1530.29 447.275C1512.14 451.325 1509.61 488.736 1505.52 505.285C1500.1 527.232 1506.44 540.502 1519.44 538.705C1534.45 536.631 1556.5 503.582 1565.62 480.047C1569.58 469.835 1552.97 442.212 1530.29 447.275Z" fill="url(#paint15_linear_1242_881)" stroke="black" stroke-width="4.66696" stroke-linejoin="round"/>
<path d="M1585.95 367.106L1422.71 312.058C1421.22 311.555 1419.61 311.529 1418.1 311.982L1319.15 341.771C1312.47 343.78 1311.82 352.973 1318.14 355.91L1489.53 435.568C1491.81 436.628 1494.46 436.489 1496.62 435.196L1587.42 380.798C1592.97 377.473 1592.08 369.173 1585.95 367.106Z" fill="#E999B3" stroke="black" stroke-width="4.66696"/>
<path d="M1464.98 304.982L1493.64 418.044C1494.85 422.846 1489.91 426.884 1485.45 424.731L1316.43 343.188C1314.95 342.474 1313.84 341.169 1313.37 339.594L1284.99 244.022C1283.61 239.393 1288.14 235.194 1292.65 236.907L1461.4 300.961C1463.18 301.636 1464.52 303.137 1464.98 304.982Z" fill="#E999B3" stroke="black" stroke-width="4.66696"/>
<path d="M1529.27 326.218C1546.35 311.771 1575.79 295.027 1588.37 288.46L1628.16 352.72C1622.77 355.636 1608.38 362.033 1593.95 364.291C1575.92 367.113 1549.2 362.88 1541.58 364.291C1533.96 365.702 1531.42 364.855 1529.27 362.88C1527.12 360.904 1523.81 364.008 1520.98 361.469C1518.16 358.929 1521.55 352.438 1517.03 352.72C1512.52 353.003 1507.93 344.276 1529.27 326.218Z" fill="white"/>
<path d="M1588.37 288.46C1575.79 295.027 1546.35 311.771 1529.27 326.218C1507.93 344.276 1512.52 353.003 1517.03 352.72C1521.55 352.438 1518.16 358.929 1520.98 361.469C1523.81 364.008 1527.12 360.904 1529.27 362.88C1531.42 364.855 1533.96 365.702 1541.58 364.291C1549.2 362.88 1575.92 367.113 1593.95 364.291C1608.38 362.033 1622.77 355.636 1628.16 352.72" stroke="black" stroke-width="4.66696"/>
<path d="M1605.94 496.51C1606.58 496.378 1607.25 496.544 1607.77 496.962C1608.28 497.379 1608.57 498.005 1608.57 498.665V596.03C1608.57 596.624 1608.33 597.193 1607.91 597.608L1588.19 616.753C1587.54 617.386 1586.57 617.553 1585.74 617.173L1574.94 612.208C1574.16 611.847 1573.66 611.059 1573.66 610.194L1574.44 504.719C1574.45 503.68 1575.18 502.788 1576.2 502.581L1605.94 496.51Z" fill="#BA9595" stroke="black" stroke-width="4.39852" stroke-linejoin="round"/>
<path d="M1688.38 412.22C1689.02 412.088 1689.7 412.254 1690.21 412.671C1690.72 413.089 1691.02 413.715 1691.02 414.375V511.74C1691.02 512.334 1690.78 512.903 1690.35 513.317L1670.63 532.463C1669.98 533.096 1669.01 533.263 1668.18 532.883L1657.39 527.918C1656.6 527.557 1656.1 526.769 1656.11 525.904L1656.88 420.429C1656.89 419.39 1657.62 418.498 1658.64 418.29L1688.38 412.22Z" fill="#BA9595" stroke="black" stroke-width="4.39852" stroke-linejoin="round"/>
<path d="M1719.31 390.045C1720.07 390.411 1720.56 391.182 1720.56 392.026V408.863C1720.56 409.476 1720.3 410.061 1719.85 410.477L1566.05 552.785C1565.42 553.365 1564.52 553.53 1563.73 553.206L1519.33 535.027C1518.5 534.688 1517.96 533.884 1517.96 532.991V516.155C1517.96 515.547 1518.21 514.967 1518.66 514.551L1673.29 369.449C1673.95 368.827 1674.93 368.676 1675.75 369.071L1719.31 390.045Z" fill="#BA9595" stroke="black" stroke-width="4.39852" stroke-linejoin="round"/>
</g>
<defs>
<linearGradient id="paint0_linear_1242_881" x1="1704.47" y1="341.348" x2="1704.47" y2="238.833" gradientUnits="userSpaceOnUse">
<stop stop-color="#E2EEF9"/>
<stop offset="1" stop-color="#A9A8EC"/>
</linearGradient>
<linearGradient id="paint1_linear_1242_881" x1="1734.05" y1="284.127" x2="1734.05" y2="197.721" gradientUnits="userSpaceOnUse">
<stop stop-color="#E2EEF9"/>
<stop offset="1" stop-color="#A9A8EC"/>
</linearGradient>
<linearGradient id="paint2_linear_1242_881" x1="1549.32" y1="108.718" x2="1495.28" y2="64.2865" gradientUnits="userSpaceOnUse">
<stop stop-color="#E2EEF9"/>
<stop offset="1" stop-color="#A9A8EC"/>
</linearGradient>
<linearGradient id="paint3_linear_1242_881" x1="1645.96" y1="74.6123" x2="1645.96" y2="157.322" gradientUnits="userSpaceOnUse">
<stop stop-color="#E2EEF9"/>
<stop offset="1" stop-color="#A9A8EC"/>
</linearGradient>
<linearGradient id="paint4_linear_1242_881" x1="1541.46" y1="128.462" x2="1522.37" y2="220.204" gradientUnits="userSpaceOnUse">
<stop stop-color="#E2EEF9"/>
<stop offset="1" stop-color="#A9A8EC"/>
</linearGradient>
<linearGradient id="paint5_linear_1242_881" x1="1507.35" y1="161.03" x2="1492.01" y2="173.272" gradientUnits="userSpaceOnUse">
<stop stop-color="#E2EEF9"/>
<stop offset="1" stop-color="#A9A8EC"/>
</linearGradient>
<linearGradient id="paint6_linear_1242_881" x1="1332.85" y1="427.569" x2="1351.3" y2="375.959" gradientUnits="userSpaceOnUse">
<stop stop-color="#E2EEF9"/>
<stop offset="1" stop-color="#A9A8EC"/>
</linearGradient>
<linearGradient id="paint7_linear_1242_881" x1="1549.09" y1="521.582" x2="1509.67" y2="459.324" gradientUnits="userSpaceOnUse">
<stop stop-color="#E2EEF9"/>
<stop offset="1" stop-color="#A9A8EC"/>
</linearGradient>
<linearGradient id="paint8_linear_1242_881" x1="1704.47" y1="341.348" x2="1704.47" y2="238.833" gradientUnits="userSpaceOnUse">
<stop stop-color="#E2EEF9"/>
<stop offset="1" stop-color="#A9A8EC"/>
</linearGradient>
<linearGradient id="paint9_linear_1242_881" x1="1734.05" y1="284.127" x2="1734.05" y2="197.721" gradientUnits="userSpaceOnUse">
<stop stop-color="#E2EEF9"/>
<stop offset="1" stop-color="#A9A8EC"/>
</linearGradient>
<linearGradient id="paint10_linear_1242_881" x1="1549.32" y1="108.718" x2="1495.28" y2="64.2865" gradientUnits="userSpaceOnUse">
<stop stop-color="#E2EEF9"/>
<stop offset="1" stop-color="#A9A8EC"/>
</linearGradient>
<linearGradient id="paint11_linear_1242_881" x1="1645.96" y1="74.6123" x2="1645.96" y2="157.322" gradientUnits="userSpaceOnUse">
<stop stop-color="#E2EEF9"/>
<stop offset="1" stop-color="#A9A8EC"/>
</linearGradient>
<linearGradient id="paint12_linear_1242_881" x1="1541.46" y1="128.462" x2="1522.37" y2="220.204" gradientUnits="userSpaceOnUse">
<stop stop-color="#E2EEF9"/>
<stop offset="1" stop-color="#A9A8EC"/>
</linearGradient>
<linearGradient id="paint13_linear_1242_881" x1="1507.35" y1="161.03" x2="1492.01" y2="173.272" gradientUnits="userSpaceOnUse">
<stop stop-color="#E2EEF9"/>
<stop offset="1" stop-color="#A9A8EC"/>
</linearGradient>
<linearGradient id="paint14_linear_1242_881" x1="1332.85" y1="427.569" x2="1351.3" y2="375.959" gradientUnits="userSpaceOnUse">
<stop stop-color="#E2EEF9"/>
<stop offset="1" stop-color="#A9A8EC"/>
</linearGradient>
<linearGradient id="paint15_linear_1242_881" x1="1549.09" y1="521.582" x2="1509.67" y2="459.324" gradientUnits="userSpaceOnUse">
<stop stop-color="#E2EEF9"/>
<stop offset="1" stop-color="#A9A8EC"/>
</linearGradient>
<clipPath id="clip0_1242_881">
<rect width="1920" height="717" fill="white" transform="matrix(-1 0 0 1 1920 0)"/>
</clipPath>
</defs>
</svg>
