<svg width="2328" height="1080" viewBox="0 0 2328 1080" fill="none" xmlns="http://www.w3.org/2000/svg">
<g clip-path="url(#clip0_1242_881)">
<path d="M2055.86 439.042C2483.96 439.042 2920.13 621.817 3233.37 729.669C3447.88 768.54 3672.58 806.822 3552.48 806.822C3474.04 806.822 3364.47 774.807 3233.37 729.669C3078.3 701.569 2928.55 673.161 2918.24 658.687L2981.56 1659.22C2544.63 1603.21 -507.88 1599.45 -518.219 1599.45C-528.558 1599.45 -564.722 986.319 -564.722 753.081C-564.722 674.591 885.211 753.081 1264.32 655.994C1643.42 558.906 1777.59 439.042 2055.86 439.042Z" fill="url(#paint0_linear_1242_881)"/>
<path d="M2055.86 439.042C2483.96 439.042 2920.13 621.817 3233.37 729.669C3447.88 768.54 3672.58 806.822 3552.48 806.822C3474.04 806.822 3364.47 774.807 3233.37 729.669C3078.3 701.569 2928.55 673.161 2918.24 658.687L2981.56 1659.22C2544.63 1603.21 -507.88 1599.45 -518.219 1599.45C-528.558 1599.45 -564.722 986.319 -564.722 753.081C-564.722 674.591 885.211 753.081 1264.32 655.994C1643.42 558.906 1777.59 439.042 2055.86 439.042Z" fill="url(#paint1_linear_1242_881)" fill-opacity="0.5"/>
<path d="M2055.86 439.042C2483.96 439.042 2920.13 621.817 3233.37 729.669C3447.88 768.54 3672.58 806.822 3552.48 806.822C3474.04 806.822 3364.47 774.807 3233.37 729.669C3078.3 701.569 2928.55 673.161 2918.24 658.687L2981.56 1659.22C2544.63 1603.21 -507.88 1599.45 -518.219 1599.45C-528.558 1599.45 -564.722 986.319 -564.722 753.081C-564.722 674.591 885.211 753.081 1264.32 655.994C1643.42 558.906 1777.59 439.042 2055.86 439.042Z" stroke="white" stroke-width="0.990532"/>
<path d="M2196.98 439.042C2438.83 439.042 2483.99 608.402 2483.99 752.406C2483.99 985.644 2225.35 1542.73 2215.02 1542.73C2204.68 1542.73 1328.22 1654.73 891.285 1710.73L965.705 1135.71C987.244 1166.48 1412.11 796.336 1713.76 796.336C1979.61 796.336 1883.62 439.042 2196.98 439.042Z" fill="url(#paint2_linear_1242_881)"/>
<path d="M1694.54 711.067C1863 819.452 1949.21 920.656 2228.66 1078.66L1694.54 1976.97L-625.115 789.245C-175.912 593.939 631.238 623.597 753.109 679.845C905.447 750.155 1102.09 560.61 1270.9 655.07C1348.93 698.737 1526.09 602.682 1694.54 711.067Z" fill="url(#paint3_linear_1242_881)" stroke="white" stroke-width="0.897107"/>
<path d="M1442.88 889.867C1540.48 952.661 2286.92 884.076 2105.52 1252.65L1423.19 1894.62L-277.571 832.25C645.298 940.587 715.397 654.821 837.268 711.069C989.606 781.379 1137.19 616.609 1306 711.069C1384.04 754.735 1274.43 781.482 1442.88 889.867Z" fill="url(#paint4_radial_1242_881)" stroke="white" stroke-width="0.897107"/>
<path d="M1566.86 953.224C1658.24 1024.76 1913.02 819.53 2038.89 1208.23L1504.77 2106.54L-699.041 859.696C60.3944 928.005 617.729 653.643 739.6 709.891C924.764 795.351 1054.96 685.078 1237.96 747.797C1328.2 778.729 1414.11 833.643 1566.86 953.224Z" fill="url(#paint5_radial_1242_881)" stroke="white" stroke-width="0.897107"/>
<path d="M1845.88 1036.65C1930.26 1116.34 2099.25 1133.74 2194.95 1149.36L1673.48 1998.94L-412.382 1331C36.8215 1135.69 924.839 712.706 1046.71 768.954C1199.05 839.264 1383.54 728.358 1556.3 815.39C1749.25 912.597 1740.42 937.045 1845.88 1036.65Z" fill="url(#paint6_radial_1242_881)" stroke="white" stroke-width="0.897107"/>
<path d="M1863.27 999.691C1947.64 1079.38 2099.25 1133.74 2194.95 1149.36L1673.48 1998.94L-409.732 972.205C273.358 1024.44 924.839 712.706 1046.71 768.954C1199.05 839.265 1411.33 714.815 1584.09 801.848C1777.04 899.054 1757.8 900.085 1863.27 999.691Z" fill="url(#paint7_radial_1242_881)" stroke="white" stroke-width="0.897107"/>
<path d="M1345.27 1083.87C1429.64 1163.55 1598.63 1180.96 1694.33 1196.58L1172.87 2046.16L-913 1378.21C-463.797 1182.91 424.22 759.923 546.091 816.171C698.43 886.481 882.926 775.575 1055.68 862.608C1248.63 959.814 1239.8 984.263 1345.27 1083.87Z" fill="url(#paint8_linear_1242_881)" stroke="white" stroke-width="0.897107"/>
<path d="M1371.74 1072.23C1456.11 1151.91 1598.63 1180.96 1694.33 1196.58L1172.87 2046.16L-888.832 953.046C-439.628 757.74 424.22 759.924 546.091 816.173C698.43 886.483 1010.37 768.304 1140.96 816.172C1343.81 890.532 1266.28 972.623 1371.74 1072.23Z" fill="url(#paint9_linear_1242_881)" stroke="white" stroke-width="0.897107"/>
<g style="mix-blend-mode:multiply" opacity="0.6">
<path fill-rule="evenodd" clip-rule="evenodd" d="M2133.58 655.347L2093.91 735.775L1940.11 878.083L1711.84 783.236L1650.88 824.736V841.573L1940.11 961.746L2093.91 819.438L2316.46 711.215V694.379L2133.58 655.347Z" fill="#BA9595"/>
</g>
<g style="mix-blend-mode:screen">
<path d="M1715.94 636.96C1716.67 637.336 1717.13 638.091 1717.13 638.916V736.281C1717.13 737.047 1716.73 737.758 1716.08 738.158C1715.42 738.557 1714.61 738.587 1713.93 738.237L1698.13 730.127C1697.4 729.75 1696.94 728.995 1696.94 728.17V630.806C1696.94 630.039 1697.34 629.328 1697.99 628.929C1698.65 628.529 1699.46 628.499 1700.14 628.849L1715.94 636.96Z" fill="#BA9595" stroke="black" stroke-width="4.39852" stroke-linejoin="round"/>
<path d="M1810.56 548.216C1811.3 548.592 1811.76 549.348 1811.76 550.172V647.537C1811.76 648.303 1811.36 649.014 1810.71 649.414C1810.05 649.813 1809.24 649.843 1808.55 649.493L1792.76 641.383C1792.03 641.006 1791.57 640.251 1791.57 639.427V542.062C1791.57 541.296 1791.96 540.584 1792.62 540.185C1793.27 539.786 1794.09 539.756 1794.77 540.106L1810.56 548.216Z" fill="#BA9595" stroke="black" stroke-width="4.39852" stroke-linejoin="round"/>
<path d="M1863.48 578.44C1864.25 578.806 1864.73 579.576 1864.73 580.421V597.258C1864.73 598.046 1864.31 598.775 1863.62 599.167L1685.63 700.964C1685.04 701.3 1684.33 701.347 1683.7 701.09L1639.3 682.911C1638.48 682.573 1637.94 681.769 1637.94 680.876V664.039C1637.94 663.258 1638.35 662.536 1639.03 662.141L1817.86 557.549C1818.49 557.179 1819.26 557.148 1819.92 557.465L1863.48 578.44Z" fill="#BA9595" stroke="black" stroke-width="4.39852" stroke-linejoin="round"/>
<path d="M2248.23 404.817C2249.24 405.034 2249.97 405.931 2249.97 406.968V423.805C2249.97 424.142 2249.89 424.475 2249.74 424.777L2095.88 736.747C2095.77 736.989 2095.6 737.206 2095.41 737.389L1941.61 879.696C1940.98 880.28 1940.06 880.443 1939.27 880.113L1650.04 759.94C1649.22 759.599 1648.68 758.798 1648.68 757.909V741.073C1648.68 740.345 1649.04 739.664 1649.65 739.255L1840.66 609.204L1978.91 348.969C1979.37 348.102 1980.35 347.645 1981.31 347.85L2248.23 404.817Z" fill="#BA9595" stroke="black" stroke-width="4.39852" stroke-linejoin="round"/>
<path d="M2155.46 574.781C2136.13 618.716 2074.18 643.247 2045.62 650.021L2001.14 616.52C2014.13 601.325 2043.1 569.509 2054.96 563.797C2069.79 556.657 2079.67 517.115 2086.81 507.23C2093.95 497.344 2123.06 465.491 2140.08 469.885C2157.11 474.278 2179.62 519.861 2155.46 574.781Z" fill="white" stroke="black" stroke-width="4.39356" stroke-linejoin="round"/>
<path fill-rule="evenodd" clip-rule="evenodd" d="M2053.92 564.338C2054.28 564.138 2054.63 563.957 2054.96 563.797C2064.76 559.077 2072.4 540.197 2078.52 525.085C2079.4 522.905 2080.25 520.803 2081.07 518.833C2088.12 540.995 2101.65 569.845 2113.17 581.371C2120.47 588.669 2133.73 590.151 2147.3 589.052C2138.25 601.796 2125.68 612.543 2112.13 621.348C2098.33 620.03 2085.8 617.837 2080.22 614.323C2072.7 609.59 2062.44 586.816 2053.92 564.338Z" fill="url(#paint10_linear_1242_881)"/>
<path d="M2053.92 564.338L2052.85 562.42C2051.9 562.95 2051.48 564.098 2051.87 565.116L2053.92 564.338ZM2054.96 563.797L2055.91 565.776L2055.91 565.776L2054.96 563.797ZM2078.52 525.085L2076.48 524.261L2076.48 524.261L2078.52 525.085ZM2081.07 518.833L2083.17 518.167C2082.89 517.289 2082.09 516.679 2081.17 516.639C2080.25 516.598 2079.4 517.137 2079.05 517.988L2081.07 518.833ZM2113.17 581.371L2111.62 582.924L2111.62 582.924L2113.17 581.371ZM2147.3 589.052L2149.09 590.324C2149.59 589.627 2149.63 588.708 2149.21 587.966C2148.79 587.224 2147.97 586.793 2147.12 586.862L2147.3 589.052ZM2112.13 621.348L2111.92 623.535C2112.41 623.582 2112.91 623.46 2113.32 623.19L2112.13 621.348ZM2080.22 614.323L2081.39 612.464L2081.39 612.464L2080.22 614.323ZM2054.99 566.256C2055.32 566.075 2055.62 565.915 2055.91 565.776L2054 561.818C2053.63 561.999 2053.24 562.201 2052.85 562.42L2054.99 566.256ZM2055.91 565.776C2061.5 563.084 2066.14 556.597 2070.05 549.385C2074.02 542.057 2077.51 533.44 2080.56 525.909L2076.48 524.261C2073.41 531.842 2070.02 540.221 2066.19 547.292C2062.3 554.477 2058.22 559.79 2054 561.818L2055.91 565.776ZM2080.56 525.909C2081.44 523.727 2082.29 521.636 2083.1 519.678L2079.05 517.988C2078.22 519.97 2077.37 522.083 2076.48 524.261L2080.56 525.909ZM2078.98 519.499C2082.54 530.69 2087.73 543.548 2093.48 555.072C2099.21 566.542 2105.6 576.901 2111.62 582.924L2114.73 579.818C2109.22 574.316 2103.09 564.487 2097.41 553.11C2091.76 541.786 2086.66 529.139 2083.17 518.167L2078.98 519.499ZM2111.62 582.924C2115.69 586.992 2121.29 589.323 2127.47 590.517C2133.65 591.713 2140.58 591.8 2147.48 591.242L2147.12 586.862C2140.46 587.402 2133.96 587.298 2128.3 586.203C2122.63 585.106 2117.96 583.048 2114.73 579.818L2111.62 582.924ZM2145.51 587.78C2136.67 600.229 2124.34 610.797 2110.93 619.506L2113.32 623.19C2127.03 614.289 2139.84 603.363 2149.09 590.324L2145.51 587.78ZM2112.33 619.161C2105.48 618.506 2098.98 617.638 2093.54 616.508C2088.02 615.364 2083.83 613.998 2081.39 612.464L2079.05 616.182C2082.19 618.161 2087.05 619.649 2092.65 620.81C2098.31 621.984 2104.98 622.871 2111.92 623.535L2112.33 619.161ZM2081.39 612.464C2079.91 611.53 2078.07 609.532 2075.95 606.438C2073.88 603.397 2071.67 599.499 2069.41 594.998C2064.89 586 2060.22 574.767 2055.98 563.559L2051.87 565.116C2056.14 576.386 2060.86 587.779 2065.48 596.971C2067.79 601.565 2070.09 605.652 2072.32 608.916C2074.52 612.125 2076.77 614.749 2079.05 616.182L2081.39 612.464Z" fill="black"/>
<path fill-rule="evenodd" clip-rule="evenodd" d="M2166.01 528.772C2165.81 539.657 2163.9 551.579 2159.62 564.127C2159.89 545.493 2156.95 523.181 2144.76 514.983C2134.39 508.008 2113.81 501.835 2094.35 498.134C2100.3 491.568 2108.48 483.591 2116.83 477.721C2132.74 481.216 2146.2 485.415 2150.51 489.997C2156.02 495.844 2161.57 512.169 2166.01 528.772Z" fill="url(#paint11_linear_1242_881)"/>
<path d="M2166.01 528.772L2168.21 528.813C2168.21 528.607 2168.19 528.403 2168.13 528.204L2166.01 528.772ZM2159.62 564.127L2157.42 564.095C2157.41 565.175 2158.18 566.107 2159.24 566.292C2160.31 566.476 2161.35 565.859 2161.7 564.837L2159.62 564.127ZM2144.76 514.983L2145.99 513.16L2145.99 513.16L2144.76 514.983ZM2094.35 498.134L2092.72 496.66C2092.19 497.248 2092.02 498.079 2092.27 498.833C2092.52 499.586 2093.16 500.144 2093.94 500.293L2094.35 498.134ZM2116.83 477.721L2117.3 475.575C2116.7 475.443 2116.07 475.57 2115.56 475.924L2116.83 477.721ZM2150.51 489.997L2148.91 491.503L2148.91 491.503L2150.51 489.997ZM2163.82 528.731C2163.62 539.388 2161.75 551.084 2157.54 563.418L2161.7 564.837C2166.05 552.073 2168 539.925 2168.21 528.813L2163.82 528.731ZM2143.53 516.806C2148.95 520.449 2152.55 527.426 2154.73 536.173C2156.89 544.852 2157.56 554.882 2157.42 564.095L2161.82 564.159C2161.95 554.739 2161.28 544.295 2158.99 535.11C2156.72 525.993 2152.76 517.714 2145.99 513.16L2143.53 516.806ZM2093.94 500.293C2103.59 502.129 2113.51 504.576 2122.29 507.42C2131.09 510.277 2138.6 513.489 2143.53 516.806L2145.99 513.16C2140.55 509.502 2132.58 506.14 2123.64 503.241C2114.66 500.33 2104.56 497.841 2094.76 495.976L2093.94 500.293ZM2095.98 499.609C2101.87 493.107 2109.92 485.259 2118.09 479.518L2115.56 475.924C2107.03 481.922 2098.73 490.029 2092.72 496.66L2095.98 499.609ZM2152.11 488.492C2150.79 487.085 2148.89 485.828 2146.67 484.685C2144.44 483.53 2141.75 482.428 2138.74 481.378C2132.73 479.277 2125.29 477.332 2117.3 475.575L2116.35 479.866C2124.27 481.605 2131.52 483.507 2137.29 485.525C2140.18 486.534 2142.66 487.56 2144.66 488.59C2146.68 489.633 2148.08 490.619 2148.91 491.503L2152.11 488.492ZM2168.13 528.204C2165.91 519.866 2163.38 511.553 2160.71 504.567C2158.08 497.675 2155.19 491.761 2152.11 488.492L2148.91 491.503C2151.34 494.081 2153.98 499.253 2156.61 506.135C2159.2 512.924 2161.68 521.075 2163.89 529.339L2168.13 528.204Z" fill="black"/>
<path d="M1902.16 400.53C1911.91 408.542 1963.21 377.062 1964.05 362.983C1940.44 345.134 1919.9 305.011 1905.84 327.011C1891.78 349.01 1883.38 385.087 1902.16 400.53Z" fill="url(#paint12_linear_1242_881)" stroke="black" stroke-width="4.39356" stroke-linejoin="round"/>
<path d="M1821.11 560.36C1838.18 545.913 1867.62 529.169 1880.21 522.602L1920 586.862C1914.61 589.778 1900.22 596.175 1885.79 598.433C1867.75 601.255 1841.04 597.022 1833.42 598.433C1825.8 599.844 1823.26 598.997 1821.11 597.022C1818.96 595.046 1815.64 598.15 1812.82 595.611C1810 593.071 1813.38 586.58 1808.87 586.862C1804.35 587.145 1799.77 578.418 1821.11 560.36Z" fill="white"/>
<path d="M1880.21 522.602C1867.62 529.169 1838.18 545.913 1821.11 560.36C1799.77 578.418 1804.35 587.145 1808.87 586.862C1813.38 586.58 1810 593.071 1812.82 595.611C1815.64 598.15 1818.96 595.046 1821.11 597.022C1823.26 598.997 1825.8 599.844 1833.42 598.433C1841.04 597.022 1867.75 601.255 1885.79 598.433C1900.22 596.175 1914.61 589.778 1920 586.862" stroke="black" stroke-width="4.66696"/>
<path d="M2066.34 524.553C2072.78 520.974 2074.93 500.216 2084.95 493.058C2082.33 490.434 2076.51 482.321 2074.22 470.868C2071.35 456.552 2039.86 372.11 2008.36 366.384C1976.87 360.657 1922.03 361.62 1909.15 377.368C1896.26 393.115 1878.8 417.184 1870.93 425.057C1864.63 431.356 1856.85 452.496 1853.75 462.279C1859.89 467.042 1871.63 477.641 1869.48 481.94C1866.79 487.314 1863.75 489.822 1865.54 492.509C1867.33 495.196 1887.39 503.973 1885.96 507.734C1884.53 511.496 1825.91 567.181 1817.05 605.625C1804.17 661.541 1752.76 661.269 1747.81 675.434C1729.9 726.592 1832.11 707.015 1847.73 712.241C1859.33 716.118 1863.13 724.011 1894 733.406C1909.99 738.274 1910.37 798.298 1920.5 804.757C1928.6 809.924 1928.82 816.108 1946.98 803.324C1946.98 803.324 2008.1 750.119 2021.15 729.25C2034.21 708.38 2041.76 698.489 2048.23 646.376C2054.69 594.262 2053.29 584.853 2041.76 538.153V531.896C2053.05 529.149 2063.41 526.183 2066.34 524.553Z" fill="white"/>
<path d="M1961.84 529.564C1974.24 532.427 2000.92 538.153 2008.36 538.153C2013.43 538.153 2028.26 535.181 2041.76 531.896M2041.76 531.896C2053.05 529.149 2063.41 526.183 2066.34 524.553C2072.78 520.974 2074.93 500.216 2084.95 493.058C2082.33 490.434 2076.51 482.321 2074.22 470.868C2071.35 456.552 2039.86 372.11 2008.36 366.384C1976.87 360.657 1922.03 361.62 1909.15 377.368C1896.26 393.115 1878.8 417.184 1870.93 425.057C1864.63 431.356 1856.85 452.496 1853.75 462.279C1859.89 467.042 1871.63 477.641 1869.48 481.94C1866.79 487.314 1863.75 489.822 1865.54 492.509C1867.33 495.196 1887.39 503.973 1885.96 507.734C1884.53 511.496 1825.91 567.181 1817.05 605.625C1804.17 661.541 1752.76 661.269 1747.81 675.434C1729.9 726.592 1832.11 707.015 1847.73 712.241C1859.33 716.118 1863.13 724.011 1894 733.406C1909.99 738.274 1910.37 798.298 1920.5 804.757C1928.6 809.924 1928.82 816.108 1946.98 803.324C1946.98 803.324 2008.1 750.119 2021.15 729.25C2034.21 708.38 2041.76 698.489 2048.23 646.376C2054.69 594.262 2053.29 584.853 2041.76 538.153V531.896Z" stroke="black" stroke-width="4.39356" stroke-linejoin="round"/>
<path d="M2006.93 381.394C2006.93 368.779 2059.51 348.234 2070.92 356.53C2082.32 366.899 2079.38 440.337 2053.46 437.226C2027.53 434.116 2006.93 405.709 2006.93 381.394Z" fill="url(#paint13_linear_1242_881)" stroke="black" stroke-width="4.39356" stroke-linejoin="round"/>
<path d="M1936.39 497.43C1940.99 504.278 1957.05 510.004 1964.69 508.366C1972.32 506.729 1974.92 504.073 1979.56 499.542C1985.37 493.878 1988.27 459.703 1974.69 437.383C1961.1 415.062 1950.95 418 1939.46 417.291C1927.97 416.583 1925.47 402.934 1907.67 402.876C1889.87 402.819 1862.58 431.501 1868.79 450.883C1874.99 470.265 1892.66 431.254 1912.5 432.297C1932.33 433.339 1931.78 490.582 1936.39 497.43Z" fill="url(#paint14_linear_1242_881)" stroke="black" stroke-width="4.39356" stroke-linejoin="round"/>
<path d="M1886.94 439.18C1890.84 433.373 1910.6 435.549 1920 437.363L1914.22 456.356L1886.92 487.838C1885.05 484.691 1880.92 476.746 1879.38 470.142C1877.45 461.887 1882.07 446.44 1886.94 439.18Z" fill="white"/>
<path d="M1920 437.363C1910.6 435.549 1890.84 433.373 1886.94 439.18C1882.07 446.44 1877.45 461.887 1879.38 470.142C1880.92 476.746 1885.05 484.691 1886.92 487.838" stroke="black" stroke-width="4.39356" stroke-linejoin="round"/>
<path d="M1915.07 468.287C1904.76 470.78 1899.21 459.776 1893.61 457.677C1890.85 459.065 1883.51 463.058 1880.15 459.489" stroke="black" stroke-width="4.39356" stroke-linejoin="round"/>
<path d="M1950.94 451.007L1952.41 439.252M1901.43 418.688L1897.91 428.893" stroke="black" stroke-width="4.39356" stroke-linejoin="round"/>
<path d="M1892.64 437.627C1894.98 435.76 1907.58 443.736 1907.95 447.353C1907.94 451.278 1893.82 461.53 1890.07 455.639C1886.31 449.747 1888.13 441.226 1892.64 437.627Z" fill="url(#paint15_linear_1242_881)" stroke="black" stroke-width="4.39356" stroke-linejoin="round"/>
<path d="M1721.05 648.028C1739.95 648.55 1760.32 670.31 1768.51 684.935C1779.38 704.331 1776.48 717.771 1763.22 718.422C1747.91 719.173 1717.85 692.445 1702.95 672.236C1696.48 663.466 1697.42 647.375 1721.05 648.028Z" fill="url(#paint16_linear_1242_881)" stroke="black" stroke-width="4.66696" stroke-linejoin="round"/>
<path d="M1926.42 727.275C1908.27 731.325 1905.74 768.736 1901.66 785.285C1896.24 807.232 1902.57 820.502 1915.58 818.705C1930.59 816.631 1952.64 783.582 1961.76 760.047C1965.71 749.835 1949.11 722.212 1926.42 727.275Z" fill="url(#paint17_linear_1242_881)" stroke="black" stroke-width="4.66696" stroke-linejoin="round"/>
<path d="M1982.08 647.106L1818.85 592.058C1817.36 591.555 1815.75 591.529 1814.24 591.982L1715.29 621.771C1708.61 623.78 1707.95 632.973 1714.27 635.91L1885.66 715.568C1887.94 716.628 1890.6 716.489 1892.76 715.196L1983.56 660.798C1989.11 657.473 1988.21 649.173 1982.08 647.106Z" fill="#E999B3" stroke="black" stroke-width="4.66696"/>
<path d="M1861.12 584.982L1889.77 698.044C1890.99 702.846 1886.05 706.884 1881.58 704.731L1712.56 623.188C1711.08 622.474 1709.97 621.169 1709.51 619.594L1681.13 524.022C1679.75 519.393 1684.27 515.194 1688.79 516.907L1857.54 580.961C1859.31 581.636 1860.65 583.137 1861.12 584.982Z" fill="#E999B3" stroke="black" stroke-width="4.66696"/>
<path d="M1925.41 606.218C1942.48 591.771 1971.92 575.027 1984.51 568.46L2024.3 632.72C2018.91 635.636 2004.52 642.033 1990.09 644.291C1972.05 647.113 1945.34 642.88 1937.72 644.291C1930.1 645.702 1927.56 644.855 1925.41 642.88C1923.26 640.904 1919.94 644.008 1917.12 641.469C1914.3 638.929 1917.68 632.438 1913.17 632.72C1908.65 633.003 1904.07 624.276 1925.41 606.218Z" fill="white"/>
<path d="M1984.51 568.46C1971.92 575.027 1942.48 591.771 1925.41 606.218C1904.07 624.276 1908.65 633.003 1913.17 632.72C1917.68 632.438 1914.3 638.929 1917.12 641.469C1919.94 644.008 1923.26 640.904 1925.41 642.88C1927.56 644.855 1930.1 645.702 1937.72 644.291C1945.34 642.88 1972.05 647.113 1990.09 644.291C2004.52 642.033 2018.91 635.636 2024.3 632.72" stroke="black" stroke-width="4.66696"/>
<path d="M2002.07 776.51C2002.72 776.378 2003.39 776.544 2003.9 776.962C2004.41 777.379 2004.71 778.005 2004.71 778.665V876.03C2004.71 876.624 2004.47 877.193 2004.04 877.608L1984.33 896.753C1983.68 897.386 1982.7 897.553 1981.88 897.173L1971.08 892.208C1970.3 891.847 1969.79 891.059 1969.8 890.194L1970.58 784.719C1970.58 783.68 1971.32 782.788 1972.34 782.581L2002.07 776.51Z" fill="#BA9595" stroke="black" stroke-width="4.39852" stroke-linejoin="round"/>
<path d="M2084.51 692.22C2085.16 692.088 2085.83 692.254 2086.34 692.671C2086.86 693.089 2087.15 693.715 2087.15 694.375V791.74C2087.15 792.334 2086.91 792.903 2086.48 793.317L2066.77 812.463C2066.12 813.096 2065.14 813.263 2064.32 812.883L2053.52 807.918C2052.74 807.557 2052.24 806.769 2052.24 805.904L2053.02 700.429C2053.03 699.39 2053.76 698.498 2054.78 698.29L2084.51 692.22Z" fill="#BA9595" stroke="black" stroke-width="4.39852" stroke-linejoin="round"/>
<path d="M2115.45 670.045C2116.21 670.411 2116.69 671.182 2116.69 672.026V688.863C2116.69 689.476 2116.44 690.061 2115.99 690.477L1962.19 832.785C1961.56 833.365 1960.65 833.53 1959.86 833.206L1915.46 815.027C1914.64 814.688 1914.1 813.884 1914.1 812.991V796.155C1914.1 795.547 1914.35 794.967 1914.79 794.551L2069.42 649.449C2070.09 648.827 2071.06 648.676 2071.88 649.071L2115.45 670.045Z" fill="#BA9595" stroke="black" stroke-width="4.39852" stroke-linejoin="round"/>
</g>
<path d="M1715.94 636.96C1716.67 637.336 1717.13 638.091 1717.13 638.916V736.281C1717.13 737.047 1716.73 737.758 1716.08 738.158C1715.42 738.557 1714.61 738.587 1713.93 738.237L1698.13 730.127C1697.4 729.75 1696.94 728.995 1696.94 728.17V630.806C1696.94 630.039 1697.34 629.328 1697.99 628.929C1698.65 628.529 1699.46 628.499 1700.14 628.849L1715.94 636.96Z" fill="#BA9595" stroke="black" stroke-width="4.39852" stroke-linejoin="round"/>
<path d="M1810.56 548.216C1811.3 548.592 1811.76 549.348 1811.76 550.172V647.537C1811.76 648.303 1811.36 649.014 1810.71 649.414C1810.05 649.813 1809.24 649.843 1808.55 649.493L1792.76 641.383C1792.03 641.006 1791.57 640.251 1791.57 639.427V542.062C1791.57 541.296 1791.96 540.584 1792.62 540.185C1793.27 539.786 1794.09 539.756 1794.77 540.106L1810.56 548.216Z" fill="#BA9595" stroke="black" stroke-width="4.39852" stroke-linejoin="round"/>
<path d="M1863.48 578.44C1864.25 578.806 1864.73 579.576 1864.73 580.421V597.258C1864.73 598.046 1864.31 598.775 1863.62 599.167L1685.63 700.964C1685.04 701.3 1684.33 701.347 1683.7 701.09L1639.3 682.911C1638.48 682.573 1637.94 681.769 1637.94 680.876V664.039C1637.94 663.258 1638.35 662.536 1639.03 662.141L1817.86 557.549C1818.49 557.179 1819.26 557.148 1819.92 557.465L1863.48 578.44Z" fill="#BA9595" stroke="black" stroke-width="4.39852" stroke-linejoin="round"/>
<path d="M2248.23 404.817C2249.24 405.034 2249.97 405.931 2249.97 406.968V423.805C2249.97 424.142 2249.89 424.475 2249.74 424.777L2095.88 736.747C2095.77 736.989 2095.6 737.206 2095.41 737.389L1941.61 879.696C1940.98 880.28 1940.06 880.443 1939.27 880.113L1650.04 759.94C1649.22 759.599 1648.68 758.798 1648.68 757.909V741.073C1648.68 740.345 1649.04 739.664 1649.65 739.255L1840.66 609.204L1978.91 348.969C1979.37 348.102 1980.35 347.645 1981.31 347.85L2248.23 404.817Z" fill="#BA9595" stroke="black" stroke-width="4.39852" stroke-linejoin="round"/>
<path d="M2155.46 574.781C2136.13 618.716 2074.18 643.247 2045.62 650.021L2001.14 616.52C2014.13 601.325 2043.1 569.509 2054.96 563.797C2069.79 556.657 2079.67 517.115 2086.81 507.23C2093.95 497.344 2123.06 465.491 2140.08 469.885C2157.11 474.278 2179.62 519.861 2155.46 574.781Z" fill="white" stroke="black" stroke-width="4.39356" stroke-linejoin="round"/>
<path fill-rule="evenodd" clip-rule="evenodd" d="M2053.92 564.338C2054.28 564.138 2054.63 563.957 2054.96 563.797C2064.76 559.077 2072.4 540.197 2078.52 525.085C2079.4 522.905 2080.25 520.803 2081.07 518.833C2088.12 540.995 2101.65 569.845 2113.17 581.371C2120.47 588.669 2133.73 590.151 2147.3 589.052C2138.25 601.796 2125.68 612.543 2112.13 621.348C2098.33 620.03 2085.8 617.837 2080.22 614.323C2072.7 609.589 2062.44 586.816 2053.92 564.338Z" fill="url(#paint18_linear_1242_881)"/>
<path d="M2053.92 564.338L2052.85 562.419C2051.9 562.95 2051.48 564.098 2051.87 565.116L2053.92 564.338ZM2054.96 563.797L2055.91 565.776L2055.91 565.776L2054.96 563.797ZM2078.52 525.085L2076.48 524.261L2076.48 524.261L2078.52 525.085ZM2081.07 518.833L2083.17 518.167C2082.89 517.289 2082.09 516.678 2081.17 516.638C2080.25 516.598 2079.4 517.137 2079.05 517.988L2081.07 518.833ZM2113.17 581.371L2111.62 582.924L2111.62 582.924L2113.17 581.371ZM2147.3 589.052L2149.09 590.323C2149.59 589.627 2149.63 588.708 2149.21 587.966C2148.79 587.224 2147.97 586.793 2147.12 586.862L2147.3 589.052ZM2112.13 621.348L2111.92 623.535C2112.41 623.582 2112.91 623.46 2113.32 623.19L2112.13 621.348ZM2080.22 614.323L2081.39 612.464L2081.39 612.464L2080.22 614.323ZM2054.99 566.256C2055.32 566.074 2055.62 565.915 2055.91 565.776L2054 561.818C2053.63 561.999 2053.24 562.201 2052.85 562.419L2054.99 566.256ZM2055.91 565.776C2061.5 563.084 2066.14 556.597 2070.05 549.385C2074.02 542.057 2077.51 533.44 2080.56 525.909L2076.48 524.261C2073.41 531.842 2070.02 540.221 2066.19 547.292C2062.3 554.477 2058.22 559.79 2054 561.818L2055.91 565.776ZM2080.56 525.909C2081.44 523.727 2082.29 521.636 2083.1 519.678L2079.05 517.988C2078.22 519.97 2077.37 522.083 2076.48 524.261L2080.56 525.909ZM2078.98 519.499C2082.54 530.69 2087.73 543.548 2093.48 555.072C2099.21 566.542 2105.6 576.9 2111.62 582.924L2114.73 579.818C2109.22 574.316 2103.09 564.487 2097.41 553.11C2091.76 541.786 2086.66 529.139 2083.17 518.167L2078.98 519.499ZM2111.62 582.924C2115.69 586.991 2121.29 589.323 2127.47 590.517C2133.65 591.713 2140.58 591.8 2147.48 591.242L2147.12 586.862C2140.46 587.402 2133.96 587.298 2128.3 586.203C2122.63 585.106 2117.96 583.048 2114.73 579.818L2111.62 582.924ZM2145.51 587.78C2136.67 600.229 2124.34 610.797 2110.93 619.505L2113.32 623.19C2127.03 614.289 2139.84 603.363 2149.09 590.323L2145.51 587.78ZM2112.33 619.161C2105.48 618.506 2098.98 617.637 2093.54 616.508C2088.02 615.364 2083.83 613.998 2081.39 612.464L2079.05 616.182C2082.19 618.161 2087.05 619.649 2092.65 620.81C2098.31 621.984 2104.98 622.871 2111.92 623.535L2112.33 619.161ZM2081.39 612.464C2079.91 611.53 2078.07 609.532 2075.95 606.438C2073.88 603.397 2071.67 599.499 2069.41 594.998C2064.89 586 2060.22 574.767 2055.98 563.559L2051.87 565.116C2056.14 576.386 2060.86 587.779 2065.48 596.971C2067.79 601.565 2070.1 605.652 2072.32 608.916C2074.52 612.125 2076.77 614.749 2079.05 616.182L2081.39 612.464Z" fill="black"/>
<path fill-rule="evenodd" clip-rule="evenodd" d="M2166.01 528.771C2165.81 539.657 2163.9 551.578 2159.62 564.127C2159.89 545.493 2156.95 523.18 2144.76 514.983C2134.39 508.008 2113.81 501.835 2094.35 498.134C2100.3 491.567 2108.48 483.59 2116.83 477.721C2132.74 481.216 2146.2 485.415 2150.51 489.997C2156.02 495.844 2161.57 512.169 2166.01 528.771Z" fill="url(#paint19_linear_1242_881)"/>
<path d="M2166.01 528.771L2168.21 528.812C2168.21 528.607 2168.19 528.402 2168.13 528.204L2166.01 528.771ZM2159.62 564.127L2157.42 564.095C2157.41 565.175 2158.18 566.107 2159.24 566.291C2160.31 566.476 2161.35 565.859 2161.7 564.836L2159.62 564.127ZM2144.76 514.983L2145.99 513.16L2145.99 513.16L2144.76 514.983ZM2094.35 498.134L2092.72 496.659C2092.19 497.248 2092.02 498.079 2092.27 498.832C2092.52 499.586 2093.16 500.144 2093.94 500.292L2094.35 498.134ZM2116.83 477.721L2117.3 475.575C2116.7 475.443 2116.07 475.569 2115.56 475.924L2116.83 477.721ZM2150.51 489.997L2148.91 491.503L2148.91 491.503L2150.51 489.997ZM2163.82 528.73C2163.62 539.388 2161.75 551.084 2157.54 563.418L2161.7 564.836C2166.05 552.073 2168 539.925 2168.21 528.812L2163.82 528.73ZM2143.53 516.805C2148.95 520.449 2152.55 527.426 2154.73 536.172C2156.89 544.852 2157.56 554.881 2157.42 564.095L2161.82 564.159C2161.95 554.739 2161.28 544.295 2158.99 535.11C2156.72 525.993 2152.76 517.714 2145.99 513.16L2143.53 516.805ZM2093.94 500.292C2103.59 502.129 2113.51 504.576 2122.29 507.42C2131.09 510.276 2138.6 513.488 2143.53 516.805L2145.99 513.16C2140.55 509.502 2132.58 506.14 2123.64 503.241C2114.66 500.33 2104.56 497.84 2094.76 495.976L2093.94 500.292ZM2095.98 499.609C2101.87 493.107 2109.92 485.258 2118.09 479.518L2115.56 475.924C2107.03 481.922 2098.73 490.028 2092.72 496.659L2095.98 499.609ZM2152.11 488.492C2150.79 487.085 2148.89 485.828 2146.67 484.685C2144.44 483.53 2141.75 482.428 2138.74 481.377C2132.73 479.277 2125.29 477.332 2117.3 475.575L2116.35 479.866C2124.27 481.605 2131.52 483.507 2137.29 485.525C2140.18 486.534 2142.66 487.559 2144.66 488.589C2146.68 489.632 2148.08 490.619 2148.91 491.503L2152.11 488.492ZM2168.13 528.204C2165.91 519.866 2163.38 511.553 2160.71 504.567C2158.08 497.675 2155.19 491.761 2152.11 488.492L2148.91 491.503C2151.34 494.081 2153.98 499.252 2156.61 506.135C2159.2 512.924 2161.68 521.075 2163.89 529.339L2168.13 528.204Z" fill="black"/>
<path d="M1902.16 400.53C1911.91 408.542 1963.21 377.062 1964.05 362.983C1940.44 345.134 1919.9 305.011 1905.84 327.011C1891.78 349.01 1883.38 385.087 1902.16 400.53Z" fill="url(#paint20_linear_1242_881)" stroke="black" stroke-width="4.39356" stroke-linejoin="round"/>
<path d="M1821.11 560.36C1838.18 545.913 1867.62 529.169 1880.21 522.602L1920 586.862C1914.61 589.778 1900.22 596.175 1885.79 598.433C1867.75 601.255 1841.04 597.022 1833.42 598.433C1825.8 599.844 1823.26 598.997 1821.11 597.022C1818.96 595.046 1815.64 598.15 1812.82 595.611C1810 593.071 1813.38 586.58 1808.87 586.862C1804.35 587.145 1799.77 578.418 1821.11 560.36Z" fill="white"/>
<path d="M1880.21 522.602C1867.62 529.169 1838.18 545.913 1821.11 560.36C1799.77 578.418 1804.35 587.145 1808.87 586.862C1813.38 586.58 1810 593.071 1812.82 595.611C1815.64 598.15 1818.96 595.046 1821.11 597.022C1823.26 598.997 1825.8 599.844 1833.42 598.433C1841.04 597.022 1867.75 601.255 1885.79 598.433C1900.22 596.175 1914.61 589.778 1920 586.862" stroke="black" stroke-width="4.66696"/>
<path d="M2066.34 524.553C2072.78 520.974 2074.93 500.216 2084.95 493.058C2082.33 490.434 2076.51 482.321 2074.22 470.868C2071.35 456.552 2039.86 372.11 2008.36 366.384C1976.87 360.657 1922.03 361.62 1909.15 377.368C1896.26 393.115 1878.8 417.184 1870.93 425.057C1864.63 431.356 1856.85 452.496 1853.75 462.279C1859.89 467.042 1871.63 477.641 1869.48 481.94C1866.79 487.314 1863.75 489.822 1865.54 492.509C1867.33 495.196 1887.39 503.973 1885.96 507.734C1884.53 511.496 1825.91 567.181 1817.05 605.625C1804.17 661.541 1752.76 661.269 1747.81 675.434C1729.9 726.592 1832.11 707.015 1847.73 712.241C1859.33 716.118 1863.13 724.011 1894 733.406C1909.99 738.274 1910.37 798.298 1920.5 804.757C1928.6 809.924 1928.82 816.108 1946.98 803.324C1946.98 803.324 2008.1 750.119 2021.15 729.25C2034.21 708.38 2041.76 698.489 2048.23 646.376C2054.69 594.262 2053.29 584.853 2041.76 538.153V531.896C2053.05 529.149 2063.41 526.183 2066.34 524.553Z" fill="white"/>
<path d="M1961.84 529.564C1974.24 532.427 2000.92 538.153 2008.36 538.153C2013.43 538.153 2028.26 535.181 2041.76 531.896M2041.76 531.896C2053.05 529.149 2063.41 526.183 2066.34 524.553C2072.78 520.974 2074.93 500.216 2084.95 493.058C2082.33 490.434 2076.51 482.321 2074.22 470.868C2071.35 456.552 2039.86 372.11 2008.36 366.384C1976.87 360.657 1922.03 361.62 1909.15 377.368C1896.26 393.115 1878.8 417.184 1870.93 425.057C1864.63 431.356 1856.85 452.496 1853.75 462.279C1859.89 467.042 1871.63 477.641 1869.48 481.94C1866.79 487.314 1863.75 489.822 1865.54 492.509C1867.33 495.196 1887.39 503.973 1885.96 507.734C1884.53 511.496 1825.91 567.181 1817.05 605.625C1804.17 661.541 1752.76 661.269 1747.81 675.434C1729.9 726.592 1832.11 707.015 1847.73 712.241C1859.33 716.118 1863.13 724.011 1894 733.406C1909.99 738.274 1910.37 798.298 1920.5 804.757C1928.6 809.924 1928.82 816.108 1946.98 803.324C1946.98 803.324 2008.1 750.119 2021.15 729.25C2034.21 708.38 2041.76 698.489 2048.23 646.376C2054.69 594.262 2053.29 584.853 2041.76 538.153V531.896Z" stroke="black" stroke-width="4.39356" stroke-linejoin="round"/>
<path d="M2006.93 381.394C2006.93 368.779 2059.51 348.234 2070.92 356.53C2082.32 366.899 2079.38 440.337 2053.46 437.226C2027.53 434.116 2006.93 405.709 2006.93 381.394Z" fill="url(#paint21_linear_1242_881)" stroke="black" stroke-width="4.39356" stroke-linejoin="round"/>
<path d="M1936.39 497.43C1940.99 504.278 1957.05 510.004 1964.69 508.366C1972.32 506.729 1974.92 504.073 1979.56 499.542C1985.37 493.878 1988.27 459.703 1974.69 437.383C1961.1 415.062 1950.95 418 1939.46 417.291C1927.97 416.583 1925.47 402.934 1907.67 402.876C1889.87 402.819 1862.58 431.501 1868.79 450.883C1874.99 470.265 1892.66 431.254 1912.5 432.297C1932.33 433.339 1931.78 490.582 1936.39 497.43Z" fill="url(#paint22_linear_1242_881)" stroke="black" stroke-width="4.39356" stroke-linejoin="round"/>
<path d="M1886.94 439.18C1890.84 433.373 1910.6 435.549 1920 437.363L1914.22 456.356L1886.92 487.838C1885.05 484.691 1880.92 476.746 1879.38 470.142C1877.45 461.887 1882.07 446.44 1886.94 439.18Z" fill="white"/>
<path d="M1920 437.363C1910.6 435.549 1890.84 433.373 1886.94 439.18C1882.07 446.44 1877.45 461.887 1879.38 470.142C1880.92 476.746 1885.05 484.691 1886.92 487.838" stroke="black" stroke-width="4.39356" stroke-linejoin="round"/>
<path d="M1915.07 468.287C1904.76 470.78 1899.21 459.776 1893.61 457.677C1890.85 459.065 1883.51 463.058 1880.15 459.489" stroke="black" stroke-width="4.39356" stroke-linejoin="round"/>
<path d="M1950.94 451.007L1952.41 439.252M1901.43 418.688L1897.91 428.893" stroke="black" stroke-width="4.39356" stroke-linejoin="round"/>
<path d="M1892.64 437.627C1894.98 435.76 1907.58 443.736 1907.95 447.353C1907.94 451.278 1893.82 461.53 1890.07 455.639C1886.31 449.747 1888.13 441.226 1892.64 437.627Z" fill="url(#paint23_linear_1242_881)" stroke="black" stroke-width="4.39356" stroke-linejoin="round"/>
<path d="M1721.05 648.028C1739.95 648.55 1760.32 670.31 1768.51 684.935C1779.38 704.331 1776.48 717.771 1763.22 718.422C1747.91 719.173 1717.85 692.445 1702.95 672.236C1696.48 663.466 1697.42 647.375 1721.05 648.028Z" fill="url(#paint24_linear_1242_881)" stroke="black" stroke-width="4.66696" stroke-linejoin="round"/>
<path d="M1926.42 727.275C1908.27 731.325 1905.74 768.736 1901.66 785.285C1896.24 807.232 1902.57 820.502 1915.58 818.705C1930.59 816.631 1952.64 783.582 1961.76 760.047C1965.71 749.835 1949.11 722.212 1926.42 727.275Z" fill="url(#paint25_linear_1242_881)" stroke="black" stroke-width="4.66696" stroke-linejoin="round"/>
<path d="M1982.08 647.106L1818.85 592.058C1817.36 591.555 1815.75 591.529 1814.24 591.982L1715.29 621.771C1708.61 623.78 1707.95 632.973 1714.27 635.91L1885.66 715.568C1887.94 716.628 1890.6 716.489 1892.76 715.196L1983.56 660.798C1989.11 657.473 1988.21 649.173 1982.08 647.106Z" fill="#E999B3" stroke="black" stroke-width="4.66696"/>
<path d="M1861.12 584.982L1889.77 698.044C1890.99 702.846 1886.05 706.884 1881.58 704.731L1712.56 623.188C1711.08 622.474 1709.97 621.169 1709.51 619.594L1681.13 524.022C1679.75 519.393 1684.27 515.194 1688.79 516.907L1857.54 580.961C1859.31 581.636 1860.65 583.137 1861.12 584.982Z" fill="#E999B3" stroke="black" stroke-width="4.66696"/>
<path d="M1925.41 606.218C1942.48 591.771 1971.92 575.027 1984.51 568.46L2024.3 632.72C2018.91 635.636 2004.52 642.033 1990.09 644.291C1972.05 647.113 1945.34 642.88 1937.72 644.291C1930.1 645.702 1927.56 644.855 1925.41 642.88C1923.26 640.904 1919.94 644.008 1917.12 641.469C1914.3 638.929 1917.68 632.438 1913.17 632.72C1908.65 633.003 1904.07 624.276 1925.41 606.218Z" fill="white"/>
<path d="M1984.51 568.46C1971.92 575.027 1942.48 591.771 1925.41 606.218C1904.07 624.276 1908.65 633.003 1913.17 632.72C1917.68 632.438 1914.3 638.929 1917.12 641.469C1919.94 644.008 1923.26 640.904 1925.41 642.88C1927.56 644.855 1930.1 645.702 1937.72 644.291C1945.34 642.88 1972.05 647.113 1990.09 644.291C2004.52 642.033 2018.91 635.636 2024.3 632.72" stroke="black" stroke-width="4.66696"/>
<path d="M2002.07 776.51C2002.72 776.378 2003.39 776.544 2003.9 776.962C2004.41 777.379 2004.71 778.005 2004.71 778.665V876.03C2004.71 876.624 2004.47 877.193 2004.04 877.608L1984.33 896.753C1983.68 897.386 1982.7 897.553 1981.88 897.173L1971.08 892.208C1970.3 891.847 1969.79 891.059 1969.8 890.194L1970.58 784.719C1970.58 783.68 1971.32 782.788 1972.34 782.581L2002.07 776.51Z" fill="#BA9595" stroke="black" stroke-width="4.39852" stroke-linejoin="round"/>
<path d="M2084.51 692.22C2085.16 692.088 2085.83 692.254 2086.34 692.671C2086.86 693.089 2087.15 693.715 2087.15 694.375V791.74C2087.15 792.334 2086.91 792.903 2086.48 793.317L2066.77 812.463C2066.12 813.096 2065.14 813.263 2064.32 812.883L2053.52 807.918C2052.74 807.557 2052.24 806.769 2052.24 805.904L2053.02 700.429C2053.03 699.39 2053.76 698.498 2054.78 698.29L2084.51 692.22Z" fill="#BA9595" stroke="black" stroke-width="4.39852" stroke-linejoin="round"/>
<path d="M2115.45 670.045C2116.21 670.411 2116.69 671.182 2116.69 672.026V688.863C2116.69 689.476 2116.44 690.061 2115.99 690.477L1962.19 832.785C1961.56 833.365 1960.65 833.53 1959.86 833.206L1915.46 815.027C1914.64 814.688 1914.1 813.884 1914.1 812.991V796.155C1914.1 795.547 1914.35 794.967 1914.79 794.551L2069.42 649.449C2070.09 648.827 2071.06 648.676 2071.88 649.071L2115.45 670.045Z" fill="#BA9595" stroke="black" stroke-width="4.39852" stroke-linejoin="round"/>
</g>
<defs>
<linearGradient id="paint0_linear_1242_881" x1="2698.61" y1="730.139" x2="1488.79" y2="1390.79" gradientUnits="userSpaceOnUse">
<stop stop-color="#FFF847"/>
<stop offset="0.390625" stop-color="#FAD896" stop-opacity="0.79"/>
<stop offset="1" stop-color="#FFFA81" stop-opacity="0"/>
</linearGradient>
<linearGradient id="paint1_linear_1242_881" x1="1724.48" y1="1684.56" x2="2119.66" y2="614.702" gradientUnits="userSpaceOnUse">
<stop stop-color="#FF0000"/>
<stop offset="1" stop-color="#FF00B8" stop-opacity="0"/>
</linearGradient>
<linearGradient id="paint2_linear_1242_881" x1="1123.8" y1="1087.21" x2="1875.29" y2="1690.06" gradientUnits="userSpaceOnUse">
<stop stop-color="#FCDBE9"/>
<stop offset="1" stop-color="#EA3055" stop-opacity="0"/>
</linearGradient>
<linearGradient id="paint3_linear_1242_881" x1="-308.87" y1="1217.4" x2="521.568" y2="2150.73" gradientUnits="userSpaceOnUse">
<stop offset="0.0001" stop-color="#9BDFAE" stop-opacity="0.25"/>
<stop offset="0.25" stop-color="#C1E8D5" stop-opacity="0.71"/>
<stop offset="1" stop-color="#304EEA" stop-opacity="0"/>
</linearGradient>
<radialGradient id="paint4_radial_1242_881" cx="0" cy="0" r="1" gradientUnits="userSpaceOnUse" gradientTransform="translate(1074.12 997.548) rotate(-64.7989) scale(653.088 749.126)">
<stop stop-color="#9475EB" stop-opacity="0.63"/>
<stop offset="0.286458" stop-color="#4C98F0" stop-opacity="0.596461"/>
<stop offset="0.768687" stop-color="#C7EBE6" stop-opacity="0.54"/>
<stop offset="1" stop-color="#ABC8F4" stop-opacity="0"/>
</radialGradient>
<radialGradient id="paint5_radial_1242_881" cx="0" cy="0" r="1" gradientUnits="userSpaceOnUse" gradientTransform="translate(1074.12 997.55) rotate(-64.7989) scale(653.088 749.126)">
<stop stop-color="#9475EB" stop-opacity="0.63"/>
<stop offset="0.286458" stop-color="#4C98F0" stop-opacity="0.596461"/>
<stop offset="0.768687" stop-color="#C7EBE6" stop-opacity="0.54"/>
<stop offset="1" stop-color="#ABC8F4" stop-opacity="0"/>
</radialGradient>
<radialGradient id="paint6_radial_1242_881" cx="0" cy="0" r="1" gradientUnits="userSpaceOnUse" gradientTransform="translate(790.013 1184.93) rotate(9.48585) scale(1027.54 1064.48)">
<stop stop-color="#5E69CD" stop-opacity="0"/>
<stop offset="0.5" stop-color="#4D93BA" stop-opacity="0.42"/>
<stop offset="1" stop-color="#A0E6A7" stop-opacity="0.22"/>
</radialGradient>
<radialGradient id="paint7_radial_1242_881" cx="0" cy="0" r="1" gradientUnits="userSpaceOnUse" gradientTransform="translate(790.013 1184.93) rotate(9.48584) scale(1027.54 1064.48)">
<stop stop-color="#5E69CD" stop-opacity="0"/>
<stop offset="0.5" stop-color="#4D93BA" stop-opacity="0.42"/>
<stop offset="1" stop-color="#A0E6A7" stop-opacity="0.22"/>
</radialGradient>
<linearGradient id="paint8_linear_1242_881" x1="-57.0211" y1="984.574" x2="176.783" y2="2107.6" gradientUnits="userSpaceOnUse">
<stop offset="0.0001" stop-color="#82C8C4" stop-opacity="0.6"/>
<stop offset="1" stop-color="#5056E4" stop-opacity="0.61"/>
</linearGradient>
<linearGradient id="paint9_linear_1242_881" x1="-57.0208" y1="984.574" x2="176.784" y2="2107.6" gradientUnits="userSpaceOnUse">
<stop offset="0.0001" stop-color="#82C8C4" stop-opacity="0.6"/>
<stop offset="1" stop-color="#5056E4" stop-opacity="0.61"/>
</linearGradient>
<linearGradient id="paint10_linear_1242_881" x1="2100.61" y1="621.348" x2="2100.61" y2="518.833" gradientUnits="userSpaceOnUse">
<stop stop-color="#E2EEF9"/>
<stop offset="1" stop-color="#A9A8EC"/>
</linearGradient>
<linearGradient id="paint11_linear_1242_881" x1="2130.18" y1="564.127" x2="2130.18" y2="477.721" gradientUnits="userSpaceOnUse">
<stop stop-color="#E2EEF9"/>
<stop offset="1" stop-color="#A9A8EC"/>
</linearGradient>
<linearGradient id="paint12_linear_1242_881" x1="1945.46" y1="388.718" x2="1891.42" y2="344.286" gradientUnits="userSpaceOnUse">
<stop stop-color="#E2EEF9"/>
<stop offset="1" stop-color="#A9A8EC"/>
</linearGradient>
<linearGradient id="paint13_linear_1242_881" x1="2042.09" y1="354.612" x2="2042.09" y2="437.322" gradientUnits="userSpaceOnUse">
<stop stop-color="#E2EEF9"/>
<stop offset="1" stop-color="#A9A8EC"/>
</linearGradient>
<linearGradient id="paint14_linear_1242_881" x1="1937.6" y1="408.462" x2="1918.51" y2="500.204" gradientUnits="userSpaceOnUse">
<stop stop-color="#E2EEF9"/>
<stop offset="1" stop-color="#A9A8EC"/>
</linearGradient>
<linearGradient id="paint15_linear_1242_881" x1="1903.49" y1="441.03" x2="1888.15" y2="453.272" gradientUnits="userSpaceOnUse">
<stop stop-color="#E2EEF9"/>
<stop offset="1" stop-color="#A9A8EC"/>
</linearGradient>
<linearGradient id="paint16_linear_1242_881" x1="1728.99" y1="707.569" x2="1747.43" y2="655.959" gradientUnits="userSpaceOnUse">
<stop stop-color="#E2EEF9"/>
<stop offset="1" stop-color="#A9A8EC"/>
</linearGradient>
<linearGradient id="paint17_linear_1242_881" x1="1945.22" y1="801.582" x2="1905.8" y2="739.324" gradientUnits="userSpaceOnUse">
<stop stop-color="#E2EEF9"/>
<stop offset="1" stop-color="#A9A8EC"/>
</linearGradient>
<linearGradient id="paint18_linear_1242_881" x1="2100.61" y1="621.348" x2="2100.61" y2="518.833" gradientUnits="userSpaceOnUse">
<stop stop-color="#E2EEF9"/>
<stop offset="1" stop-color="#A9A8EC"/>
</linearGradient>
<linearGradient id="paint19_linear_1242_881" x1="2130.18" y1="564.127" x2="2130.18" y2="477.721" gradientUnits="userSpaceOnUse">
<stop stop-color="#E2EEF9"/>
<stop offset="1" stop-color="#A9A8EC"/>
</linearGradient>
<linearGradient id="paint20_linear_1242_881" x1="1945.46" y1="388.718" x2="1891.42" y2="344.286" gradientUnits="userSpaceOnUse">
<stop stop-color="#E2EEF9"/>
<stop offset="1" stop-color="#A9A8EC"/>
</linearGradient>
<linearGradient id="paint21_linear_1242_881" x1="2042.09" y1="354.612" x2="2042.09" y2="437.322" gradientUnits="userSpaceOnUse">
<stop stop-color="#E2EEF9"/>
<stop offset="1" stop-color="#A9A8EC"/>
</linearGradient>
<linearGradient id="paint22_linear_1242_881" x1="1937.6" y1="408.462" x2="1918.51" y2="500.204" gradientUnits="userSpaceOnUse">
<stop stop-color="#E2EEF9"/>
<stop offset="1" stop-color="#A9A8EC"/>
</linearGradient>
<linearGradient id="paint23_linear_1242_881" x1="1903.49" y1="441.03" x2="1888.15" y2="453.272" gradientUnits="userSpaceOnUse">
<stop stop-color="#E2EEF9"/>
<stop offset="1" stop-color="#A9A8EC"/>
</linearGradient>
<linearGradient id="paint24_linear_1242_881" x1="1728.99" y1="707.569" x2="1747.43" y2="655.959" gradientUnits="userSpaceOnUse">
<stop stop-color="#E2EEF9"/>
<stop offset="1" stop-color="#A9A8EC"/>
</linearGradient>
<linearGradient id="paint25_linear_1242_881" x1="1945.22" y1="801.582" x2="1905.8" y2="739.324" gradientUnits="userSpaceOnUse">
<stop stop-color="#E2EEF9"/>
<stop offset="1" stop-color="#A9A8EC"/>
</linearGradient>
<clipPath id="clip0_1242_881">
<rect width="2328" height="1080" fill="white" transform="matrix(-1 0 0 1 2328 0)"/>
</clipPath>
</defs>
</svg>
