<svg width="560" height="283" viewBox="0 0 560 283" fill="none" xmlns="http://www.w3.org/2000/svg">
<g clip-path="url(#clip0_1574_456)">
<rect width="560" height="283" fill="url(#paint0_linear_1574_456)"/>
<path d="M404.46 170.06L300.151 213.162L347.564 241.61H397.564L451.011 260.575L519.975 337.298L625.146 290.747L595.836 44.1995L567.388 53.6821L555.32 73.5094L482.907 66.6129L472.562 126.095L404.46 170.06Z" fill="url(#paint1_linear_1574_456)"/>
<g filter="url(#filter0_d_1574_456)">
<path d="M161.686 147.302L265.995 190.405L218.581 218.853H168.582L115.135 237.818L46.1705 314.541L-59.0002 267.99L-29.6903 21.442L-1.24249 30.9246L10.8263 50.7519L83.2389 43.8554L93.5835 103.337L161.686 147.302Z" fill="url(#paint2_linear_1574_456)"/>
</g>
<g filter="url(#filter1_d_1574_456)">
<rect x="402.823" y="39.781" width="149.954" height="149.954" rx="6.77627" transform="rotate(63.0084 402.823 39.781)" fill="white"/>
<rect x="402.823" y="39.781" width="149.954" height="149.954" rx="6.77627" transform="rotate(63.0084 402.823 39.781)" fill="url(#paint3_linear_1574_456)"/>
<ellipse cx="352.005" cy="125.866" rx="3.38814" ry="6.77627" transform="rotate(18.0084 352.005 125.866)" fill="white"/>
<ellipse cx="382.938" cy="135.921" rx="3.38814" ry="6.77627" transform="rotate(18.0084 382.938 135.921)" fill="white"/>
<path d="M339.11 133.161L334.364 135.867" stroke="white" stroke-width="1.35525" stroke-linecap="round"/>
<path d="M343.645 134.548L338.899 137.255" stroke="white" stroke-width="1.35525" stroke-linecap="round"/>
<path d="M388.452 149.201L390.699 154.181" stroke="white" stroke-width="1.35525" stroke-linecap="round"/>
<path d="M383.969 147.657L386.216 152.637" stroke="white" stroke-width="1.35525" stroke-linecap="round"/>
<path d="M358.686 139.438C359.7 141.43 363.312 144.932 369.641 142.999" stroke="white" stroke-width="2.71051" stroke-linecap="round"/>
</g>
<path d="M535.784 134.612L507.087 187.731L435.301 226.881L427.526 218.44C419.425 209.644 406.503 207.225 395.768 212.495L380.185 220.145L351.879 203.61L315.953 215.548L351.879 257.579L399.291 273.454L443.951 308.409L484.985 403.059L599.494 392.311L649.986 149.216L619.999 149.175L602.259 164.144L535.784 134.612Z" fill="url(#paint4_linear_1574_456)"/>
<path d="M148.362 274.59H328.496L380.406 257.398L339.424 222.72H148.362L99.7466 264.414L148.362 274.59Z" fill="#831818" fill-opacity="0.2"/>
<path d="M136.045 265.329H320.118L313.234 256.599H142.653L136.045 265.329Z" fill="#F1D189"/>
<path fill-rule="evenodd" clip-rule="evenodd" d="M159.953 135.537C158.122 135.537 156.406 136.429 155.353 137.927L117.986 191.138C115.37 194.863 118.035 199.99 122.586 199.99H333.375C337.926 199.99 340.59 194.863 337.975 191.138L300.608 137.927C299.555 136.429 297.839 135.537 296.007 135.537H159.953Z" fill="#9D7A56"/>
<path fill-rule="evenodd" clip-rule="evenodd" d="M295.177 143.689C296.092 143.689 296.95 144.135 297.477 144.884L325.93 185.402C327.238 187.264 325.905 189.827 323.63 189.827H132.331C130.055 189.827 128.723 187.264 130.031 185.402L158.484 144.884C159.01 144.135 159.869 143.689 160.784 143.689H295.177Z" fill="url(#paint5_linear_1574_456)"/>
<path fill-rule="evenodd" clip-rule="evenodd" d="M146.184 272.991H309.896L329.15 197.139H126.93L146.184 272.991Z" fill="url(#paint6_linear_1574_456)"/>
<path fill-rule="evenodd" clip-rule="evenodd" d="M146.184 272.991H309.896L329.15 197.139H126.93L146.184 272.991Z" fill="url(#paint7_linear_1574_456)" fill-opacity="0.2"/>
<path fill-rule="evenodd" clip-rule="evenodd" d="M146.184 272.991H309.896L329.15 197.139H126.93L146.184 272.991Z" fill="url(#paint8_linear_1574_456)" fill-opacity="0.2"/>
<path d="M167.193 134.54H286.103" stroke="url(#paint9_linear_1574_456)" stroke-width="4.68428" stroke-linecap="round"/>
<path fill-rule="evenodd" clip-rule="evenodd" d="M160.095 132.666C158.414 132.666 156.822 131.914 155.754 130.616L119.741 86.8434C116.724 83.1758 119.333 77.6509 124.082 77.6509H332.695C337.445 77.6509 340.053 83.1758 337.036 86.8434L301.023 130.616C299.956 131.914 298.363 132.666 296.683 132.666H160.095Z" fill="#9D7A56"/>
<path fill-rule="evenodd" clip-rule="evenodd" d="M295.719 125.707C296.559 125.707 297.355 125.331 297.889 124.682L325.665 90.9213C327.174 89.0876 325.869 86.3251 323.495 86.3251H133.284C130.909 86.3251 129.605 89.0876 131.113 90.9213L158.889 124.682C159.423 125.331 160.219 125.707 161.06 125.707H295.719Z" fill="url(#paint10_linear_1574_456)"/>
<path fill-rule="evenodd" clip-rule="evenodd" d="M334.263 67.0123H122.372L123.015 60.2847C123.994 50.0503 129.377 40.7483 137.764 34.8013C139.991 33.2216 142.654 32.3731 145.385 32.3731H310.784C313.572 32.3731 316.29 33.2413 318.562 34.8572C326.894 40.7826 332.316 49.9689 333.476 60.1266L334.263 67.0123Z" fill="url(#paint11_linear_1574_456)"/>
<path fill-rule="evenodd" clip-rule="evenodd" d="M334.263 67.0123H122.372L123.015 60.2847C123.994 50.0503 129.377 40.7483 137.764 34.8013C139.991 33.2216 142.654 32.3731 145.385 32.3731H310.784C313.572 32.3731 316.29 33.2413 318.562 34.8572C326.894 40.7826 332.316 49.9689 333.476 60.1266L334.263 67.0123Z" fill="url(#paint12_linear_1574_456)" fill-opacity="0.4"/>
<g filter="url(#filter2_i_1574_456)">
<mask id="mask0_1574_456" style="mask-type:alpha" maskUnits="userSpaceOnUse" x="129" y="143" width="198" height="47">
<path fill-rule="evenodd" clip-rule="evenodd" d="M295.177 143.689C296.092 143.689 296.95 144.135 297.477 144.884L325.93 185.402C327.238 187.264 325.905 189.827 323.63 189.827H132.331C130.055 189.827 128.723 187.264 130.031 185.402L158.484 144.884C159.01 144.135 159.869 143.689 160.784 143.689H295.177Z" fill="url(#paint13_linear_1574_456)"/>
</mask>
<g mask="url(#mask0_1574_456)">
<path d="M143.091 184.64L130.101 191.135L145.073 215.376L188.564 247.459L322.602 203.255V194.825C322.602 192.498 321.521 190.303 319.677 188.885L304.065 176.876L298.199 170.342C296.899 168.893 295.085 168.007 293.143 167.872L279.111 166.894L276.132 163.064C274.849 161.415 272.937 160.376 270.856 160.198L249.166 158.339L238.257 154.488C237.455 154.205 236.612 154.061 235.762 154.061H230.629L199.972 158.339L197.086 155.865C195.728 154.701 193.997 154.061 192.208 154.061H181.076C178.237 154.061 175.642 155.665 174.372 158.204L170.027 166.894L157.194 174.024L150.777 176.876L145.31 182.95C144.682 183.647 143.93 184.221 143.091 184.64Z" fill="url(#paint14_linear_1574_456)"/>
<path fill-rule="evenodd" clip-rule="evenodd" d="M247.695 165.163L249.99 164.393L251.156 167.871L251.149 167.873C251.897 170.815 247.826 174.734 241.886 176.726C235.945 178.718 230.335 178.047 229.158 175.248L229.151 175.251L229.088 175.063C229.086 175.059 229.085 175.056 229.084 175.052C229.083 175.049 229.082 175.045 229.081 175.042L227.984 171.773L230.279 171.003C231.866 169.06 234.745 167.187 238.288 165.998C241.831 164.81 245.257 164.569 247.695 165.163Z" fill="url(#paint15_linear_1574_456)"/>
<ellipse cx="239.084" cy="168.371" rx="11.6051" ry="5.6575" transform="rotate(-18.5398 239.084 168.371)" fill="url(#paint16_linear_1574_456)"/>
<ellipse cx="239.024" cy="167.972" rx="9.35134" ry="3.81949" transform="rotate(-18.5398 239.024 167.972)" fill="url(#paint17_linear_1574_456)" fill-opacity="0.4" style="mix-blend-mode:multiply"/>
<path fill-rule="evenodd" clip-rule="evenodd" d="M234.392 160.336L236.687 159.566L237.853 163.044L237.846 163.046C238.594 165.989 234.523 169.907 228.583 171.899C222.642 173.892 217.032 173.22 215.855 170.421L215.848 170.424L215.791 170.256C215.788 170.246 215.784 170.236 215.781 170.225C215.777 170.215 215.774 170.205 215.771 170.195L214.681 166.946L216.976 166.177C218.563 164.234 221.441 162.36 224.985 161.172C228.528 159.983 231.954 159.743 234.392 160.336Z" fill="url(#paint18_linear_1574_456)"/>
<ellipse cx="225.78" cy="163.544" rx="11.6051" ry="5.6575" transform="rotate(-18.5398 225.78 163.544)" fill="url(#paint19_linear_1574_456)"/>
<ellipse cx="225.72" cy="163.145" rx="9.35134" ry="3.81949" transform="rotate(-18.5398 225.72 163.145)" fill="url(#paint20_linear_1574_456)" fill-opacity="0.4" style="mix-blend-mode:multiply"/>
<path fill-rule="evenodd" clip-rule="evenodd" d="M189.813 189.207L192.104 189.988L190.92 193.46L190.912 193.457C189.721 196.25 184.106 196.891 178.177 194.868C172.247 192.844 168.196 188.904 168.961 185.966L168.953 185.963L169.014 185.785C169.016 185.779 169.019 185.772 169.021 185.765C169.023 185.758 169.025 185.752 169.028 185.745L170.138 182.492L172.429 183.274C174.87 182.693 178.294 182.952 181.831 184.159C185.368 185.366 188.237 187.255 189.813 189.207Z" fill="url(#paint21_linear_1574_456)"/>
<ellipse cx="181.023" cy="186.527" rx="11.6051" ry="5.6575" transform="rotate(18.8437 181.023 186.527)" fill="url(#paint22_linear_1574_456)"/>
<ellipse cx="181.217" cy="186.174" rx="9.35134" ry="3.81949" transform="rotate(18.8437 181.217 186.174)" fill="url(#paint23_linear_1574_456)" fill-opacity="0.4" style="mix-blend-mode:multiply"/>
<path fill-rule="evenodd" clip-rule="evenodd" d="M204.028 171.776L201.737 172.558L202.922 176.03L202.929 176.027C204.121 178.82 209.735 179.461 215.665 177.438C221.594 175.414 225.645 171.474 224.881 168.536L224.888 168.533L224.827 168.356C224.825 168.349 224.823 168.342 224.82 168.335C224.818 168.328 224.816 168.321 224.813 168.314L223.703 165.062L221.412 165.843C218.972 165.263 215.547 165.522 212.01 166.729C208.473 167.936 205.605 169.825 204.028 171.776Z" fill="url(#paint24_linear_1574_456)"/>
<ellipse cx="11.6051" cy="5.6575" rx="11.6051" ry="5.6575" transform="matrix(-0.946403 0.322988 0.322988 0.946403 221.974 159.995)" fill="url(#paint25_linear_1574_456)"/>
<ellipse cx="9.35134" cy="3.81949" rx="9.35134" ry="3.81949" transform="matrix(-0.946403 0.322988 0.322988 0.946403 220.241 162.109)" fill="url(#paint26_linear_1574_456)" fill-opacity="0.4" style="mix-blend-mode:multiply"/>
<path fill-rule="evenodd" clip-rule="evenodd" d="M302.52 190.193L302.585 190.383L302.592 190.381C303.784 193.173 309.398 193.815 315.328 191.791C321.257 189.767 325.308 185.827 324.544 182.889L324.551 182.887L323.366 179.415L321.076 180.197C318.635 179.617 315.21 179.875 311.673 181.083C308.136 182.29 305.268 184.179 303.691 186.13L301.4 186.912L302.514 190.177C302.515 190.18 302.516 190.182 302.517 190.185C302.518 190.188 302.519 190.191 302.52 190.193Z" fill="url(#paint27_linear_1574_456)"/>
<ellipse cx="11.6051" cy="5.6575" rx="11.6051" ry="5.6575" transform="matrix(-0.946403 0.322988 0.322988 0.946403 321.637 174.348)" fill="url(#paint28_linear_1574_456)"/>
<ellipse cx="9.35134" cy="3.81949" rx="9.35134" ry="3.81949" transform="matrix(-0.946403 0.322988 0.322988 0.946403 319.903 176.462)" fill="url(#paint29_linear_1574_456)" fill-opacity="0.4" style="mix-blend-mode:multiply"/>
<path fill-rule="evenodd" clip-rule="evenodd" d="M266.98 178.54L264.689 179.322L265.873 182.793L265.881 182.791C267.072 185.583 272.686 186.225 278.616 184.201C284.546 182.177 288.596 178.237 287.832 175.299L287.84 175.297L287.778 175.116C287.776 175.11 287.774 175.104 287.772 175.099C287.77 175.093 287.768 175.087 287.766 175.081L286.655 171.825L284.364 172.607C281.923 172.027 278.499 172.285 274.962 173.493C271.425 174.7 268.556 176.589 266.98 178.54Z" fill="url(#paint30_linear_1574_456)"/>
<ellipse cx="11.6051" cy="5.6575" rx="11.6051" ry="5.6575" transform="matrix(-0.946403 0.322988 0.322988 0.946403 284.926 166.758)" fill="url(#paint31_linear_1574_456)"/>
<ellipse cx="9.35134" cy="3.81949" rx="9.35134" ry="3.81949" transform="matrix(-0.946403 0.322988 0.322988 0.946403 283.192 168.872)" fill="url(#paint32_linear_1574_456)" fill-opacity="0.4" style="mix-blend-mode:multiply"/>
<path fill-rule="evenodd" clip-rule="evenodd" d="M273.628 185.159L271.471 184.062L269.808 187.331L269.815 187.335C268.643 190.136 272.097 194.608 277.681 197.449C283.266 200.29 288.914 200.447 290.488 197.851L290.495 197.855L290.585 197.679C290.587 197.675 290.588 197.672 290.59 197.668C290.592 197.665 290.594 197.661 290.595 197.658L292.158 194.586L290.001 193.488C288.716 191.333 286.143 189.058 282.812 187.364C279.48 185.669 276.127 184.93 273.628 185.159Z" fill="url(#paint33_linear_1574_456)"/>
<ellipse cx="11.6051" cy="5.6575" rx="11.6051" ry="5.6575" transform="matrix(-0.891304 -0.453407 -0.453407 0.891304 294.586 189.814)" fill="url(#paint34_linear_1574_456)"/>
<ellipse cx="9.35133" cy="3.81949" rx="9.35133" ry="3.81949" transform="matrix(-0.891304 -0.453407 -0.453407 0.891304 291.861 190.044)" fill="url(#paint35_linear_1574_456)" fill-opacity="0.4" style="mix-blend-mode:multiply"/>
<path fill-rule="evenodd" clip-rule="evenodd" d="M150.35 190.816C150.348 190.811 150.346 190.805 150.344 190.799C150.342 190.793 150.34 190.787 150.338 190.781L149.227 187.526L151.518 186.744C153.094 184.792 155.963 182.903 159.5 181.696C163.037 180.489 166.461 180.23 168.902 180.811L171.193 180.029L172.378 183.5L172.37 183.503C173.134 186.441 169.084 190.381 163.154 192.405C157.225 194.428 151.611 193.787 150.419 190.994L150.412 190.997L150.35 190.816Z" fill="url(#paint36_linear_1574_456)"/>
<ellipse cx="11.6051" cy="5.6575" rx="11.6051" ry="5.6575" transform="matrix(-0.946403 0.322988 0.322988 0.946403 169.463 174.962)" fill="url(#paint37_linear_1574_456)"/>
<ellipse cx="9.35134" cy="3.81949" rx="9.35134" ry="3.81949" transform="matrix(-0.946403 0.322988 0.322988 0.946403 167.73 177.076)" fill="url(#paint38_linear_1574_456)" fill-opacity="0.4" style="mix-blend-mode:multiply"/>
</g>
</g>
<path fill-rule="evenodd" clip-rule="evenodd" d="M143.656 30.683C140.741 30.683 137.903 31.6106 135.551 33.3314C127.032 39.5646 121.596 49.1526 120.622 59.6634L118.57 81.8029H338.328L335.858 59.5023C334.703 49.0707 329.231 39.6001 320.769 33.3908C318.372 31.6316 315.476 30.683 312.502 30.683H143.656ZM328.441 67.0122H128.196L128.845 59.9485C129.733 50.2877 134.686 41.4598 142.469 35.6672C144.648 34.0453 147.288 33.1631 150.005 33.1494L304.544 32.3721C307.532 32.3571 310.444 33.3062 312.849 35.0785C321.23 41.255 326.645 50.6564 327.781 61.0053L328.441 67.0122Z" fill="url(#paint39_linear_1574_456)"/>
<path fill-rule="evenodd" clip-rule="evenodd" d="M143.656 30.683C140.741 30.683 137.903 31.6106 135.551 33.3314C127.032 39.5646 121.596 49.1526 120.622 59.6634L118.57 81.8029H338.328L335.858 59.5023C334.703 49.0707 329.231 39.6001 320.769 33.3908C318.372 31.6316 315.476 30.683 312.502 30.683H143.656ZM328.441 67.0122H128.196L128.845 59.9485C129.733 50.2877 134.686 41.4598 142.469 35.6672C144.648 34.0453 147.288 33.1631 150.005 33.1494L304.544 32.3721C307.532 32.3571 310.444 33.3062 312.849 35.0785C321.23 41.255 326.645 50.6564 327.781 61.0053L328.441 67.0122Z" fill="url(#paint40_linear_1574_456)" fill-opacity="0.4"/>
<path fill-rule="evenodd" clip-rule="evenodd" d="M317.64 274.59H138.44L117.364 195.539H338.716L317.64 274.59ZM311.071 265.315H145.009L129.77 204.723H326.31L311.071 265.315Z" fill="url(#paint41_linear_1574_456)"/>
<path fill-rule="evenodd" clip-rule="evenodd" d="M317.64 274.59H138.44L117.364 195.539H338.716L317.64 274.59ZM311.071 265.315H145.009L129.77 204.723H326.31L311.071 265.315Z" fill="url(#paint42_linear_1574_456)" fill-opacity="0.2"/>
<path fill-rule="evenodd" clip-rule="evenodd" d="M317.64 274.59H138.44L117.364 195.539H338.716L317.64 274.59ZM311.071 265.315H145.009L129.77 204.723H326.31L311.071 265.315Z" fill="url(#paint43_linear_1574_456)" fill-opacity="0.2"/>
<rect x="226.648" y="211.922" width="29.8932" height="29.8932" rx="1.35085" transform="rotate(45 226.648 211.922)" fill="#FFE1A4"/>
<rect x="226.648" y="211.922" width="29.8932" height="29.8932" rx="1.35085" transform="rotate(45 226.648 211.922)" fill="url(#paint44_linear_1574_456)"/>
<ellipse cx="223.472" cy="223.287" rx="0.675424" ry="1.35085" fill="white"/>
<ellipse cx="229.956" cy="223.287" rx="0.675424" ry="1.35085" fill="white"/>
<path d="M221.477 225.465L220.744 226.271" stroke="white" stroke-width="0.27017" stroke-linecap="round"/>
<path d="M222.422 225.449L221.689 226.254" stroke="white" stroke-width="0.27017" stroke-linecap="round"/>
<path d="M231.82 225.465L232.553 226.271" stroke="white" stroke-width="0.27017" stroke-linecap="round"/>
<path d="M230.875 225.449L231.608 226.254" stroke="white" stroke-width="0.27017" stroke-linecap="round"/>
<path d="M225.575 225.449C225.89 225.764 226.791 226.205 227.872 225.449" stroke="white" stroke-width="0.540339" stroke-linecap="round"/>
<path fill-rule="evenodd" clip-rule="evenodd" d="M227.395 234.567C227.386 234.526 227.412 234.486 227.453 234.475C228.863 234.13 229.906 232.898 229.906 231.432C229.906 229.697 228.447 228.291 226.649 228.291C224.85 228.291 223.392 229.697 223.392 231.432C223.392 232.782 224.276 233.933 225.515 234.377C225.552 234.39 225.574 234.428 225.566 234.466L223.77 242.811C223.76 242.859 223.796 242.904 223.845 242.904H229.094C229.143 242.904 229.18 242.859 229.169 242.811L227.395 234.567Z" fill="#5B3A3A" fill-opacity="0.78" style="mix-blend-mode:multiply"/>
</g>
<defs>
<filter id="filter0_d_1574_456" x="-59" y="6.44202" width="335.995" height="308.099" filterUnits="userSpaceOnUse" color-interpolation-filters="sRGB">
<feFlood flood-opacity="0" result="BackgroundImageFix"/>
<feColorMatrix in="SourceAlpha" type="matrix" values="0 0 0 0 0 0 0 0 0 0 0 0 0 0 0 0 0 0 127 0" result="hardAlpha"/>
<feOffset dx="7" dy="-11"/>
<feGaussianBlur stdDeviation="2"/>
<feComposite in2="hardAlpha" operator="out"/>
<feColorMatrix type="matrix" values="0 0 0 0 0 0 0 0 0 0 0 0 0 0 0 0 0 0 0.1 0"/>
<feBlend mode="normal" in2="BackgroundImageFix" result="effect1_dropShadow_1574_456"/>
<feBlend mode="normal" in="SourceGraphic" in2="effect1_dropShadow_1574_456" result="shape"/>
</filter>
<filter id="filter1_d_1574_456" x="271.539" y="42.1169" width="223.006" height="225.006" filterUnits="userSpaceOnUse" color-interpolation-filters="sRGB">
<feFlood flood-opacity="0" result="BackgroundImageFix"/>
<feColorMatrix in="SourceAlpha" type="matrix" values="0 0 0 0 0 0 0 0 0 0 0 0 0 0 0 0 0 0 127 0" result="hardAlpha"/>
<feOffset dx="22" dy="24"/>
<feGaussianBlur stdDeviation="2"/>
<feComposite in2="hardAlpha" operator="out"/>
<feColorMatrix type="matrix" values="0 0 0 0 0 0 0 0 0 0 0 0 0 0 0 0 0 0 0.25 0"/>
<feBlend mode="normal" in2="BackgroundImageFix" result="effect1_dropShadow_1574_456"/>
<feBlend mode="normal" in="SourceGraphic" in2="effect1_dropShadow_1574_456" result="shape"/>
</filter>
<filter id="filter2_i_1574_456" x="130.101" y="154.061" width="194.535" height="35.7668" filterUnits="userSpaceOnUse" color-interpolation-filters="sRGB">
<feFlood flood-opacity="0" result="BackgroundImageFix"/>
<feBlend mode="normal" in="SourceGraphic" in2="BackgroundImageFix" result="shape"/>
<feColorMatrix in="SourceAlpha" type="matrix" values="0 0 0 0 0 0 0 0 0 0 0 0 0 0 0 0 0 0 127 0" result="hardAlpha"/>
<feOffset dx="-21.5477" dy="5.62114"/>
<feComposite in2="hardAlpha" operator="arithmetic" k2="-1" k3="1"/>
<feColorMatrix type="matrix" values="0 0 0 0 0.65 0 0 0 0 0.3692 0 0 0 0 0.21125 0 0 0 0.25 0"/>
<feBlend mode="normal" in2="shape" result="effect1_innerShadow_1574_456"/>
</filter>
<linearGradient id="paint0_linear_1574_456" x1="280" y1="0" x2="280" y2="283" gradientUnits="userSpaceOnUse">
<stop stop-color="#4CA98F"/>
<stop offset="0.635" stop-color="#6EA483"/>
<stop offset="0.665" stop-color="#DBCFAF"/>
<stop offset="1" stop-color="#F5D9B9"/>
</linearGradient>
<linearGradient id="paint1_linear_1574_456" x1="462.649" y1="44.1995" x2="462.649" y2="337.298" gradientUnits="userSpaceOnUse">
<stop stop-color="#8EBB98"/>
<stop offset="1" stop-color="#4CA971"/>
</linearGradient>
<linearGradient id="paint2_linear_1574_456" x1="103.497" y1="21.442" x2="103.497" y2="314.541" gradientUnits="userSpaceOnUse">
<stop stop-color="#8EBB98"/>
<stop offset="1" stop-color="#4CA971"/>
</linearGradient>
<linearGradient id="paint3_linear_1574_456" x1="493.634" y1="131.049" x2="320.387" y2="-43.5703" gradientUnits="userSpaceOnUse">
<stop stop-color="#9179CC"/>
<stop offset="1" stop-color="#9179CC" stop-opacity="0"/>
</linearGradient>
<linearGradient id="paint4_linear_1574_456" x1="523.69" y1="106.926" x2="430.625" y2="384.857" gradientUnits="userSpaceOnUse">
<stop stop-color="#9ABB8E"/>
<stop offset="1" stop-color="#6AA94C"/>
</linearGradient>
<linearGradient id="paint5_linear_1574_456" x1="227.98" y1="143.689" x2="227.98" y2="189.827" gradientUnits="userSpaceOnUse">
<stop stop-color="#6C4A2C"/>
<stop offset="1" stop-color="#3C1414"/>
</linearGradient>
<linearGradient id="paint6_linear_1574_456" x1="228.04" y1="197.139" x2="228.04" y2="272.991" gradientUnits="userSpaceOnUse">
<stop stop-color="#785432"/>
<stop offset="1" stop-color="#56391F"/>
</linearGradient>
<linearGradient id="paint7_linear_1574_456" x1="228.04" y1="197.139" x2="228.04" y2="272.991" gradientUnits="userSpaceOnUse">
<stop offset="0.295" stop-color="#4B2A15"/>
<stop offset="0.2951" stop-color="#805C3A" stop-opacity="0"/>
</linearGradient>
<linearGradient id="paint8_linear_1574_456" x1="228.04" y1="220.566" x2="228.04" y2="272.991" gradientUnits="userSpaceOnUse">
<stop offset="0.0199" stop-opacity="0"/>
<stop offset="0.02"/>
<stop offset="0.3499"/>
<stop offset="0.35" stop-opacity="0"/>
</linearGradient>
<linearGradient id="paint9_linear_1574_456" x1="226.648" y1="134.54" x2="226.648" y2="135.54" gradientUnits="userSpaceOnUse">
<stop offset="0.055" stop-color="#BCBCBC"/>
<stop offset="0.19" stop-color="#B6B5B5"/>
<stop offset="1" stop-color="#989898"/>
</linearGradient>
<linearGradient id="paint10_linear_1574_456" x1="228.389" y1="125.707" x2="228.389" y2="86.3251" gradientUnits="userSpaceOnUse">
<stop stop-color="#3C1414"/>
<stop offset="1" stop-color="#745130"/>
</linearGradient>
<linearGradient id="paint11_linear_1574_456" x1="228.446" y1="33.1571" x2="228.446" y2="80.7957" gradientUnits="userSpaceOnUse">
<stop stop-color="#A27C55"/>
<stop offset="1" stop-color="#765332"/>
</linearGradient>
<linearGradient id="paint12_linear_1574_456" x1="228.446" y1="33.1571" x2="228.446" y2="80.7957" gradientUnits="userSpaceOnUse">
<stop stop-color="#EDD8A8"/>
<stop offset="0.45" stop-color="#D2BA87"/>
<stop offset="0.4501" stop-color="#D2BA87" stop-opacity="0"/>
</linearGradient>
<linearGradient id="paint13_linear_1574_456" x1="227.98" y1="143.689" x2="227.98" y2="189.827" gradientUnits="userSpaceOnUse">
<stop stop-color="#6C4A2C"/>
<stop offset="1" stop-color="#3C1414"/>
</linearGradient>
<linearGradient id="paint14_linear_1574_456" x1="226.351" y1="146.931" x2="226.351" y2="247.459" gradientUnits="userSpaceOnUse">
<stop stop-color="#F9C96C"/>
<stop offset="0.57" stop-color="#F1C748"/>
</linearGradient>
<linearGradient id="paint15_linear_1574_456" x1="249.209" y1="174.27" x2="236.261" y2="178.613" gradientUnits="userSpaceOnUse">
<stop stop-color="#E4D59F"/>
<stop offset="0.51632" stop-color="#FFC700"/>
<stop offset="1" stop-color="#D49742"/>
</linearGradient>
<linearGradient id="paint16_linear_1574_456" x1="233.573" y1="162.994" x2="239.084" y2="174.028" gradientUnits="userSpaceOnUse">
<stop stop-color="#CF924A"/>
<stop offset="0.72" stop-color="#FFC700"/>
<stop offset="1" stop-color="#F1DC91"/>
</linearGradient>
<linearGradient id="paint17_linear_1574_456" x1="234.583" y1="164.342" x2="237.898" y2="172.263" gradientUnits="userSpaceOnUse">
<stop stop-color="#CF924A"/>
<stop offset="0.72" stop-color="#FFC700"/>
<stop offset="1" stop-color="#F1DC91"/>
</linearGradient>
<linearGradient id="paint18_linear_1574_456" x1="235.906" y1="169.443" x2="222.958" y2="173.786" gradientUnits="userSpaceOnUse">
<stop stop-color="#E4D59F"/>
<stop offset="0.51632" stop-color="#FFC700"/>
<stop offset="1" stop-color="#D49742"/>
</linearGradient>
<linearGradient id="paint19_linear_1574_456" x1="220.269" y1="158.167" x2="225.78" y2="169.202" gradientUnits="userSpaceOnUse">
<stop stop-color="#CF924A"/>
<stop offset="0.72" stop-color="#FFC700"/>
<stop offset="1" stop-color="#F1DC91"/>
</linearGradient>
<linearGradient id="paint20_linear_1574_456" x1="221.279" y1="159.515" x2="224.594" y2="167.436" gradientUnits="userSpaceOnUse">
<stop stop-color="#CF924A"/>
<stop offset="0.72" stop-color="#FFC700"/>
<stop offset="1" stop-color="#F1DC91"/>
</linearGradient>
<linearGradient id="paint21_linear_1574_456" x1="185.487" y1="197.363" x2="172.562" y2="192.951" gradientUnits="userSpaceOnUse">
<stop stop-color="#E4D59F"/>
<stop offset="0.51632" stop-color="#FFC700"/>
<stop offset="1" stop-color="#D49742"/>
</linearGradient>
<linearGradient id="paint22_linear_1574_456" x1="175.512" y1="181.15" x2="181.023" y2="192.185" gradientUnits="userSpaceOnUse">
<stop stop-color="#CF924A"/>
<stop offset="0.72" stop-color="#FFC700"/>
<stop offset="1" stop-color="#F1DC91"/>
</linearGradient>
<linearGradient id="paint23_linear_1574_456" x1="176.776" y1="182.544" x2="180.091" y2="190.465" gradientUnits="userSpaceOnUse">
<stop stop-color="#CF924A"/>
<stop offset="0.72" stop-color="#FFC700"/>
<stop offset="1" stop-color="#F1DC91"/>
</linearGradient>
<linearGradient id="paint24_linear_1574_456" x1="208.354" y1="179.932" x2="221.279" y2="175.521" gradientUnits="userSpaceOnUse">
<stop stop-color="#E4D59F"/>
<stop offset="0.51632" stop-color="#FFC700"/>
<stop offset="1" stop-color="#D49742"/>
</linearGradient>
<linearGradient id="paint25_linear_1574_456" x1="6.09389" y1="0.280282" x2="11.6051" y2="11.315" gradientUnits="userSpaceOnUse">
<stop stop-color="#CF924A"/>
<stop offset="0.72" stop-color="#FFC700"/>
<stop offset="1" stop-color="#F1DC91"/>
</linearGradient>
<linearGradient id="paint26_linear_1574_456" x1="4.91041" y1="0.189224" x2="8.225" y2="8.11029" gradientUnits="userSpaceOnUse">
<stop stop-color="#CF924A"/>
<stop offset="0.72" stop-color="#FFC700"/>
<stop offset="1" stop-color="#F1DC91"/>
</linearGradient>
<linearGradient id="paint27_linear_1574_456" x1="308.017" y1="194.286" x2="320.942" y2="189.875" gradientUnits="userSpaceOnUse">
<stop stop-color="#E4D59F"/>
<stop offset="0.51632" stop-color="#FFC700"/>
<stop offset="1" stop-color="#D49742"/>
</linearGradient>
<linearGradient id="paint28_linear_1574_456" x1="6.09389" y1="0.280282" x2="11.6051" y2="11.315" gradientUnits="userSpaceOnUse">
<stop stop-color="#CF924A"/>
<stop offset="0.72" stop-color="#FFC700"/>
<stop offset="1" stop-color="#F1DC91"/>
</linearGradient>
<linearGradient id="paint29_linear_1574_456" x1="4.91041" y1="0.189224" x2="8.225" y2="8.11029" gradientUnits="userSpaceOnUse">
<stop stop-color="#CF924A"/>
<stop offset="0.72" stop-color="#FFC700"/>
<stop offset="1" stop-color="#F1DC91"/>
</linearGradient>
<linearGradient id="paint30_linear_1574_456" x1="271.306" y1="186.696" x2="284.231" y2="182.285" gradientUnits="userSpaceOnUse">
<stop stop-color="#E4D59F"/>
<stop offset="0.51632" stop-color="#FFC700"/>
<stop offset="1" stop-color="#D49742"/>
</linearGradient>
<linearGradient id="paint31_linear_1574_456" x1="6.09389" y1="0.280282" x2="11.6051" y2="11.315" gradientUnits="userSpaceOnUse">
<stop stop-color="#CF924A"/>
<stop offset="0.72" stop-color="#FFC700"/>
<stop offset="1" stop-color="#F1DC91"/>
</linearGradient>
<linearGradient id="paint32_linear_1574_456" x1="4.91041" y1="0.189224" x2="8.225" y2="8.11029" gradientUnits="userSpaceOnUse">
<stop stop-color="#CF924A"/>
<stop offset="0.72" stop-color="#FFC700"/>
<stop offset="1" stop-color="#F1DC91"/>
</linearGradient>
<linearGradient id="paint33_linear_1574_456" x1="270.797" y1="193.947" x2="282.969" y2="200.139" gradientUnits="userSpaceOnUse">
<stop stop-color="#E4D59F"/>
<stop offset="0.51632" stop-color="#FFC700"/>
<stop offset="1" stop-color="#D49742"/>
</linearGradient>
<linearGradient id="paint34_linear_1574_456" x1="6.09389" y1="0.280282" x2="11.6051" y2="11.315" gradientUnits="userSpaceOnUse">
<stop stop-color="#CF924A"/>
<stop offset="0.72" stop-color="#FFC700"/>
<stop offset="1" stop-color="#F1DC91"/>
</linearGradient>
<linearGradient id="paint35_linear_1574_456" x1="4.91041" y1="0.189224" x2="8.225" y2="8.11029" gradientUnits="userSpaceOnUse">
<stop stop-color="#CF924A"/>
<stop offset="0.72" stop-color="#FFC700"/>
<stop offset="1" stop-color="#F1DC91"/>
</linearGradient>
<linearGradient id="paint36_linear_1574_456" x1="155.844" y1="194.9" x2="168.769" y2="190.489" gradientUnits="userSpaceOnUse">
<stop stop-color="#E4D59F"/>
<stop offset="0.51632" stop-color="#FFC700"/>
<stop offset="1" stop-color="#D49742"/>
</linearGradient>
<linearGradient id="paint37_linear_1574_456" x1="6.09389" y1="0.280282" x2="11.6051" y2="11.315" gradientUnits="userSpaceOnUse">
<stop stop-color="#CF924A"/>
<stop offset="0.72" stop-color="#FFC700"/>
<stop offset="1" stop-color="#F1DC91"/>
</linearGradient>
<linearGradient id="paint38_linear_1574_456" x1="4.91041" y1="0.189224" x2="8.225" y2="8.11029" gradientUnits="userSpaceOnUse">
<stop stop-color="#CF924A"/>
<stop offset="0.72" stop-color="#FFC700"/>
<stop offset="1" stop-color="#F1DC91"/>
</linearGradient>
<linearGradient id="paint39_linear_1574_456" x1="266.886" y1="-150.089" x2="142.946" y2="-87.4944" gradientUnits="userSpaceOnUse">
<stop stop-color="#CF8924"/>
<stop offset="0.565" stop-color="#F4AA08"/>
<stop offset="1" stop-color="#F1DC90"/>
</linearGradient>
<linearGradient id="paint40_linear_1574_456" x1="228.449" y1="-94.8793" x2="228.449" y2="81.8029" gradientUnits="userSpaceOnUse">
<stop stop-color="#EDD8A8"/>
<stop offset="0.45" stop-color="#D2BA87"/>
<stop offset="0.4501" stop-color="#D2BA87" stop-opacity="0"/>
</linearGradient>
<linearGradient id="paint41_linear_1574_456" x1="203.852" y1="151.381" x2="245.282" y2="290.691" gradientUnits="userSpaceOnUse">
<stop stop-color="#F1DC90"/>
<stop offset="1" stop-color="#E29A15"/>
</linearGradient>
<linearGradient id="paint42_linear_1574_456" x1="228.04" y1="208.127" x2="228.04" y2="274.59" gradientUnits="userSpaceOnUse">
<stop offset="0.271569" stop-color="#805C3A" stop-opacity="0"/>
<stop offset="0.295" stop-color="#4B2A15"/>
</linearGradient>
<linearGradient id="paint43_linear_1574_456" x1="228.04" y1="244.548" x2="228.04" y2="274.59" gradientUnits="userSpaceOnUse">
<stop offset="0.0199" stop-opacity="0"/>
<stop offset="0.02"/>
<stop offset="0.3499"/>
<stop offset="0.35" stop-opacity="0"/>
</linearGradient>
<linearGradient id="paint44_linear_1574_456" x1="242.65" y1="228.015" x2="219.725" y2="205.09" gradientUnits="userSpaceOnUse">
<stop stop-color="#F5C259"/>
<stop offset="0.68437" stop-color="#FFECC4"/>
<stop offset="1" stop-color="#F5C259" stop-opacity="0"/>
</linearGradient>
<clipPath id="clip0_1574_456">
<rect width="560" height="283" fill="white"/>
</clipPath>
</defs>
</svg>
