<svg preserveAspectRatio="xMidYMid slice" viewBox="0 0 1920 1080" fill="none" xmlns="http://www.w3.org/2000/svg">
<g clip-path="url(#clip0_1246_862)">
<path d="M1804.19 401.684C2232.3 401.684 2668.46 584.459 2981.71 692.311C3196.21 731.181 3420.91 769.464 3300.81 769.464C3222.37 769.464 3112.8 737.449 2981.71 692.311C2826.63 664.211 2676.88 635.803 2666.57 621.329L2729.89 1621.86C2292.96 1565.86 -759.547 1562.09 -769.885 1562.09C-780.224 1562.09 -816.388 948.961 -816.388 715.723C-816.389 637.233 633.544 715.723 1012.65 618.635C1391.75 521.548 1525.93 401.684 1804.19 401.684Z" fill="url(#paint0_linear_1246_862)"/>
<path d="M1804.19 401.684C2232.3 401.684 2668.46 584.459 2981.71 692.311C3196.21 731.181 3420.91 769.464 3300.81 769.464C3222.37 769.464 3112.8 737.449 2981.71 692.311C2826.63 664.211 2676.88 635.803 2666.57 621.329L2729.89 1621.86C2292.96 1565.86 -759.547 1562.09 -769.885 1562.09C-780.224 1562.09 -816.388 948.961 -816.388 715.723C-816.389 637.233 633.544 715.723 1012.65 618.635C1391.75 521.548 1525.93 401.684 1804.19 401.684Z" fill="url(#paint1_linear_1246_862)" fill-opacity="0.5"/>
<path d="M-816.388 715.723C-816.388 948.961 -780.224 1562.09 -769.885 1562.09C-759.547 1562.09 2292.96 1565.86 2729.89 1621.86L2666.4 618.635C2644.86 649.406 3513.49 769.464 3300.81 769.464C3034.96 769.464 2411.47 401.684 1804.19 401.684C1525.93 401.684 1391.75 521.548 1012.65 618.635C633.544 715.723 -816.389 637.233 -816.388 715.723Z" stroke="white" stroke-width="0.990532"/>
<path d="M1945.31 401.684C2187.17 401.684 2232.32 571.044 2232.32 715.048C2232.32 948.286 1973.69 1505.37 1963.35 1505.37C1953.01 1505.37 1076.55 1617.37 639.618 1673.38L714.039 1098.36C735.578 1129.13 1160.44 758.978 1462.09 758.978C1727.94 758.978 1631.95 401.684 1945.31 401.684Z" fill="url(#paint2_linear_1246_862)"/>
<path d="M1442.88 673.709C1611.33 782.094 1697.54 883.298 1976.99 1041.31L1442.88 1939.61L-876.782 751.886C-427.578 556.581 379.571 586.239 501.442 642.487C653.781 712.797 850.42 523.252 1019.23 617.712C1097.27 661.379 1274.42 565.324 1442.88 673.709Z" fill="url(#paint3_linear_1246_862)" stroke="white" stroke-width="0.897107"/>
<path d="M1191.22 852.508C1288.81 915.303 2035.25 846.718 1853.86 1215.29L1171.52 1857.26L-529.237 794.892C393.632 903.229 463.731 617.462 585.602 673.711C737.94 744.021 885.525 579.251 1054.34 673.711C1132.37 717.377 1022.76 744.124 1191.22 852.508Z" fill="url(#paint4_radial_1246_862)" stroke="white" stroke-width="0.897107"/>
<path d="M1315.19 915.866C1406.57 987.404 1661.36 782.172 1787.22 1170.87L1253.11 2069.18L-950.708 822.338C-191.272 890.647 366.063 616.285 487.933 672.533C673.098 757.993 803.297 647.72 986.289 710.439C1076.54 741.371 1162.44 796.285 1315.19 915.866Z" fill="url(#paint5_radial_1246_862)" stroke="white" stroke-width="0.897107"/>
<path d="M1594.22 999.293C1678.59 1078.98 1847.58 1096.38 1943.28 1112.01L1421.82 1961.59L-664.049 1293.64C-214.845 1098.33 673.172 675.348 795.043 731.596C947.382 801.906 1131.88 691 1304.63 778.032C1497.59 875.239 1488.75 899.687 1594.22 999.293Z" fill="url(#paint6_radial_1246_862)" stroke="white" stroke-width="0.897107"/>
<path d="M1611.6 962.333C1695.97 1042.02 1847.58 1096.38 1943.28 1112.01L1421.82 1961.59L-661.398 934.847C21.6914 987.083 673.172 675.348 795.043 731.596C947.382 801.907 1159.67 677.457 1332.42 764.49C1525.37 861.696 1506.13 862.727 1611.6 962.333Z" fill="url(#paint7_radial_1246_862)" stroke="white" stroke-width="0.897107"/>
<path d="M1093.6 1046.51C1177.97 1126.2 1346.97 1143.6 1442.67 1159.22L921.2 2008.8L-1164.67 1340.86C-715.463 1145.55 172.554 722.565 294.425 778.813C446.763 849.123 631.259 738.217 804.016 825.249C996.967 922.456 988.134 946.904 1093.6 1046.51Z" fill="url(#paint8_linear_1246_862)" stroke="white" stroke-width="0.897107"/>
<path d="M1120.08 1034.87C1204.45 1114.56 1346.97 1143.6 1442.67 1159.22L921.2 2008.8L-1140.5 915.687C-691.295 720.382 172.554 722.566 294.425 778.814C446.763 849.124 758.708 730.946 889.294 778.814C1092.15 853.174 1014.61 935.265 1120.08 1034.87Z" fill="url(#paint9_linear_1246_862)" stroke="white" stroke-width="0.897107"/>
</g>
<defs>
<linearGradient id="paint0_linear_1246_862" x1="2446.95" y1="692.781" x2="1237.12" y2="1353.44" gradientUnits="userSpaceOnUse">
<stop stop-color="#FFF847"/>
<stop offset="0.390625" stop-color="#FAD896" stop-opacity="0.79"/>
<stop offset="1" stop-color="#FFFA81" stop-opacity="0"/>
</linearGradient>
<linearGradient id="paint1_linear_1246_862" x1="1472.82" y1="1647.2" x2="1867.99" y2="577.344" gradientUnits="userSpaceOnUse">
<stop stop-color="#FF0000"/>
<stop offset="1" stop-color="#FF00B8" stop-opacity="0"/>
</linearGradient>
<linearGradient id="paint2_linear_1246_862" x1="872.133" y1="1049.85" x2="1623.63" y2="1652.7" gradientUnits="userSpaceOnUse">
<stop stop-color="#FCDBE9"/>
<stop offset="1" stop-color="#EA3055" stop-opacity="0"/>
</linearGradient>
<linearGradient id="paint3_linear_1246_862" x1="-560.537" y1="1180.05" x2="269.902" y2="2113.38" gradientUnits="userSpaceOnUse">
<stop offset="0.0001" stop-color="#9BDFAE" stop-opacity="0.25"/>
<stop offset="0.25" stop-color="#C1E8D5" stop-opacity="0.71"/>
<stop offset="1" stop-color="#304EEA" stop-opacity="0"/>
</linearGradient>
<radialGradient id="paint4_radial_1246_862" cx="0" cy="0" r="1" gradientUnits="userSpaceOnUse" gradientTransform="translate(822.45 960.19) rotate(-64.7989) scale(653.088 749.126)">
<stop stop-color="#9475EB" stop-opacity="0.63"/>
<stop offset="0.286458" stop-color="#4C98F0" stop-opacity="0.596461"/>
<stop offset="0.768687" stop-color="#C7EBE6" stop-opacity="0.54"/>
<stop offset="1" stop-color="#ABC8F4" stop-opacity="0"/>
</radialGradient>
<radialGradient id="paint5_radial_1246_862" cx="0" cy="0" r="1" gradientUnits="userSpaceOnUse" gradientTransform="translate(822.45 960.192) rotate(-64.7989) scale(653.088 749.126)">
<stop stop-color="#9475EB" stop-opacity="0.63"/>
<stop offset="0.286458" stop-color="#4C98F0" stop-opacity="0.596461"/>
<stop offset="0.768687" stop-color="#C7EBE6" stop-opacity="0.54"/>
<stop offset="1" stop-color="#ABC8F4" stop-opacity="0"/>
</radialGradient>
<radialGradient id="paint6_radial_1246_862" cx="0" cy="0" r="1" gradientUnits="userSpaceOnUse" gradientTransform="translate(538.346 1147.57) rotate(9.48585) scale(1027.54 1064.48)">
<stop stop-color="#5E69CD" stop-opacity="0"/>
<stop offset="0.5" stop-color="#4D93BA" stop-opacity="0.42"/>
<stop offset="1" stop-color="#A0E6A7" stop-opacity="0.22"/>
</radialGradient>
<radialGradient id="paint7_radial_1246_862" cx="0" cy="0" r="1" gradientUnits="userSpaceOnUse" gradientTransform="translate(538.346 1147.57) rotate(9.48584) scale(1027.54 1064.48)">
<stop stop-color="#5E69CD" stop-opacity="0"/>
<stop offset="0.5" stop-color="#4D93BA" stop-opacity="0.42"/>
<stop offset="1" stop-color="#A0E6A7" stop-opacity="0.22"/>
</radialGradient>
<linearGradient id="paint8_linear_1246_862" x1="-308.688" y1="947.216" x2="-74.8832" y2="2070.25" gradientUnits="userSpaceOnUse">
<stop offset="0.0001" stop-color="#82C8C4" stop-opacity="0.6"/>
<stop offset="1" stop-color="#5056E4" stop-opacity="0.61"/>
</linearGradient>
<linearGradient id="paint9_linear_1246_862" x1="-308.687" y1="947.216" x2="-74.8828" y2="2070.25" gradientUnits="userSpaceOnUse">
<stop offset="0.0001" stop-color="#82C8C4" stop-opacity="0.6"/>
<stop offset="1" stop-color="#5056E4" stop-opacity="0.61"/>
</linearGradient>
<clipPath id="clip0_1246_862">
<rect width="1920" height="1080" fill="white" transform="matrix(-1 0 0 1 1920 0)"/>
</clipPath>
</defs>
</svg>
