<svg width="466" height="60" viewBox="0 0 466 60" fill="none" xmlns="http://www.w3.org/2000/svg">
<g filter="url(#filter0_d_2001_7993)">
<path d="M19.784 51V12.792H6.728V6.2H41.096V12.792H27.976V51H19.784ZM46.9725 51V4.92H55.1645V24.12C56.2312 22.3707 57.6605 21.0053 59.4525 20.024C61.2872 19 63.3778 18.488 65.7245 18.488C69.6498 18.488 72.6792 19.7253 74.8125 22.2C76.9885 24.6747 78.0765 28.3013 78.0765 33.08V51H69.9485V33.848C69.9485 31.1173 69.3938 29.0267 68.2845 27.576C67.2178 26.1253 65.5112 25.4 63.1645 25.4C60.8605 25.4 58.9405 26.2107 57.4045 27.832C55.9112 29.4533 55.1645 31.7147 55.1645 34.616V51H46.9725ZM101.334 51.768C98.134 51.768 95.2967 51.0853 92.822 49.72C90.3473 48.3547 88.406 46.4347 86.998 43.96C85.59 41.4853 84.886 38.6267 84.886 35.384C84.886 32.0987 85.5687 29.176 86.934 26.616C88.342 24.056 90.262 22.072 92.694 20.664C95.1687 19.2133 98.07 18.488 101.398 18.488C104.513 18.488 107.265 19.1707 109.654 20.536C112.043 21.9013 113.899 23.7787 115.222 26.168C116.587 28.5147 117.27 31.1387 117.27 34.04C117.27 34.5093 117.249 35 117.206 35.512C117.206 36.024 117.185 36.5573 117.142 37.112H93.014C93.1847 39.5867 94.038 41.528 95.574 42.936C97.1527 44.344 99.0513 45.048 101.27 45.048C102.934 45.048 104.321 44.6853 105.43 43.96C106.582 43.192 107.435 42.2107 107.99 41.016H116.31C115.713 43.0213 114.71 44.856 113.302 46.52C111.937 48.1413 110.23 49.4213 108.182 50.36C106.177 51.2987 103.894 51.768 101.334 51.768ZM101.398 25.144C99.3927 25.144 97.622 25.72 96.086 26.872C94.55 27.9813 93.5687 29.688 93.142 31.992H108.95C108.822 29.9013 108.054 28.2373 106.646 27C105.238 25.7627 103.489 25.144 101.398 25.144ZM136.722 51L153.106 6.2H162.322L178.706 51H170.002L166.418 40.632H148.946L145.298 51H136.722ZM151.186 34.232H164.178L157.65 15.608L151.186 34.232ZM202.203 51.768C197.68 51.768 193.797 50.808 190.555 48.888C187.312 46.9253 184.816 44.216 183.067 40.76C181.317 37.2613 180.443 33.2293 180.443 28.664C180.443 24.0987 181.317 20.0667 183.067 16.568C184.816 13.0693 187.312 10.3387 190.555 8.376C193.797 6.41333 197.68 5.432 202.203 5.432C207.579 5.432 211.973 6.776 215.387 9.464C218.843 12.1093 220.997 15.8427 221.851 20.664H212.826C212.272 18.232 211.077 16.3333 209.243 14.968C207.451 13.56 205.061 12.856 202.075 12.856C197.936 12.856 194.693 14.264 192.347 17.08C190 19.896 188.827 23.7573 188.827 28.664C188.827 33.5707 190 37.432 192.347 40.248C194.693 43.0213 197.936 44.408 202.075 44.408C205.061 44.408 207.451 43.768 209.243 42.488C211.077 41.1653 212.272 39.352 212.826 37.048H221.851C220.997 41.656 218.843 45.2613 215.387 47.864C211.973 50.4667 207.579 51.768 202.203 51.768ZM229.102 51V6.2H238.83L253.102 34.616L267.182 6.2H276.91V51H268.718V20.088L256.238 44.6H249.774L237.294 20.088V51H229.102ZM316.148 51.768C312.863 51.768 309.961 51.2133 307.444 50.104C304.927 48.952 302.943 47.3307 301.492 45.24C300.041 43.1067 299.295 40.5253 299.252 37.496H307.892C307.977 39.5867 308.724 41.3573 310.132 42.808C311.583 44.216 313.567 44.92 316.084 44.92C318.26 44.92 319.988 44.408 321.268 43.384C322.548 42.3173 323.188 40.9093 323.188 39.16C323.188 37.3253 322.612 35.896 321.46 34.872C320.351 33.848 318.857 33.016 316.98 32.376C315.103 31.736 313.097 31.0533 310.964 30.328C307.508 29.1333 304.863 27.5973 303.028 25.72C301.236 23.8427 300.34 21.3467 300.34 18.232C300.297 15.5867 300.916 13.3253 302.196 11.448C303.519 9.528 305.311 8.056 307.572 7.032C309.833 5.96533 312.436 5.432 315.38 5.432C318.367 5.432 320.991 5.96533 323.252 7.032C325.556 8.09866 327.348 9.592 328.628 11.512C329.951 13.432 330.655 15.7147 330.74 18.36H321.972C321.929 16.7813 321.311 15.3947 320.116 14.2C318.964 12.9627 317.343 12.344 315.252 12.344C313.46 12.3013 311.945 12.7493 310.708 13.688C309.513 14.584 308.916 15.9067 308.916 17.656C308.916 19.1493 309.385 20.344 310.324 21.24C311.263 22.0933 312.543 22.8187 314.164 23.416C315.785 24.0133 317.641 24.6533 319.732 25.336C321.951 26.104 323.977 27 325.812 28.024C327.647 29.048 329.119 30.4133 330.228 32.12C331.337 33.784 331.892 35.9387 331.892 38.584C331.892 40.9307 331.295 43.1067 330.1 45.112C328.905 47.1173 327.135 48.7387 324.788 49.976C322.441 51.1707 319.561 51.768 316.148 51.768ZM352.992 51C349.664 51 346.997 50.1893 344.992 48.568C342.986 46.9467 341.984 44.0667 341.984 39.928V26.104H336.544V19.256H341.984L342.944 10.744H350.176V19.256H358.752V26.104H350.176V39.992C350.176 41.528 350.496 42.5947 351.135 43.192C351.818 43.7467 352.97 44.024 354.592 44.024H358.56V51H352.992ZM380.205 51.768C377.133 51.768 374.359 51.064 371.885 49.656C369.453 48.248 367.511 46.3067 366.061 43.832C364.653 41.3147 363.949 38.4133 363.949 35.128C363.949 31.8427 364.674 28.9627 366.125 26.488C367.575 23.9707 369.517 22.008 371.949 20.6C374.423 19.192 377.197 18.488 380.269 18.488C383.298 18.488 386.029 19.192 388.461 20.6C390.935 22.008 392.877 23.9707 394.285 26.488C395.735 28.9627 396.461 31.8427 396.461 35.128C396.461 38.4133 395.735 41.3147 394.285 43.832C392.877 46.3067 390.935 48.248 388.461 49.656C385.986 51.064 383.234 51.768 380.205 51.768ZM380.205 44.664C382.338 44.664 384.194 43.8747 385.773 42.296C387.351 40.6747 388.141 38.2853 388.141 35.128C388.141 31.9707 387.351 29.6027 385.773 28.024C384.194 26.4027 382.359 25.592 380.269 25.592C378.093 25.592 376.215 26.4027 374.637 28.024C373.101 29.6027 372.333 31.9707 372.333 35.128C372.333 38.2853 373.101 40.6747 374.637 42.296C376.215 43.8747 378.071 44.664 380.205 44.664ZM403.785 51V19.256H411.081L411.849 25.208C413.001 23.16 414.558 21.5387 416.521 20.344C418.526 19.1067 420.873 18.488 423.561 18.488V27.128H421.257C419.465 27.128 417.865 27.4053 416.457 27.96C415.049 28.5147 413.94 29.4747 413.129 30.84C412.361 32.2053 411.977 34.104 411.977 36.536V51H403.785ZM444.022 51.768C440.822 51.768 437.984 51.0853 435.51 49.72C433.035 48.3547 431.094 46.4347 429.686 43.96C428.278 41.4853 427.574 38.6267 427.574 35.384C427.574 32.0987 428.256 29.176 429.622 26.616C431.03 24.056 432.95 22.072 435.382 20.664C437.856 19.2133 440.758 18.488 444.086 18.488C447.2 18.488 449.952 19.1707 452.342 20.536C454.731 21.9013 456.587 23.7787 457.91 26.168C459.275 28.5147 459.958 31.1387 459.958 34.04C459.958 34.5093 459.936 35 459.894 35.512C459.894 36.024 459.872 36.5573 459.83 37.112H435.702C435.872 39.5867 436.726 41.528 438.262 42.936C439.84 44.344 441.739 45.048 443.958 45.048C445.622 45.048 447.008 44.6853 448.118 43.96C449.27 43.192 450.123 42.2107 450.678 41.016H458.998C458.4 43.0213 457.398 44.856 455.99 46.52C454.624 48.1413 452.918 49.4213 450.87 50.36C448.864 51.2987 446.582 51.768 444.022 51.768ZM444.086 25.144C442.08 25.144 440.31 25.72 438.774 26.872C437.238 27.9813 436.256 29.688 435.83 31.992H451.638C451.51 29.9013 450.742 28.2373 449.334 27C447.926 25.7627 446.176 25.144 444.086 25.144Z" fill="white"/>
<path d="M19.784 51H16.284V54.5H19.784V51ZM19.784 12.792H23.284V9.292H19.784V12.792ZM6.728 12.792H3.228V16.292H6.728V12.792ZM6.728 6.2V2.7H3.228V6.2H6.728ZM41.096 6.2H44.596V2.7H41.096V6.2ZM41.096 12.792V16.292H44.596V12.792H41.096ZM27.976 12.792V9.292H24.476V12.792H27.976ZM27.976 51V54.5H31.476V51H27.976ZM23.284 51V12.792H16.284V51H23.284ZM19.784 9.292H6.728V16.292H19.784V9.292ZM10.228 12.792V6.2H3.228V12.792H10.228ZM6.728 9.7H41.096V2.7H6.728V9.7ZM37.596 6.2V12.792H44.596V6.2H37.596ZM41.096 9.292H27.976V16.292H41.096V9.292ZM24.476 12.792V51H31.476V12.792H24.476ZM27.976 47.5H19.784V54.5H27.976V47.5ZM46.9725 51H43.4725V54.5H46.9725V51ZM46.9725 4.92V1.42H43.4725V4.92H46.9725ZM55.1645 4.92H58.6645V1.42H55.1645V4.92ZM55.1645 24.12H51.6645V36.5829L58.1528 25.9421L55.1645 24.12ZM59.4525 20.024L61.1336 23.0938L61.146 23.0871L61.1583 23.0802L59.4525 20.024ZM74.8125 22.2L72.1616 24.4853L72.1728 24.4983L72.1841 24.5112L74.8125 22.2ZM78.0765 51V54.5H81.5765V51H78.0765ZM69.9485 51H66.4485V54.5H69.9485V51ZM68.2845 27.576L65.4647 29.6494L65.4842 29.6759L65.5042 29.7021L68.2845 27.576ZM57.4045 27.832L54.8637 25.4249L54.8468 25.4427L54.8301 25.4608L57.4045 27.832ZM55.1645 51V54.5H58.6645V51H55.1645ZM50.4725 51V4.92H43.4725V51H50.4725ZM46.9725 8.42H55.1645V1.42H46.9725V8.42ZM51.6645 4.92V24.12H58.6645V4.92H51.6645ZM58.1528 25.9421C58.9014 24.7144 59.8806 23.78 61.1336 23.0938L57.7714 16.9542C55.4404 18.2307 53.5609 20.0269 52.1762 22.2979L58.1528 25.9421ZM61.1583 23.0802C62.4127 22.38 63.9038 21.988 65.7245 21.988V14.988C62.8519 14.988 60.1616 15.62 57.7467 16.9678L61.1583 23.0802ZM65.7245 21.988C68.8564 21.988 70.8271 22.9373 72.1616 24.4853L77.4634 19.9147C74.5313 16.5134 70.4433 14.988 65.7245 14.988V21.988ZM72.1841 24.5112C73.5916 26.1118 74.5765 28.7757 74.5765 33.08H81.5765C81.5765 27.827 80.3854 23.2375 77.4409 19.8888L72.1841 24.5112ZM74.5765 33.08V51H81.5765V33.08H74.5765ZM78.0765 47.5H69.9485V54.5H78.0765V47.5ZM73.4485 51V33.848H66.4485V51H73.4485ZM73.4485 33.848C73.4485 30.7119 72.8217 27.7474 71.0648 25.4499L65.5042 29.7021C65.966 30.3059 66.4485 31.5228 66.4485 33.848H73.4485ZM71.1043 25.5026C69.1857 22.8934 66.254 21.9 63.1645 21.9V28.9C64.7683 28.9 65.25 29.3573 65.4647 29.6494L71.1043 25.5026ZM63.1645 21.9C59.9337 21.9 57.0838 23.0814 54.8637 25.4249L59.9453 30.2391C60.7972 29.34 61.7873 28.9 63.1645 28.9V21.9ZM54.8301 25.4608C52.5733 27.9111 51.6645 31.1209 51.6645 34.616H58.6645C58.6645 32.3084 59.2491 30.9956 59.9789 30.2032L54.8301 25.4608ZM51.6645 34.616V51H58.6645V34.616H51.6645ZM55.1645 47.5H46.9725V54.5H55.1645V47.5ZM92.822 49.72L94.5128 46.6555L92.822 49.72ZM86.934 26.616L83.8672 24.9293L83.8564 24.949L83.8458 24.9689L86.934 26.616ZM92.694 20.664L94.4476 23.693L94.4558 23.6882L94.464 23.6834L92.694 20.664ZM109.654 20.536L107.918 23.5749H107.918L109.654 20.536ZM115.222 26.168L112.16 27.8631L112.178 27.8958L112.197 27.9281L115.222 26.168ZM117.206 35.512L113.718 35.2213L113.706 35.3664V35.512H117.206ZM117.142 37.112V40.612H120.383L120.632 37.3804L117.142 37.112ZM93.014 37.112V33.612H89.2643L89.5223 37.3528L93.014 37.112ZM95.574 42.936L93.209 45.516L93.2265 45.5322L93.2443 45.548L95.574 42.936ZM105.43 43.96L107.345 46.8894L107.358 46.8808L107.371 46.8722L105.43 43.96ZM107.99 41.016V37.516H105.756L104.815 39.5421L107.99 41.016ZM116.31 41.016L119.664 42.0152L121.005 37.516H116.31V41.016ZM113.302 46.52L110.63 44.2592L110.625 44.2655L113.302 46.52ZM108.182 50.36L106.724 47.1783L106.711 47.1841L106.698 47.1901L108.182 50.36ZM96.086 26.872L98.1352 29.7094L98.1608 29.6909L98.186 29.672L96.086 26.872ZM93.142 31.992L89.7005 31.3547L88.9343 35.492H93.142V31.992ZM108.95 31.992V35.492H112.671L112.443 31.7781L108.95 31.992ZM106.646 27L108.956 24.3709L108.956 24.3709L106.646 27ZM101.334 48.268C98.646 48.268 96.4044 47.6991 94.5128 46.6555L91.1312 52.7845C94.1889 54.4715 97.622 55.268 101.334 55.268V48.268ZM94.5128 46.6555C92.6072 45.6041 91.1316 44.1476 90.0401 42.2292L83.9559 45.6908C85.6804 48.7217 88.0875 51.1052 91.1312 52.7845L94.5128 46.6555ZM90.0401 42.2292C88.9719 40.3517 88.386 38.1054 88.386 35.384H81.386C81.386 39.1479 82.2081 42.6189 83.9559 45.6908L90.0401 42.2292ZM88.386 35.384C88.386 32.5962 88.9613 30.2523 90.0222 28.2631L83.8458 24.9689C82.176 28.0997 81.386 31.6011 81.386 35.384H88.386ZM90.0008 28.3027C91.1143 26.2782 92.5899 24.7685 94.4476 23.693L90.9404 17.635C87.9341 19.3755 85.5698 21.8338 83.8672 24.9293L90.0008 28.3027ZM94.464 23.6834C96.321 22.5948 98.5913 21.988 101.398 21.988V14.988C97.5487 14.988 94.0163 15.8318 90.924 17.6446L94.464 23.6834ZM101.398 21.988C103.985 21.988 106.124 22.5498 107.918 23.5749L111.39 17.4971C108.406 15.7915 105.04 14.988 101.398 14.988V21.988ZM107.918 23.5749C109.755 24.6247 111.15 26.0392 112.16 27.8631L118.284 24.4729C116.648 21.5182 114.332 19.178 111.39 17.4971L107.918 23.5749ZM112.197 27.9281C113.23 29.7035 113.77 31.713 113.77 34.04H120.77C120.77 30.5643 119.945 27.3258 118.247 24.4079L112.197 27.9281ZM113.77 34.04C113.77 34.4037 113.753 34.7971 113.718 35.2213L120.694 35.8027C120.744 35.2029 120.77 34.6149 120.77 34.04H113.77ZM113.706 35.512C113.706 35.9271 113.689 36.3706 113.652 36.8436L120.632 37.3804C120.681 36.744 120.706 36.1209 120.706 35.512H113.706ZM117.142 33.612H93.014V40.612H117.142V33.612ZM89.5223 37.3528C89.7422 40.5413 90.8884 43.3889 93.209 45.516L97.939 40.356C97.1876 39.6671 96.6271 38.6321 96.5057 36.8712L89.5223 37.3528ZM93.2443 45.548C95.4977 47.5578 98.238 48.548 101.27 48.548V41.548C99.8646 41.548 98.8076 41.1302 97.9036 40.324L93.2443 45.548ZM101.27 48.548C103.441 48.548 105.537 48.0718 107.345 46.8894L103.515 41.0306C103.104 41.2988 102.427 41.548 101.27 41.548V48.548ZM107.371 46.8722C109.03 45.7663 110.325 44.2987 111.165 42.4899L104.815 39.5421C104.546 40.1227 104.134 40.6177 103.489 41.0478L107.371 46.8722ZM107.99 44.516H116.31V37.516H107.99V44.516ZM112.956 40.0168C112.502 41.5397 111.739 42.9484 110.63 44.2592L115.974 48.7808C117.681 46.7636 118.923 44.503 119.664 42.0152L112.956 40.0168ZM110.625 44.2655C109.613 45.467 108.332 46.4411 106.724 47.1783L109.64 53.5417C112.128 52.4016 114.26 50.8157 115.979 48.7745L110.625 44.2655ZM106.698 47.1901C105.225 47.8799 103.461 48.268 101.334 48.268V55.268C104.327 55.268 107.129 54.7175 109.666 53.5299L106.698 47.1901ZM101.398 21.644C98.6714 21.644 96.156 22.4445 93.986 24.072L98.186 29.672C99.088 28.9955 100.114 28.644 101.398 28.644V21.644ZM94.0368 24.0346C91.6075 25.7891 90.2503 28.3861 89.7005 31.3547L96.5835 32.6293C96.8871 30.9899 97.4925 30.1736 98.1352 29.7094L94.0368 24.0346ZM93.142 35.492H108.95V28.492H93.142V35.492ZM112.443 31.7781C112.266 28.8766 111.15 26.2985 108.956 24.3709L104.336 29.6291C104.958 30.1762 105.378 30.9261 105.457 32.2059L112.443 31.7781ZM108.956 24.3709C106.835 22.5064 104.234 21.644 101.398 21.644V28.644C102.744 28.644 103.641 29.0189 104.336 29.6291L108.956 24.3709ZM136.722 51L133.435 49.7979L131.715 54.5H136.722V51ZM153.106 6.2V2.7H150.659L149.819 4.99787L153.106 6.2ZM162.322 6.2L165.609 4.99787L164.769 2.7H162.322V6.2ZM178.706 51V54.5H183.713L181.993 49.7979L178.706 51ZM170.002 51L166.694 52.1435L167.509 54.5H170.002V51ZM166.418 40.632L169.726 39.4885L168.911 37.132H166.418V40.632ZM148.946 40.632V37.132H146.467L145.644 39.4703L148.946 40.632ZM145.298 51V54.5H147.777L148.6 52.1617L145.298 51ZM151.186 34.232L147.88 33.0844L146.266 37.732H151.186V34.232ZM164.178 34.232V37.732H169.114L167.481 33.0743L164.178 34.232ZM157.65 15.608L160.953 14.4503L157.634 4.98062L154.343 14.4604L157.65 15.608ZM140.009 52.2021L156.393 7.40213L149.819 4.99787L133.435 49.7979L140.009 52.2021ZM153.106 9.7H162.322V2.7H153.106V9.7ZM159.035 7.40213L175.419 52.2021L181.993 49.7979L165.609 4.99787L159.035 7.40213ZM178.706 47.5H170.002V54.5H178.706V47.5ZM173.31 49.8565L169.726 39.4885L163.11 41.7755L166.694 52.1435L173.31 49.8565ZM166.418 37.132H148.946V44.132H166.418V37.132ZM145.644 39.4703L141.996 49.8383L148.6 52.1617L152.248 41.7937L145.644 39.4703ZM145.298 47.5H136.722V54.5H145.298V47.5ZM151.186 37.732H164.178V30.732H151.186V37.732ZM167.481 33.0743L160.953 14.4503L154.347 16.7657L160.875 35.3897L167.481 33.0743ZM154.343 14.4604L147.88 33.0844L154.493 35.3796L160.957 16.7556L154.343 14.4604ZM190.555 48.888L188.742 51.8823L188.757 51.891L188.771 51.8997L190.555 48.888ZM183.066 40.76L179.936 42.3252L179.94 42.333L179.944 42.3406L183.066 40.76ZM183.066 16.568L179.936 15.0027V15.0028L183.066 16.568ZM215.387 9.464L213.221 12.2137L213.24 12.2286L213.259 12.2433L215.387 9.464ZM221.85 20.664V24.164H226.024L225.297 20.054L221.85 20.664ZM212.827 20.664L209.414 21.4423L210.035 24.164H212.827V20.664ZM209.243 14.968L207.08 17.7201L207.116 17.7484L207.153 17.7758L209.243 14.968ZM192.346 17.08L189.658 14.8394V14.8394L192.346 17.08ZM192.346 40.248L189.658 42.4886L189.666 42.4988L189.675 42.5088L192.346 40.248ZM209.243 42.488L211.277 45.3361L211.283 45.3316L211.289 45.3271L209.243 42.488ZM212.827 37.048V33.548H210.069L209.424 36.2288L212.827 37.048ZM221.85 37.048L225.292 37.6853L226.058 33.548H221.85V37.048ZM215.387 47.864L213.281 45.0681L213.273 45.0744L213.264 45.0808L215.387 47.864ZM202.202 48.268C198.181 48.268 194.942 47.4181 192.338 45.8763L188.771 51.8997C192.653 54.1979 197.178 55.268 202.202 55.268V48.268ZM192.367 45.8937C189.697 44.2781 187.65 42.0643 186.189 39.1793L179.944 42.3406C181.982 46.3677 184.926 49.5726 188.742 51.8823L192.367 45.8937ZM186.197 39.1948C184.728 36.2571 183.943 32.7766 183.943 28.664H176.943C176.943 33.682 177.906 38.2655 179.936 42.3252L186.197 39.1948ZM183.943 28.664C183.943 24.5514 184.728 21.0709 186.197 18.1332L179.936 15.0028C177.906 19.0625 176.943 23.6459 176.943 28.664H183.943ZM186.197 18.1332C187.661 15.2059 189.708 12.9793 192.367 11.3702L188.742 5.38175C184.915 7.69807 181.971 10.9328 179.936 15.0027L186.197 18.1332ZM192.367 11.3702C194.965 9.79737 198.194 8.932 202.202 8.932V1.932C197.165 1.932 192.629 3.0293 188.742 5.38175L192.367 11.3702ZM202.202 8.932C206.984 8.932 210.56 10.118 213.221 12.2137L217.552 6.71427C213.386 3.43397 208.173 1.932 202.202 1.932V8.932ZM213.259 12.2433C215.931 14.2885 217.683 17.1992 218.404 21.274L225.297 20.054C224.311 14.4862 221.754 9.93019 217.514 6.68472L213.259 12.2433ZM221.85 17.164H212.827V24.164H221.85V17.164ZM216.239 19.8857C215.517 16.7206 213.898 14.0695 211.332 12.1602L207.153 17.7758C208.257 18.5972 209.027 19.7434 209.414 21.4423L216.239 19.8857ZM211.405 12.2159C208.828 10.1912 205.601 9.356 202.074 9.356V16.356C204.522 16.356 206.073 16.9288 207.08 17.7201L211.405 12.2159ZM202.074 9.356C197.048 9.356 192.76 11.1164 189.658 14.8394L195.035 19.3206C196.626 17.4116 198.824 16.356 202.074 16.356V9.356ZM189.658 14.8394C186.633 18.4695 185.327 23.2171 185.327 28.664H192.327C192.327 24.2975 193.367 21.3225 195.035 19.3206L189.658 14.8394ZM185.327 28.664C185.327 34.1109 186.633 38.8585 189.658 42.4886L195.035 38.0074C193.367 36.0055 192.327 33.0305 192.327 28.664H185.327ZM189.675 42.5088C192.783 46.1827 197.067 47.908 202.074 47.908V40.908C198.805 40.908 196.603 39.86 195.018 37.9872L189.675 42.5088ZM202.074 47.908C205.536 47.908 208.713 47.1675 211.277 45.3361L207.208 39.6399C206.188 40.3685 204.587 40.908 202.074 40.908V47.908ZM211.289 45.3271C213.837 43.4901 215.489 40.9426 216.229 37.8672L209.424 36.2288C209.055 37.7614 208.317 38.8406 207.196 39.6489L211.289 45.3271ZM212.827 40.548H221.85V33.548H212.827V40.548ZM218.409 36.4107C217.701 40.2354 215.976 43.0383 213.281 45.0681L217.492 50.6599C221.709 47.4843 224.294 43.0766 225.292 37.6853L218.409 36.4107ZM213.264 45.0808C210.601 47.1119 207.008 48.268 202.202 48.268V55.268C208.149 55.268 213.346 53.8215 217.509 50.6472L213.264 45.0808ZM229.102 51H225.602V54.5H229.102V51ZM229.102 6.2V2.7H225.602V6.2H229.102ZM238.83 6.2L241.958 4.62912L240.989 2.7H238.83V6.2ZM253.102 34.616L249.974 36.1869L253.123 42.4564L256.238 36.1699L253.102 34.616ZM267.182 6.2V2.7H265.01L264.046 4.64606L267.182 6.2ZM276.91 6.2H280.41V2.7H276.91V6.2ZM276.91 51V54.5H280.41V51H276.91ZM268.718 51H265.218V54.5H268.718V51ZM268.718 20.088H272.218L265.599 18.5L268.718 20.088ZM256.238 44.6V48.1H258.384L259.357 46.188L256.238 44.6ZM249.774 44.6L246.655 46.188L247.628 48.1H249.774V44.6ZM237.294 20.088L240.413 18.5L233.794 20.088H237.294ZM237.294 51V54.5H240.794V51H237.294ZM232.602 51V6.2H225.602V51H232.602ZM229.102 9.7H238.83V2.7H229.102V9.7ZM235.702 7.77088L249.974 36.1869L256.23 33.0451L241.958 4.62912L235.702 7.77088ZM256.238 36.1699L270.318 7.75393L264.046 4.64606L249.966 33.0621L256.238 36.1699ZM267.182 9.7H276.91V2.7H267.182V9.7ZM273.41 6.2V51H280.41V6.2H273.41ZM276.91 47.5H268.718V54.5H276.91V47.5ZM272.218 51V20.088H265.218V51H272.218ZM265.599 18.5L253.119 43.012L259.357 46.188L271.837 21.676L265.599 18.5ZM256.238 41.1H249.774V48.1H256.238V41.1ZM252.893 43.012L240.413 18.5L234.175 21.676L246.655 46.188L252.893 43.012ZM233.794 20.088V51H240.794V20.088H233.794ZM237.294 47.5H229.102V54.5H237.294V47.5ZM307.444 50.104L305.988 53.2866L306.01 53.2969L306.033 53.3068L307.444 50.104ZM301.492 45.24L298.598 47.2081L298.607 47.2217L298.616 47.2353L301.492 45.24ZM299.252 37.496V33.996H295.702L295.752 37.5453L299.252 37.496ZM307.892 37.496L311.389 37.3533L311.252 33.996H307.892V37.496ZM310.132 42.808L307.62 45.2457L307.657 45.2831L307.694 45.3195L310.132 42.808ZM321.268 43.384L323.454 46.117L323.482 46.0952L323.509 46.0728L321.268 43.384ZM321.46 34.872L319.086 37.4438L319.11 37.4661L319.135 37.4879L321.46 34.872ZM316.98 32.376L315.851 35.6888L316.98 32.376ZM310.964 30.328L309.821 33.6359L309.829 33.6388L309.837 33.6417L310.964 30.328ZM303.028 25.72L300.496 28.1367L300.51 28.1516L300.525 28.1663L303.028 25.72ZM300.34 18.232H303.84V18.2038L303.84 18.1756L300.34 18.232ZM302.196 11.448L299.314 9.46243L299.309 9.46936L299.304 9.47632L302.196 11.448ZM307.572 7.032L309.016 10.2203L309.041 10.2091L309.065 10.1975L307.572 7.032ZM323.252 7.032L321.759 10.1975L321.77 10.2029L321.782 10.2081L323.252 7.032ZM328.628 11.512L325.716 13.4534L325.731 13.4756L325.746 13.4976L328.628 11.512ZM330.74 18.36V21.86H334.355L334.238 18.2472L330.74 18.36ZM321.972 18.36L318.473 18.4546L318.565 21.86H321.972V18.36ZM320.116 14.2L317.554 16.585L317.597 16.6307L317.641 16.6749L320.116 14.2ZM315.252 12.344L315.169 15.843L315.21 15.844H315.252V12.344ZM310.708 13.688L312.808 16.488L312.816 16.4822L312.823 16.4764L310.708 13.688ZM310.324 21.24L307.907 23.7717L307.938 23.8011L307.97 23.8298L310.324 21.24ZM314.164 23.416L315.374 20.1318L314.164 23.416ZM319.732 25.336L320.877 22.0285L320.848 22.0185L320.818 22.0089L319.732 25.336ZM325.812 28.024L327.518 24.9678V24.9678L325.812 28.024ZM330.228 32.12L327.293 34.0275L327.305 34.0445L327.316 34.0615L330.228 32.12ZM330.1 45.112L333.107 46.9033L333.107 46.9033L330.1 45.112ZM324.788 49.976L326.376 53.0951L326.398 53.0837L326.42 53.072L324.788 49.976ZM316.148 48.268C313.256 48.268 310.85 47.7803 308.855 46.9012L306.033 53.3068C309.072 54.6464 312.469 55.268 316.148 55.268V48.268ZM308.9 46.9214C306.902 46.007 305.429 44.7746 304.368 43.2447L298.616 47.2353C300.456 49.8868 302.951 51.897 305.988 53.2866L308.9 46.9214ZM304.386 43.2719C303.384 41.7982 302.786 39.9129 302.752 37.4467L295.752 37.5453C295.803 41.1378 296.699 44.4152 298.598 47.2081L304.386 43.2719ZM299.252 40.996H307.892V33.996H299.252V40.996ZM304.395 37.6387C304.514 40.5565 305.59 43.1539 307.62 45.2457L312.644 40.3703C311.858 39.5608 311.441 38.6169 311.389 37.3533L304.395 37.6387ZM307.694 45.3195C309.949 47.5081 312.891 48.42 316.084 48.42V41.42C314.242 41.42 313.216 40.9239 312.57 40.2965L307.694 45.3195ZM316.084 48.42C318.794 48.42 321.377 47.7791 323.454 46.117L319.082 40.651C318.599 41.0369 317.726 41.42 316.084 41.42V48.42ZM323.509 46.0728C325.631 44.304 326.688 41.8886 326.688 39.16H319.688C319.688 39.9301 319.465 40.3307 319.027 40.6952L323.509 46.0728ZM326.688 39.16C326.688 36.5337 325.827 34.071 323.785 32.2561L319.135 37.4879C319.397 37.721 319.688 38.1169 319.688 39.16H326.688ZM323.834 32.3002C322.272 30.8586 320.31 29.8136 318.109 29.0632L315.851 35.6888C317.404 36.2184 318.429 36.8374 319.086 37.4438L323.834 32.3002ZM318.109 29.0632C316.231 28.4229 314.225 27.7399 312.091 27.0143L309.837 33.6417C311.97 34.3668 313.974 35.0491 315.851 35.6888L318.109 29.0632ZM312.107 27.0201C308.975 25.9373 306.866 24.64 305.531 23.2737L300.525 28.1663C302.859 30.5546 306.041 32.3293 309.821 33.6359L312.107 27.0201ZM305.56 23.3033C304.51 22.2035 303.84 20.638 303.84 18.232H296.84C296.84 22.0553 297.962 25.4818 300.496 28.1367L305.56 23.3033ZM303.84 18.1756C303.807 16.1304 304.279 14.6062 305.088 13.4197L299.304 9.47632C297.553 12.0445 296.788 15.043 296.84 18.2884L303.84 18.1756ZM305.078 13.4336C306.016 12.0721 307.295 10.9994 309.016 10.2203L306.128 3.84366C303.326 5.1126 301.021 6.98392 299.314 9.46243L305.078 13.4336ZM309.065 10.1975C310.784 9.38683 312.861 8.932 315.38 8.932V1.932C312.011 1.932 308.883 2.54383 306.079 3.86649L309.065 10.1975ZM315.38 8.932C317.95 8.932 320.047 9.38982 321.759 10.1975L324.745 3.86649C321.935 2.54085 318.784 1.932 315.38 1.932V8.932ZM321.782 10.2081C323.561 11.0319 324.829 12.1229 325.716 13.4534L331.54 9.57055C329.867 7.06108 327.551 5.16538 324.722 3.85586L321.782 10.2081ZM325.746 13.4976C326.638 14.7932 327.175 16.4047 327.242 18.4728L334.238 18.2472C334.134 15.0246 333.263 12.0708 331.51 9.52643L325.746 13.4976ZM330.74 14.86H321.972V21.86H330.74V14.86ZM325.471 18.2654C325.402 15.7252 324.37 13.5045 322.591 11.7251L317.641 16.6749C318.251 17.2849 318.457 17.8375 318.473 18.4546L325.471 18.2654ZM322.678 11.815C320.712 9.70425 318.068 8.844 315.252 8.844V15.844C316.618 15.844 317.216 16.2211 317.554 16.585L322.678 11.815ZM315.335 8.84499C312.879 8.78651 310.556 9.40991 308.593 10.8996L312.823 16.4764C313.334 16.0888 314.041 15.8162 315.169 15.843L315.335 8.84499ZM308.608 10.888C306.374 12.5636 305.416 15.0189 305.416 17.656H312.416C312.416 16.7944 312.653 16.6044 312.808 16.488L308.608 10.888ZM305.416 17.656C305.416 19.9483 306.171 22.1139 307.907 23.7717L312.741 18.7083C312.6 18.5741 312.416 18.3504 312.416 17.656H305.416ZM307.97 23.8298C309.339 25.0742 311.053 26 312.954 26.7002L315.374 20.1318C314.032 19.6373 313.187 19.1125 312.678 18.6502L307.97 23.8298ZM312.954 26.7002C314.626 27.316 316.524 27.9704 318.646 28.6631L320.818 22.0089C318.759 21.3363 316.945 20.7107 315.374 20.1318L312.954 26.7002ZM318.587 28.6434C320.634 29.352 322.47 30.1671 324.106 31.0802L327.518 24.9678C325.484 23.8329 323.267 22.856 320.877 22.0285L318.587 28.6434ZM324.106 31.0802C325.461 31.8361 326.504 32.8136 327.293 34.0275L333.163 30.2125C331.733 28.0131 329.833 26.2599 327.518 24.9678L324.106 31.0802ZM327.316 34.0615C327.936 34.9918 328.392 36.4105 328.392 38.584H335.392C335.392 35.4669 334.739 32.5762 333.14 30.1785L327.316 34.0615ZM328.392 38.584C328.392 40.3036 327.963 41.8602 327.093 43.3207L333.107 46.9033C334.626 44.3532 335.392 41.5577 335.392 38.584H328.392ZM327.093 43.3207C326.271 44.7006 325.012 45.901 323.156 46.88L326.42 53.072C329.257 51.5764 331.54 49.5341 333.107 46.9033L327.093 43.3207ZM323.2 46.8569C321.469 47.7382 319.167 48.268 316.148 48.268V55.268C319.955 55.268 323.414 54.6031 326.376 53.0951L323.2 46.8569ZM344.992 48.568L347.192 45.8463L344.992 48.568ZM341.983 26.104H345.483V22.604H341.983V26.104ZM336.543 26.104H333.043V29.604H336.543V26.104ZM336.543 19.256V15.756H333.043V19.256H336.543ZM341.983 19.256V22.756H345.111L345.461 19.6482L341.983 19.256ZM342.944 10.744V7.244H339.816L339.466 10.3517L342.944 10.744ZM350.176 10.744H353.676V7.244H350.176V10.744ZM350.176 19.256H346.676V22.756H350.176V19.256ZM358.751 19.256H362.251V15.756H358.751V19.256ZM358.751 26.104V29.604H362.251V26.104H358.751ZM350.176 26.104V22.604H346.676V26.104H350.176ZM351.135 43.192L348.747 45.7507L348.835 45.8327L348.928 45.9084L351.135 43.192ZM358.56 44.024H362.06V40.524H358.56V44.024ZM358.56 51V54.5H362.06V51H358.56ZM352.992 47.5C350.229 47.5 348.413 46.8334 347.192 45.8463L342.791 51.2897C345.581 53.5452 349.098 54.5 352.992 54.5V47.5ZM347.192 45.8463C346.4 45.2063 345.483 43.6456 345.483 39.928H338.483C338.483 44.4878 339.572 48.6871 342.791 51.2897L347.192 45.8463ZM345.483 39.928V26.104H338.483V39.928H345.483ZM341.983 22.604H336.543V29.604H341.983V22.604ZM340.043 26.104V19.256H333.043V26.104H340.043ZM336.543 22.756H341.983V15.756H336.543V22.756ZM345.461 19.6482L346.421 11.1362L339.466 10.3517L338.506 18.8637L345.461 19.6482ZM342.944 14.244H350.176V7.244H342.944V14.244ZM346.676 10.744V19.256H353.676V10.744H346.676ZM350.176 22.756H358.751V15.756H350.176V22.756ZM355.251 19.256V26.104H362.251V19.256H355.251ZM358.751 22.604H350.176V29.604H358.751V22.604ZM346.676 26.104V39.992H353.676V26.104H346.676ZM346.676 39.992C346.676 41.8146 347.018 44.1371 348.747 45.7507L353.524 40.6333C353.765 40.8582 353.797 41.0366 353.768 40.9383C353.735 40.8285 353.676 40.5385 353.676 39.992H346.676ZM348.928 45.9084C350.578 47.2486 352.762 47.524 354.591 47.524V40.524C353.963 40.524 353.561 40.4686 353.331 40.4132C353.095 40.3565 353.163 40.3297 353.343 40.4756L348.928 45.9084ZM354.591 47.524H358.56V40.524H354.591V47.524ZM355.06 44.024V51H362.06V44.024H355.06ZM358.56 47.5H352.992V54.5H358.56V47.5ZM371.884 49.656L370.131 52.685L370.142 52.6916L370.154 52.6981L371.884 49.656ZM366.06 43.832L363.006 45.5405L363.023 45.5715L363.041 45.602L366.06 43.832ZM366.125 26.488L369.144 28.258L369.151 28.2468L369.157 28.2355L366.125 26.488ZM371.948 20.6L370.218 17.5579L370.206 17.5644L370.195 17.571L371.948 20.6ZM388.461 20.6L386.707 23.629L386.718 23.6356L386.73 23.6421L388.461 20.6ZM394.284 26.488L391.23 28.1965L391.247 28.2275L391.265 28.258L394.284 26.488ZM394.284 43.832L391.252 42.0845L391.247 42.0928L391.242 42.1012L394.284 43.832ZM388.461 49.656L386.73 46.6139L388.461 49.656ZM385.772 42.296L388.247 44.7709L388.264 44.7544L388.28 44.7377L385.772 42.296ZM385.772 28.024L383.265 30.4657L383.281 30.4824L383.298 30.4989L385.772 28.024ZM374.637 28.024L372.129 25.5823L372.128 25.5833L374.637 28.024ZM374.637 42.296L372.096 44.7031L372.128 44.7374L372.162 44.7709L374.637 42.296ZM380.204 48.268C377.69 48.268 375.521 47.6983 373.615 46.6139L370.154 52.6981C373.197 54.4297 376.575 55.268 380.204 55.268V48.268ZM373.638 46.627C371.741 45.5287 370.231 44.026 369.08 42.062L363.041 45.602C364.791 48.5874 367.164 50.9673 370.131 52.685L373.638 46.627ZM369.115 42.1235C368.038 40.1972 367.448 37.8995 367.448 35.128H360.448C360.448 38.9272 361.267 42.4321 363.006 45.5405L369.115 42.1235ZM367.448 35.128C367.448 32.373 368.051 30.1218 369.144 28.258L363.105 24.718C361.296 27.8036 360.448 31.3124 360.448 35.128H367.448ZM369.157 28.2355C370.312 26.2313 371.82 24.7187 373.702 23.629L370.195 17.571C367.213 19.2973 364.838 21.71 363.092 24.7405L369.157 28.2355ZM373.679 23.6421C375.585 22.5577 377.754 21.988 380.268 21.988V14.988C376.639 14.988 373.261 15.8263 370.218 17.5579L373.679 23.6421ZM380.268 21.988C382.732 21.988 384.849 22.5535 386.707 23.629L390.214 17.571C387.208 15.8305 383.864 14.988 380.268 14.988V21.988ZM386.73 23.6421C388.642 24.7302 390.129 26.2284 391.23 28.1965L397.339 24.7795C395.624 21.7129 393.228 19.2858 390.191 17.5579L386.73 23.6421ZM391.265 28.258C392.358 30.1218 392.961 32.373 392.961 35.128H399.961C399.961 31.3124 399.113 27.8036 397.304 24.718L391.265 28.258ZM392.961 35.128C392.961 37.8816 392.358 40.1652 391.252 42.0845L397.317 45.5795C399.112 42.4641 399.961 38.945 399.961 35.128H392.961ZM391.242 42.1012C390.146 44.0288 388.657 45.5172 386.73 46.6139L390.191 52.6981C393.213 50.9788 395.607 48.5845 397.327 45.5628L391.242 42.1012ZM386.73 46.6139C384.816 47.7025 382.667 48.268 380.204 48.268V55.268C383.801 55.268 387.155 54.4255 390.191 52.6981L386.73 46.6139ZM380.204 48.164C383.313 48.164 386.046 46.9719 388.247 44.7709L383.298 39.8211C382.341 40.7774 381.363 41.164 380.204 41.164V48.164ZM388.28 44.7377C390.711 42.2412 391.641 38.8326 391.641 35.128H384.641C384.641 37.7381 383.991 39.1081 383.265 39.8543L388.28 44.7377ZM391.641 35.128C391.641 31.4312 390.714 28.0157 388.247 25.5491L383.298 30.4989C383.988 31.1897 384.641 32.5102 384.641 35.128H391.641ZM388.28 25.5823C386.103 23.3461 383.387 22.092 380.268 22.092V29.092C381.332 29.092 382.285 29.4592 383.265 30.4657L388.28 25.5823ZM380.268 22.092C377.107 22.092 374.337 23.3146 372.129 25.5823L377.144 30.4657C378.093 29.4907 379.078 29.092 380.268 29.092V22.092ZM372.128 25.5833C369.725 28.0527 368.832 31.4548 368.832 35.128H375.832C375.832 32.4865 376.476 31.1526 377.145 30.4647L372.128 25.5833ZM368.832 35.128C368.832 38.8093 369.729 42.2044 372.096 44.7031L377.177 39.8889C376.473 39.1449 375.832 37.7614 375.832 35.128H368.832ZM372.162 44.7709C374.363 46.9719 377.096 48.164 380.204 48.164V41.164C379.046 41.164 378.068 40.7774 377.111 39.8211L372.162 44.7709ZM403.785 51H400.285V54.5H403.785V51ZM403.785 19.256V15.756H400.285V19.256H403.785ZM411.081 19.256L414.552 18.8081L414.158 15.756H411.081V19.256ZM411.849 25.208L408.378 25.6559L409.728 36.1182L414.9 26.9239L411.849 25.208ZM416.521 20.344L418.341 23.3337L418.35 23.3282L418.359 23.3226L416.521 20.344ZM423.561 18.488H427.061V14.988H423.561V18.488ZM423.561 27.128V30.628H427.061V27.128H423.561ZM416.457 27.96L417.74 31.2164L416.457 27.96ZM413.129 30.84L410.12 29.0531L410.099 29.0884L410.078 29.1241L413.129 30.84ZM411.977 51V54.5H415.477V51H411.977ZM407.285 51V19.256H400.285V51H407.285ZM403.785 22.756H411.081V15.756H403.785V22.756ZM407.61 19.7039L408.378 25.6559L415.32 24.7601L414.552 18.8081L407.61 19.7039ZM414.9 26.9239C415.764 25.3866 416.903 24.209 418.341 23.3337L414.701 17.3543C412.214 18.8683 410.238 20.9334 408.798 23.4921L414.9 26.9239ZM418.359 23.3226C419.737 22.4721 421.429 21.988 423.561 21.988V14.988C420.317 14.988 417.315 15.7412 414.683 17.3654L418.359 23.3226ZM420.061 18.488V27.128H427.061V18.488H420.061ZM423.561 23.628H421.257V30.628H423.561V23.628ZM421.257 23.628C419.105 23.628 417.058 23.9613 415.174 24.7036L417.74 31.2164C418.672 30.8494 419.825 30.628 421.257 30.628V23.628ZM415.174 24.7036C413.006 25.5576 411.306 27.0552 410.12 29.0531L416.138 32.6269C416.574 31.8941 417.092 31.4717 417.74 31.2164L415.174 24.7036ZM410.078 29.1241C408.896 31.2256 408.477 33.8055 408.477 36.536H415.477C415.477 34.4025 415.826 33.1851 416.18 32.5559L410.078 29.1241ZM408.477 36.536V51H415.477V36.536H408.477ZM411.977 47.5H403.785V54.5H411.977V47.5ZM435.509 49.72L437.2 46.6555L435.509 49.72ZM429.621 26.616L426.555 24.9293L426.544 24.949L426.533 24.9689L429.621 26.616ZM435.382 20.664L437.135 23.693L437.143 23.6882L437.152 23.6834L435.382 20.664ZM452.341 20.536L450.605 23.5749L452.341 20.536ZM457.909 26.168L454.847 27.8631L454.865 27.8958L454.884 27.9281L457.909 26.168ZM459.893 35.512L456.406 35.2213L456.393 35.3664V35.512H459.893ZM459.829 37.112V40.612H463.071L463.319 37.3804L459.829 37.112ZM435.702 37.112V33.612H431.952L432.21 37.3528L435.702 37.112ZM438.262 42.936L435.896 45.516L435.914 45.5322L435.932 45.548L438.262 42.936ZM448.117 43.96L450.033 46.8894L450.046 46.8808L450.059 46.8722L448.117 43.96ZM450.677 41.016V37.516H448.444L447.503 39.5421L450.677 41.016ZM458.997 41.016L462.352 42.0152L463.692 37.516H458.997V41.016ZM455.99 46.52L453.318 44.2592L453.312 44.2655L455.99 46.52ZM450.87 50.36L449.411 47.1783L449.398 47.1841L449.386 47.1901L450.87 50.36ZM438.773 26.872L440.823 29.7094L440.848 29.6909L440.874 29.672L438.773 26.872ZM435.829 31.992L432.388 31.3547L431.622 35.492H435.829V31.992ZM451.638 31.992V35.492H455.358L455.131 31.7781L451.638 31.992ZM449.333 27L451.644 24.3709V24.3709L449.333 27ZM444.022 48.268C441.333 48.268 439.092 47.6991 437.2 46.6555L433.819 52.7845C436.876 54.4715 440.31 55.268 444.022 55.268V48.268ZM437.2 46.6555C435.295 45.6041 433.819 44.1476 432.728 42.2292L426.643 45.6908C428.368 48.7217 430.775 51.1052 433.819 52.7845L437.2 46.6555ZM432.728 42.2292C431.659 40.3517 431.073 38.1054 431.073 35.384H424.073C424.073 39.1479 424.896 42.6189 426.643 45.6908L432.728 42.2292ZM431.073 35.384C431.073 32.5962 431.649 30.2523 432.71 28.2631L426.533 24.9689C424.864 28.0997 424.073 31.6011 424.073 35.384H431.073ZM432.688 28.3027C433.802 26.2782 435.277 24.7685 437.135 23.693L433.628 17.635C430.622 19.3755 428.257 21.8338 426.555 24.9293L432.688 28.3027ZM437.152 23.6834C439.009 22.5948 441.279 21.988 444.086 21.988V14.988C440.236 14.988 436.704 15.8318 433.611 17.6446L437.152 23.6834ZM444.086 21.988C446.673 21.988 448.811 22.5498 450.605 23.5749L454.078 17.4971C451.093 15.7915 447.728 14.988 444.086 14.988V21.988ZM450.605 23.5749C452.442 24.6247 453.838 26.0392 454.847 27.8631L460.972 24.4729C459.336 21.5182 457.019 19.178 454.078 17.4971L450.605 23.5749ZM454.884 27.9281C455.917 29.7035 456.457 31.713 456.457 34.04H463.457C463.457 30.5643 462.632 27.3258 460.935 24.4079L454.884 27.9281ZM456.457 34.04C456.457 34.4037 456.441 34.7971 456.406 35.2213L463.381 35.8027C463.431 35.2029 463.457 34.6149 463.457 34.04H456.457ZM456.393 35.512C456.393 35.9271 456.376 36.3706 456.34 36.8436L463.319 37.3804C463.368 36.744 463.393 36.1209 463.393 35.512H456.393ZM459.829 33.612H435.702V40.612H459.829V33.612ZM432.21 37.3528C432.43 40.5413 433.576 43.3889 435.896 45.516L440.627 40.356C439.875 39.6671 439.315 38.6321 439.193 36.8712L432.21 37.3528ZM435.932 45.548C438.185 47.5578 440.926 48.548 443.957 48.548V41.548C442.552 41.548 441.495 41.1302 440.591 40.324L435.932 45.548ZM443.957 48.548C446.128 48.548 448.224 48.0718 450.033 46.8894L446.202 41.0306C445.792 41.2988 445.115 41.548 443.957 41.548V48.548ZM450.059 46.8722C451.718 45.7663 453.012 44.2987 453.852 42.4899L447.503 39.5421C447.233 40.1227 446.821 40.6177 446.176 41.0478L450.059 46.8722ZM450.677 44.516H458.997V37.516H450.677V44.516ZM455.643 40.0168C455.19 41.5397 454.427 42.9484 453.318 44.2592L458.661 48.7808C460.368 46.7636 461.611 44.503 462.352 42.0152L455.643 40.0168ZM453.312 44.2655C452.301 45.467 451.02 46.4411 449.411 47.1783L452.328 53.5417C454.815 52.4016 456.948 50.8157 458.667 48.7745L453.312 44.2655ZM449.386 47.1901C447.912 47.8799 446.149 48.268 444.022 48.268V55.268C447.014 55.268 449.816 54.7175 452.353 53.5299L449.386 47.1901ZM444.086 21.644C441.359 21.644 438.844 22.4445 436.673 24.072L440.874 29.672C441.775 28.9955 442.801 28.644 444.086 28.644V21.644ZM436.724 24.0346C434.295 25.7891 432.938 28.3861 432.388 31.3547L439.271 32.6293C439.575 30.9899 440.18 30.1736 440.823 29.7094L436.724 24.0346ZM435.829 35.492H451.638V28.492H435.829V35.492ZM455.131 31.7781C454.953 28.8766 453.837 26.2985 451.644 24.3709L447.023 29.6291C447.646 30.1762 448.066 30.9261 448.144 32.2059L455.131 31.7781ZM451.644 24.3709C449.522 22.5064 446.921 21.644 444.086 21.644V28.644C445.431 28.644 446.329 29.0189 447.023 29.6291L451.644 24.3709Z" fill="url(#paint0_linear_2001_7993)"/>
</g>
<defs>
<filter id="filter0_d_2001_7993" x="0.727539" y="0.919922" width="465.229" height="58.8477" filterUnits="userSpaceOnUse" color-interpolation-filters="sRGB">
<feFlood flood-opacity="0" result="BackgroundImageFix"/>
<feColorMatrix in="SourceAlpha" type="matrix" values="0 0 0 0 0 0 0 0 0 0 0 0 0 0 0 0 0 0 127 0" result="hardAlpha"/>
<feOffset dy="2"/>
<feGaussianBlur stdDeviation="3"/>
<feComposite in2="hardAlpha" operator="out"/>
<feColorMatrix type="matrix" values="0 0 0 0 0 0 0 0 0 0 0 0 0 0 0 0 0 0 0.25 0"/>
<feBlend mode="normal" in2="BackgroundImageFix" result="effect1_dropShadow_2001_7993"/>
<feBlend mode="normal" in="SourceGraphic" in2="effect1_dropShadow_2001_7993" result="shape"/>
</filter>
<linearGradient id="paint0_linear_2001_7993" x1="5" y1="71" x2="463" y2="71" gradientUnits="userSpaceOnUse">
<stop stop-color="#E981A0"/>
<stop offset="0.161458" stop-color="#FF6F6F"/>
<stop offset="0.348958" stop-color="#F9A857"/>
<stop offset="0.567708" stop-color="#51C0C0"/>
<stop offset="0.744792" stop-color="#62B0FF"/>
<stop offset="1" stop-color="#816DFF"/>
</linearGradient>
</defs>
</svg>
