<svg width="154" height="142" viewBox="0 0 154 142" fill="none" xmlns="http://www.w3.org/2000/svg">
<g filter="url(#filter0_d_2448_7104)">
<path d="M85.2608 22.6581C85.7873 21.3637 87.6869 21.6054 87.9095 22.9951L93.6495 58.8378C93.7209 59.2831 94.0025 59.669 94.4051 59.8731L124.17 74.9582C125.335 75.5489 125.141 77.2699 123.876 77.5515L91.5892 84.7421C91.1525 84.8394 90.7927 85.1437 90.624 85.5585L77.0453 118.943C76.5188 120.238 74.6192 119.996 74.3967 118.606L68.6566 82.7637C68.5853 82.3183 68.3037 81.9324 67.9011 81.7284L38.1363 66.6432C36.9708 66.0525 37.1656 64.3316 38.4299 64.05L70.717 56.8594C71.1537 56.7621 71.5135 56.4578 71.6822 56.043L85.2608 22.6581Z" fill="#816DFF"/>
</g>
<g filter="url(#filter1_d_2448_7104)">
<path d="M125.055 7.54786C125.361 6.87662 126.35 7.00242 126.497 7.73137L129.274 21.452C129.319 21.6718 129.457 21.8623 129.651 21.9735L140.961 28.4301C141.554 28.7688 141.454 29.6523 140.802 29.8326L128.372 33.2689C128.158 33.3281 127.982 33.4787 127.89 33.681L122.129 46.3155C121.823 46.9867 120.834 46.8609 120.686 46.132L117.909 32.4113C117.865 32.1916 117.727 32.001 117.532 31.8898L106.223 25.4332C105.63 25.0945 105.73 24.2111 106.382 24.0308L118.811 20.5944C119.025 20.5352 119.202 20.3846 119.294 20.1823L125.055 7.54786Z" fill="#68DEDE"/>
</g>
<g filter="url(#filter2_d_2448_7104)">
<path d="M25.8724 90.1143C26.1785 89.443 27.1673 89.5688 27.3148 90.2978L30.0917 104.018C30.1361 104.238 30.2739 104.429 30.4687 104.54L41.7782 110.997C42.3714 111.335 42.2714 112.219 41.6194 112.399L29.1898 115.835C28.9756 115.895 28.7992 116.045 28.707 116.247L22.946 128.882C22.6399 129.553 21.6511 129.427 21.5035 128.698L18.7267 114.978C18.6822 114.758 18.5445 114.567 18.3496 114.456L7.04017 108C6.44693 107.661 6.54696 106.777 7.19897 106.597L19.6286 103.161C19.8427 103.102 20.0191 102.951 20.1114 102.749L25.8724 90.1143Z" fill="#FF94B4"/>
</g>
<path fill-rule="evenodd" clip-rule="evenodd" d="M119.294 20.1816C119.202 20.3839 119.025 20.5345 118.811 20.5937L106.381 24.03C105.729 24.2103 105.629 25.0938 106.223 25.4325L117.532 31.8891C117.727 32.0003 117.865 32.1908 117.909 32.4106L120.686 46.1312C120.834 46.8602 121.822 46.986 122.128 46.3147L127.889 33.6803C127.982 33.478 128.158 33.3274 128.372 33.2682L140.802 29.8318C141.454 29.6515 141.554 28.7681 140.961 28.4294L129.651 21.9728C129.456 21.8615 129.319 21.671 129.274 21.4513L126.497 7.73062C126.35 7.00167 125.361 6.87587 125.055 7.54711L119.294 20.1816ZM125.169 12.999L121.436 21.1872C121.059 22.0133 120.339 22.628 119.464 22.8698L110.705 25.2914L118.675 29.8414C119.47 30.2956 120.033 31.0735 120.215 31.9707L122.014 40.8629L125.748 32.6747C126.125 31.8485 126.845 31.2338 127.719 30.9921L136.478 28.5704L128.509 24.0204C127.713 23.5662 127.15 22.7883 126.969 21.8911L125.169 12.999Z" fill="white"/>
<path fill-rule="evenodd" clip-rule="evenodd" d="M71.6821 56.0423C71.5134 56.4571 71.1536 56.7614 70.7169 56.8586L38.4298 64.0493C37.1655 64.3308 36.9706 66.0518 38.1361 66.6425L67.9009 81.7276C68.3036 81.9317 68.5852 82.3176 68.6565 82.7629L74.3966 118.606C74.6191 119.995 76.5187 120.237 77.0452 118.943L90.6239 85.5577C90.7926 85.1429 91.1524 84.8386 91.5891 84.7413L123.876 77.5507C125.14 77.2692 125.335 75.5482 124.17 74.9575L94.405 59.8723C94.0024 59.6683 93.7207 59.2824 93.6494 58.8371L87.9094 22.9944C87.6868 21.6046 85.7872 21.3629 85.2607 22.6574L71.6821 56.0423ZM85.6741 30.8713L74.8879 57.3905C74.2974 58.8423 73.0382 59.9073 71.5096 60.2477L44.8606 66.1827L69.4278 78.6337C70.8369 79.3478 71.8227 80.6985 72.0723 82.2571L76.6319 110.729L87.418 84.2095C88.0085 82.7577 89.2678 81.6927 90.7963 81.3523L117.445 75.4173L92.8781 62.9663C91.469 62.2521 90.4833 60.9015 90.2337 59.3428L85.6741 30.8713Z" fill="white"/>
<path fill-rule="evenodd" clip-rule="evenodd" d="M19.6285 103.16C19.8426 103.101 20.019 102.95 20.1113 102.748L25.8723 90.1135C26.1784 89.4423 27.1672 89.5681 27.3147 90.297L30.0915 104.018C30.136 104.237 30.2738 104.428 30.4686 104.539L41.7781 110.996C42.3713 111.334 42.2713 112.218 41.6193 112.398L29.1897 115.835C28.9755 115.894 28.7991 116.044 28.7069 116.247L22.9458 128.881C22.6398 129.552 21.651 129.427 21.5034 128.698L18.7266 114.977C18.6821 114.757 18.5444 114.567 18.3495 114.455L7.04006 107.999C6.44681 107.66 6.54685 106.777 7.19885 106.596L19.6285 103.16ZM22.253 103.754L25.9866 95.5654L27.7862 104.458C27.9678 105.355 28.5303 106.133 29.3259 106.587L37.2957 111.137L28.5365 113.558C27.6621 113.8 26.9419 114.415 26.5652 115.241L22.8316 123.429L21.0319 114.537C20.8504 113.64 20.2879 112.862 19.4922 112.408L11.5224 107.858L20.2816 105.436C21.1561 105.194 21.8762 104.58 22.253 103.754Z" fill="white"/>
<defs>
<filter id="filter0_d_2448_7104" x="30.778" y="15.2243" width="106.294" height="116.698" filterUnits="userSpaceOnUse" color-interpolation-filters="sRGB">
<feFlood flood-opacity="0" result="BackgroundImageFix"/>
<feColorMatrix in="SourceAlpha" type="matrix" values="0 0 0 0 0 0 0 0 0 0 0 0 0 0 0 0 0 0 127 0" result="hardAlpha"/>
<feOffset dx="2.77234" dy="2.77234"/>
<feGaussianBlur stdDeviation="4.67832"/>
<feComposite in2="hardAlpha" operator="out"/>
<feColorMatrix type="matrix" values="0 0 0 0 0 0 0 0 0 0 0 0 0 0 0 0 0 0 0.15 0"/>
<feBlend mode="normal" in2="BackgroundImageFix" result="effect1_dropShadow_2448_7104"/>
<feBlend mode="normal" in="SourceGraphic" in2="effect1_dropShadow_2448_7104" result="shape"/>
</filter>
<filter id="filter1_d_2448_7104" x="99.2458" y="0.523118" width="54.2367" height="58.3617" filterUnits="userSpaceOnUse" color-interpolation-filters="sRGB">
<feFlood flood-opacity="0" result="BackgroundImageFix"/>
<feColorMatrix in="SourceAlpha" type="matrix" values="0 0 0 0 0 0 0 0 0 0 0 0 0 0 0 0 0 0 127 0" result="hardAlpha"/>
<feOffset dx="2.77234" dy="2.77234"/>
<feGaussianBlur stdDeviation="4.67832"/>
<feComposite in2="hardAlpha" operator="out"/>
<feColorMatrix type="matrix" values="0 0 0 0 0 0 0 0 0 0 0 0 0 0 0 0 0 0 0.15 0"/>
<feBlend mode="normal" in2="BackgroundImageFix" result="effect1_dropShadow_2448_7104"/>
<feBlend mode="normal" in="SourceGraphic" in2="effect1_dropShadow_2448_7104" result="shape"/>
</filter>
<filter id="filter2_d_2448_7104" x="0.0631576" y="83.0895" width="54.2367" height="58.3617" filterUnits="userSpaceOnUse" color-interpolation-filters="sRGB">
<feFlood flood-opacity="0" result="BackgroundImageFix"/>
<feColorMatrix in="SourceAlpha" type="matrix" values="0 0 0 0 0 0 0 0 0 0 0 0 0 0 0 0 0 0 127 0" result="hardAlpha"/>
<feOffset dx="2.77234" dy="2.77234"/>
<feGaussianBlur stdDeviation="4.67832"/>
<feComposite in2="hardAlpha" operator="out"/>
<feColorMatrix type="matrix" values="0 0 0 0 0 0 0 0 0 0 0 0 0 0 0 0 0 0 0.15 0"/>
<feBlend mode="normal" in2="BackgroundImageFix" result="effect1_dropShadow_2448_7104"/>
<feBlend mode="normal" in="SourceGraphic" in2="effect1_dropShadow_2448_7104" result="shape"/>
</filter>
</defs>
</svg>
