<svg width="498" height="124" viewBox="0 0 498 124" fill="none" xmlns="http://www.w3.org/2000/svg">
<g filter="url(#filter0_d_2212_681)">
<path fill-rule="evenodd" clip-rule="evenodd" d="M31.056 48.872V87.08H46.248V48.872H58.2445V87.08H73.4365V67.196C73.4365 64.9053 74.0126 63.5948 74.735 62.8006C75.5828 61.9139 76.5688 61.48 77.9365 61.48C79.5403 61.48 80.022 61.9373 80.2367 62.2294L80.2562 62.2559L80.2762 62.2821C80.738 62.8859 81.2205 64.1028 81.2205 66.428V87.08H96.3485V71.0148C96.683 73.6157 97.4631 76.0478 98.7279 78.2708C100.452 81.3017 102.859 83.6852 105.903 85.3645C108.961 87.0515 112.394 87.848 116.106 87.848C119.094 87.848 121.892 87.2992 124.425 86.1157C126.906 84.9766 129.033 83.3938 130.749 81.3576C132.454 79.3413 133.696 77.0817 134.436 74.5952L134.854 73.192H135.155L135.26 71.8306L135.777 70.096H135.393L135.404 69.9604C135.449 69.3748 135.474 68.8004 135.478 68.238C135.52 67.6883 135.542 67.1486 135.542 66.62C135.542 63.1571 134.723 59.9296 133.038 57.02C131.403 54.0808 129.093 51.7517 126.162 50.0772C123.178 48.3715 119.812 47.568 116.17 47.568C112.324 47.568 108.795 48.4103 105.704 50.2196C102.702 51.9599 100.34 54.4166 98.6392 57.5093L98.6284 57.529L98.6178 57.5489C97.4084 59.8165 96.6605 62.2785 96.34 64.9011C96.2291 59.9717 95.018 55.6667 92.2241 52.4816C89.2927 49.0895 85.2092 47.568 80.4965 47.568C77.9827 47.568 75.6086 48.0519 73.4365 49.076V34H58.2445V35.28H18V48.872H31.056ZM118.814 73.192H113.027C113.853 73.8095 114.815 74.128 116.042 74.128C117.188 74.128 117.864 73.8835 118.275 73.6182C118.477 73.4828 118.655 73.3409 118.814 73.192Z" fill="url(#paint0_linear_2212_681)"/>
<path fill-rule="evenodd" clip-rule="evenodd" d="M165.431 35.28L146.487 87.08H162.549L166.197 76.712H178.697L182.281 87.08H198.485L179.541 35.28H165.431ZM174.014 63.312H170.878L172.438 58.8154L174.014 63.312Z" fill="url(#paint1_linear_2212_681)"/>
<path fill-rule="evenodd" clip-rule="evenodd" d="M203.514 84.4623L203.529 84.471L203.543 84.4797C207.425 86.7779 211.95 87.848 216.975 87.848C222.917 87.848 228.111 86.4034 232.272 83.2336C236.484 80.0585 239.066 75.6531 240.064 70.2653L240.374 68.5912V87.08H255.566V67.2564L262.4 80.68H273.156L279.99 67.2564V87.08H295.182V35.28H279.782L267.853 59.3556L255.761 35.28H240.374V54.3576L240.069 52.634C239.085 47.0744 236.533 42.5237 232.305 39.2792C228.142 36.0094 222.936 34.512 216.975 34.512C211.937 34.512 207.401 35.6093 203.514 37.9618C199.687 40.2781 196.743 43.5128 194.708 47.5828C192.678 51.6425 191.715 56.2259 191.715 61.244C191.715 66.2621 192.678 70.8455 194.708 74.9053L194.712 74.913L194.716 74.9207C196.754 78.9477 199.698 82.1526 203.514 84.4623ZM240.374 56.744V66.128H224.841L224.196 68.8088C223.827 70.3386 223.092 71.4167 221.974 72.2245C220.953 72.9508 219.353 73.488 216.846 73.488C213.583 73.488 211.383 72.4437 209.799 70.5772C208.136 68.5754 207.099 65.6031 207.099 61.244C207.099 56.8775 208.139 53.9025 209.807 51.9006C211.398 49.9916 213.596 48.936 216.846 48.936C219.294 48.936 220.845 49.5088 221.852 50.3001L221.888 50.3284L221.925 50.3558C223.029 51.1772 223.799 52.3234 224.186 54.0223L224.807 56.744H240.374Z" fill="url(#paint2_linear_2212_681)"/>
<path fill-rule="evenodd" clip-rule="evenodd" d="M320.76 85.8666L320.782 85.8769L320.805 85.8868C323.844 87.2264 327.241 87.848 330.92 87.848C334.727 87.848 338.186 87.1832 341.148 85.6751L341.17 85.6637L341.192 85.652C344.029 84.1564 346.312 82.1141 347.879 79.4833C349.398 76.9332 350.164 74.1377 350.164 71.164C350.164 68.0552 349.514 65.1716 347.925 62.7778C346.496 60.5852 344.6 58.837 342.29 57.5478C340.256 56.4129 338.039 55.436 335.649 54.6086L335.62 54.5985L335.402 54.5274L335.136 54.44H347.815V62.184H353.255V72.508C353.255 77.0678 354.344 81.2671 357.563 83.8697C360.353 86.1253 363.87 87.08 367.764 87.08H376.832V76.1784C377.11 76.8416 377.425 77.4892 377.778 78.1205L377.795 78.1515L377.813 78.182C379.563 81.1674 381.936 83.5473 384.903 85.265L384.914 85.2716L384.926 85.2781C387.969 87.0097 391.347 87.848 394.977 87.848C398.573 87.848 401.927 87.0055 404.963 85.2781C407.981 83.561 410.373 81.1705 412.092 78.1541C413.885 75.04 414.733 71.5228 414.733 67.708C414.733 63.9046 413.89 60.406 412.093 57.3276C410.382 54.28 407.996 51.866 404.975 50.1445C401.972 48.4084 398.632 47.568 395.04 47.568C391.411 47.568 388.033 48.4063 384.99 50.1379L384.978 50.1444L384.967 50.151C381.989 51.8751 379.616 54.284 377.871 57.309C377.56 57.8397 377.278 58.3828 377.023 58.9379V48.336H368.448V39.824H354.588L353.628 48.336H348.766C348.387 46.084 347.579 43.9965 346.298 42.1289C344.628 39.6335 342.321 37.7467 339.506 36.4412C336.698 35.1192 333.551 34.512 330.152 34.512C326.792 34.512 323.673 35.1203 320.875 36.4352C318.084 37.7039 315.788 39.5714 314.086 42.0424L314.081 42.0494L314.076 42.0563C312.33 44.617 311.565 47.6055 311.612 50.84C311.617 54.6521 312.74 58.0683 315.268 60.7167L315.282 60.7316L315.297 60.7463C317.631 63.1346 320.813 64.9093 324.593 66.2159L324.601 66.2188L325.651 66.576H310.474L310.524 70.1253C310.575 73.7178 311.471 76.9952 313.37 79.7881L313.379 79.8017L313.388 79.8153C315.228 82.4668 317.723 84.477 320.76 85.8666ZM330.856 74C329.047 74 328.026 73.5217 327.377 72.9106C326.616 72.1099 326.212 71.1762 326.161 69.9333L326.029 66.7046C327.637 67.2517 329.168 67.773 330.623 68.2688C332.176 68.7984 333.201 69.4174 333.858 70.0238L333.882 70.0461L333.907 70.0679C334.169 70.301 334.46 70.6969 334.46 71.74C334.46 72.4938 334.246 72.8937 333.827 73.2521C333.339 73.6308 332.468 74 330.856 74ZM330.146 52.7118C328.836 52.2291 327.999 51.7173 327.487 51.2631C327.351 51.1257 327.188 50.8889 327.188 50.236C327.188 49.3744 327.425 49.1844 327.58 49.068L327.588 49.0622L327.595 49.0564C328.106 48.6688 328.813 48.3962 329.941 48.423L329.982 48.424H330.024C331.39 48.424 331.988 48.8011 332.326 49.165L332.369 49.2107L332.413 49.2549C333.023 49.8649 333.229 50.4175 333.245 51.0346L333.321 53.833C332.17 53.4415 331.112 53.0678 330.146 52.7118ZM375.22 67.708C375.22 69.5824 375.42 71.3851 375.831 73.104H369.363C368.987 73.104 368.692 73.0841 368.466 73.0562C368.455 72.9243 368.448 72.764 368.448 72.572V62.184H375.882C375.436 63.9373 375.22 65.7836 375.22 67.708ZM398.037 63.0457L398.053 63.0624L398.07 63.0789C398.76 63.7697 399.413 65.0902 399.413 67.708C399.413 70.3001 398.772 71.6692 398.052 72.4188C397.101 73.3622 396.127 73.744 394.977 73.744C393.833 73.744 392.864 73.367 391.92 72.4371C391.227 71.6857 390.604 70.3043 390.604 67.708C390.604 65.0665 391.248 63.7326 391.917 63.0447C392.866 62.0705 393.851 61.672 395.04 61.672C396.104 61.672 397.057 62.0392 398.037 63.0457Z" fill="url(#paint3_linear_2212_681)"/>
<path fill-rule="evenodd" clip-rule="evenodd" d="M428.93 48.336H415.057V87.08H430.249V69.116C430.249 67.0198 430.586 65.8079 430.933 65.1694C431.363 64.4596 431.875 64.0473 432.512 63.7964C433.444 63.4294 434.597 63.208 436.029 63.208H439.299C438.994 64.7355 438.845 66.3233 438.845 67.964C438.845 71.7279 439.668 75.1989 441.415 78.2708C443.14 81.3017 445.547 83.6852 448.591 85.3645C451.648 87.0515 455.082 87.848 458.794 87.848C461.782 87.848 464.579 87.2992 467.113 86.1155C469.594 84.9764 471.721 83.3936 473.436 81.3576C475.142 79.3413 476.383 77.0817 477.124 74.5952L477.542 73.192H477.843L477.947 71.8306L478.464 70.096H478.081L478.091 69.9604C478.136 69.3748 478.161 68.8005 478.165 68.2381C478.207 67.6884 478.229 67.1487 478.229 66.62C478.229 63.1569 477.41 59.9294 475.725 57.0197C474.091 54.0807 471.78 51.7517 468.85 50.0772C465.865 48.3715 462.5 47.568 458.858 47.568C455.012 47.568 451.482 48.4103 448.392 50.2196C445.677 51.7934 443.485 53.9531 441.833 56.6393V47.568H438.333C435.094 47.568 432.096 48.3191 429.467 49.9384C429.364 50.0008 429.262 50.0642 429.162 50.1285L428.93 48.336ZM458.729 74.128C457.502 74.128 456.541 73.8095 455.715 73.192H461.501C461.343 73.3408 461.164 73.4826 460.963 73.618C460.551 73.8834 459.876 74.128 458.729 74.128Z" fill="url(#paint4_linear_2212_681)"/>
</g>
<defs>
<filter id="filter0_d_2212_681" x="12" y="30" width="472.464" height="65.8477" filterUnits="userSpaceOnUse" color-interpolation-filters="sRGB">
<feFlood flood-opacity="0" result="BackgroundImageFix"/>
<feColorMatrix in="SourceAlpha" type="matrix" values="0 0 0 0 0 0 0 0 0 0 0 0 0 0 0 0 0 0 127 0" result="hardAlpha"/>
<feOffset dy="2"/>
<feGaussianBlur stdDeviation="3"/>
<feComposite in2="hardAlpha" operator="out"/>
<feColorMatrix type="matrix" values="0 0 0 0 0 0 0 0 0 0 0 0 0 0 0 0 0 0 0.25 0"/>
<feBlend mode="normal" in2="BackgroundImageFix" result="effect1_dropShadow_2212_681"/>
<feBlend mode="normal" in="SourceGraphic" in2="effect1_dropShadow_2212_681" result="shape"/>
</filter>
<linearGradient id="paint0_linear_2212_681" x1="18" y1="87.848" x2="478.464" y2="87.848" gradientUnits="userSpaceOnUse">
<stop stop-color="#E981A0"/>
<stop offset="0.161458" stop-color="#FF6F6F"/>
<stop offset="0.348958" stop-color="#F9A857"/>
<stop offset="0.567708" stop-color="#51C0C0"/>
<stop offset="0.744792" stop-color="#62B0FF"/>
<stop offset="1" stop-color="#816DFF"/>
</linearGradient>
<linearGradient id="paint1_linear_2212_681" x1="18" y1="87.848" x2="478.464" y2="87.848" gradientUnits="userSpaceOnUse">
<stop stop-color="#E981A0"/>
<stop offset="0.161458" stop-color="#FF6F6F"/>
<stop offset="0.348958" stop-color="#F9A857"/>
<stop offset="0.567708" stop-color="#51C0C0"/>
<stop offset="0.744792" stop-color="#62B0FF"/>
<stop offset="1" stop-color="#816DFF"/>
</linearGradient>
<linearGradient id="paint2_linear_2212_681" x1="18" y1="87.848" x2="478.464" y2="87.848" gradientUnits="userSpaceOnUse">
<stop stop-color="#E981A0"/>
<stop offset="0.161458" stop-color="#FF6F6F"/>
<stop offset="0.348958" stop-color="#F9A857"/>
<stop offset="0.567708" stop-color="#51C0C0"/>
<stop offset="0.744792" stop-color="#62B0FF"/>
<stop offset="1" stop-color="#816DFF"/>
</linearGradient>
<linearGradient id="paint3_linear_2212_681" x1="18" y1="87.848" x2="478.464" y2="87.848" gradientUnits="userSpaceOnUse">
<stop stop-color="#E981A0"/>
<stop offset="0.161458" stop-color="#FF6F6F"/>
<stop offset="0.348958" stop-color="#F9A857"/>
<stop offset="0.567708" stop-color="#51C0C0"/>
<stop offset="0.744792" stop-color="#62B0FF"/>
<stop offset="1" stop-color="#816DFF"/>
</linearGradient>
<linearGradient id="paint4_linear_2212_681" x1="18" y1="87.848" x2="478.464" y2="87.848" gradientUnits="userSpaceOnUse">
<stop stop-color="#E981A0"/>
<stop offset="0.161458" stop-color="#FF6F6F"/>
<stop offset="0.348958" stop-color="#F9A857"/>
<stop offset="0.567708" stop-color="#51C0C0"/>
<stop offset="0.744792" stop-color="#62B0FF"/>
<stop offset="1" stop-color="#816DFF"/>
</linearGradient>
</defs>
</svg>
