<svg width="198" height="114" viewBox="0 0 198 114" fill="none" xmlns="http://www.w3.org/2000/svg">
<path d="M92.3518 11.3836L105.929 37.2124L125.728 15.7777L117.065 43.6417L146.221 42.4852L120.393 56.0621L141.827 75.8613L113.963 67.1979L115.12 96.3547L101.543 70.526L81.7436 91.9607L90.407 64.0967L61.2502 65.2532L87.079 51.6763L65.6442 31.877L93.5083 40.5404L92.3518 11.3836Z" fill="#FF9A9A"/>
<path d="M181.543 45.6236L181.58 56.6986L192.005 52.9589L184.2 60.8164L194.215 65.5433L183.14 65.5804L186.88 76.0049L179.023 68.2L174.296 78.2156L174.259 67.1407L163.834 70.8803L171.639 63.0229L161.623 58.296L172.698 58.2589L168.959 47.8343L176.816 55.6393L181.543 45.6236Z" fill="#62B0FF"/>
<path d="M23.5431 5.62363L24.2304 17.2211L35.844 16.9098L26.144 23.3037L32.2204 33.2058L21.833 28.0023L16.2958 38.2156L15.6085 26.6182L3.99487 26.9295L13.6949 20.5355L7.6185 10.6335L18.0058 15.837L23.5431 5.62363Z" fill="#92E7E7"/>
<path d="M39.0182 81.67L36.6902 87.8913L42.8328 90.4196L36.281 91.5142L37.1628 98.098L32.939 92.9712L27.6781 97.0267L30.0061 90.8055L23.8635 88.2772L30.4153 87.1826L29.5335 80.5988L33.7573 85.7256L39.0182 81.67Z" fill="#FFD2A4"/>
<path d="M92.7664 98.9135L95.8182 102.216L99.2176 99.2726L97.8836 103.567L102.132 105.039L97.7465 106.031L98.5957 110.446L95.5439 107.144L92.1445 110.087L93.4785 105.793L89.2299 104.321L93.6156 103.329L92.7664 98.9135Z" fill="#A799FF"/>
<path d="M148.507 15.2788L150.892 17.8596L153.548 15.5594L152.506 18.9153L155.826 20.066L152.399 20.8411L153.062 24.292L150.677 21.7112L148.021 24.0114L149.063 20.6555L145.743 19.5048L149.17 18.7297L148.507 15.2788Z" fill="#FFB4CA"/>
</svg>
