<svg width="154" height="142" viewBox="0 0 154 142" fill="none" xmlns="http://www.w3.org/2000/svg">
<g filter="url(#filter0_d_654_2155)">
<path d="M85.2608 22.7115C85.7873 21.417 87.6869 21.6587 87.9095 23.0485L93.6495 58.8912C93.7208 59.3365 94.0025 59.7224 94.4051 59.9264L124.17 75.0116C125.335 75.6023 125.141 77.3233 123.876 77.6048L91.5892 84.7955C91.1525 84.8927 90.7927 85.197 90.624 85.6118L77.0453 118.997C76.5188 120.291 74.6192 120.049 74.3967 118.66L68.6566 82.817C68.5853 82.3717 68.3037 81.9858 67.9011 81.7817L38.1362 66.6966C36.9707 66.1059 37.1656 64.3849 38.4299 64.1034L70.717 56.9127C71.1537 56.8155 71.5135 56.5112 71.6822 56.0964L85.2608 22.7115Z" fill="#816DFF"/>
<path d="M86.2016 23.3014L86.2018 23.3024C86.2017 23.302 86.2017 23.3017 86.2016 23.3013L86.5432 23.2508L86.2016 23.3014ZM73.2851 56.7705L86.3983 24.5299L91.9416 59.1441C92.1021 60.1461 92.7358 61.0143 93.6417 61.4734L122.54 76.1196L91.1928 83.1009C90.2102 83.3198 89.4006 84.0044 89.021 84.9377L75.9078 117.178L70.3645 82.5641C70.2041 81.5621 69.5704 80.6939 68.6645 80.2348L39.7659 65.5886L71.1133 58.6073C72.096 58.3884 72.9055 57.7038 73.2851 56.7705Z" stroke="white" stroke-width="3.46542" stroke-linejoin="round"/>
</g>
<g filter="url(#filter1_d_654_2155)">
<path d="M125.055 7.60097C125.361 6.92973 126.35 7.05553 126.497 7.78448L129.274 21.5052C129.318 21.7249 129.456 21.9154 129.651 22.0267L140.96 28.4832C141.554 28.8219 141.454 29.7054 140.802 29.8857L128.372 33.3221C128.158 33.3813 127.981 33.5318 127.889 33.7342L122.128 46.3686C121.822 47.0398 120.833 46.914 120.686 46.1851L117.909 32.4644C117.864 32.2447 117.727 32.0542 117.532 31.9429L106.222 25.4863C105.629 25.1477 105.729 24.2642 106.381 24.0839L118.811 20.6475C119.025 20.5883 119.201 20.4378 119.294 20.2354L125.055 7.60097Z" fill="#68DEDE"/>
<path d="M120.364 20.7382L125.598 9.25966L128.121 21.7251L129.274 21.5052L128.121 21.7251C128.234 22.2835 128.584 22.7677 129.08 23.0505L139.521 29.0114L128.045 32.184C127.501 32.3345 127.053 32.7171 126.818 33.2313L127.889 33.7342L126.818 33.2314L121.584 44.7099L119.062 32.2445C118.949 31.6861 118.598 31.2018 118.103 30.9191L107.662 24.9582L119.137 21.7856C119.682 21.6351 120.13 21.2525 120.364 20.7382ZM140.475 28.7476L140.474 28.7479L140.475 28.7476Z" stroke="white" stroke-width="2.35649" stroke-linejoin="round"/>
</g>
<g filter="url(#filter2_d_654_2155)">
<path d="M25.872 90.1674C26.1781 89.4961 27.1669 89.6219 27.3144 90.3509L30.0913 104.072C30.1357 104.291 30.2735 104.482 30.4683 104.593L41.7778 111.05C42.371 111.388 42.271 112.272 41.619 112.452L29.1894 115.888C28.9752 115.948 28.7988 116.098 28.7066 116.301L22.9456 128.935C22.6395 129.606 21.6507 129.48 21.5031 128.751L18.7263 115.031C18.6818 114.811 18.5441 114.621 18.3492 114.509L7.03977 108.053C6.44653 107.714 6.54656 106.831 7.19857 106.65L19.6282 103.214C19.8423 103.155 20.0187 103.004 20.111 102.802L25.872 90.1674Z" fill="#FF94B4"/>
<path d="M21.1818 103.305L26.4158 91.8261L28.9386 104.291L30.0913 104.072L28.9386 104.291C29.0516 104.85 29.4017 105.334 29.897 105.617L40.3382 111.578L28.8628 114.75C28.3185 114.901 27.8702 115.284 27.6357 115.798L28.7066 116.301L27.6357 115.798L22.4018 127.276L19.879 114.811C19.766 114.252 19.4158 113.768 18.9206 113.486L8.47933 107.525L19.9548 104.352C20.4991 104.202 20.9473 103.819 21.1818 103.305ZM41.2924 111.314L41.2912 111.314L41.2924 111.314Z" stroke="white" stroke-width="2.35649" stroke-linejoin="round"/>
</g>
<defs>
<filter id="filter0_d_654_2155" x="30.778" y="15.277" width="106.294" height="116.698" filterUnits="userSpaceOnUse" color-interpolation-filters="sRGB">
<feFlood flood-opacity="0" result="BackgroundImageFix"/>
<feColorMatrix in="SourceAlpha" type="matrix" values="0 0 0 0 0 0 0 0 0 0 0 0 0 0 0 0 0 0 127 0" result="hardAlpha"/>
<feOffset dx="2.77234" dy="2.77234"/>
<feGaussianBlur stdDeviation="4.67832"/>
<feComposite in2="hardAlpha" operator="out"/>
<feColorMatrix type="matrix" values="0 0 0 0 0 0 0 0 0 0 0 0 0 0 0 0 0 0 0.15 0"/>
<feBlend mode="normal" in2="BackgroundImageFix" result="effect1_dropShadow_654_2155"/>
<feBlend mode="normal" in="SourceGraphic" in2="effect1_dropShadow_654_2155" result="shape"/>
</filter>
<filter id="filter1_d_654_2155" x="99.2458" y="0.577806" width="54.2357" height="58.3598" filterUnits="userSpaceOnUse" color-interpolation-filters="sRGB">
<feFlood flood-opacity="0" result="BackgroundImageFix"/>
<feColorMatrix in="SourceAlpha" type="matrix" values="0 0 0 0 0 0 0 0 0 0 0 0 0 0 0 0 0 0 127 0" result="hardAlpha"/>
<feOffset dx="2.77234" dy="2.77234"/>
<feGaussianBlur stdDeviation="4.67832"/>
<feComposite in2="hardAlpha" operator="out"/>
<feColorMatrix type="matrix" values="0 0 0 0 0 0 0 0 0 0 0 0 0 0 0 0 0 0 0.15 0"/>
<feBlend mode="normal" in2="BackgroundImageFix" result="effect1_dropShadow_654_2155"/>
<feBlend mode="normal" in="SourceGraphic" in2="effect1_dropShadow_654_2155" result="shape"/>
</filter>
<filter id="filter2_d_654_2155" x="0.0631576" y="83.1442" width="54.2357" height="58.3598" filterUnits="userSpaceOnUse" color-interpolation-filters="sRGB">
<feFlood flood-opacity="0" result="BackgroundImageFix"/>
<feColorMatrix in="SourceAlpha" type="matrix" values="0 0 0 0 0 0 0 0 0 0 0 0 0 0 0 0 0 0 127 0" result="hardAlpha"/>
<feOffset dx="2.77234" dy="2.77234"/>
<feGaussianBlur stdDeviation="4.67832"/>
<feComposite in2="hardAlpha" operator="out"/>
<feColorMatrix type="matrix" values="0 0 0 0 0 0 0 0 0 0 0 0 0 0 0 0 0 0 0.15 0"/>
<feBlend mode="normal" in2="BackgroundImageFix" result="effect1_dropShadow_654_2155"/>
<feBlend mode="normal" in="SourceGraphic" in2="effect1_dropShadow_654_2155" result="shape"/>
</filter>
</defs>
</svg>
