<svg width="301" height="250" viewBox="0 0 301 250" fill="none" xmlns="http://www.w3.org/2000/svg">
<g clip-path="url(#clip0_1887_7789)">
<circle cx="181.755" cy="94.3014" r="93.0717" fill="#F9A857"/>
<path d="M159.624 115.388C162.949 105.221 164.711 86.8836 165.255 80.3583L178.96 45.3915C178.96 45.3915 159.112 50.0892 150.657 53.8833C142.201 57.6774 129.722 68.8059 127.407 82.6658C125.092 96.5256 127.024 92.6813 128.863 98.9108C131.162 106.698 132.378 113.29 133.919 116.354C135.069 118.639 157.33 122.402 159.624 115.388Z" fill="#FF94B4"/>
<path d="M176.346 66.2921L165.497 78.7122C164.954 85.2376 162.949 105.221 159.624 115.388C157.331 122.402 135.321 119.172 134.172 116.887C132.63 113.823 131.163 106.697 128.864 98.9106C127.024 92.6811 125.689 80.8633 131.219 70.7766C136.749 60.69 156.059 49.032 176.346 44.6866" stroke="black" stroke-width="1.56115"/>
<path d="M156.102 87.3373C154.325 88.0364 151.254 74.739 150.088 69.615C141.82 62.783 139.912 99.9317 133.234 120.001C129.991 129.747 130.872 127.074 151.996 149.463C164.839 163.076 213.676 160.549 216.538 159.268C219.4 157.987 217.82 158.834 219.728 146.878C220.634 141.197 222.774 130.527 219.728 114.894C216.362 97.6262 214.589 75.2499 212.732 74.312C208.502 72.1752 173.033 80.6777 156.102 87.3373Z" fill="#FF94B4" stroke="black" stroke-width="1.56115"/>
<path d="M191.542 38.2235C189.644 38.9226 160.991 51.3782 150.759 57.1707C143.509 61.2745 140.411 88.6134 133.28 108.682C129.817 118.429 139.052 125.335 153.314 138.145C167.575 150.955 215.113 151.72 218.169 150.439C221.225 149.158 223.602 145.9 225.64 133.944C226.608 128.263 227.363 124.315 224.11 108.682C220.516 91.4145 218.169 68.8989 218.169 65.2793C218.169 65.2793 229.339 66.5933 225.64 59.5497C221.282 51.2521 201.321 34.6215 191.542 38.2235Z" fill="#FF94B4"/>
<path d="M218.169 150.439C221.225 149.158 223.602 145.899 225.64 133.943C226.608 128.262 227.363 124.315 224.11 108.682C222.478 100.84 221.406 92.3106 220.721 84.9962L228.841 61.4859C230.331 51.8051 193.955 31.0972 184.176 34.6991C182.708 35.2401 167.334 43.8338 156.751 50.874C153.658 52.9314 153.073 55.8605 150.759 57.1704C143.509 61.2742 140.411 88.6132 133.28 108.682C129.817 118.428 139.052 125.335 153.314 138.145C167.575 150.955 215.113 151.72 218.169 150.439Z" fill="#FF94B4"/>
<path d="M220.721 84.9962C220.143 78.8141 219.304 70.6788 218.857 65.7067C218.656 63.4725 216.575 61.7507 214.35 62.0419C205.043 63.2602 193.441 64.6852 186.259 65.279C178.533 65.9179 164.766 64.4302 160.546 69.141C156.326 73.8518 154.872 65.9098 155.737 61.4859C156.603 57.0621 165.116 51.9722 165.116 51.9722M220.721 84.9962C221.406 92.3106 222.478 100.84 224.11 108.682C227.363 124.315 226.608 128.262 225.64 133.943C223.602 145.899 221.225 149.158 218.169 150.439C215.113 151.72 167.575 150.955 153.314 138.145C139.052 125.335 129.817 118.428 133.28 108.682C140.411 88.6132 143.509 61.2742 150.759 57.1704C153.073 55.8605 153.658 52.9314 156.751 50.874C167.334 43.8338 182.708 35.2401 184.176 34.6991C193.955 31.0972 230.331 51.8051 228.841 61.4859L220.721 84.9962Z" stroke="black" stroke-width="1.56115"/>
<path d="M162.251 127.621C167.681 118.405 180.275 104.96 184.812 100.239L196.008 72.8976L208.101 130.162C206.171 132.236 200.839 137.071 194.949 139.809C187.587 143.231 181.836 146.677 178.519 147.546C176.044 148.194 158.504 133.979 162.251 127.621Z" fill="#FF94B4"/>
<path d="M188.035 82.6182L185.888 98.969C181.351 103.691 167.682 118.405 162.252 127.621C158.506 133.979 175.479 148.358 177.953 147.71C181.271 146.841 187.588 143.231 194.95 139.809C200.841 137.071 210.59 130.26 214.503 119.443C218.415 108.625 215.884 72.4914 215.884 72.4914" stroke="black" stroke-width="1.56115"/>
<path d="M187.304 54.5477C180.73 56.0946 166.625 61.6375 160.395 64.2157C161.361 62.3895 163.682 58.0604 165.228 55.3533C166.775 52.6463 172.855 47.1356 175.702 44.7186C177.958 43.161 183.437 39.7557 187.304 38.5955C192.138 37.1453 208.251 47.9412 210.507 49.7137C212.763 51.4862 195.521 52.6141 187.304 54.5477Z" fill="#FF6F6F"/>
<path d="M160.096 63.4944C159.698 63.6592 159.508 64.1158 159.673 64.5141C159.838 64.9125 160.295 65.1018 160.693 64.9369L160.096 63.4944ZM187.304 54.5477L187.482 55.3075L187.304 54.5477ZM187.304 38.5955L187.079 37.8479L187.304 38.5955ZM160.693 64.9369C166.938 62.3529 180.981 56.8372 187.482 55.3075L187.125 53.7879C180.478 55.3519 166.312 60.9222 160.096 63.4944L160.693 64.9369ZM187.482 55.3075C191.548 54.3508 197.849 53.594 202.947 52.8425C205.469 52.4707 207.714 52.0974 209.192 51.6985C209.9 51.5074 210.558 51.28 210.964 50.9748C211.162 50.826 211.469 50.5318 211.488 50.0709C211.508 49.5916 211.205 49.2698 210.989 49.0999L210.025 50.3275C210.09 50.3791 209.917 50.2739 209.928 50.0067C209.939 49.7581 210.099 49.6717 210.025 49.7271C209.888 49.8305 209.505 49.9971 208.785 50.1912C207.409 50.5627 205.253 50.9246 202.719 51.298C197.706 52.0371 191.277 52.811 187.125 53.7879L187.482 55.3075ZM210.989 49.0999C209.821 48.1822 205.192 45.0179 200.252 42.2643C197.78 40.8863 195.204 39.5964 192.926 38.7409C191.787 38.3133 190.703 37.9866 189.731 37.8154C188.773 37.6466 187.853 37.6159 187.079 37.8479L187.528 39.3432C187.963 39.2125 188.604 39.2021 189.461 39.3529C190.304 39.5015 191.29 39.7942 192.377 40.2024C194.55 41.0187 197.05 42.2666 199.492 43.6279C204.381 46.3528 208.937 49.4728 210.025 50.3275L210.989 49.0999ZM187.079 37.8479C183.084 39.0463 177.519 42.5158 175.259 44.0762L176.146 45.3609C178.397 43.8061 183.789 40.465 187.528 39.3432L187.079 37.8479Z" fill="black"/>
<path d="M4.03591 171.373C10.5025 186.07 31.2252 194.275 40.7781 196.541L55.6587 185.335C51.3109 180.252 41.6232 169.609 37.655 167.699C32.6948 165.31 29.388 152.083 26.9998 148.776C24.6116 145.47 14.8749 134.814 9.17983 136.284C3.48478 137.754 -4.04738 153.002 4.03591 171.373Z" fill="#F3E6E9" stroke="black" stroke-width="1.46969" stroke-linejoin="round"/>
<path fill-rule="evenodd" clip-rule="evenodd" d="M38.0022 167.88C37.8822 167.813 37.7664 167.752 37.6552 167.699C34.3761 166.12 31.8197 159.804 29.7734 154.749C29.4782 154.02 29.1936 153.317 28.919 152.658C26.5612 160.071 22.0372 169.722 18.1818 173.577C15.7406 176.019 11.3042 176.514 6.76562 176.147C9.79144 180.41 13.9975 184.005 18.5321 186.95C23.1476 186.509 27.3376 185.775 29.2045 184.6C31.7191 183.017 35.1535 175.399 38.0022 167.88Z" fill="#A8D3FF"/>
<path d="M38.0022 167.88L38.3603 167.238C38.6784 167.415 38.8184 167.799 38.6893 168.14L38.0022 167.88ZM37.6552 167.699L37.974 167.037L37.6552 167.699ZM29.7734 154.749L30.4546 154.473L29.7734 154.749ZM28.919 152.658L28.2187 152.435C28.3122 152.141 28.5791 151.937 28.8871 151.924C29.1951 151.91 29.4787 152.091 29.5973 152.375L28.919 152.658ZM18.1818 173.577L17.6622 173.058L18.1818 173.577ZM6.76562 176.147L6.16639 176.572C6.00109 176.339 5.98569 176.032 6.12688 175.783C6.26807 175.535 6.54029 175.391 6.82494 175.414L6.76562 176.147ZM18.5321 186.95L18.602 187.681C18.4367 187.697 18.271 187.657 18.1318 187.566L18.5321 186.95ZM29.2045 184.6L29.596 185.222V185.222L29.2045 184.6ZM37.644 168.521C37.5352 168.461 37.4327 168.407 37.3364 168.361L37.974 167.037C38.1002 167.097 38.2291 167.165 38.3603 167.238L37.644 168.521ZM37.3364 168.361C35.466 167.46 33.9132 165.29 32.6059 162.878C31.2779 160.427 30.1119 157.544 29.0923 155.025L30.4546 154.473C31.4812 157.009 32.6166 159.812 33.8981 162.177C35.2004 164.581 36.5654 166.358 37.974 167.037L37.3364 168.361ZM29.0923 155.025C28.7967 154.295 28.5136 153.595 28.2407 152.941L29.5973 152.375C29.8736 153.038 30.1597 153.745 30.4546 154.473L29.0923 155.025ZM29.6193 152.881C28.4287 156.624 26.6938 160.925 24.7695 164.78C22.8541 168.617 20.7164 172.082 18.7014 174.097L17.6622 173.058C19.5025 171.217 21.5546 167.929 23.4545 164.124C25.3455 160.336 27.0515 156.105 28.2187 152.435L29.6193 152.881ZM18.7014 174.097C17.3409 175.457 15.4652 176.237 13.3997 176.637C11.3307 177.037 9.01524 177.066 6.70631 176.879L6.82494 175.414C9.05462 175.595 11.2267 175.56 13.1207 175.194C15.0185 174.827 16.5815 174.138 17.6622 173.058L18.7014 174.097ZM7.36486 175.721C10.3205 179.885 14.4473 183.42 18.9324 186.334L18.1318 187.566C13.5476 184.589 9.26241 180.934 6.16639 176.572L7.36486 175.721ZM18.4622 186.218C20.7557 185.999 22.9281 185.709 24.7497 185.331C26.5942 184.948 27.9978 184.491 28.8129 183.978L29.596 185.222C28.5443 185.884 26.9194 186.382 25.0483 186.77C23.1543 187.163 20.9239 187.46 18.602 187.681L18.4622 186.218ZM28.8129 183.978C29.309 183.666 29.9256 182.998 30.6326 181.962C31.3272 180.945 32.0648 179.641 32.8215 178.136C34.3341 175.126 35.8946 171.368 37.315 167.619L38.6893 168.14C37.261 171.91 35.68 175.721 34.1346 178.796C33.3623 180.332 32.5917 181.7 31.8462 182.791C31.113 183.865 30.3573 184.743 29.596 185.222L28.8129 183.978Z" fill="black"/>
<path fill-rule="evenodd" clip-rule="evenodd" d="M0.505859 155.982C0.573903 159.623 1.21194 163.611 2.64442 167.809C2.55292 161.576 3.53853 154.112 7.6149 151.369C11.0832 149.036 17.9697 146.971 24.4771 145.733C22.4874 143.537 19.752 140.868 16.9592 138.905C11.6373 140.074 7.1334 141.478 5.69054 143.011C3.84964 144.967 1.99031 150.428 0.505859 155.982Z" fill="#A8D3FF"/>
<path d="M0.505859 155.982L-0.228857 155.996C-0.23014 155.927 -0.221794 155.859 -0.204063 155.792L0.505859 155.982ZM2.64442 167.809L3.37919 167.798C3.38449 168.159 3.12617 168.471 2.77003 168.533C2.41389 168.595 2.0657 168.388 1.94896 168.046L2.64442 167.809ZM7.6149 151.369L8.02507 151.979L7.6149 151.369ZM24.4771 145.733L25.0218 145.24C25.2002 145.437 25.2583 145.715 25.1739 145.967C25.0894 146.219 24.8755 146.406 24.6145 146.455L24.4771 145.733ZM16.9592 138.905L16.8015 138.187C17.0027 138.143 17.2133 138.185 17.3818 138.304L16.9592 138.905ZM5.69054 143.011L5.15544 142.508H5.15544L5.69054 143.011ZM1.24058 155.968C1.3072 159.533 1.93199 163.446 3.33988 167.572L1.94896 168.046C0.491901 163.777 -0.15939 159.713 -0.228857 155.996L1.24058 155.968ZM8.02507 151.979C6.21332 153.198 5.00882 155.532 4.27975 158.458C3.55629 161.361 3.33394 164.716 3.37919 167.798L1.90965 167.82C1.8634 164.668 2.08811 161.175 2.85367 158.102C3.61362 155.052 4.94011 152.283 7.20473 150.76L8.02507 151.979ZM24.6145 146.455C21.3854 147.07 18.0674 147.888 15.133 148.84C12.1865 149.795 9.67436 150.87 8.02507 151.979L7.20473 150.76C9.02372 149.536 11.689 148.411 14.6797 147.442C17.6825 146.468 21.0615 145.635 24.3398 145.011L24.6145 146.455ZM23.9325 146.227C21.9622 144.052 19.268 141.426 16.5366 139.506L17.3818 138.304C20.236 140.31 23.0125 143.022 25.0218 145.24L23.9325 146.227ZM5.15544 142.508C5.59841 142.037 6.23406 141.617 6.9746 141.234C7.72351 140.848 8.62243 140.479 9.62785 140.128C11.6387 139.425 14.127 138.775 16.8015 138.187L17.1169 139.623C14.4695 140.204 12.0449 140.84 10.1126 141.515C9.14648 141.853 8.31626 142.196 7.64856 142.541C6.97251 142.889 6.50409 143.219 6.22563 143.515L5.15544 142.508ZM-0.204063 155.792C0.541511 153.003 1.38495 150.222 2.2781 147.885C3.15918 145.58 4.12617 143.601 5.15544 142.508L6.22564 143.515C5.414 144.377 4.53088 146.107 3.65095 148.41C2.7831 150.681 1.95465 153.408 1.21578 156.172L-0.204063 155.792Z" fill="black"/>
<path d="M91.9576 101.276C88.6981 103.956 71.5349 93.4257 71.2551 88.7161C79.1546 82.7455 86.0249 69.3239 90.7285 76.6831C95.4321 84.0422 98.2402 96.1104 91.9576 101.276Z" fill="#A8D3FF" stroke="black" stroke-width="1.46969" stroke-linejoin="round"/>
<path d="M119.072 154.741C113.361 149.909 103.513 144.307 99.3024 142.111L85.9921 163.606C87.7953 164.582 92.6083 166.722 97.4352 167.477C103.469 168.421 112.405 167.005 114.954 167.477C117.502 167.949 118.352 167.666 119.072 167.005C119.791 166.344 120.901 167.382 121.845 166.533C122.789 165.683 121.656 163.512 123.166 163.606C124.677 163.701 126.21 160.782 119.072 154.741Z" fill="#F3E6E9"/>
<path d="M99.3024 142.111C103.513 144.307 113.361 149.909 119.072 154.741C126.21 160.782 124.677 163.701 123.166 163.606C121.656 163.512 122.789 165.683 121.845 166.533C120.901 167.382 119.791 166.344 119.072 167.005C118.352 167.666 117.502 167.949 114.954 167.477C112.405 167.005 103.469 168.421 97.4352 167.477C92.6083 166.722 87.7953 164.582 85.9921 163.606" stroke="black" stroke-width="1.56115"/>
<path d="M37.0379 142.763C34.883 141.566 34.1646 134.622 30.8124 132.228C31.6904 131.35 33.6378 128.636 34.404 124.805C35.3618 120.016 45.8972 91.7695 56.4326 89.854C66.9681 87.9384 85.3117 88.2605 89.6217 93.5282C93.9316 98.7959 99.7715 106.847 102.405 109.481C104.512 111.588 107.114 118.66 108.152 121.932C106.098 123.525 102.171 127.071 102.89 128.509C103.789 130.306 104.807 131.145 104.208 132.044C103.609 132.943 96.8982 135.879 97.3776 137.137C97.8569 138.395 104.208 158.986 107.17 171.846C110.939 188.206 122.112 191.613 123.771 196.352C129.76 213.465 102.136 205.762 96.9079 207.51C93.0302 208.807 82.894 214.949 72.5681 218.092C67.2176 219.72 75.9552 236.297 72.5681 238.457C69.8584 240.186 63.559 244.567 57.4845 240.291C57.4845 240.291 37.0379 222.493 32.6712 215.512C28.3046 208.531 28.9536 205.225 30.8124 191.079C32.6712 176.933 39.1973 158.251 39.1973 158.251L45.2598 147.313V145.22C41.4836 144.301 38.0193 143.308 37.0379 142.763Z" fill="#F3E6E9"/>
<path d="M71.9963 144.439C67.846 145.397 58.9228 147.313 56.4326 147.313C54.7375 147.313 49.7756 146.318 45.2598 145.22M45.2598 145.22C41.4836 144.301 38.0193 143.308 37.0379 142.763C34.883 141.566 34.1646 134.622 30.8124 132.228C31.6904 131.35 33.6378 128.636 34.404 124.805C35.3618 120.016 45.8972 91.7695 56.4326 89.854C66.9681 87.9384 85.3117 88.2605 89.6217 93.5282C93.9316 98.7959 99.7715 106.847 102.405 109.481C104.512 111.588 107.114 118.66 108.152 121.932C106.098 123.525 102.171 127.071 102.89 128.509C103.789 130.306 104.807 131.145 104.208 132.044C103.609 132.943 96.8982 135.879 97.3776 137.137C97.8569 138.395 104.208 158.986 107.17 171.846C110.939 188.206 122.112 191.613 123.771 196.352C129.76 213.465 102.136 205.762 96.9079 207.51C93.0302 208.807 82.894 214.949 72.5681 218.092C67.2176 219.72 75.9552 236.297 72.5681 238.457C69.8584 240.186 63.559 244.567 57.4845 240.291C57.4845 240.291 37.0379 222.493 32.6712 215.512C28.3046 208.531 28.9536 205.225 30.8124 191.079C32.6712 176.933 39.1973 158.251 39.1973 158.251L45.2598 147.313V145.22Z" stroke="black" stroke-width="1.46969" stroke-linejoin="round"/>
<path d="M56.9128 94.8748C56.9128 90.655 39.3241 83.7825 35.5085 86.5574C31.693 90.0261 32.6775 114.592 41.3491 113.551C50.0208 112.511 56.9128 103.008 56.9128 94.8748Z" fill="#A8D3FF" stroke="black" stroke-width="1.46969" stroke-linejoin="round"/>
<path d="M80.5098 133.69C78.9692 135.981 73.5976 137.896 71.0443 137.348C68.4909 136.801 67.6211 135.912 66.0673 134.396C64.125 132.502 63.1538 121.07 67.6988 113.604C72.2437 106.137 75.6381 107.12 79.4825 106.883C83.3268 106.646 84.1638 102.08 90.1176 102.061C96.0714 102.042 105.198 111.636 103.123 118.12C101.047 124.603 95.1376 111.554 88.5018 111.902C81.866 112.251 82.0503 131.399 80.5098 133.69Z" fill="#A8D3FF" stroke="black" stroke-width="1.46969" stroke-linejoin="round"/>
<path d="M97.049 114.205C95.7441 112.262 89.1341 112.99 85.9922 113.597L87.9239 119.95L97.058 130.482C97.6834 129.429 99.0631 126.771 99.5793 124.562C100.224 121.801 98.6802 116.634 97.049 114.205Z" fill="#F3E6E9"/>
<path d="M85.9922 113.597C89.1341 112.99 95.7441 112.262 97.049 114.205C98.6802 116.634 100.224 121.801 99.5793 124.562C99.0631 126.771 97.6834 129.429 97.058 130.482" stroke="black" stroke-width="1.46969" stroke-linejoin="round"/>
<path d="M95.2019 128.1C93.761 129.291 88.9774 124.563 89.0957 123.553C89.1828 122.709 92.9469 121.094 94.818 120.392C95.7434 120.857 97.5913 120.96 97.684 121.766C97.7999 122.774 96.6429 126.909 95.2019 128.1Z" fill="#A8D3FF" stroke="black" stroke-width="1.46969" stroke-linejoin="round"/>
<path d="M75.6407 118.161L75.1509 114.229M92.2028 107.35L93.3821 110.764" stroke="black" stroke-width="1.46969" stroke-linejoin="round"/>
<path d="M95.1433 113.686C94.3606 113.061 90.1454 115.729 90.0222 116.939C90.0277 118.252 94.7487 121.681 96.0054 119.71C97.2622 117.74 96.6519 114.889 95.1433 113.686Z" fill="#A8D3FF" stroke="black" stroke-width="1.46969" stroke-linejoin="round"/>
<path d="M135.68 185.432C129.358 185.606 122.543 192.885 119.803 197.777C116.169 204.265 117.138 208.761 121.574 208.979C126.697 209.23 136.749 200.289 141.736 193.529C143.9 190.596 143.584 185.213 135.68 185.432Z" fill="#A8D3FF" stroke="black" stroke-width="1.56115" stroke-linejoin="round"/>
<path d="M61.2599 216.83C67.4805 216.82 71.0524 228.843 73.5998 233.945C76.9782 240.71 75.8854 245.505 71.5101 245.873C66.4583 246.298 56.8358 237.13 52.1335 230.118C50.093 227.076 53.4842 216.842 61.2599 216.83Z" fill="#A8D3FF" stroke="black" stroke-width="1.56115" stroke-linejoin="round"/>
<path d="M65.2238 183.758L119.827 165.344C120.326 165.176 120.865 165.167 121.369 165.319L154.47 175.284C156.703 175.956 156.923 179.031 154.808 180.013L97.477 206.66C96.7143 207.014 95.8255 206.968 95.104 206.535L64.7307 188.338C62.8744 187.226 63.1733 184.45 65.2238 183.758Z" fill="#FF94B4" stroke="black" stroke-width="1.56115"/>
<path d="M105.687 162.977L96.1025 200.798C95.6954 202.404 97.3495 203.755 98.8421 203.035L155.381 175.757C155.876 175.519 156.247 175.082 156.403 174.555L165.897 142.585C166.357 141.037 164.844 139.632 163.334 140.206L106.886 161.632C106.291 161.858 105.844 162.36 105.687 162.977Z" fill="#FF94B4" stroke="black" stroke-width="1.56115"/>
<path d="M84.1809 170.081C78.4699 165.248 68.6219 159.647 64.4118 157.45L51.1015 178.946C52.9046 179.922 57.7177 182.061 62.5446 182.816C68.5783 183.76 77.5143 182.344 80.0631 182.816C82.6118 183.288 83.4614 183.005 84.1809 182.344C84.9005 181.684 86.0102 182.722 86.9541 181.872C87.8981 181.023 86.7654 178.852 88.2757 178.946C89.7861 179.04 91.3198 176.121 84.1809 170.081Z" fill="#F3E6E9"/>
<path d="M64.4118 157.45C68.6219 159.647 78.4699 165.248 84.1809 170.081C91.3198 176.121 89.7861 179.04 88.2757 178.946C86.7654 178.852 87.8981 181.023 86.9541 181.872C86.0102 182.722 84.9005 181.684 84.1809 182.344C83.4614 183.005 82.6118 183.288 80.0631 182.816C77.5143 182.344 68.5783 183.76 62.5446 182.816C57.7177 182.061 52.9046 179.922 51.1015 178.946" stroke="black" stroke-width="1.56115"/>
</g>
<defs>
<clipPath id="clip0_1887_7789">
<rect width="300" height="250" fill="white" transform="translate(0.5)"/>
</clipPath>
</defs>
</svg>
