<svg width="301" height="250" viewBox="0 0 301 250" fill="none" xmlns="http://www.w3.org/2000/svg">
<circle cx="151.146" cy="125.52" r="114.975" fill="#51C0C0"/>
<circle cx="151.146" cy="125.52" r="98.56" fill="#FF6F6F"/>
<circle cx="151.147" cy="125.52" r="77.8818" fill="#F9A857"/>
<path d="M224.699 143.086C216.784 161.075 191.42 171.119 179.727 173.892L161.514 160.176C166.835 153.954 178.693 140.928 183.55 138.589C189.621 135.666 193.669 119.476 196.592 115.428C199.515 111.381 211.433 98.339 218.403 100.138C225.374 101.937 234.593 120.6 224.699 143.086Z" fill="#F3E6E9" stroke="black" stroke-width="1.47739" stroke-linejoin="round"/>
<path fill-rule="evenodd" clip-rule="evenodd" d="M183.124 138.811C183.271 138.729 183.413 138.655 183.549 138.589C187.562 136.657 190.692 128.926 193.196 122.739C193.557 121.847 193.906 120.986 194.242 120.18C197.128 129.254 202.665 141.066 207.384 145.785C210.372 148.773 215.802 149.379 221.357 148.929C217.654 154.147 212.506 158.547 206.955 162.153C201.306 161.613 196.177 160.715 193.892 159.276C190.815 157.338 186.611 148.014 183.124 138.811Z" fill="#A8D3FF"/>
<path d="M183.124 138.811L182.764 138.166C182.444 138.344 182.304 138.73 182.433 139.072L183.124 138.811ZM183.549 138.589L183.869 139.255L183.869 139.255L183.549 138.589ZM193.196 122.739L193.881 123.016L193.196 122.739ZM194.242 120.18L194.946 119.956C194.852 119.661 194.584 119.455 194.274 119.442C193.964 119.428 193.679 119.61 193.56 119.896L194.242 120.18ZM207.384 145.785L207.906 145.262L207.384 145.785ZM221.357 148.929L221.96 149.357C222.126 149.123 222.141 148.814 222 148.564C221.858 148.315 221.584 148.17 221.298 148.193L221.357 148.929ZM206.955 162.153L206.885 162.888C207.051 162.904 207.218 162.863 207.358 162.772L206.955 162.153ZM193.892 159.276L194.286 158.651L193.892 159.276ZM183.484 139.456C183.62 139.38 183.748 139.313 183.869 139.255L183.229 137.924C183.077 137.996 182.922 138.077 182.764 138.166L183.484 139.456ZM183.869 139.255C186.108 138.177 187.988 135.564 189.588 132.612C191.208 129.621 192.632 126.101 193.881 123.016L192.511 122.462C191.256 125.564 189.863 129.003 188.289 131.908C186.694 134.851 185.003 137.069 183.229 137.924L183.869 139.255ZM193.881 123.016C194.242 122.123 194.589 121.266 194.924 120.464L193.56 119.896C193.222 120.706 192.872 121.57 192.511 122.462L193.881 123.016ZM193.538 120.404C194.993 124.978 197.113 130.235 199.465 134.945C201.807 139.638 204.414 143.86 206.862 146.307L207.906 145.262C205.635 142.991 203.114 138.947 200.786 134.285C198.468 129.642 196.377 124.456 194.946 119.956L193.538 120.404ZM206.862 146.307C208.496 147.942 210.758 148.886 213.268 149.372C215.781 149.857 218.6 149.894 221.417 149.666L221.298 148.193C218.56 148.415 215.886 148.373 213.548 147.921C211.207 147.468 209.26 146.616 207.906 145.262L206.862 146.307ZM220.755 148.502C217.122 153.62 212.053 157.96 206.553 161.533L207.358 162.772C212.958 159.135 218.186 154.674 221.96 149.357L220.755 148.502ZM207.026 161.417C204.215 161.149 201.55 160.793 199.312 160.328C197.052 159.859 195.31 159.296 194.286 158.651L193.499 159.901C194.76 160.696 196.725 161.3 199.012 161.775C201.322 162.254 204.046 162.617 206.885 162.888L207.026 161.417ZM194.286 158.651C193.65 158.251 192.88 157.41 192.012 156.139C191.156 154.885 190.25 153.282 189.322 151.436C187.467 147.745 185.554 143.14 183.815 138.549L182.433 139.072C184.181 143.685 186.114 148.343 188.002 152.1C188.945 153.977 189.885 155.644 190.792 156.972C191.686 158.282 192.596 159.333 193.499 159.901L194.286 158.651Z" fill="black"/>
<path fill-rule="evenodd" clip-rule="evenodd" d="M229.02 124.248C228.936 128.705 228.155 133.586 226.402 138.724C226.514 131.095 225.308 121.959 220.318 118.602C216.073 115.747 207.644 113.219 199.679 111.704C202.115 109.015 205.463 105.749 208.881 103.346C215.395 104.777 220.907 106.496 222.674 108.372C224.927 110.766 227.203 117.451 229.02 124.248Z" fill="#A8D3FF"/>
<path d="M229.02 124.248L229.758 124.262C229.759 124.193 229.751 124.124 229.733 124.058L229.02 124.248ZM226.402 138.724L225.663 138.714C225.658 139.077 225.918 139.39 226.276 139.452C226.634 139.514 226.984 139.307 227.101 138.963L226.402 138.724ZM220.318 118.602L219.906 119.215L220.318 118.602ZM199.679 111.704L199.132 111.208C198.952 111.406 198.894 111.686 198.979 111.939C199.064 112.192 199.279 112.38 199.541 112.43L199.679 111.704ZM208.881 103.346L209.04 102.625C208.837 102.58 208.626 102.623 208.456 102.742L208.881 103.346ZM222.674 108.372L223.211 107.866V107.866L222.674 108.372ZM228.281 124.235C228.199 128.615 227.431 133.42 225.703 138.486L227.101 138.963C228.879 133.753 229.673 128.796 229.758 124.262L228.281 124.235ZM219.906 119.215C222.173 120.74 223.661 123.645 224.556 127.24C225.446 130.812 225.719 134.934 225.663 138.714L227.141 138.735C227.197 134.886 226.922 130.625 225.99 126.882C225.063 123.163 223.453 119.821 220.73 117.989L219.906 119.215ZM199.541 112.43C203.499 113.183 207.567 114.186 211.166 115.353C214.777 116.524 217.869 117.845 219.906 119.215L220.73 117.989C218.523 116.504 215.277 115.133 211.621 113.948C207.953 112.758 203.824 111.741 199.817 110.978L199.541 112.43ZM200.227 112.2C202.642 109.533 205.949 106.31 209.306 103.95L208.456 102.742C204.976 105.188 201.587 108.498 199.132 111.208L200.227 112.2ZM223.211 107.866C222.687 107.309 221.928 106.804 221.028 106.34C220.12 105.872 219.028 105.423 217.801 104.995C215.349 104.138 212.31 103.343 209.04 102.625L208.722 104.067C211.966 104.78 214.94 105.56 217.314 106.39C218.501 106.804 219.525 107.227 220.351 107.653C221.185 108.084 221.777 108.498 222.136 108.879L223.211 107.866ZM229.733 124.058C228.821 120.646 227.791 117.249 226.7 114.395C225.622 111.574 224.447 109.179 223.211 107.866L222.136 108.879C223.153 109.959 224.243 112.104 225.32 114.923C226.385 117.71 227.401 121.053 228.306 124.439L229.733 124.058Z" fill="black"/>
<path d="M117.083 57.2887C121.073 60.569 142.08 47.68 142.423 41.9155C132.754 34.6076 124.345 18.1797 118.588 27.1872C112.831 36.1947 109.393 50.966 117.083 57.2887Z" fill="#A8D3FF" stroke="black" stroke-width="1.47739" stroke-linejoin="round"/>
<path d="M81.2719 98.8989C90.0035 101.657 102.232 108.197 107.255 111.122L93.6882 138.936C91.5011 137.705 86.1437 134.119 82.2106 129.614C77.2943 123.984 72.9267 113.807 70.7741 111.477C68.6216 109.146 68.3601 108.081 68.5746 106.905C68.789 105.729 66.9894 105.258 67.2528 103.726C67.5162 102.194 70.5036 101.949 69.4199 100.447C68.3361 98.9448 70.3574 95.4511 81.2719 98.8989Z" fill="#F3E6E9"/>
<path d="M107.255 111.122C102.232 108.197 90.0035 101.657 81.2719 98.8989C70.3574 95.4511 68.3361 98.9448 69.4199 100.447C70.5036 101.949 67.5162 102.194 67.2528 103.726C66.9894 105.258 68.789 105.729 68.5746 106.905C68.3601 108.081 68.6216 109.146 70.7741 111.477C72.9267 113.807 77.2943 123.984 82.2106 129.614C86.1437 134.119 91.5011 137.705 93.6882 138.936" stroke="black" stroke-width="1.56933"/>
<path d="M184.304 108.068C186.942 106.603 187.821 98.104 191.924 95.1733C190.85 94.0987 188.466 90.7772 187.528 86.088C186.356 80.2265 173.461 45.6528 160.565 43.3082C147.67 40.9636 125.218 41.3578 119.942 47.8054C114.667 54.253 107.519 64.1075 104.295 67.3313C101.716 69.9104 98.5316 78.5658 97.2617 82.5711C99.7752 84.5211 104.582 88.8611 103.702 90.6213C102.602 92.8215 101.355 93.8482 102.089 94.9483C102.822 96.0484 111.036 99.642 110.449 101.182C109.863 102.722 102.089 127.925 98.463 143.665C93.8503 163.69 80.1745 167.861 78.1447 173.66C70.8135 194.606 104.625 185.178 111.024 187.318C115.77 188.905 128.177 196.423 140.816 200.27C147.365 202.263 156.42 216.763 160.565 219.408C163.882 221.523 174.226 236.317 181.661 231.083C181.661 231.083 180.386 208.23 182.507 197.61C184.627 186.991 194.199 184.52 191.924 167.206C189.649 149.892 181.661 127.025 181.661 127.025L174.241 113.637V111.075C178.863 109.95 183.103 108.736 184.304 108.068Z" fill="#F3E6E9"/>
<path d="M141.516 110.12C146.596 111.292 157.517 113.637 160.565 113.637C162.64 113.637 168.714 112.42 174.241 111.075M174.241 111.075C178.863 109.95 183.103 108.736 184.304 108.068C186.942 106.603 187.821 98.104 191.924 95.1733C190.85 94.0987 188.466 90.7772 187.528 86.088C186.356 80.2265 173.461 45.6528 160.565 43.3082C147.67 40.9636 125.218 41.3578 119.942 47.8054C114.667 54.253 107.519 64.1075 104.295 67.3313C101.716 69.9104 98.5316 78.5658 97.2617 82.5711C99.7752 84.5211 104.582 88.8611 103.702 90.6213C102.602 92.8215 101.355 93.8482 102.089 94.9483C102.822 96.0484 111.036 99.642 110.449 101.182C109.863 102.722 102.089 127.925 98.463 143.665C93.8503 163.69 80.1745 167.861 78.1447 173.66C70.8135 194.606 104.625 185.178 111.024 187.318C115.77 188.905 128.177 196.423 140.816 200.27C147.365 202.263 156.42 216.763 160.565 219.408C163.882 221.523 174.226 236.317 181.661 231.083C181.661 231.083 180.386 208.23 182.507 197.61C184.627 186.991 194.199 184.52 191.924 167.206C189.649 149.892 181.661 127.025 181.661 127.025L174.241 113.637V111.075Z" stroke="black" stroke-width="1.47739" stroke-linejoin="round"/>
<path d="M159.978 49.4538C159.978 44.2888 181.507 35.8769 186.177 39.2734C190.847 43.519 189.642 73.5872 179.028 72.3135C168.414 71.0398 159.978 59.4092 159.978 49.4538Z" fill="#A8D3FF" stroke="black" stroke-width="1.47739" stroke-linejoin="round"/>
<path d="M137.118 96.8304C139.173 99.6695 146.23 102.114 149.559 101.486C152.888 100.858 154.01 99.7823 156.015 97.9488C158.522 95.6568 159.593 81.6398 153.521 72.395C147.448 63.1502 143.026 64.2973 137.995 63.9396C132.964 63.5818 131.791 57.9621 124.005 57.8351C116.22 57.7081 104.453 69.3274 107.279 77.3226C110.106 85.3178 117.606 69.4011 126.289 69.9445C134.972 70.4879 135.064 93.9914 137.118 96.8304Z" fill="#A8D3FF" stroke="black" stroke-width="1.47739" stroke-linejoin="round"/>
<path d="M113.789 72.5324C115.386 70.1546 123.477 71.0456 127.322 71.7883L124.958 79.5647L113.778 92.4546C113.012 91.1661 111.324 87.9131 110.692 85.2093C109.902 81.8295 111.792 75.5048 113.789 72.5324Z" fill="#F3E6E9"/>
<path d="M127.322 71.7883C123.477 71.0456 115.386 70.1546 113.789 72.5324C111.792 75.5048 109.902 81.8295 110.692 85.2093C111.324 87.9131 113.012 91.1661 113.778 92.4546" stroke="black" stroke-width="1.47739" stroke-linejoin="round"/>
<path d="M118.285 93.2794C120.049 94.7373 127.305 87.5724 127.161 86.3365C127.054 85.3037 121.012 84.1375 118.722 83.2782C117.589 83.8464 113.908 84.0469 113.795 85.0339C113.653 86.2676 116.522 91.8215 118.285 93.2794Z" fill="#A8D3FF" stroke="black" stroke-width="1.47739" stroke-linejoin="round"/>
<path d="M144.2 79.2474L141.395 74.5431M121.13 67.2516L116.527 68.0144" stroke="black" stroke-width="1.47739" stroke-linejoin="round"/>
<path d="M116.515 74.1036C117.473 73.3392 124.803 75.6808 124.953 77.1619C124.947 78.7687 119.752 83.8784 118.214 81.4662C116.676 79.0539 114.668 75.5771 116.515 74.1036Z" fill="#A8D3FF" stroke="black" stroke-width="1.47739" stroke-linejoin="round"/>
<path d="M66.7897 167.105C74.5287 167.319 82.8693 176.228 86.2235 182.217C90.6718 190.158 89.4858 195.661 84.0556 195.927C77.7857 196.235 65.4819 185.291 59.3775 177.017C56.7285 173.426 57.116 166.838 66.7897 167.105Z" fill="#A8D3FF" stroke="black" stroke-width="1.56933" stroke-linejoin="round"/>
<path d="M165.18 220.431C172.171 218.16 176.932 219.28 182.224 221.893C189.241 225.358 190.294 229.084 185.549 230.931C180.069 233.065 168.581 235.322 159.957 232.168C156.215 230.799 156.442 223.27 165.18 220.431Z" fill="#A8D3FF" stroke="black" stroke-width="1.56933" stroke-linejoin="round"/>
<path d="M198.307 117.362C189.185 118.169 175.833 121.913 170.297 123.684L177.536 153.772C179.937 153.043 185.943 150.698 190.756 147.149C196.772 142.713 203.235 133.721 205.84 131.91C208.445 130.099 208.93 129.116 208.975 127.921C209.02 126.726 210.879 126.655 210.952 125.102C211.026 123.55 208.162 122.666 209.544 121.433C210.927 120.2 209.708 116.353 198.307 117.362Z" fill="#F3E6E9"/>
<path d="M170.297 123.684C175.833 121.913 189.185 118.169 198.307 117.362C209.708 116.353 210.927 120.2 209.544 121.433C208.162 122.666 211.026 123.55 210.952 125.102C210.879 126.655 209.02 126.726 208.975 127.921C208.93 129.116 208.445 130.099 205.84 131.91C203.235 133.721 196.772 142.713 190.756 147.149C185.943 150.698 179.937 153.043 177.536 153.772" stroke="black" stroke-width="1.56933"/>
<path d="M85.3545 99.6359C95.0334 101.695 99.9097 105.032 105.383 107.626L96.584 140.604C94.1974 139.52 88.3917 136.262 84.2609 131.898C79.0973 126.444 74.3391 116.557 72.6028 113.902C71.3078 111.922 78.6777 98.2157 85.3545 99.6359Z" fill="#FF94B4"/>
<path d="M106.892 108.358C101.418 105.764 95.0336 101.695 85.3547 99.6361C78.6779 98.2158 71.308 111.922 72.603 113.902C74.3393 116.558 79.0975 126.444 84.2611 131.898C88.3919 136.262 94.1976 139.52 96.5842 140.604" stroke="black" stroke-width="1.56933"/>
<path d="M114.517 129.448C112.45 130.094 108.877 117.793 107.521 113.054C97.9031 106.734 95.6839 141.098 87.9156 159.663C84.143 168.679 85.1677 166.207 109.74 186.918C124.681 199.51 182.536 200.784 185.865 199.599C189.195 198.414 186.311 195.586 188.53 184.526C189.585 179.271 192.075 169.401 188.53 154.939C184.616 138.965 182.552 118.266 180.393 117.398C175.472 115.422 134.212 123.287 114.517 129.448Z" fill="#FF94B4" stroke="black" stroke-width="1.56933"/>
<path d="M116.375 118.978C114.167 119.625 110.352 107.324 108.904 102.584C98.6341 96.2638 96.2644 130.628 87.9692 149.193C83.9408 158.209 94.6841 164.598 111.274 176.448C127.864 188.298 183.163 189.005 186.718 187.82C190.273 186.635 193.038 183.621 195.408 172.561L195.454 172.346C196.557 167.204 197.361 163.457 193.629 149.193C192.285 144.06 199.863 135.472 199.109 129.516C197.515 116.937 188.283 107.518 186.718 106.929C181.464 104.952 137.406 112.817 116.375 118.978Z" fill="#FF94B4" stroke="black" stroke-width="1.56933"/>
<path d="M196.21 117.592C186.315 117.618 180.856 119.882 174.967 121.295L176.801 155.378C179.36 154.808 185.711 152.812 190.65 149.391C196.824 145.114 203.513 136.416 205.758 134.174C207.432 132.502 203.036 117.574 196.21 117.592Z" fill="#FF94B4"/>
<path d="M162.29 123.063C165.092 122.39 170.664 121.126 176.803 119.982M176.803 155.378C179.361 154.808 185.712 152.812 190.652 149.391C196.826 145.114 203.514 136.416 205.759 134.174C207.433 132.502 203.037 117.574 196.211 117.592C191.023 117.606 183.569 118.72 176.803 119.982M176.803 119.982C170.882 119.409 156.574 118.608 146.705 119.982" stroke="black" stroke-width="1.56933"/>
</svg>
