<svg width="301" height="250" viewBox="0 0 301 250" fill="none" xmlns="http://www.w3.org/2000/svg">
<circle cx="142.654" cy="124.577" r="105.271" fill="#FF6F6F"/>
<circle cx="142.655" cy="124.577" r="78.2508" fill="#F9A857"/>
<path d="M289.247 153.273C282.748 168.044 261.922 176.29 252.322 178.567L237.367 167.305C241.736 162.197 251.472 151.501 255.46 149.581C260.445 147.181 263.768 133.887 266.169 130.564C268.569 127.241 278.354 116.532 284.078 118.009C289.801 119.486 297.371 134.81 289.247 153.273Z" fill="#F3E6E9" stroke="black" stroke-width="1.47703" stroke-linejoin="round"/>
<path fill-rule="evenodd" clip-rule="evenodd" d="M255.111 149.763C255.232 149.695 255.348 149.635 255.46 149.581C258.756 147.994 261.325 141.647 263.381 136.567C263.678 135.834 263.964 135.127 264.24 134.465C266.61 141.915 271.156 151.614 275.031 155.489C277.484 157.942 281.943 158.44 286.504 158.071C283.463 162.355 279.236 165.968 274.679 168.928C270.04 168.485 265.829 167.748 263.953 166.567C261.426 164.975 257.974 157.319 255.111 149.763Z" fill="#FFB4CA"/>
<path d="M255.111 149.763L254.752 149.118C254.432 149.296 254.291 149.682 254.421 150.024L255.111 149.763ZM255.46 149.581L255.14 148.915L255.14 148.915L255.46 149.581ZM263.381 136.567L262.697 136.289L263.381 136.567ZM264.24 134.465L264.944 134.241C264.85 133.946 264.582 133.741 264.272 133.727C263.963 133.714 263.678 133.895 263.558 134.181L264.24 134.465ZM275.031 155.489L274.509 156.011L275.031 155.489ZM286.504 158.071L287.106 158.498C287.272 158.264 287.288 157.955 287.146 157.706C287.004 157.456 286.73 157.312 286.444 157.335L286.504 158.071ZM274.679 168.928L274.608 169.663C274.775 169.679 274.941 169.638 275.081 169.548L274.679 168.928ZM263.953 166.567L263.56 167.192V167.192L263.953 166.567ZM255.471 150.407C255.581 150.346 255.684 150.293 255.781 150.246L255.14 148.915C255.013 148.976 254.883 149.044 254.752 149.118L255.471 150.407ZM255.781 150.246C257.66 149.341 259.221 147.16 260.535 144.736C261.869 142.272 263.041 139.375 264.066 136.844L262.697 136.289C261.665 138.838 260.524 141.655 259.236 144.032C257.927 146.447 256.555 148.234 255.14 148.915L255.781 150.246ZM264.066 136.844C264.363 136.11 264.647 135.407 264.922 134.749L263.558 134.181C263.281 134.847 262.993 135.557 262.697 136.289L264.066 136.844ZM263.536 134.689C264.733 138.451 266.476 142.774 268.41 146.648C270.335 150.504 272.484 153.986 274.509 156.011L275.553 154.967C273.704 153.117 271.641 149.813 269.732 145.988C267.831 142.181 266.117 137.929 264.944 134.241L263.536 134.689ZM274.509 156.011C275.876 157.378 277.761 158.162 279.837 158.564C281.916 158.966 284.243 158.995 286.564 158.807L286.444 157.335C284.204 157.516 282.021 157.481 280.117 157.113C278.21 156.745 276.639 156.053 275.553 154.967L274.509 156.011ZM285.902 157.644C282.931 161.828 278.784 165.381 274.276 168.309L275.081 169.548C279.688 166.555 283.995 162.882 287.106 158.498L285.902 157.644ZM274.749 168.193C272.444 167.973 270.261 167.681 268.43 167.301C266.576 166.916 265.166 166.457 264.347 165.942L263.56 167.192C264.617 167.857 266.25 168.357 268.13 168.747C270.033 169.142 272.275 169.44 274.608 169.663L274.749 168.193ZM264.347 165.942C263.848 165.628 263.228 164.956 262.518 163.916C261.82 162.894 261.079 161.583 260.318 160.07C258.798 157.045 257.23 153.269 255.802 149.501L254.421 150.024C255.856 153.813 257.445 157.643 258.998 160.733C259.775 162.278 260.549 163.652 261.298 164.749C262.035 165.828 262.795 166.71 263.56 167.192L264.347 165.942Z" fill="black"/>
<path fill-rule="evenodd" clip-rule="evenodd" d="M292.795 137.807C292.726 141.467 292.085 145.474 290.645 149.693C290.737 143.428 289.747 135.926 285.65 133.17C282.165 130.825 275.244 128.75 268.704 127.506C270.704 125.299 273.453 122.617 276.259 120.643C281.608 121.819 286.134 123.23 287.584 124.771C289.434 126.736 291.303 132.225 292.795 137.807Z" fill="#FFB4CA"/>
<path d="M292.795 137.807L293.533 137.821C293.535 137.752 293.526 137.683 293.508 137.616L292.795 137.807ZM290.645 149.693L289.907 149.682C289.902 150.045 290.161 150.358 290.519 150.421C290.877 150.483 291.227 150.275 291.344 149.931L290.645 149.693ZM285.65 133.17L286.062 132.557H286.062L285.65 133.17ZM268.704 127.506L268.157 127.01C267.977 127.208 267.919 127.488 268.004 127.741C268.089 127.994 268.304 128.182 268.566 128.232L268.704 127.506ZM276.259 120.643L276.418 119.922C276.216 119.878 276.004 119.92 275.835 120.039L276.259 120.643ZM287.584 124.771L287.046 125.277H287.046L287.584 124.771ZM292.057 137.793C291.989 141.376 291.361 145.308 289.946 149.454L291.344 149.931C292.809 145.64 293.463 141.557 293.533 137.821L292.057 137.793ZM285.238 133.783C287.059 135.008 288.269 137.354 289.002 140.294C289.729 143.213 289.952 146.585 289.907 149.682L291.384 149.704C291.43 146.537 291.205 143.025 290.435 139.937C289.671 136.872 288.338 134.089 286.062 132.557L285.238 133.783ZM268.566 128.232C271.811 128.849 275.146 129.672 278.095 130.628C281.056 131.588 283.58 132.668 285.238 133.783L286.062 132.557C284.234 131.328 281.556 130.197 278.55 129.223C275.532 128.244 272.137 127.407 268.842 126.781L268.566 128.232ZM269.251 128.002C271.231 125.816 273.939 123.178 276.684 121.248L275.835 120.039C272.966 122.056 270.176 124.781 268.157 127.01L269.251 128.002ZM288.122 124.264C287.677 123.791 287.038 123.369 286.294 122.985C285.541 122.596 284.638 122.226 283.627 121.873C281.606 121.167 279.106 120.513 276.418 119.922L276.101 121.365C278.762 121.949 281.198 122.589 283.14 123.267C284.111 123.606 284.945 123.951 285.616 124.297C286.296 124.648 286.766 124.979 287.046 125.277L288.122 124.264ZM293.508 137.616C292.759 134.813 291.911 132.018 291.014 129.669C290.128 127.352 289.156 125.363 288.122 124.264L287.046 125.277C287.862 126.143 288.75 127.882 289.634 130.196C290.506 132.479 291.339 135.22 292.081 137.998L293.508 137.616Z" fill="black"/>
<path d="M200.886 82.8264C204.162 85.5198 221.411 74.9368 221.692 70.2037C213.753 64.2033 206.849 50.7147 202.122 58.1106C197.394 65.5065 194.572 77.635 200.886 82.8264Z" fill="#FFB4CA" stroke="black" stroke-width="1.47703" stroke-linejoin="round"/>
<path d="M256.08 124.521C258.246 123.318 258.968 116.339 262.337 113.933C261.454 113.05 259.497 110.323 258.727 106.473C257.765 101.66 247.177 73.2725 236.589 71.3474C226.001 69.4223 207.565 69.7459 203.234 75.0399C198.902 80.3339 193.033 88.4253 190.386 91.0723C188.269 93.1899 185.654 100.297 184.611 103.585C186.675 105.187 190.622 108.75 189.899 110.195C188.996 112.002 187.972 112.845 188.574 113.748C189.177 114.651 195.921 117.602 195.439 118.867C194.957 120.131 188.574 140.824 185.597 153.748C181.81 170.191 182.822 183.561 181.156 188.323C175.136 205.522 180.056 213.15 181.156 214.989C184.611 220.768 188.574 220.953 196.592 219.322C197.773 219.082 219.103 220.364 222.507 222.536C225.23 224.273 232.325 223.259 235.531 222.536C235.531 222.536 256.08 204.649 260.469 197.633C264.857 190.617 264.205 187.294 262.337 173.078C260.469 158.861 253.91 140.086 253.91 140.086L247.817 129.093V126.989C251.612 126.066 255.094 125.069 256.08 124.521Z" fill="#F3E6E9"/>
<path d="M220.947 126.205C225.118 127.168 234.086 129.093 236.589 129.093C238.292 129.093 243.279 128.094 247.817 126.989M247.817 126.989C251.612 126.066 255.094 125.069 256.08 124.521C258.246 123.318 258.968 116.339 262.337 113.933C261.454 113.05 259.497 110.323 258.727 106.473C257.765 101.66 247.177 73.2725 236.589 71.3474C226.001 69.4223 207.565 69.7459 203.234 75.0399C198.902 80.3339 193.033 88.4253 190.386 91.0723C188.269 93.1899 185.654 100.297 184.611 103.585C186.675 105.187 190.622 108.75 189.899 110.195C188.996 112.002 187.972 112.845 188.574 113.748C189.177 114.651 195.921 117.602 195.439 118.867C194.957 120.131 188.574 140.824 185.597 153.748C181.81 170.191 182.822 183.561 181.156 188.323C175.136 205.522 180.056 213.15 181.156 214.989C184.611 220.768 188.574 220.953 196.592 219.322C197.773 219.082 219.103 220.364 222.507 222.536C225.23 224.273 232.325 223.259 235.531 222.536C235.531 222.536 256.08 204.649 260.469 197.633C264.857 190.617 264.205 187.294 262.337 173.078C260.469 158.861 253.91 140.086 253.91 140.086L247.817 129.093V126.989Z" stroke="black" stroke-width="1.47703" stroke-linejoin="round"/>
<path d="M236.106 76.3934C236.106 72.1526 253.783 65.2457 257.618 68.0345C261.452 71.5205 260.463 96.2089 251.748 95.1631C243.033 94.1173 236.106 84.5676 236.106 76.3934Z" fill="#FFB4CA" stroke="black" stroke-width="1.47703" stroke-linejoin="round"/>
<path d="M212.392 115.403C213.94 117.705 219.338 119.629 221.905 119.079C224.471 118.529 225.345 117.636 226.906 116.112C228.858 114.208 229.834 102.719 225.267 95.2157C220.699 87.7121 217.288 88.6995 213.424 88.4614C209.561 88.2233 208.72 83.6346 202.736 83.6154C196.753 83.5962 187.58 93.2384 189.666 99.7542C191.752 106.27 197.691 93.1555 204.36 93.5058C211.029 93.8562 210.844 113.1 212.392 115.403Z" fill="#FFB4CA" stroke="black" stroke-width="1.47703" stroke-linejoin="round"/>
<path d="M195.769 95.82C197.08 93.8676 203.723 94.5991 206.881 95.209L204.939 101.594L195.76 112.178C195.131 111.12 193.745 108.449 193.226 106.229C192.578 103.454 194.13 98.2605 195.769 95.82Z" fill="#F3E6E9"/>
<path d="M206.881 95.209C203.723 94.5991 197.08 93.8676 195.769 95.82C194.13 98.2605 192.578 103.454 193.226 106.229C193.745 108.449 195.131 111.12 195.76 112.178" stroke="black" stroke-width="1.47703" stroke-linejoin="round"/>
<path d="M197.625 109.784C199.073 110.981 203.88 106.23 203.762 105.215C203.674 104.367 199.891 102.744 198.011 102.038C197.081 102.505 195.224 102.609 195.13 103.419C195.014 104.432 196.177 108.587 197.625 109.784Z" fill="#FFB4CA" stroke="black" stroke-width="1.47703" stroke-linejoin="round"/>
<path d="M217.286 99.7961L217.778 95.844M200.641 88.9311L199.456 92.3618" stroke="black" stroke-width="1.47703" stroke-linejoin="round"/>
<path d="M197.686 95.2979C198.473 94.6702 202.709 97.3514 202.833 98.5675C202.827 99.8868 198.083 103.334 196.82 101.353C195.557 99.3723 196.17 96.5077 197.686 95.2979Z" fill="#FFB4CA" stroke="black" stroke-width="1.47703" stroke-linejoin="round"/>
<path d="M263.129 230.509L268.661 232.274L272.138 184.502L268.661 176.337L263.129 178.985V230.509Z" fill="#62B0FF" stroke="black" stroke-width="1.56894" stroke-linejoin="round"/>
<path d="M243.793 243.439L240.236 245.841L240.237 190.648L272.139 173.48V230.504L268.683 232.323V178.158L243.793 192.021V243.439Z" fill="#51C0C0" stroke="black" stroke-width="1.56894" stroke-linejoin="round"/>
<path d="M272.088 170.808L125.399 114.744L114.809 188.484L237.677 248.185C238.719 248.691 239.932 247.932 239.932 246.774V198.084C239.932 194.096 242.094 190.421 245.581 188.484L272.29 173.645C273.455 172.998 273.333 171.284 272.088 170.808Z" fill="#51C0C0" stroke="black" stroke-width="1.56894"/>
<path d="M98.5362 133.368C97.3205 132.777 96.5488 131.544 96.5488 130.192V125.336C96.5488 124.013 97.2888 122.801 98.4658 122.196L125.715 108.197C126.611 107.737 127.662 107.681 128.602 108.045L175.53 126.202C176.745 126.671 177.545 127.84 177.545 129.142C177.545 130.237 176.978 131.253 176.046 131.827L152.244 146.488C151.921 146.688 151.567 146.833 151.197 146.92L147.747 147.727C147.396 147.81 147.147 148.123 147.147 148.484C147.147 149.059 147.75 149.434 148.266 149.18L153.129 146.789L173.237 134.325C174.922 133.281 177.121 134.344 177.349 136.313C177.469 137.351 176.98 138.365 176.094 138.919L148.803 155.954C147.773 156.597 146.484 156.665 145.391 156.134L98.5362 133.368Z" fill="#FF94B4" stroke="black" stroke-width="1.56894"/>
<path d="M98.5362 119.169C97.3205 118.578 96.5488 117.345 96.5488 115.993V111.137C96.5488 109.814 97.2888 108.602 98.4658 107.997L125.715 93.9982C126.611 93.5376 127.662 93.4822 128.602 93.8459L175.53 112.003C176.745 112.473 177.545 113.641 177.545 114.943C177.545 116.038 176.978 117.054 176.046 117.628L152.244 132.289C151.921 132.489 151.567 132.634 151.197 132.721L147.747 133.528C147.396 133.611 147.147 133.924 147.147 134.285C147.147 134.86 147.75 135.235 148.266 134.981L153.129 132.59L173.237 120.126C174.922 119.082 177.121 120.145 177.349 122.114C177.469 123.152 176.98 124.167 176.094 124.72L148.803 141.755C147.773 142.398 146.484 142.466 145.391 141.935L98.5362 119.169Z" fill="#FF94B4" stroke="black" stroke-width="1.56894"/>
<path d="M98.5362 105.722C97.3205 105.131 96.5488 103.898 96.5488 102.547V97.6908C96.5488 96.3676 97.2888 95.1555 98.4658 94.5509L125.715 80.5517C126.611 80.0911 127.662 80.0357 128.602 80.3994L175.53 98.556C176.745 99.026 177.545 100.194 177.545 101.497C177.545 102.592 176.978 103.608 176.046 104.182L152.244 118.843C151.921 119.042 151.567 119.188 151.197 119.274L147.747 120.082C147.396 120.164 147.147 120.477 147.147 120.838C147.147 121.413 147.75 121.789 148.266 121.535L153.129 119.144L173.237 106.68C174.922 105.635 177.121 106.699 177.349 108.668C177.469 109.706 176.98 110.72 176.094 111.273L148.803 128.308C147.773 128.951 146.484 129.019 145.391 128.489L98.5362 105.722Z" fill="#FF94B4" stroke="black" stroke-width="1.56894"/>
<path d="M98.5362 90.7325C97.3205 90.1419 96.5488 88.9089 96.5488 87.5574V82.7013C96.5488 81.3781 97.2888 80.166 98.4658 79.5614L125.715 65.5622C126.611 65.1016 127.662 65.0462 128.602 65.4098L175.53 83.5665C176.745 84.0365 177.545 85.2049 177.545 86.5074C177.545 87.602 176.978 88.6183 176.046 89.1924L152.244 103.853C151.921 104.053 151.567 104.198 151.197 104.285L147.747 105.092C147.396 105.175 147.147 105.488 147.147 105.849C147.147 106.424 147.75 106.799 148.266 106.545L153.129 104.154L173.237 91.6904C174.922 90.646 177.121 91.7091 177.349 93.6784C177.469 94.7163 176.98 95.7305 176.094 96.2837L148.803 113.319C147.773 113.962 146.484 114.03 145.391 113.499L98.5362 90.7325Z" fill="#FF94B4" stroke="black" stroke-width="1.56894"/>
<path d="M6.37431 204.653C13.2777 188.964 35.3997 180.204 45.5978 177.785L61.4833 189.748C56.8419 195.174 46.5 206.536 42.2638 208.576C36.9686 211.125 33.4385 225.246 30.889 228.776C28.3395 232.306 17.9453 243.681 11.8656 242.112C5.78596 240.543 -2.25486 224.265 6.37431 204.653Z" fill="#F3E6E9" stroke="black" stroke-width="1.56894" stroke-linejoin="round"/>
<path fill-rule="evenodd" clip-rule="evenodd" d="M42.6334 208.382C42.5052 208.454 42.3816 208.518 42.2627 208.575C38.7622 210.261 36.0331 217.003 33.8487 222.399C33.5336 223.178 33.2298 223.928 32.9367 224.631C30.4197 216.717 25.5902 206.415 21.4745 202.3C18.8684 199.694 14.1323 199.164 9.28711 199.557C12.5173 195.006 17.0074 191.168 21.8482 188.024C26.7755 188.495 31.2486 189.278 33.2416 190.533C35.926 192.223 39.5923 200.355 42.6334 208.382Z" fill="#A8D3FF"/>
<path d="M42.6334 208.382L43.0157 209.067C43.3553 208.878 43.5047 208.468 43.3669 208.104L42.6334 208.382ZM42.2627 208.575L41.9224 207.869L41.9224 207.869L42.2627 208.575ZM33.8487 222.399L33.1215 222.105L33.8487 222.399ZM32.9367 224.631L32.1892 224.869C32.2889 225.183 32.5738 225.401 32.9026 225.415C33.2314 225.429 33.5342 225.237 33.6608 224.933L32.9367 224.631ZM21.4745 202.3L22.0292 201.745L22.0292 201.745L21.4745 202.3ZM9.28711 199.557L8.6474 199.103C8.47095 199.351 8.4545 199.68 8.60523 199.945C8.75596 200.21 9.04656 200.363 9.35043 200.339L9.28711 199.557ZM21.8482 188.024L21.9228 187.243C21.7464 187.226 21.5695 187.27 21.4209 187.366L21.8482 188.024ZM33.2416 190.533L32.8236 191.196L33.2416 190.533ZM42.251 207.697C42.1348 207.762 42.0252 207.819 41.9224 207.869L42.603 209.282C42.7379 209.217 42.8756 209.145 43.0157 209.067L42.251 207.697ZM41.9224 207.869C39.9257 208.83 38.268 211.146 36.8724 213.722C35.4547 216.339 34.21 219.416 33.1215 222.105L34.5758 222.694C35.6717 219.986 36.8838 216.994 38.2519 214.469C39.6422 211.904 41.0993 210.006 42.6031 209.282L41.9224 207.869ZM33.1215 222.105C32.8061 222.884 32.5039 223.631 32.2127 224.33L33.6608 224.933C33.9558 224.226 34.2611 223.471 34.5758 222.694L33.1215 222.105ZM33.6843 224.394C32.4133 220.397 30.5613 215.806 28.507 211.691C26.4623 207.595 24.1803 203.896 22.0292 201.745L20.9198 202.854C22.8844 204.819 25.075 208.329 27.1032 212.392C29.1218 216.435 30.9431 220.951 32.1892 224.869L33.6843 224.394ZM22.0292 201.745C20.5768 200.293 18.5743 199.46 16.3694 199.034C14.1606 198.607 11.6887 198.575 9.22379 198.775L9.35043 200.339C11.7307 200.146 14.0495 200.183 16.0716 200.574C18.0975 200.966 19.7661 201.701 20.9198 202.854L22.0292 201.745ZM9.92682 200.011C13.082 195.566 17.4876 191.792 22.2755 188.682L21.4209 187.366C16.5272 190.545 11.9525 194.446 8.6474 199.103L9.92682 200.011ZM21.7736 188.805C24.2221 189.039 26.5412 189.349 28.4859 189.752C30.455 190.161 31.9534 190.649 32.8236 191.196L33.6595 189.869C32.5368 189.162 30.8022 188.631 28.8046 188.216C26.7827 187.797 24.4016 187.48 21.9228 187.243L21.7736 188.805ZM32.8236 191.196C33.3531 191.53 34.0114 192.243 34.7661 193.348C35.5077 194.434 36.295 195.826 37.1028 197.433C38.7176 200.646 40.3835 204.658 41.8998 208.66L43.3669 208.104C41.8421 204.08 40.1544 200.011 38.5047 196.729C37.6802 195.088 36.8576 193.629 36.0617 192.463C35.279 191.317 34.4722 190.38 33.6595 189.869L32.8236 191.196Z" fill="black"/>
<path fill-rule="evenodd" clip-rule="evenodd" d="M2.60547 221.084C2.67803 217.196 3.3591 212.939 4.88827 208.458C4.79065 215.112 5.84288 223.08 10.1944 226.007C13.8969 228.498 21.2486 230.702 28.1955 232.024C26.0714 234.369 23.1512 237.217 20.1698 239.314C14.4885 238.065 9.68041 236.566 8.1401 234.93C6.17496 232.842 4.19013 227.012 2.60547 221.084Z" fill="#A8D3FF"/>
<path d="M2.60547 221.084L1.82113 221.069C1.81977 221.142 1.82868 221.215 1.8476 221.286L2.60547 221.084ZM4.88827 208.458L5.67265 208.47C5.67831 208.084 5.40254 207.751 5.02235 207.685C4.64215 207.619 4.27045 207.839 4.14583 208.205L4.88827 208.458ZM10.1944 226.007L10.6323 225.356V225.356L10.1944 226.007ZM28.1955 232.024L28.7769 232.55C28.9674 232.34 29.0295 232.044 28.9393 231.775C28.8492 231.506 28.6208 231.306 28.3421 231.253L28.1955 232.024ZM20.1698 239.314L20.0015 240.08C20.2163 240.127 20.4411 240.082 20.621 239.955L20.1698 239.314ZM8.1401 234.93L7.56887 235.467L8.1401 234.93ZM3.3898 221.098C3.46085 217.292 4.12777 213.116 5.6307 208.711L4.14583 208.205C2.59042 212.763 1.89522 217.101 1.82113 221.069L3.3898 221.098ZM10.6323 225.356C8.69824 224.055 7.41242 221.564 6.6341 218.44C5.86177 215.341 5.62439 211.76 5.67265 208.47L4.10388 208.447C4.05453 211.81 4.29445 215.54 5.11172 218.82C5.923 222.076 7.33906 225.032 9.75655 226.658L10.6323 225.356ZM28.3421 231.253C24.8949 230.597 21.3528 229.724 18.2203 228.708C15.0747 227.688 12.393 226.541 10.6323 225.356L9.75655 226.658C11.6984 227.964 14.5437 229.165 17.7364 230.2C20.942 231.24 24.5492 232.129 28.0489 232.794L28.3421 231.253ZM27.6141 231.497C25.5108 233.819 22.6345 236.622 19.7187 238.672L20.621 239.955C23.6679 237.813 26.632 234.918 28.7769 232.55L27.6141 231.497ZM7.56887 235.467C8.04176 235.97 8.72033 236.419 9.5109 236.826C10.3104 237.239 11.27 237.633 12.3433 238.008C14.49 238.758 17.1464 239.452 20.0015 240.08L20.3382 238.547C17.512 237.926 14.9236 237.247 12.8609 236.527C11.8294 236.166 10.9432 235.8 10.2304 235.432C9.50866 235.06 9.0086 234.708 8.71134 234.392L7.56887 235.467ZM1.8476 221.286C2.64351 224.264 3.54389 227.232 4.49733 229.727C5.43787 232.188 6.47013 234.3 7.56887 235.467L8.71134 234.392C7.84493 233.471 6.9022 231.625 5.96289 229.167C5.03646 226.743 4.15209 223.832 3.36333 220.881L1.8476 221.286Z" fill="black"/>
<path d="M133.262 220.833C127.378 223.5 117.932 216.191 113.944 212.204L106.59 207.595L113.944 201.025L127.378 203.672C129.601 205.438 134.34 209.242 135.517 210.34C136.988 211.713 140.616 217.499 133.262 220.833Z" fill="#A8D3FF" stroke="black" stroke-width="1.56894" stroke-linejoin="round"/>
<path d="M52.6971 227.042C58.5807 229.709 68.027 222.401 72.0147 218.413L79.3691 213.804L72.0147 207.234L58.5807 209.882C56.358 211.647 51.6185 215.452 50.4418 216.55C48.9709 217.923 45.3427 223.708 52.6971 227.042Z" fill="#A8D3FF" stroke="black" stroke-width="1.56894" stroke-linejoin="round"/>
<path d="M110.551 66.5603C107.071 69.4213 88.749 58.1798 88.4503 53.1521C96.8832 46.7783 104.218 32.4504 109.239 40.3065C114.26 48.1626 117.258 61.0458 110.551 66.5603Z" fill="#A8D3FF" stroke="black" stroke-width="1.56894" stroke-linejoin="round"/>
<path d="M51.9213 110.849C49.6208 109.571 48.854 102.159 45.2754 99.6024C46.2126 98.6652 48.2916 95.7683 49.1096 91.6785C50.132 86.5663 64.9575 55.3817 76.2044 53.3368C87.4513 51.2919 106.366 54.3592 110.967 59.9827C115.569 65.6061 118.891 72.5077 121.703 75.3194C123.953 77.5688 126.73 85.1178 127.838 88.6112C125.646 90.3119 121.453 94.0971 122.221 95.6323C123.18 97.5512 124.268 98.4468 123.628 99.4062C122.988 100.366 115.824 103.5 116.336 104.843C116.848 106.187 123.628 128.167 126.79 141.896C130.813 159.361 129.738 173.564 131.508 178.622C137.902 196.891 132.676 204.994 131.508 206.948C127.838 213.086 123.628 213.282 115.111 211.55C113.857 211.294 91.1992 212.657 87.5834 214.963C84.6907 216.809 77.155 215.732 73.7487 214.963L49.1096 163.861L54.2266 127.383L60.6984 115.706V113.471C56.6672 112.491 52.969 111.431 51.9213 110.849Z" fill="#F3E6E9"/>
<path d="M89.2405 112.639C84.8099 113.661 75.2842 115.706 72.6258 115.706C70.8161 115.706 65.5192 114.645 60.6984 113.471M60.6984 113.471C56.6672 112.491 52.969 111.431 51.9213 110.849C49.6208 109.571 48.854 102.159 45.2754 99.6024C46.2126 98.6652 48.2916 95.7683 49.1096 91.6785C50.132 86.5663 64.9575 55.3817 76.2044 53.3368C87.4513 51.2919 106.366 54.3592 110.967 59.9827C115.569 65.6061 118.891 72.5077 121.703 75.3194C123.953 77.5688 126.73 85.1178 127.838 88.6112C125.646 90.3119 121.453 94.0971 122.221 95.6323C123.18 97.5512 124.268 98.4468 123.628 99.4062C122.988 100.366 115.824 103.5 116.336 104.843C116.848 106.187 123.628 128.167 126.79 141.896C130.813 159.361 129.738 173.564 131.508 178.622C137.902 196.891 132.676 204.994 131.508 206.948C127.838 213.086 123.628 213.282 115.111 211.55C113.857 211.294 91.1992 212.657 87.5834 214.963C84.6907 216.809 77.155 215.732 73.7487 214.963L49.1096 163.861L54.2266 127.383L60.6984 115.706V113.471Z" stroke="black" stroke-width="1.56894" stroke-linejoin="round"/>
<path d="M58.003 111.154C56.9439 110.88 54.8814 116.596 53.9826 119.489C50.0112 129.05 41.6762 149.662 40.1072 155.624C38.1461 163.076 33.6354 204.849 34.8121 206.418C35.9888 207.987 70.8977 218.774 73.6434 218.577C76.389 218.381 78.5463 191.121 81.0958 167.979C83.6454 144.837 74.722 132.531 72.5157 125.029C70.3094 117.528 59.3268 111.497 58.003 111.154Z" fill="#A8D3FF" stroke="black" stroke-width="1.56894" stroke-linejoin="round"/>
<path d="M73.6436 140.719C75.997 142.288 73.6436 164.645 73.6436 169.352C73.6436 170.172 73.5692 171.254 73.4448 172.489L47.7992 160.763C49.2672 155.677 50.7671 150.552 51.8745 146.798C59.1309 143.464 73.6436 137.581 73.6436 140.719Z" fill="#F3E6E9"/>
<path d="M71.2902 186.61C71.9038 183.337 72.9976 176.928 73.4448 172.489M42.657 179.648C42.6065 178.992 45.151 169.94 47.7992 160.763M73.4448 172.489C73.5692 171.254 73.6436 170.172 73.6436 169.352C73.6436 164.645 75.997 142.288 73.6436 140.719C73.6436 137.581 59.1309 143.464 51.8745 146.798C50.7671 150.552 49.2672 155.677 47.7992 160.763M73.4448 172.489L47.7992 160.763" stroke="black" stroke-width="1.56894" stroke-linejoin="round"/>
<path d="M45.2055 141.111C46.1469 132.953 51.1871 124.343 55.6978 120.421L55.7261 120.424C57.8827 120.685 61.0311 121.067 63.5425 122.872C66.6804 125.127 68.9531 127.961 69.5992 128.593C70.751 128.492 72.0078 128.461 73.4465 128.461C79.2319 128.461 82.7621 131.894 82.2718 134.443C81.8795 136.483 82.4352 139.738 82.7621 141.111C82.7621 143.17 82.4679 142.288 79.7222 145.23C76.9766 148.171 75.0154 158.566 70.7008 161.9C66.3862 165.234 54.0309 161.507 49.9124 158.566C45.7939 155.624 44.0288 151.309 45.2055 141.111Z" fill="#F3E6E9"/>
<path d="M52.9522 140.032C53.6386 138.758 55.992 135.482 59.9144 132.58C63.5981 129.854 66.1194 128.899 69.5992 128.593M69.5992 128.593C70.751 128.492 72.0078 128.461 73.4465 128.461C79.2319 128.461 82.7621 131.894 82.2718 134.443C81.8795 136.483 82.4352 139.738 82.7621 141.111C82.7621 143.17 82.4679 142.288 79.7222 145.23C76.9766 148.171 75.0154 158.566 70.7008 161.9C66.3862 165.234 54.0309 161.507 49.9124 158.566C45.7939 155.624 44.0288 151.309 45.2055 141.111C46.1469 132.953 51.1871 124.343 55.6978 120.421C57.8551 120.682 61.0201 121.059 63.5425 122.872C66.6804 125.127 68.9531 127.961 69.5992 128.593Z" stroke="black" stroke-width="1.56894" stroke-linejoin="round"/>
<path d="M73.1382 59.7269C73.1382 55.2221 54.3616 47.8855 50.2884 50.8478C46.2152 54.5507 47.2661 80.7755 56.5234 79.6646C65.7807 78.5537 73.1382 68.4098 73.1382 59.7269Z" fill="#A8D3FF" stroke="black" stroke-width="1.56894" stroke-linejoin="round"/>
<path d="M88.9912 103.286C86.8829 105.346 80.8523 106.179 78.3028 105.051C75.7532 103.924 75.0374 102.806 73.743 100.884C72.1251 98.4814 73.5959 86.3221 79.9698 79.507C86.3436 72.692 89.6776 74.457 93.747 75.0454C97.8165 75.6337 101.249 70.3876 107.475 71.6623C113.702 72.9371 122.723 86.4202 119.144 92.745C115.565 99.0698 109.093 83.3313 102.082 82.2527C95.0708 81.174 91.0994 101.227 88.9912 103.286Z" fill="#A8D3FF" stroke="black" stroke-width="1.56894" stroke-linejoin="round"/>
<path d="M110.516 86.5181C109.574 84.2039 102.508 83.5273 99.0918 83.4783L99.7292 90.5385L106.986 103.531C107.868 102.567 109.888 100.089 110.908 97.8929C112.183 95.1473 111.692 89.4108 110.516 86.5181Z" fill="#F3E6E9"/>
<path d="M99.0918 83.4783C102.508 83.5273 109.574 84.2039 110.516 86.5181C111.692 89.4108 112.183 95.1473 110.908 97.8929C109.888 100.089 107.868 102.567 106.986 103.531" stroke="black" stroke-width="1.56894" stroke-linejoin="round"/>
<path d="M105.565 100.639C103.799 101.57 99.8281 95.5886 100.171 94.559C100.446 93.6961 104.731 92.8266 106.839 92.4998C107.706 93.1862 109.614 93.6961 109.536 94.559C109.438 95.6376 107.33 99.7071 105.565 100.639Z" fill="#A8D3FF" stroke="black" stroke-width="1.56894" stroke-linejoin="round"/>
<path d="M84.6289 86.1751L88.4532 81.8115M106.545 77.8401L111.595 79.5561" stroke="black" stroke-width="1.56894" stroke-linejoin="round"/>
<path d="M108.636 85.5605C107.954 84.7375 102.968 86.6092 102.577 87.8471C102.297 89.2203 106.485 93.8315 108.227 92.045C109.969 90.2585 109.951 87.1467 108.636 85.5605Z" fill="#A8D3FF" stroke="black" stroke-width="1.56894" stroke-linejoin="round"/>
<path d="M10.5595 19.9683V6.8701H15.4058C16.4537 6.8701 17.3206 7.04475 18.0067 7.39403C18.6928 7.74331 19.2043 8.22358 19.5411 8.83483C19.8779 9.44608 20.0463 10.1322 20.0463 10.8931C20.0463 11.6166 19.8841 12.284 19.5598 12.8953C19.2355 13.494 18.7303 13.9805 18.0442 14.3548C17.3581 14.7165 16.4786 14.8974 15.4058 14.8974H12.9546V19.9683H10.5595ZM12.9546 12.9514H15.2561C16.0919 12.9514 16.6907 12.7705 17.0524 12.4088C17.4267 12.0345 17.6138 11.5293 17.6138 10.8931C17.6138 10.2444 17.4267 9.73922 17.0524 9.37747C16.6907 9.00323 16.0919 8.81612 15.2561 8.81612H12.9546V12.9514ZM23.3475 9.24648C22.9108 9.24648 22.5491 9.1155 22.2622 8.85354C21.9877 8.59158 21.8505 8.261 21.8505 7.86182C21.8505 7.46264 21.9877 7.1383 22.2622 6.88882C22.5491 6.62685 22.9108 6.49587 23.3475 6.49587C23.7841 6.49587 24.1396 6.62685 24.414 6.88882C24.7009 7.1383 24.8444 7.46264 24.8444 7.86182C24.8444 8.261 24.7009 8.59158 24.414 8.85354C24.1396 9.1155 23.7841 9.24648 23.3475 9.24648ZM22.1499 19.9683V10.6873H24.545V19.9683H22.1499ZM31.779 20.1928C30.8309 20.1928 29.9951 19.987 29.2716 19.5753C28.5481 19.1637 27.9743 18.5898 27.5501 17.8538C27.1385 17.1179 26.9326 16.2758 26.9326 15.3278C26.9326 14.3797 27.1385 13.5377 27.5501 12.8017C27.9743 12.0657 28.5481 11.4919 29.2716 11.0802C29.9951 10.6686 30.8309 10.4627 31.779 10.4627C32.964 10.4627 33.962 10.7746 34.7728 11.3983C35.5837 12.0096 36.1013 12.8578 36.3259 13.9431H33.7998C33.6751 13.494 33.4256 13.1447 33.0513 12.8953C32.6896 12.6333 32.2592 12.5023 31.7602 12.5023C31.0991 12.5023 30.5377 12.7518 30.0762 13.2508C29.6146 13.7498 29.3839 14.4421 29.3839 15.3278C29.3839 16.2135 29.6146 16.9058 30.0762 17.4048C30.5377 17.9037 31.0991 18.1532 31.7602 18.1532C32.2592 18.1532 32.6896 18.0285 33.0513 17.779C33.4256 17.5295 33.6751 17.174 33.7998 16.7124H36.3259C36.1013 17.7603 35.5837 18.6023 34.7728 19.2385C33.962 19.8747 32.964 20.1928 31.779 20.1928ZM38.6388 19.9683V6.49587H41.0339V14.4483L44.3272 10.6873H47.1713L43.3729 14.9161L47.7888 19.9683H44.795L41.0339 15.3091V19.9683H38.6388ZM52.9413 20.1928C51.7811 20.1928 50.883 19.831 50.2468 19.1075C49.6231 18.384 49.3112 17.3237 49.3112 15.9265V10.6873H51.6876V15.702C51.6876 16.5004 51.8497 17.1116 52.1741 17.5357C52.4984 17.9599 53.0099 18.1719 53.7084 18.1719C54.3696 18.1719 54.9122 17.9349 55.3363 17.4609C55.7729 16.9869 55.9912 16.3257 55.9912 15.4775V10.6873H58.3863V19.9683H56.2719L56.0848 18.3965C55.7979 18.9454 55.38 19.382 54.8311 19.7063C54.2947 20.0306 53.6648 20.1928 52.9413 20.1928ZM61.0321 24.0848V10.6873H63.1653L63.4272 12.0158C63.7266 11.6042 64.1196 11.2424 64.6061 10.9305C65.105 10.6187 65.7475 10.4627 66.5334 10.4627C67.4066 10.4627 68.1862 10.6748 68.8723 11.0989C69.5584 11.5231 70.1011 12.1031 70.5002 12.8391C70.8994 13.5751 71.099 14.4109 71.099 15.3465C71.099 16.2821 70.8994 17.1179 70.5002 17.8538C70.1011 18.5774 69.5584 19.1512 68.8723 19.5753C68.1862 19.987 67.4066 20.1928 66.5334 20.1928C65.8348 20.1928 65.2235 20.0618 64.6996 19.7999C64.1757 19.5379 63.7516 19.1699 63.4272 18.6959V24.0848H61.0321ZM66.0281 18.0971C66.7891 18.0971 67.419 17.8414 67.918 17.3299C68.417 16.8185 68.6665 16.1573 68.6665 15.3465C68.6665 14.5356 68.417 13.8683 67.918 13.3443C67.419 12.8204 66.7891 12.5584 66.0281 12.5584C65.2547 12.5584 64.6185 12.8204 64.1196 13.3443C63.6331 13.8558 63.3898 14.5169 63.3898 15.3278C63.3898 16.1386 63.6331 16.806 64.1196 17.3299C64.6185 17.8414 65.2547 18.0971 66.0281 18.0971ZM78.1276 19.9683V6.8701H82.5997C84.134 6.8701 85.3939 7.14454 86.3794 7.69342C87.3774 8.22982 88.1134 8.99076 88.5874 9.97624C89.0739 10.9492 89.3171 12.0969 89.3171 13.4192C89.3171 14.7415 89.0739 15.8954 88.5874 16.8808C88.1134 17.8538 87.3774 18.6148 86.3794 19.1637C85.3939 19.7001 84.134 19.9683 82.5997 19.9683H78.1276ZM80.5227 17.91H82.4874C83.5851 17.91 84.4521 17.7353 85.0883 17.3861C85.7245 17.0243 86.1798 16.5128 86.4543 15.8517C86.7287 15.1781 86.8659 14.3672 86.8659 13.4192C86.8659 12.4836 86.7287 11.679 86.4543 11.0054C86.1798 10.3318 85.7245 9.81407 85.0883 9.45231C84.4521 9.09055 83.5851 8.90967 82.4874 8.90967H80.5227V17.91ZM94.7611 20.1928C93.9627 20.1928 93.3078 20.0681 92.7963 19.8186C92.2849 19.5566 91.9044 19.2136 91.6549 18.7894C91.4054 18.3653 91.2807 17.8975 91.2807 17.3861C91.2807 16.5253 91.6175 15.8267 92.2911 15.2903C92.9647 14.7539 93.9752 14.4857 95.3224 14.4857H97.6801V14.2612C97.6801 13.625 97.4992 13.1572 97.1374 12.8578C96.7757 12.5584 96.3266 12.4088 95.7902 12.4088C95.3037 12.4088 94.8796 12.5273 94.5178 12.7643C94.156 12.9888 93.9315 13.3256 93.8442 13.7747H91.5052C91.5676 13.1011 91.7921 12.5148 92.1789 12.0158C92.578 11.5168 93.0895 11.1364 93.7132 10.8744C94.3369 10.6 95.0355 10.4627 95.8089 10.4627C97.1312 10.4627 98.1728 10.7933 98.9338 11.4545C99.6947 12.1156 100.075 13.0512 100.075 14.2612V19.9683H98.0356L97.8111 18.4713C97.5366 18.9703 97.1499 19.382 96.6509 19.7063C96.1644 20.0306 95.5345 20.1928 94.7611 20.1928ZM95.3037 18.3216C95.9898 18.3216 96.52 18.0971 96.8942 17.648C97.2809 17.1989 97.5241 16.6438 97.6239 15.9827H95.5844C94.9482 15.9827 94.4929 16.1012 94.2184 16.3382C93.944 16.5627 93.8068 16.8434 93.8068 17.1802C93.8068 17.542 93.944 17.8227 94.2184 18.0222C94.4929 18.2218 94.8546 18.3216 95.3037 18.3216ZM106.555 19.9683C105.582 19.9683 104.803 19.7312 104.216 19.2572C103.63 18.7832 103.337 17.9412 103.337 16.7311V12.6894H101.746V10.6873H103.337L103.618 8.19863H105.732V10.6873H108.239V12.6894H105.732V16.7499C105.732 17.1989 105.825 17.5108 106.013 17.6854C106.212 17.8476 106.549 17.9287 107.023 17.9287H108.183V19.9683H106.555ZM114.755 20.1928C113.819 20.1928 112.99 19.9932 112.266 19.594C111.543 19.1948 110.975 18.6335 110.563 17.91C110.152 17.1865 109.946 16.3507 109.946 15.4026C109.946 14.4421 110.145 13.5876 110.545 12.8391C110.956 12.0907 111.518 11.5106 112.229 11.0989C112.952 10.6748 113.8 10.4627 114.773 10.4627C115.684 10.4627 116.489 10.6623 117.187 11.0615C117.886 11.4607 118.428 12.0096 118.815 12.7081C119.214 13.3942 119.414 14.1614 119.414 15.0097C119.414 15.1469 119.408 15.2903 119.395 15.44C119.395 15.5897 119.389 15.7457 119.377 15.9078H112.322C112.372 16.6314 112.622 17.1989 113.071 17.6106C113.532 18.0222 114.087 18.2281 114.736 18.2281C115.223 18.2281 115.628 18.122 115.952 17.91C116.289 17.6854 116.539 17.3985 116.701 17.0492H119.133C118.959 17.6355 118.665 18.1719 118.254 18.6584C117.855 19.1325 117.356 19.5067 116.757 19.7811C116.171 20.0556 115.503 20.1928 114.755 20.1928ZM114.773 12.4088C114.187 12.4088 113.669 12.5772 113.22 12.914C112.771 13.2383 112.484 13.7373 112.36 14.4109H116.981C116.944 13.7997 116.719 13.3132 116.308 12.9514C115.896 12.5896 115.385 12.4088 114.773 12.4088ZM122.645 20.0992C122.208 20.0992 121.846 19.962 121.559 19.6876C121.285 19.4131 121.148 19.0826 121.148 18.6959C121.148 18.2967 121.285 17.9599 121.559 17.6854C121.846 17.411 122.208 17.2738 122.645 17.2738C123.081 17.2738 123.437 17.411 123.711 17.6854C123.998 17.9599 124.142 18.2967 124.142 18.6959C124.142 19.0826 123.998 19.4131 123.711 19.6876C123.437 19.962 123.081 20.0992 122.645 20.0992ZM122.645 13.2882C122.208 13.2882 121.846 13.151 121.559 12.8765C121.285 12.6021 121.148 12.2715 121.148 11.8848C121.148 11.4856 121.285 11.1488 121.559 10.8744C121.846 10.6 122.208 10.4627 122.645 10.4627C123.081 10.4627 123.437 10.6 123.711 10.8744C123.998 11.1488 124.142 11.4856 124.142 11.8848C124.142 12.2715 123.998 12.6021 123.711 12.8765C123.437 13.151 123.081 13.2882 122.645 13.2882Z" fill="currentColor"/>
<path d="M134.896 3.20032C134.896 2.32436 135.607 1.61426 136.483 1.61426H278.189V26.3224H136.483C135.607 26.3224 134.896 25.6123 134.896 24.7363V3.20032Z" fill="white" stroke="black" stroke-width="1.56894"/>
<path d="M278.189 1.61426H289.488C290.364 1.61426 291.074 2.32436 291.074 3.20033V24.7363C291.074 25.6123 290.364 26.3224 289.488 26.3224H278.189V1.61426Z" fill="#62B0FF" stroke="black" stroke-width="1.56894"/>
<path d="M285.841 15.9814C285.304 16.9116 283.961 16.9116 283.424 15.9814L282.285 14.008C281.748 13.0778 282.419 11.9152 283.493 11.9152H285.772C286.846 11.9152 287.517 13.0778 286.98 14.008L285.841 15.9814Z" fill="white" stroke="black" stroke-width="1.56894"/>
</svg>
