<svg width="301" height="250" viewBox="0 0 301 250" fill="none" xmlns="http://www.w3.org/2000/svg">
<g clip-path="url(#clip0_1887_7670)">
<path d="M190.81 49.8209C93.3682 47.0822 -5.91193 185.384 -79.4528 185.384L-108.869 360.658L398.563 331.902C395.499 260.697 382.016 118.013 352.6 116.918C315.829 115.549 288.252 52.5596 190.81 49.8209Z" fill="#8BCD8A"/>
<path d="M119.941 125.616L-20.6641 202.809L124.172 274.126L273.203 182.268L119.941 125.616Z" fill="#F9A857" stroke="black" stroke-width="1.56335"/>
<path d="M26.2165 119.512C32.0169 132.695 50.6043 140.055 59.173 142.087L72.5204 132.036C68.6206 127.477 59.931 117.93 56.3717 116.217C51.9226 114.074 48.9565 102.21 46.8143 99.2439C44.6722 96.2778 35.9387 86.7204 30.8304 88.0387C25.7222 89.357 18.9661 103.034 26.2165 119.512Z" fill="#F3E6E9" stroke="black" stroke-width="1.56335" stroke-linejoin="round"/>
<path fill-rule="evenodd" clip-rule="evenodd" d="M23.0508 105.709C23.112 108.975 23.6845 112.552 24.9695 116.317C24.8872 110.726 25.7711 104.03 29.4278 101.57C32.5387 99.477 38.7155 97.6249 44.5523 96.5145C42.7676 94.5443 40.3141 92.1508 37.8091 90.3896C33.0356 91.4384 28.9959 92.698 27.7017 94.073C26.0503 95.8275 24.3824 100.727 23.0508 105.709Z" fill="#A8D3FF"/>
<path d="M23.0508 105.709L22.2692 105.724C22.2679 105.651 22.2768 105.578 22.2956 105.507L23.0508 105.709ZM24.9695 116.317L25.7511 116.305C25.7567 116.69 25.482 117.021 25.1031 117.087C24.7243 117.153 24.3539 116.933 24.2297 116.569L24.9695 116.317ZM29.4278 101.57L29.8641 102.218L29.4278 101.57ZM44.5523 96.5145L45.1317 95.9898C45.3214 96.1993 45.3833 96.4949 45.2935 96.763C45.2036 97.031 44.9761 97.2296 44.6984 97.2825L44.5523 96.5145ZM37.8091 90.3896L37.6413 89.6261C37.8554 89.5791 38.0793 89.6241 38.2586 89.7501L37.8091 90.3896ZM27.7017 94.073L28.2709 94.6088L27.7017 94.073ZM23.8323 105.694C23.892 108.879 24.4504 112.376 25.7093 116.064L24.2297 116.569C22.9186 112.728 22.332 109.071 22.2692 105.724L23.8323 105.694ZM29.8641 102.218C28.2767 103.286 27.2064 105.344 26.555 107.958C25.9097 110.549 25.7105 113.547 25.7511 116.305L24.1879 116.328C24.1462 113.496 24.3479 110.35 25.0381 107.58C25.7223 104.834 26.9223 102.313 28.9915 100.921L29.8641 102.218ZM44.6984 97.2825C41.8062 97.8326 38.8352 98.5657 36.2089 99.4173C33.5697 100.273 31.3293 101.233 29.8641 102.218L28.9915 100.921C30.6372 99.8141 33.0406 98.8012 35.7267 97.9302C38.4258 97.055 41.4616 96.3068 44.4062 95.7466L44.6984 97.2825ZM43.973 97.0393C42.209 95.0919 39.7992 92.7443 37.3595 91.029L38.2586 89.7501C40.829 91.5572 43.3262 93.9966 45.1317 95.9898L43.973 97.0393ZM27.1325 93.5373C27.5436 93.1006 28.1277 92.7158 28.7973 92.3703C29.4758 92.0201 30.2878 91.6873 31.1928 91.3711C33.003 90.7386 35.2402 90.1537 37.6413 89.6261L37.9768 91.153C35.6045 91.6743 33.4351 92.2436 31.7085 92.8469C30.8452 93.1486 30.1063 93.454 29.5142 93.7595C28.9132 94.0697 28.507 94.358 28.2709 94.6088L27.1325 93.5373ZM22.2956 105.507C22.965 103.003 23.7228 100.504 24.5261 98.4017C25.3166 96.3331 26.1911 94.5375 27.1325 93.5373L28.2709 94.6088C27.561 95.363 26.7757 96.8944 25.9865 98.9597C25.2101 100.991 24.4682 103.433 23.8059 105.911L22.2956 105.507Z" fill="black"/>
<path fill-rule="evenodd" clip-rule="evenodd" d="M56.6844 116.379C56.5767 116.319 56.4728 116.265 56.3729 116.217C53.4317 114.8 51.1386 109.136 49.3032 104.601C49.0385 103.947 48.7833 103.317 48.537 102.726C46.4221 109.376 42.3643 118.031 38.9062 121.49C36.7165 123.679 32.7371 124.124 28.666 123.794C31.3801 127.618 35.1528 130.842 39.2202 133.484C43.3602 133.089 47.1186 132.431 48.7932 131.377C51.0487 129.956 54.1292 123.123 56.6844 116.379Z" fill="#A8D3FF"/>
<path d="M56.6844 116.379L57.0654 115.696C57.4037 115.885 57.5526 116.294 57.4153 116.656L56.6844 116.379ZM56.3729 116.217L56.712 115.512L56.712 115.512L56.3729 116.217ZM49.3032 104.601L48.5787 104.895V104.895L49.3032 104.601ZM48.537 102.726L47.7921 102.489C47.8915 102.177 48.1754 101.959 48.5031 101.945C48.8307 101.931 49.1324 102.123 49.2585 102.425L48.537 102.726ZM38.9062 121.49L38.3535 120.937L38.3535 120.937L38.9062 121.49ZM28.666 123.794L28.0286 124.247C27.8528 123.999 27.8364 123.672 27.9866 123.408C28.1368 123.144 28.4263 122.991 28.7291 123.015L28.666 123.794ZM39.2202 133.484L39.2945 134.263C39.1187 134.279 38.9425 134.236 38.7944 134.14L39.2202 133.484ZM48.7932 131.377L48.3767 130.715L48.3767 130.715L48.7932 131.377ZM56.3034 117.062C56.2076 117.008 56.1177 116.961 56.0338 116.921L56.712 115.512C56.8278 115.568 56.9457 115.63 57.0654 115.696L56.3034 117.062ZM56.0338 116.921C54.3176 116.095 52.9091 114.115 51.7361 111.951C50.5411 109.745 49.4927 107.153 48.5787 104.895L50.0278 104.308C50.9492 106.584 51.965 109.091 53.1107 111.206C54.2784 113.361 55.487 114.922 56.712 115.512L56.0338 116.921ZM48.5787 104.895C48.3136 104.24 48.06 103.613 47.8155 103.027L49.2585 102.425C49.5066 103.02 49.7634 103.655 50.0278 104.308L48.5787 104.895ZM49.2819 102.963C48.212 106.327 46.6536 110.191 44.9247 113.654C43.2054 117.098 41.2809 120.22 39.459 122.042L38.3535 120.937C39.9896 119.301 41.8231 116.366 43.526 112.955C45.2192 109.564 46.7471 105.775 47.7921 102.489L49.2819 102.963ZM39.459 122.042C38.2153 123.286 36.5067 123.993 34.64 124.354C32.7695 124.716 30.6806 124.742 28.6029 124.573L28.7291 123.015C30.7225 123.176 32.6589 123.145 34.3433 122.819C36.0315 122.493 37.4075 121.883 38.3535 120.937L39.459 122.042ZM29.3034 123.342C31.9428 127.06 35.6313 130.221 39.646 132.829L38.7944 134.14C34.6743 131.464 30.8173 128.176 28.0286 124.247L29.3034 123.342ZM39.1458 132.706C41.2008 132.51 43.1445 132.25 44.7724 131.912C46.4247 131.569 47.6652 131.163 48.3767 130.715L49.2097 132.038C48.2466 132.644 46.7706 133.094 45.09 133.443C43.3851 133.797 41.3796 134.063 39.2945 134.263L39.1458 132.706ZM48.3767 130.715C48.7995 130.449 49.341 129.867 49.9729 128.942C50.5918 128.036 51.2506 126.871 51.928 125.523C53.2821 122.829 54.6801 119.463 55.9534 116.102L57.4153 116.656C56.1335 120.039 54.7137 123.462 53.3248 126.225C52.6308 127.606 51.9369 128.838 51.2639 129.823C50.6041 130.789 49.9146 131.594 49.2097 132.038L48.3767 130.715Z" fill="black"/>
<path d="M65.6501 197.226C70.5936 199.467 78.5306 193.326 81.8812 189.976L88.0605 186.103L81.8812 180.583L70.5936 182.808C68.7261 184.291 64.7438 187.487 63.7551 188.41C62.5192 189.564 59.4708 194.425 65.6501 197.226Z" fill="#A8D3FF" stroke="black" stroke-width="1.56335" stroke-linejoin="round"/>
<path d="M103.955 62.6594C101.031 65.0633 85.6364 55.6179 85.3854 51.3935C92.471 46.0381 98.6334 33.9994 102.852 40.6003C107.071 47.2012 109.59 58.026 103.955 62.6594Z" fill="#A8D3FF" stroke="black" stroke-width="1.56335" stroke-linejoin="round"/>
<path d="M54.6954 99.8718C52.7625 98.798 52.1181 92.5696 49.1113 90.4219C49.8988 89.6344 51.6456 87.2004 52.3329 83.7641C53.192 79.4686 65.6487 53.2666 75.0986 51.5485C84.5485 49.8303 100.442 52.4076 104.307 57.1325C108.173 61.8575 110.965 67.6563 113.328 70.0187C115.218 71.9087 117.552 78.2516 118.482 81.1868C116.64 82.6158 113.118 85.7963 113.763 87.0861C114.569 88.6985 115.482 89.4509 114.945 90.2571C114.407 91.0633 108.388 93.6968 108.818 94.8254C109.248 95.954 114.945 114.423 117.602 125.958C120.982 140.633 127.234 133.754 131.834 143.088C135.987 151.517 128.671 159.355 125.399 161.006C120.033 163.712 102.211 161.365 93.5018 175.331C92.6374 176.717 92.4263 154.878 89.3882 156.816C86.9577 158.366 63.414 163.228 60.552 162.582L52.3329 144.413L56.6323 113.764L62.0701 103.952V102.075C58.683 101.251 55.5756 100.361 54.6954 99.8718Z" fill="#F3E6E9"/>
<path d="M86.0519 101.375C82.3292 102.234 74.3254 103.952 72.0918 103.952C70.5713 103.952 66.1207 103.061 62.0701 102.075M62.0701 102.075C58.683 101.251 55.5756 100.361 54.6954 99.8718C52.7625 98.798 52.1181 92.5696 49.1113 90.4219C49.8988 89.6344 51.6456 87.2004 52.3329 83.7641C53.192 79.4686 65.6487 53.2666 75.0986 51.5485C84.5485 49.8303 100.441 52.4076 104.307 57.1325C108.173 61.8575 110.965 67.6563 113.328 70.0187C115.218 71.9087 117.552 78.2516 118.482 81.1868C116.64 82.6158 113.118 85.7963 113.763 87.0861C114.569 88.6985 115.482 89.4509 114.945 90.2571C114.407 91.0633 108.388 93.6968 108.818 94.8254C109.248 95.954 114.945 114.423 117.602 125.958C120.982 140.633 127.234 133.754 131.834 143.088C135.987 151.517 128.671 159.355 125.399 161.006C120.033 163.712 102.211 161.365 93.5018 175.331C92.6374 176.717 92.4263 154.878 89.3882 156.816C86.9577 158.366 63.414 163.228 60.552 162.582L52.3329 144.413L56.6323 113.764L62.0701 103.952V102.075Z" stroke="black" stroke-width="1.56335" stroke-linejoin="round"/>
<path d="M51.7226 125.897C52.5135 119.042 56.7484 111.808 60.5385 108.512L60.5622 108.515C62.3742 108.735 65.0196 109.055 67.1297 110.572C69.7663 112.467 71.6759 114.848 72.2187 115.379C73.1865 115.294 74.2425 115.268 75.4513 115.268C80.3124 115.268 83.2785 118.152 82.8665 120.294C82.5369 122.008 83.0038 124.743 83.2785 125.897C83.2785 127.627 83.0313 126.885 80.7243 129.357C78.4174 131.829 76.7695 140.562 73.1443 143.364C69.5191 146.165 59.1378 143.034 55.6774 140.562C52.2169 138.091 50.7339 134.465 51.7226 125.897Z" fill="#F3E6E9"/>
<path d="M60.5385 108.512C56.7484 111.808 52.5135 119.042 51.7226 125.897C50.7339 134.465 52.2169 138.091 55.6774 140.562C59.1378 143.034 69.5191 146.165 73.1443 143.364C76.7695 140.562 78.4174 131.829 80.7243 129.357C83.0313 126.885 83.2785 127.627 83.2785 125.897C83.0038 124.743 82.5369 122.008 82.8665 120.294C83.2785 118.152 80.3124 115.268 75.4513 115.268C74.2425 115.268 73.1865 115.294 72.2187 115.379C69.2949 115.636 67.1764 116.438 64.0813 118.729C60.7856 121.168 58.8082 123.919 58.2315 124.99" stroke="black" stroke-width="1.56335" stroke-linejoin="round"/>
<path d="M72.5222 56.9178C72.5222 53.1328 56.7457 46.9684 53.3233 49.4574C49.9009 52.5687 50.7839 74.6033 58.5621 73.6699C66.3403 72.7366 72.5222 64.2134 72.5222 56.9178Z" fill="#A8D3FF" stroke="black" stroke-width="1.56335" stroke-linejoin="round"/>
<path d="M85.8428 93.5174C84.0714 95.2476 79.0043 95.948 76.8621 95.0005C74.7199 94.053 74.1185 93.1137 73.0309 91.4988C71.6715 89.4803 72.9073 79.2637 78.2628 73.5375C83.6182 67.8113 86.4195 69.2944 89.8387 69.7887C93.258 70.2831 96.1417 65.8751 101.374 66.9462C106.605 68.0173 114.185 79.3461 111.178 84.6604C108.171 89.9746 102.733 76.7508 96.842 75.8445C90.951 74.9382 87.6142 91.7872 85.8428 93.5174Z" fill="#A8D3FF" stroke="black" stroke-width="1.56335" stroke-linejoin="round"/>
<path d="M103.927 79.4284C103.136 77.484 97.1981 76.9155 94.3281 76.8743L94.8637 82.8064L100.961 93.7233C101.702 92.9131 103.399 90.8314 104.256 88.9858C105.327 86.6788 104.915 81.8589 103.927 79.4284Z" fill="#F3E6E9"/>
<path d="M94.3281 76.8743C97.1981 76.9155 103.136 77.484 103.927 79.4284C104.915 81.8589 105.327 86.6788 104.256 88.9858C103.399 90.8314 101.702 92.9131 100.961 93.7233" stroke="black" stroke-width="1.56335" stroke-linejoin="round"/>
<path d="M99.7659 91.2926C98.2828 92.0753 94.946 87.0494 95.2344 86.1843C95.465 85.4593 99.0656 84.7287 100.837 84.4541C101.565 85.0308 103.169 85.4593 103.103 86.1843C103.02 87.0906 101.249 90.5099 99.7659 91.2926Z" fill="#A8D3FF" stroke="black" stroke-width="1.56335" stroke-linejoin="round"/>
<path d="M82.1758 79.14L85.389 75.4736M100.59 72.1367L104.833 73.5786" stroke="black" stroke-width="1.56335" stroke-linejoin="round"/>
<path d="M102.346 78.6237C101.773 77.9322 97.5842 79.5048 97.2549 80.545C97.0198 81.6988 100.539 85.5732 102.003 84.0721C103.466 82.5711 103.451 79.9565 102.346 78.6237Z" fill="#A8D3FF" stroke="black" stroke-width="1.56335" stroke-linejoin="round"/>
<path d="M135.62 140.214C129.651 140.187 123.449 147.422 121.019 152.345C117.797 158.873 118.859 163.511 123.058 163.879C127.907 164.303 137.114 155.471 141.606 148.708C143.556 145.773 143.081 140.248 135.62 140.214Z" fill="#A8D3FF" stroke="black" stroke-width="1.56335" stroke-linejoin="round"/>
<path d="M247.182 161.387C241.382 148.205 222.794 140.844 214.225 138.812L200.878 148.864C204.778 153.423 213.467 162.969 217.027 164.683C221.476 166.825 224.442 178.689 226.584 181.655C228.726 184.622 237.46 194.179 242.568 192.861C247.676 191.542 254.432 177.865 247.182 161.387Z" fill="#F3E6E9" stroke="black" stroke-width="1.56335" stroke-linejoin="round"/>
<path fill-rule="evenodd" clip-rule="evenodd" d="M216.716 164.521C216.824 164.581 216.928 164.635 217.027 164.683C219.969 166.099 222.262 171.764 224.097 176.298C224.362 176.952 224.617 177.583 224.863 178.174C226.978 171.524 231.036 162.868 234.494 159.41C236.684 157.22 240.663 156.776 244.734 157.106C242.02 153.282 238.248 150.057 234.18 147.415C230.04 147.811 226.282 148.469 224.607 149.523C222.352 150.943 219.271 157.776 216.716 164.521Z" fill="#FFB4CA"/>
<path d="M216.716 164.521L216.335 165.203C215.997 165.014 215.848 164.606 215.985 164.244L216.716 164.521ZM217.027 164.683L217.367 163.979L217.027 164.683ZM224.097 176.298L224.822 176.005L224.097 176.298ZM224.863 178.174L225.608 178.411C225.509 178.723 225.225 178.94 224.897 178.955C224.57 178.969 224.268 178.777 224.142 178.474L224.863 178.174ZM234.494 159.41L235.047 159.963L234.494 159.41ZM244.734 157.106L245.372 156.653C245.548 156.901 245.564 157.228 245.414 157.492C245.264 157.756 244.974 157.909 244.671 157.885L244.734 157.106ZM234.18 147.415L234.106 146.637C234.282 146.62 234.458 146.664 234.606 146.76L234.18 147.415ZM224.607 149.523L225.024 150.185V150.185L224.607 149.523ZM217.097 163.838C217.193 163.892 217.283 163.938 217.367 163.979L216.688 165.387C216.573 165.332 216.455 165.27 216.335 165.203L217.097 163.838ZM217.367 163.979C219.083 164.805 220.491 166.784 221.664 168.949C222.859 171.155 223.908 173.747 224.822 176.005L223.373 176.592C222.451 174.315 221.435 171.808 220.29 169.694C219.122 167.539 217.913 165.977 216.688 165.387L217.367 163.979ZM224.822 176.005C225.087 176.66 225.34 177.286 225.585 177.873L224.142 178.474C223.894 177.879 223.637 177.245 223.373 176.592L224.822 176.005ZM224.118 177.937C225.188 174.573 226.747 170.709 228.476 167.246C230.195 163.802 232.119 160.679 233.941 158.857L235.047 159.963C233.411 161.599 231.577 164.533 229.874 167.944C228.181 171.336 226.653 175.125 225.608 178.411L224.118 177.937ZM233.941 158.857C235.185 157.614 236.894 156.906 238.76 156.546C240.631 156.184 242.72 156.158 244.797 156.326L244.671 157.885C242.678 157.723 240.742 157.755 239.057 158.08C237.369 158.407 235.993 159.017 235.047 159.963L233.941 158.857ZM244.097 157.558C241.458 153.839 237.769 150.678 233.754 148.071L234.606 146.76C238.726 149.436 242.583 152.724 245.372 156.653L244.097 157.558ZM234.255 148.193C232.2 148.39 230.256 148.65 228.628 148.988C226.976 149.33 225.735 149.737 225.024 150.185L224.191 148.862C225.154 148.255 226.63 147.805 228.31 147.457C230.015 147.103 232.021 146.836 234.106 146.637L234.255 148.193ZM225.024 150.185C224.601 150.451 224.059 151.033 223.427 151.958C222.809 152.864 222.15 154.028 221.472 155.376C220.118 158.071 218.72 161.437 217.447 164.798L215.985 164.244C217.267 160.86 218.687 157.438 220.076 154.674C220.77 153.293 221.463 152.062 222.136 151.076C222.796 150.11 223.486 149.306 224.191 148.862L225.024 150.185Z" fill="black"/>
<path fill-rule="evenodd" clip-rule="evenodd" d="M250.35 175.19C250.288 171.924 249.716 168.347 248.431 164.582C248.513 170.174 247.629 176.87 243.973 179.33C240.862 181.422 234.685 183.274 228.848 184.385C230.633 186.355 233.086 188.748 235.591 190.51C240.365 189.461 244.404 188.201 245.699 186.826C247.35 185.072 249.018 180.172 250.35 175.19Z" fill="#FFB4CA"/>
<path d="M250.35 175.19L251.131 175.176C251.133 175.249 251.124 175.321 251.105 175.392L250.35 175.19ZM248.431 164.582L247.649 164.594C247.644 164.209 247.918 163.878 248.297 163.812C248.676 163.746 249.046 163.966 249.171 164.33L248.431 164.582ZM243.973 179.33L243.536 178.681L243.973 179.33ZM228.848 184.385L228.269 184.909C228.079 184.7 228.017 184.404 228.107 184.136C228.197 183.868 228.424 183.67 228.702 183.617L228.848 184.385ZM235.591 190.51L235.759 191.273C235.545 191.32 235.321 191.275 235.142 191.149L235.591 190.51ZM245.699 186.826L246.268 187.362L245.699 186.826ZM249.568 175.205C249.508 172.02 248.95 168.523 247.691 164.835L249.171 164.33C250.482 168.171 251.068 171.829 251.131 175.176L249.568 175.205ZM243.536 178.681C245.124 177.613 246.194 175.556 246.845 172.941C247.491 170.351 247.69 167.353 247.649 164.594L249.212 164.571C249.254 167.403 249.052 170.549 248.362 173.319C247.678 176.065 246.478 178.586 244.409 179.978L243.536 178.681ZM228.702 183.617C231.594 183.067 234.565 182.334 237.191 181.482C239.831 180.626 242.071 179.667 243.536 178.681L244.409 179.978C242.763 181.085 240.36 182.098 237.674 182.969C234.975 183.844 231.939 184.592 228.994 185.153L228.702 183.617ZM229.427 183.86C231.191 185.807 233.601 188.155 236.041 189.87L235.142 191.149C232.572 189.342 230.074 186.903 228.269 184.909L229.427 183.86ZM246.268 187.362C245.857 187.799 245.273 188.183 244.603 188.529C243.925 188.879 243.113 189.212 242.208 189.528C240.397 190.161 238.16 190.746 235.759 191.273L235.424 189.746C237.796 189.225 239.965 188.656 241.692 188.052C242.555 187.751 243.294 187.445 243.886 187.14C244.487 186.83 244.893 186.541 245.129 186.29L246.268 187.362ZM251.105 175.392C250.435 177.896 249.678 180.395 248.874 182.498C248.084 184.566 247.209 186.362 246.268 187.362L245.129 186.29C245.839 185.536 246.625 184.005 247.414 181.94C248.19 179.908 248.932 177.466 249.594 174.988L251.105 175.392Z" fill="black"/>
<path d="M160.737 74.2954C163.66 76.6992 179.055 67.2539 179.306 63.0295C172.22 57.6741 166.058 45.6354 161.839 52.2363C157.62 58.8372 155.101 69.662 160.737 74.2954Z" fill="#FFB4CA" stroke="black" stroke-width="1.56335" stroke-linejoin="round"/>
<path d="M209.998 111.508C211.931 110.434 212.575 104.206 215.582 102.058C214.795 101.271 213.048 98.8366 212.36 95.4003C211.501 91.1049 199.045 64.9029 189.595 63.1847C180.145 61.4665 164.252 64.0438 160.386 68.7687C156.52 73.4937 153.728 79.2925 151.366 81.655C149.476 83.545 147.142 89.8878 146.211 92.823C148.053 94.252 151.576 97.4325 150.931 98.7224C150.125 100.335 149.211 101.087 149.748 101.893C150.286 102.699 156.305 105.333 155.875 106.462C155.445 107.59 146.211 113.711 144.5 136.878C143.391 151.897 141.735 155.631 140.247 159.881C134.875 175.231 141.045 179.003 142.027 180.644C145.111 185.802 161.566 176.613 168.722 175.157C169.776 174.942 173.077 186.121 184.856 186.121C196.634 186.121 199.761 176.908 202.623 176.262C202.623 176.262 215.582 163.813 215.582 149.557C215.582 135.301 208.061 125.4 208.061 125.4L202.623 115.589V113.711C206.01 112.887 209.118 111.997 209.998 111.508Z" fill="#F3E6E9"/>
<path d="M178.641 113.011C182.364 113.871 190.368 115.589 192.602 115.589C194.122 115.589 198.573 114.697 202.623 113.711M202.623 113.711C206.01 112.887 209.118 111.997 209.998 111.508C211.931 110.434 212.575 104.206 215.582 102.058C214.795 101.271 213.048 98.8366 212.36 95.4003C211.501 91.1049 199.045 64.9029 189.595 63.1847C180.145 61.4665 164.252 64.0438 160.386 68.7687C156.52 73.4937 153.728 79.2925 151.366 81.655C149.476 83.545 147.142 89.8878 146.211 92.823C148.053 94.252 151.576 97.4325 150.931 98.7224C150.125 100.335 149.211 101.087 149.748 101.893C150.286 102.699 156.305 105.333 155.875 106.462C155.445 107.59 146.211 113.711 144.5 136.878C143.391 151.897 141.735 155.631 140.247 159.881C134.875 175.231 141.045 179.003 142.027 180.644C145.111 185.802 161.566 176.613 168.722 175.157C169.776 174.942 173.077 186.121 184.856 186.121C196.634 186.121 199.761 176.908 202.623 176.262C202.623 176.262 215.582 163.813 215.582 149.557C215.582 135.301 208.061 125.4 208.061 125.4L202.623 115.589V113.711Z" stroke="black" stroke-width="1.56335" stroke-linejoin="round"/>
<path d="M212.971 137.533C212.18 130.678 207.945 123.444 204.155 120.149L204.131 120.152C202.319 120.371 199.674 120.692 197.564 122.208C194.927 124.103 193.017 126.484 192.475 127.015C191.507 126.93 190.451 126.905 189.242 126.905C184.381 126.905 181.415 129.788 181.827 131.931C182.156 133.644 181.69 136.38 181.415 137.533C181.415 139.263 181.662 138.522 183.969 140.994C186.276 143.465 187.924 152.199 191.549 155C195.174 157.802 205.556 154.671 209.016 152.199C212.476 149.727 213.959 146.102 212.971 137.533Z" fill="#F3E6E9"/>
<path d="M204.155 120.149C207.945 123.444 212.18 130.678 212.971 137.533C213.959 146.102 212.476 149.727 209.016 152.199C205.556 154.671 195.174 157.802 191.549 155C187.924 152.199 186.276 143.465 183.969 140.994C181.662 138.522 181.415 139.263 181.415 137.533C181.69 136.38 182.156 133.644 181.827 131.931C181.415 129.788 184.381 126.905 189.242 126.905C190.451 126.905 191.507 126.93 192.475 127.015C195.399 127.273 197.517 128.075 200.612 130.365C203.908 132.804 205.885 135.556 206.462 136.627" stroke="black" stroke-width="1.56335" stroke-linejoin="round"/>
<path d="M159.484 165.636C159.962 164.275 157.515 157.621 151.992 157.221C144.629 156.687 136.296 177.111 141.637 181.609C146.406 185.624 156.781 173.323 159.484 165.636Z" fill="#FFB4CA" stroke="black" stroke-width="1.56335" stroke-linejoin="round"/>
<path d="M163.096 167.528C162.764 165.87 166.85 159.298 173.504 160.626C182.375 162.396 188.721 187.646 181.563 190.906C175.173 193.817 164.968 176.893 163.096 167.528Z" fill="#FFB4CA" stroke="black" stroke-width="1.56335" stroke-linejoin="round"/>
<path d="M192.171 68.5538C192.171 64.7688 207.948 58.6044 211.37 61.0934C214.792 64.2047 213.909 86.2393 206.131 85.3059C198.353 84.3725 192.171 75.8494 192.171 68.5538Z" fill="#FFB4CA" stroke="black" stroke-width="1.56335" stroke-linejoin="round"/>
<path d="M178.851 105.153C180.622 106.884 185.689 107.584 187.831 106.636C189.973 105.689 190.575 104.75 191.662 103.135C193.022 101.116 191.786 90.8997 186.431 85.1735C181.075 79.4473 178.274 80.9304 174.855 81.4247C171.435 81.9191 168.552 77.5111 163.32 78.5822C158.088 79.6533 150.508 90.9821 153.515 96.2964C156.523 101.611 161.96 88.3868 167.851 87.4805C173.742 86.5742 177.079 103.423 178.851 105.153Z" fill="#FFB4CA" stroke="black" stroke-width="1.56335" stroke-linejoin="round"/>
<path d="M160.765 91.0649C161.556 89.1204 167.493 88.5519 170.363 88.5107L169.828 94.4429L163.731 105.36C162.989 104.55 161.292 102.468 160.435 100.622C159.364 98.3153 159.776 93.4954 160.765 91.0649Z" fill="#F3E6E9"/>
<path d="M170.363 88.5107C167.493 88.5519 161.556 89.1204 160.765 91.0649C159.776 93.4954 159.364 98.3153 160.435 100.622C161.292 102.468 162.989 104.55 163.731 105.36" stroke="black" stroke-width="1.56335" stroke-linejoin="round"/>
<path d="M164.926 102.929C166.409 103.712 169.745 98.6857 169.457 97.8205C169.226 97.0955 165.626 96.365 163.854 96.0903C163.127 96.6671 161.523 97.0955 161.589 97.8205C161.671 98.7269 163.442 102.146 164.926 102.929Z" fill="#FFB4CA" stroke="black" stroke-width="1.56335" stroke-linejoin="round"/>
<path d="M182.516 90.7762L179.302 87.1098M164.101 83.7729L159.858 85.2148" stroke="black" stroke-width="1.56335" stroke-linejoin="round"/>
<path d="M162.345 90.2599C162.918 89.5685 167.107 91.1411 167.437 92.1812C167.672 93.335 164.152 97.2094 162.689 95.7083C161.225 94.2073 161.24 91.5927 162.345 90.2599Z" fill="#FFB4CA" stroke="black" stroke-width="1.56335" stroke-linejoin="round"/>
<path d="M160.976 154.907C163.458 149.098 165.534 139.759 166.262 135.816L145.608 130.41C145.269 132.108 144.737 136.523 145.325 140.607C146.061 145.711 149.423 152.571 149.675 154.746C149.926 156.92 150.366 157.535 151.078 157.952C151.79 158.369 151.227 159.522 152.147 160.073C153.067 160.624 154.539 159.171 154.837 160.413C155.136 161.656 157.873 162.169 160.976 154.907Z" fill="#F3E6E9"/>
<path d="M166.262 135.816C165.534 139.759 163.458 149.098 160.976 154.907C157.873 162.169 155.136 161.656 154.837 160.413C154.539 159.171 153.067 160.624 152.147 160.073C151.227 159.522 151.79 158.369 151.078 157.952C150.366 157.535 149.926 156.92 149.675 154.746C149.423 152.571 146.061 145.711 145.325 140.607C144.737 136.523 145.269 132.108 145.608 130.41" stroke="black" stroke-width="1.56335"/>
<path d="M53.7483 127.712C56.6719 130.115 72.0667 120.67 72.3177 116.446C65.2322 111.09 59.0697 99.0517 54.8507 105.653C50.6318 112.253 48.113 123.078 53.7483 127.712Z" fill="#FFE4C9" stroke="black" stroke-width="1.56335" stroke-linejoin="round"/>
<path d="M146.75 210.282C147.375 208.711 144.54 201.511 137.756 201.617C128.71 201.76 117.919 225.452 124.371 229.949C130.132 233.964 143.221 219.156 146.75 210.282Z" fill="#FFE4C9" stroke="black" stroke-width="1.56335" stroke-linejoin="round"/>
<path d="M103.008 164.924C104.941 163.85 105.586 157.622 108.592 155.474C107.805 154.687 106.058 152.253 105.371 148.816C104.512 144.521 92.055 118.319 82.6051 116.601C73.1552 114.883 57.2621 117.46 53.3963 122.185C49.5304 126.91 46.7384 132.709 44.3759 135.071C42.4859 136.961 40.1521 143.304 39.2214 146.239C41.0633 147.668 44.586 150.849 43.9411 152.138C43.1349 153.751 42.2212 154.503 42.7587 155.309C43.2961 156.116 49.3156 158.749 48.8856 159.878C48.4556 161.006 39.2214 167.127 37.5106 190.295C36.4015 205.313 36.1374 213.957 36.1374 221.868C36.1374 238.131 41.7772 237.038 42.7587 238.68C45.8427 243.838 46.7658 243.438 53.3963 246.498C59.6106 249.366 70.006 250.465 73.0442 252.403C75.4747 253.954 81.8063 253.049 84.6684 252.403C84.6684 252.403 129.157 233.255 130.292 224.173C131.427 215.092 105.371 209.466 105.371 209.466L101.071 178.816L95.6335 169.005V167.127C99.0206 166.303 102.128 165.413 103.008 164.924Z" fill="#F3E6E9"/>
<path d="M71.6518 166.427C75.3745 167.287 83.3782 169.005 85.6119 169.005C87.1324 169.005 91.583 168.113 95.6335 167.127M95.6335 167.127C99.0206 166.303 102.128 165.413 103.008 164.924C104.941 163.85 105.586 157.622 108.592 155.474C107.805 154.687 106.058 152.253 105.371 148.816C104.512 144.521 92.055 118.319 82.6051 116.601C73.1552 114.883 57.2621 117.46 53.3963 122.185C49.5304 126.91 46.7384 132.709 44.3759 135.071C42.4859 136.961 40.1521 143.304 39.2214 146.239C41.0633 147.668 44.586 150.849 43.9411 152.138C43.1349 153.751 42.2212 154.503 42.7587 155.309C43.2961 156.116 49.3156 158.749 48.8856 159.878C48.4556 161.006 39.2214 167.127 37.5106 190.295C36.4015 205.313 36.1374 213.957 36.1374 221.868C36.1374 238.131 41.7772 237.038 42.7587 238.68C45.8427 243.838 46.7658 243.438 53.3963 246.498C59.6106 249.366 70.006 250.465 73.0442 252.403C75.4747 253.954 81.8063 253.049 84.6683 252.403C84.6683 252.403 129.157 233.255 130.292 224.173C131.427 215.092 105.371 209.466 105.371 209.466L101.071 178.816L95.6335 169.005V167.127Z" stroke="black" stroke-width="1.56335" stroke-linejoin="round"/>
<path d="M85.1829 121.97C85.1829 118.185 100.959 112.021 104.382 114.51C107.804 117.621 106.921 139.656 99.1429 138.722C91.3647 137.789 85.1829 129.266 85.1829 121.97Z" fill="#FFE4C9" stroke="black" stroke-width="1.56335" stroke-linejoin="round"/>
<path d="M53.7764 144.481C54.5674 142.536 60.505 141.968 63.375 141.927L62.8395 147.859L56.7425 158.776C56.001 157.965 54.3037 155.884 53.4468 154.038C52.3758 151.731 52.7877 146.911 53.7764 144.481Z" fill="#F3E6E9"/>
<path d="M16.5095 254.731C22.3098 241.548 45.6714 232.041 54.24 230.009L62.8134 242.207C58.9135 246.766 50.224 256.312 46.6647 258.026C42.2156 260.168 39.2495 272.033 37.1073 274.999C34.9651 277.965 26.2317 287.522 21.1234 286.204C16.0151 284.886 9.25905 271.209 16.5095 254.731Z" fill="#F3E6E9"/>
<path d="M54.24 230.009C45.6714 232.041 22.3098 241.548 16.5095 254.731C9.25905 271.209 16.0151 284.886 21.1234 286.204C26.2317 287.522 34.9651 277.965 37.1073 274.999C39.2495 272.033 42.2156 260.168 46.6647 258.026C50.224 256.312 58.9135 246.766 62.8134 242.207" stroke="black" stroke-width="1.56335" stroke-linejoin="round"/>
<path fill-rule="evenodd" clip-rule="evenodd" d="M46.9754 257.864C46.8676 257.924 46.7637 257.978 46.6639 258.026C43.7227 259.443 41.4296 265.107 39.5942 269.642C39.3295 270.296 39.0743 270.926 38.828 271.517C36.7131 264.867 32.6553 256.211 29.1972 252.753C27.0075 250.564 23.0281 250.119 18.957 250.449C21.6711 246.625 25.4438 243.4 29.5112 240.759C33.6512 241.154 37.4096 241.812 39.0842 242.866C41.3397 244.287 44.4202 251.12 46.9754 257.864Z" fill="#FFE4C9"/>
<path d="M46.9754 257.864L47.3564 258.547C47.6947 258.358 47.8436 257.949 47.7063 257.587L46.9754 257.864ZM46.6639 258.026L47.003 258.731H47.003L46.6639 258.026ZM39.5942 269.642L38.8696 269.348V269.348L39.5942 269.642ZM38.828 271.517L38.0831 271.754C38.1825 272.066 38.4664 272.284 38.794 272.298C39.1217 272.312 39.4234 272.12 39.5495 271.818L38.828 271.517ZM29.1972 252.753L28.6445 253.306L29.1972 252.753ZM18.957 250.449L18.3196 249.996C18.1438 250.244 18.1274 250.571 18.2776 250.835C18.4278 251.099 18.7173 251.252 19.0201 251.228L18.957 250.449ZM29.5112 240.759L29.5856 239.98C29.4098 239.964 29.2335 240.007 29.0854 240.103L29.5112 240.759ZM39.0842 242.866L38.6677 243.528V243.528L39.0842 242.866ZM46.5944 257.181C46.4986 257.235 46.4087 257.282 46.3248 257.322L47.003 258.731C47.1188 258.675 47.2367 258.613 47.3564 258.547L46.5944 257.181ZM46.3248 257.322C44.6086 258.148 43.2001 260.128 42.0271 262.292C40.832 264.498 39.7836 267.09 38.8696 269.348L40.3188 269.935C41.2401 267.659 42.256 265.152 43.4016 263.037C44.5693 260.882 45.778 259.321 47.003 258.731L46.3248 257.322ZM38.8696 269.348C38.6046 270.003 38.3509 270.63 38.1065 271.216L39.5495 271.818C39.7976 271.222 40.0544 270.588 40.3188 269.935L38.8696 269.348ZM39.5729 271.28C38.503 267.916 36.9445 264.052 35.2157 260.589C33.4964 257.145 31.5719 254.023 29.7499 252.201L28.6445 253.306C30.2806 254.942 32.114 257.876 33.8169 261.287C35.5102 264.679 37.0381 268.468 38.0831 271.754L39.5729 271.28ZM29.7499 252.201C28.5062 250.957 26.7976 250.25 24.931 249.889C23.0605 249.527 20.9716 249.501 18.8939 249.67L19.0201 251.228C21.0135 251.066 22.9499 251.098 24.6342 251.424C26.3225 251.75 27.6985 252.36 28.6445 253.306L29.7499 252.201ZM19.5945 250.901C22.2339 247.183 25.9223 244.022 29.937 241.414L29.0854 240.103C24.9653 242.779 21.1084 246.067 18.3196 249.996L19.5945 250.901ZM29.4369 241.537C31.4918 241.733 33.4355 241.993 35.0634 242.331C36.7157 242.674 37.9562 243.08 38.6677 243.528L39.5006 242.205C38.5376 241.599 37.0616 241.149 35.381 240.8C33.6762 240.446 31.6707 240.18 29.5856 239.98L29.4369 241.537ZM38.6677 243.528C39.0905 243.794 39.6319 244.376 40.2639 245.301C40.8828 246.207 41.5416 247.372 42.219 248.72C43.5731 251.414 44.9711 254.78 46.2444 258.141L47.7063 257.587C46.4245 254.204 45.0047 250.781 43.6158 248.018C42.9218 246.637 42.2278 245.405 41.5549 244.42C40.895 243.453 40.2056 242.649 39.5006 242.205L38.6677 243.528Z" fill="black"/>
<path d="M163.631 204.276C166.555 206.68 181.95 197.235 182.201 193.01C175.115 187.655 168.953 175.616 164.734 182.217C160.515 188.818 157.996 199.643 163.631 204.276Z" fill="#B9F4F4" stroke="black" stroke-width="1.56335" stroke-linejoin="round"/>
<path d="M212.893 241.489C214.825 240.415 215.47 234.186 218.477 232.039C217.689 231.251 215.942 228.817 215.255 225.381C214.396 221.085 201.939 194.883 192.489 193.165C183.039 191.447 167.146 194.024 163.281 198.749C159.415 203.474 156.623 209.273 154.26 211.635C152.37 213.525 150.036 219.868 149.106 222.804C150.948 224.233 154.47 227.413 153.825 228.703C153.019 230.315 152.106 231.068 152.643 231.874C153.18 232.68 159.2 235.313 158.77 236.442C158.34 237.571 149.106 243.692 147.395 266.859C146.286 281.877 144.629 285.612 143.142 289.862C137.769 305.212 143.94 308.983 144.921 310.625C148.005 315.782 164.46 306.593 171.616 305.137C172.67 304.923 175.972 316.102 187.75 316.102C199.529 316.102 202.656 306.888 205.518 306.243C205.518 306.243 218.477 293.793 218.477 279.538C218.477 265.282 210.956 255.38 210.956 255.38L205.518 245.569V243.692C208.905 242.867 212.012 241.978 212.893 241.489Z" fill="#F3E6E9"/>
<path d="M181.536 242.992C185.259 243.851 193.262 245.569 195.496 245.569C197.017 245.569 201.467 244.677 205.518 243.692M205.518 243.692C208.905 242.867 212.012 241.978 212.893 241.489C214.825 240.415 215.47 234.186 218.477 232.039C217.689 231.251 215.942 228.817 215.255 225.381C214.396 221.085 201.939 194.883 192.489 193.165C183.039 191.447 167.146 194.024 163.281 198.749C159.415 203.474 156.623 209.273 154.26 211.635C152.37 213.525 150.036 219.868 149.106 222.804C150.948 224.233 154.47 227.413 153.825 228.703C153.019 230.315 152.106 231.068 152.643 231.874C153.18 232.68 159.2 235.313 158.77 236.442C158.34 237.571 149.106 243.692 147.395 266.859C146.286 281.877 144.629 285.612 143.142 289.862C137.769 305.212 143.94 308.983 144.921 310.625C148.005 315.782 164.46 306.593 171.616 305.137C172.67 304.923 175.972 316.102 187.75 316.102C199.529 316.102 202.656 306.888 205.518 306.243C205.518 306.243 218.477 293.793 218.477 279.538C218.477 265.282 210.956 255.38 210.956 255.38L205.518 245.569V243.692Z" stroke="black" stroke-width="1.56335" stroke-linejoin="round"/>
<path d="M207.051 250.129C210.841 253.425 215.076 260.659 215.867 267.514C216.856 276.082 215.373 279.708 211.912 282.179C208.452 284.651 198.071 287.782 194.446 284.981C190.82 282.179 189.172 273.446 186.866 270.974C184.559 268.502 184.311 269.244 184.311 267.514C184.586 266.36 185.053 263.625 184.723 261.911C184.311 259.769 187.277 256.885 192.139 256.885C193.347 256.885 194.403 256.911 195.371 256.996C198.295 257.253 200.413 258.055 203.509 260.346C206.804 262.784 208.782 265.536 209.358 266.607" stroke="black" stroke-width="1.56335" stroke-linejoin="round"/>
<path d="M195.068 198.535C195.068 194.75 210.844 188.585 214.267 191.074C217.689 194.185 216.806 216.22 209.028 215.287C201.25 214.353 195.068 205.83 195.068 198.535Z" fill="#B9F4F4" stroke="black" stroke-width="1.56335" stroke-linejoin="round"/>
<path d="M181.745 235.134C183.517 236.864 188.584 237.565 190.726 236.617C192.868 235.67 193.469 234.73 194.557 233.116C195.916 231.097 194.681 220.88 189.325 215.154C183.97 209.428 181.168 210.911 177.749 211.405C174.33 211.9 171.446 207.492 166.214 208.563C160.983 209.634 153.403 220.963 156.41 226.277C159.417 231.591 164.855 218.367 170.746 217.461C176.637 216.555 179.974 233.404 181.745 235.134Z" fill="#B9F4F4" stroke="black" stroke-width="1.56335" stroke-linejoin="round"/>
<path d="M163.661 221.045C164.452 219.101 170.39 218.532 173.26 218.491L172.724 224.423L166.627 235.34C165.886 234.53 164.188 232.448 163.332 230.602C162.261 228.296 162.672 223.476 163.661 221.045Z" fill="#F3E6E9"/>
<path d="M173.26 218.491C170.39 218.532 164.452 219.101 163.661 221.045C162.672 223.476 162.261 228.296 163.332 230.602C164.188 232.448 165.886 234.53 166.627 235.34" stroke="black" stroke-width="1.56335" stroke-linejoin="round"/>
<path d="M167.82 232.91C169.303 233.692 172.64 228.667 172.352 227.802C172.121 227.076 168.52 226.346 166.749 226.071C166.021 226.648 164.417 227.076 164.483 227.802C164.566 228.708 166.337 232.127 167.82 232.91Z" fill="#B9F4F4" stroke="black" stroke-width="1.56335" stroke-linejoin="round"/>
<path d="M185.412 220.757L182.199 217.09M166.998 213.753L162.755 215.195" stroke="black" stroke-width="1.56335" stroke-linejoin="round"/>
<path d="M165.239 220.24C165.813 219.549 170.002 221.122 170.331 222.162C170.566 223.316 167.047 227.19 165.583 225.689C164.12 224.188 164.135 221.573 165.239 220.24Z" fill="#B9F4F4" stroke="black" stroke-width="1.56335" stroke-linejoin="round"/>
<path d="M294.939 172.643C292.016 175.047 276.621 165.602 276.37 161.377C283.455 156.022 289.618 143.983 293.837 150.584C298.056 157.185 300.575 168.01 294.939 172.643Z" fill="#FFC5C5" stroke="black" stroke-width="1.56335" stroke-linejoin="round"/>
<path d="M245.677 209.856C243.744 208.782 243.1 202.554 240.093 200.406C240.881 199.619 242.628 197.185 243.315 193.748C244.174 189.453 256.631 163.251 266.08 161.533C275.53 159.814 291.423 162.392 295.289 167.117C299.155 171.842 301.947 177.64 304.31 180.003C306.2 181.893 308.533 188.236 309.464 191.171C307.622 192.6 304.1 195.78 304.744 197.07C305.551 198.683 306.464 199.435 305.927 200.241C305.389 201.047 299.37 203.681 299.8 204.81C300.23 205.938 309.464 212.059 311.175 235.226C312.284 250.245 312.548 258.889 312.548 266.8C312.548 283.063 306.908 281.97 305.927 283.612C302.843 288.77 301.92 288.369 295.289 291.43C289.075 294.298 278.68 295.397 275.641 297.335C273.211 298.885 266.879 297.981 264.017 297.335C264.017 297.335 219.529 278.186 218.393 269.105C217.258 260.024 243.315 254.397 243.315 254.397L247.614 223.748L253.052 213.937V212.059C249.665 211.235 246.558 210.345 245.677 209.856Z" fill="#F3E6E9"/>
<path d="M277.034 211.359C273.311 212.218 265.307 213.937 263.074 213.937C261.553 213.937 257.103 213.045 253.052 212.059M253.052 212.059C249.665 211.235 246.558 210.345 245.677 209.856C243.744 208.782 243.1 202.554 240.093 200.406C240.881 199.619 242.628 197.185 243.315 193.748C244.174 189.453 256.631 163.251 266.08 161.533C275.53 159.814 291.423 162.392 295.289 167.117C299.155 171.842 301.947 177.64 304.31 180.003C306.2 181.893 308.533 188.236 309.464 191.171C307.622 192.6 304.1 195.78 304.744 197.07C305.551 198.683 306.464 199.435 305.927 200.241C305.389 201.047 299.37 203.681 299.8 204.81C300.23 205.938 309.464 212.059 311.175 235.226C312.284 250.245 312.548 258.889 312.548 266.8C312.548 283.063 306.908 281.97 305.927 283.612C302.843 288.77 301.92 288.369 295.289 291.43C289.075 294.298 278.68 295.397 275.641 297.335C273.211 298.885 266.879 297.981 264.017 297.335C264.017 297.335 219.529 278.186 218.393 269.105C217.258 260.024 243.315 254.397 243.315 254.397L247.614 223.748L253.052 213.937V212.059Z" stroke="black" stroke-width="1.56335" stroke-linejoin="round"/>
<path d="M263.503 166.902C263.503 163.117 247.726 156.953 244.304 159.442C240.881 162.553 241.764 184.587 249.543 183.654C257.321 182.721 263.503 174.198 263.503 166.902Z" fill="#FFC5C5" stroke="black" stroke-width="1.56335" stroke-linejoin="round"/>
<path d="M294.909 189.413C294.118 187.468 288.181 186.9 285.311 186.858L285.846 192.791L291.943 203.707C292.685 202.897 294.382 200.815 295.239 198.97C296.31 196.663 295.898 191.843 294.909 189.413Z" fill="#F3E6E9"/>
</g>
<defs>
<clipPath id="clip0_1887_7670">
<rect width="300" height="250" fill="white" transform="translate(0.5)"/>
</clipPath>
</defs>
</svg>
